%TF.GenerationSoftware,KiCad,Pcbnew,(6.0.4)*%
%TF.CreationDate,2023-03-10T14:52:47-05:00*%
%TF.ProjectId,cc_pcbRedo,63635f70-6362-4526-9564-6f2e6b696361,rev?*%
%TF.SameCoordinates,Original*%
%TF.FileFunction,Paste,Top*%
%TF.FilePolarity,Positive*%
%FSLAX46Y46*%
G04 Gerber Fmt 4.6, Leading zero omitted, Abs format (unit mm)*
G04 Created by KiCad (PCBNEW (6.0.4)) date 2023-03-10 14:52:47*
%MOMM*%
%LPD*%
G01*
G04 APERTURE LIST*
G04 Aperture macros list*
%AMRoundRect*
0 Rectangle with rounded corners*
0 $1 Rounding radius*
0 $2 $3 $4 $5 $6 $7 $8 $9 X,Y pos of 4 corners*
0 Add a 4 corners polygon primitive as box body*
4,1,4,$2,$3,$4,$5,$6,$7,$8,$9,$2,$3,0*
0 Add four circle primitives for the rounded corners*
1,1,$1+$1,$2,$3*
1,1,$1+$1,$4,$5*
1,1,$1+$1,$6,$7*
1,1,$1+$1,$8,$9*
0 Add four rect primitives between the rounded corners*
20,1,$1+$1,$2,$3,$4,$5,0*
20,1,$1+$1,$4,$5,$6,$7,0*
20,1,$1+$1,$6,$7,$8,$9,0*
20,1,$1+$1,$8,$9,$2,$3,0*%
G04 Aperture macros list end*
%ADD10RoundRect,0.250000X0.350000X0.450000X-0.350000X0.450000X-0.350000X-0.450000X0.350000X-0.450000X0*%
%ADD11RoundRect,0.250000X-0.450000X0.350000X-0.450000X-0.350000X0.450000X-0.350000X0.450000X0.350000X0*%
%ADD12RoundRect,0.250000X-0.337500X-0.475000X0.337500X-0.475000X0.337500X0.475000X-0.337500X0.475000X0*%
%ADD13RoundRect,0.250000X0.337500X0.475000X-0.337500X0.475000X-0.337500X-0.475000X0.337500X-0.475000X0*%
%ADD14RoundRect,0.250000X-0.325000X-0.450000X0.325000X-0.450000X0.325000X0.450000X-0.325000X0.450000X0*%
%ADD15RoundRect,0.250000X-0.350000X-0.450000X0.350000X-0.450000X0.350000X0.450000X-0.350000X0.450000X0*%
%ADD16RoundRect,0.075000X0.441942X0.548008X-0.548008X-0.441942X-0.441942X-0.548008X0.548008X0.441942X0*%
%ADD17RoundRect,0.075000X-0.441942X0.548008X-0.548008X0.441942X0.441942X-0.548008X0.548008X-0.441942X0*%
%ADD18RoundRect,0.250000X-0.450000X0.325000X-0.450000X-0.325000X0.450000X-0.325000X0.450000X0.325000X0*%
%ADD19R,0.700000X0.340000*%
%ADD20RoundRect,0.250000X0.450000X-0.350000X0.450000X0.350000X-0.450000X0.350000X-0.450000X-0.350000X0*%
%ADD21R,1.200000X0.700000*%
%ADD22R,0.800000X1.000000*%
%ADD23R,1.900000X1.300000*%
%ADD24R,1.200000X1.000000*%
%ADD25R,2.800000X1.000000*%
%ADD26R,0.600000X0.450000*%
%ADD27R,0.700000X0.450000*%
%ADD28R,1.550000X1.300000*%
G04 APERTURE END LIST*
D10*
%TO.C,R18*%
X106359200Y-73329800D03*
X104359200Y-73329800D03*
%TD*%
D11*
%TO.C,R7*%
X100330000Y-48733200D03*
X100330000Y-50733200D03*
%TD*%
D12*
%TO.C,C11*%
X174982493Y-110744000D03*
X177057493Y-110744000D03*
%TD*%
D13*
%TO.C,C8*%
X123507512Y-60330004D03*
X121432512Y-60330004D03*
%TD*%
D14*
%TO.C,D2*%
X154381192Y-98552000D03*
X156431192Y-98552000D03*
%TD*%
D15*
%TO.C,R24*%
X179076602Y-101219000D03*
X181076602Y-101219000D03*
%TD*%
D11*
%TO.C,R9*%
X105410000Y-48606200D03*
X105410000Y-50606200D03*
%TD*%
D16*
%TO.C,U6*%
X129032842Y-75159443D03*
X128679289Y-74805890D03*
X128325736Y-74452337D03*
X127972182Y-74098783D03*
X127618629Y-73745230D03*
X127265075Y-73391676D03*
X126911522Y-73038123D03*
X126557969Y-72684570D03*
X126204415Y-72331016D03*
X125850862Y-71977463D03*
X125497309Y-71623910D03*
X125143755Y-71270356D03*
X124790202Y-70916803D03*
X124436648Y-70563249D03*
X124083095Y-70209696D03*
X123729542Y-69856143D03*
D17*
X121007180Y-69856143D03*
X120653627Y-70209696D03*
X120300074Y-70563249D03*
X119946520Y-70916803D03*
X119592967Y-71270356D03*
X119239413Y-71623910D03*
X118885860Y-71977463D03*
X118532307Y-72331016D03*
X118178753Y-72684570D03*
X117825200Y-73038123D03*
X117471647Y-73391676D03*
X117118093Y-73745230D03*
X116764540Y-74098783D03*
X116410986Y-74452337D03*
X116057433Y-74805890D03*
X115703880Y-75159443D03*
D16*
X115703880Y-77881805D03*
X116057433Y-78235358D03*
X116410986Y-78588911D03*
X116764540Y-78942465D03*
X117118093Y-79296018D03*
X117471647Y-79649572D03*
X117825200Y-80003125D03*
X118178753Y-80356678D03*
X118532307Y-80710232D03*
X118885860Y-81063785D03*
X119239413Y-81417338D03*
X119592967Y-81770892D03*
X119946520Y-82124445D03*
X120300074Y-82477999D03*
X120653627Y-82831552D03*
X121007180Y-83185105D03*
D17*
X123729542Y-83185105D03*
X124083095Y-82831552D03*
X124436648Y-82477999D03*
X124790202Y-82124445D03*
X125143755Y-81770892D03*
X125497309Y-81417338D03*
X125850862Y-81063785D03*
X126204415Y-80710232D03*
X126557969Y-80356678D03*
X126911522Y-80003125D03*
X127265075Y-79649572D03*
X127618629Y-79296018D03*
X127972182Y-78942465D03*
X128325736Y-78588911D03*
X128679289Y-78235358D03*
X129032842Y-77881805D03*
%TD*%
D11*
%TO.C,R10*%
X108026200Y-48580800D03*
X108026200Y-50580800D03*
%TD*%
%TO.C,R6*%
X97840800Y-48758600D03*
X97840800Y-50758600D03*
%TD*%
%TO.C,R11*%
X110515400Y-48606200D03*
X110515400Y-50606200D03*
%TD*%
D15*
%TO.C,R4*%
X147031200Y-96139000D03*
X149031200Y-96139000D03*
%TD*%
D11*
%TO.C,R29*%
X184409994Y-76710005D03*
X184409994Y-78710005D03*
%TD*%
%TO.C,R8*%
X103022400Y-48682400D03*
X103022400Y-50682400D03*
%TD*%
D10*
%TO.C,R15*%
X106202406Y-56134000D03*
X104202406Y-56134000D03*
%TD*%
D14*
%TO.C,D3*%
X148428600Y-98602800D03*
X150478600Y-98602800D03*
%TD*%
D10*
%TO.C,R25*%
X144637000Y-80416400D03*
X142637000Y-80416400D03*
%TD*%
D18*
%TO.C,L2*%
X172500011Y-106995002D03*
X172500011Y-109045002D03*
%TD*%
D15*
%TO.C,R3*%
X153422602Y-96189800D03*
X155422602Y-96189800D03*
%TD*%
D10*
%TO.C,R16*%
X106211804Y-61544200D03*
X104211804Y-61544200D03*
%TD*%
D12*
%TO.C,C13*%
X173162507Y-103301800D03*
X175237507Y-103301800D03*
%TD*%
%TO.C,C14*%
X173162507Y-101117400D03*
X175237507Y-101117400D03*
%TD*%
D15*
%TO.C,R5*%
X121430007Y-62959996D03*
X123430007Y-62959996D03*
%TD*%
D19*
%TO.C,U8*%
X175830789Y-106256201D03*
X175830800Y-106756200D03*
X175830800Y-107256200D03*
X177330800Y-107256200D03*
X177330811Y-106756200D03*
X177330800Y-106256200D03*
%TD*%
D20*
%TO.C,R27*%
X140329996Y-77149987D03*
X140329996Y-75149987D03*
%TD*%
D10*
%TO.C,R17*%
X106333800Y-67995800D03*
X104333800Y-67995800D03*
%TD*%
D21*
%TO.C,J2*%
X95254594Y-86539603D03*
X95254594Y-85439603D03*
X95254594Y-84339603D03*
X95254594Y-83239603D03*
X95254594Y-82139603D03*
X95254594Y-81039603D03*
X95254594Y-79939603D03*
X95254594Y-78839603D03*
X95254594Y-77889603D03*
D22*
X84754594Y-76939603D03*
D23*
X80154594Y-90439603D03*
D24*
X90954594Y-76939603D03*
D25*
X80604594Y-76939603D03*
D24*
X95254594Y-88089603D03*
%TD*%
D15*
%TO.C,R1*%
X88433400Y-107873800D03*
X90433400Y-107873800D03*
%TD*%
%TO.C,R2*%
X160036000Y-96215200D03*
X162036000Y-96215200D03*
%TD*%
D11*
%TO.C,R13*%
X115671600Y-48606200D03*
X115671600Y-50606200D03*
%TD*%
D15*
%TO.C,R23*%
X183743598Y-101269800D03*
X185743598Y-101269800D03*
%TD*%
D11*
%TO.C,R12*%
X113157000Y-48580800D03*
X113157000Y-50580800D03*
%TD*%
D10*
%TO.C,R30*%
X90458800Y-105359200D03*
X88458800Y-105359200D03*
%TD*%
D12*
%TO.C,C12*%
X174984500Y-112750600D03*
X177059500Y-112750600D03*
%TD*%
D26*
%TO.C,D16*%
X166920200Y-110032800D03*
X169020200Y-110032800D03*
%TD*%
D27*
%TO.C,U10*%
X131410200Y-70927200D03*
X131410200Y-72227200D03*
X133410200Y-71577200D03*
%TD*%
D10*
%TO.C,R22*%
X156600400Y-75819000D03*
X154600400Y-75819000D03*
%TD*%
D14*
%TO.C,D1*%
X161103200Y-98552000D03*
X163153200Y-98552000D03*
%TD*%
D28*
%TO.C,SW1*%
X128795600Y-52436200D03*
X120835600Y-52436200D03*
X128795600Y-56936200D03*
X120835600Y-56936200D03*
%TD*%
D20*
%TO.C,R26*%
X183235600Y-110397800D03*
X183235600Y-108397800D03*
%TD*%
D15*
%TO.C,R21*%
X154600400Y-72059800D03*
X156600400Y-72059800D03*
%TD*%
D13*
%TO.C,C19*%
X135428900Y-67716400D03*
X133353900Y-67716400D03*
%TD*%
M02*
