%TF.GenerationSoftware,KiCad,Pcbnew,(6.0.4)*%
%TF.CreationDate,2023-03-10T14:52:47-05:00*%
%TF.ProjectId,cc_pcbRedo,63635f70-6362-4526-9564-6f2e6b696361,rev?*%
%TF.SameCoordinates,Original*%
%TF.FileFunction,Glue,Top*%
%TF.FilePolarity,Positive*%
%FSLAX46Y46*%
G04 Gerber Fmt 4.6, Leading zero omitted, Abs format (unit mm)*
G04 Created by KiCad (PCBNEW (6.0.4)) date 2023-03-10 14:52:47*
%MOMM*%
%LPD*%
G01*
G04 APERTURE LIST*
G04 APERTURE END LIST*
%TO.C,U2*%
G36*
X144217900Y-105071900D02*
G01*
X143818100Y-105071900D01*
X143818100Y-104071700D01*
X144217900Y-104071700D01*
X144217900Y-105071900D01*
G37*
G36*
X144217900Y-105071900D02*
G01*
X143818100Y-105071900D01*
X143818100Y-104071700D01*
X144217900Y-104071700D01*
X144217900Y-105071900D01*
G37*
G36*
X144217900Y-105071900D02*
G01*
X143818100Y-105071900D01*
X143818100Y-104071700D01*
X144217900Y-104071700D01*
X144217900Y-105071900D01*
G37*
G36*
X144217900Y-105071900D02*
G01*
X143818100Y-105071900D01*
X143818100Y-104071700D01*
X144217900Y-104071700D01*
X144217900Y-105071900D01*
G37*
G36*
X144217900Y-105071900D02*
G01*
X143818100Y-105071900D01*
X143818100Y-104071700D01*
X144217900Y-104071700D01*
X144217900Y-105071900D01*
G37*
G36*
X144217900Y-105071900D02*
G01*
X143818100Y-105071900D01*
X143818100Y-104071700D01*
X144217900Y-104071700D01*
X144217900Y-105071900D01*
G37*
G36*
X144217900Y-105071900D02*
G01*
X143818100Y-105071900D01*
X143818100Y-104071700D01*
X144217900Y-104071700D01*
X144217900Y-105071900D01*
G37*
G36*
X144217900Y-105071900D02*
G01*
X143818100Y-105071900D01*
X143818100Y-104071700D01*
X144217900Y-104071700D01*
X144217900Y-105071900D01*
G37*
G36*
X144217900Y-105071900D02*
G01*
X143818100Y-105071900D01*
X143818100Y-104071700D01*
X144217900Y-104071700D01*
X144217900Y-105071900D01*
G37*
G36*
X144217900Y-105071900D02*
G01*
X143818100Y-105071900D01*
X143818100Y-104071700D01*
X144217900Y-104071700D01*
X144217900Y-105071900D01*
G37*
G36*
X144217900Y-105071900D02*
G01*
X143818100Y-105071900D01*
X143818100Y-104071700D01*
X144217900Y-104071700D01*
X144217900Y-105071900D01*
G37*
G36*
X144217900Y-105071900D02*
G01*
X143818100Y-105071900D01*
X143818100Y-104071700D01*
X144217900Y-104071700D01*
X144217900Y-105071900D01*
G37*
%TD*%
M02*
