%FSLAX45Y45*%
G04 Gerber Fmt 4.5, Leading zero omitted, Abs format (unit mm)*
G04 Created by KiCad (PCBNEW (6.0.4)) date 2023-03-10 14:52:50*
%MOMM*%
%LPD*%
G01*
G04 APERTURE LIST*
%TA.AperFunction,Profile*%
%ADD10C,0.100000*%
%TD*%
%ADD11C,0.200000*%
%ADD12C,0.038100*%
%ADD13C,0.040000*%
%ADD14C,0.076200*%
%ADD15C,0.077000*%
%ADD16C,0.080000*%
%ADD17C,0.090000*%
%ADD18C,0.100000*%
%ADD19C,0.101600*%
%ADD20C,0.104800*%
%ADD21C,0.120000*%
%ADD22C,0.150000*%
%ADD23C,0.180000*%
%ADD24C,0.254000*%
G04 APERTURE END LIST*
D10*
X20967000Y-13794000D02*
X8047345Y-13794000D01*
X21800737Y-4474263D02*
G75*
G03*
X20961737Y-3635263I-838997J3D01*
G01*
X21800737Y-4474263D02*
X21804000Y-12957000D01*
X7198347Y-12959250D02*
G75*
G03*
X8047345Y-13794000I841998J7250D01*
G01*
X8039000Y-3634000D02*
X20961737Y-3635263D01*
X20967000Y-13794000D02*
G75*
G03*
X21804000Y-12957000I0J837000D01*
G01*
X8039000Y-3634000D02*
G75*
G03*
X7200000Y-4473000I0J-839000D01*
G01*
X7198347Y-12959250D02*
X7200000Y-4473000D01*
D11*
D12*
X8566150Y-7288530D02*
X8604250Y-7326630D01*
X8604250Y-7288530D02*
X8566150Y-7326630D01*
X8792210Y-7105650D02*
X8830310Y-7143750D01*
X8830310Y-7105650D02*
X8792210Y-7143750D01*
X8926830Y-6861810D02*
X8964930Y-6899910D01*
X8964930Y-6861810D02*
X8926830Y-6899910D01*
X9193530Y-10758170D02*
X9231630Y-10796270D01*
X9231630Y-10758170D02*
X9193530Y-10796270D01*
X9328150Y-10514330D02*
X9366250Y-10552430D01*
X9366250Y-10514330D02*
X9328150Y-10552430D01*
X9348470Y-10123170D02*
X9386570Y-10161270D01*
X9386570Y-10123170D02*
X9348470Y-10161270D01*
X9716770Y-5299710D02*
X9754870Y-5337810D01*
X9754870Y-5299710D02*
X9716770Y-5337810D01*
X9993630Y-8716010D02*
X10031730Y-8754110D01*
X10031730Y-8716010D02*
X9993630Y-8754110D01*
X10011410Y-5253990D02*
X10049510Y-5292090D01*
X10049510Y-5253990D02*
X10011410Y-5292090D01*
X10049510Y-10438130D02*
X10087610Y-10476230D01*
X10087610Y-10438130D02*
X10049510Y-10476230D01*
X10074910Y-8873490D02*
X10113010Y-8911590D01*
X10113010Y-8873490D02*
X10074910Y-8911590D01*
X10341610Y-8050530D02*
X10379710Y-8088630D01*
X10379710Y-8050530D02*
X10341610Y-8088630D01*
X10438130Y-9417050D02*
X10476230Y-9455150D01*
X10476230Y-9417050D02*
X10438130Y-9455150D01*
X10560050Y-9615170D02*
X10598150Y-9653270D01*
X10598150Y-9615170D02*
X10560050Y-9653270D01*
X10692130Y-9338310D02*
X10730230Y-9376410D01*
X10730230Y-9338310D02*
X10692130Y-9376410D01*
X10739490Y-6785610D02*
X10777590Y-6823710D01*
X10777590Y-6785610D02*
X10739490Y-6823710D01*
X10740390Y-6140450D02*
X10778490Y-6178550D01*
X10778490Y-6140450D02*
X10740390Y-6178550D01*
X10742930Y-5589270D02*
X10781030Y-5627370D01*
X10781030Y-5589270D02*
X10742930Y-5627370D01*
X10946130Y-9516110D02*
X10984230Y-9554210D01*
X10984230Y-9516110D02*
X10946130Y-9554210D01*
X11200130Y-9323070D02*
X11238230Y-9361170D01*
X11238230Y-9323070D02*
X11200130Y-9361170D01*
X11238230Y-7730490D02*
X11276330Y-7768590D01*
X11276330Y-7730490D02*
X11238230Y-7768590D01*
X11264866Y-8513710D02*
X11302966Y-8551810D01*
X11302966Y-8513710D02*
X11264866Y-8551810D01*
X11318938Y-7809230D02*
X11357038Y-7847330D01*
X11357038Y-7809230D02*
X11318938Y-7847330D01*
X11333110Y-7921486D02*
X11371210Y-7959586D01*
X11371210Y-7921486D02*
X11333110Y-7959586D01*
X11334750Y-8622030D02*
X11372850Y-8660130D01*
X11372850Y-8622030D02*
X11334750Y-8660130D01*
X11339830Y-7613650D02*
X11377930Y-7651750D01*
X11377930Y-7613650D02*
X11339830Y-7651750D01*
X11398250Y-10438130D02*
X11436350Y-10476230D01*
X11436350Y-10438130D02*
X11398250Y-10476230D01*
X11400789Y-6897370D02*
X11438889Y-6935470D01*
X11438889Y-6897370D02*
X11400789Y-6935470D01*
X11400790Y-6798310D02*
X11438890Y-6836410D01*
X11438890Y-6798310D02*
X11400790Y-6836410D01*
X11405870Y-7037070D02*
X11443970Y-7075170D01*
X11443970Y-7037070D02*
X11405870Y-7075170D01*
X11416030Y-8449310D02*
X11454130Y-8487410D01*
X11454130Y-8449310D02*
X11416030Y-8487410D01*
X11427950Y-7312950D02*
X11466050Y-7351050D01*
X11466050Y-7312950D02*
X11427950Y-7351050D01*
X11487150Y-6714490D02*
X11525250Y-6752590D01*
X11525250Y-6714490D02*
X11487150Y-6752590D01*
X11492373Y-6963319D02*
X11530473Y-7001419D01*
X11530473Y-6963319D02*
X11492373Y-7001419D01*
X11552306Y-7246932D02*
X11590406Y-7285032D01*
X11590406Y-7246932D02*
X11552306Y-7285032D01*
X11554639Y-6665407D02*
X11592739Y-6703507D01*
X11592739Y-6665407D02*
X11554639Y-6703507D01*
X11606919Y-8452239D02*
X11645019Y-8490339D01*
X11645019Y-8452239D02*
X11606919Y-8490339D01*
X11614150Y-5241290D02*
X11652250Y-5279390D01*
X11652250Y-5241290D02*
X11614150Y-5279390D01*
X11683440Y-5495290D02*
X11721540Y-5533390D01*
X11721540Y-5495290D02*
X11683440Y-5533390D01*
X11708466Y-8769349D02*
X11746566Y-8807449D01*
X11746566Y-8769349D02*
X11708466Y-8807449D01*
X11793628Y-6870292D02*
X11831728Y-6908392D01*
X11831728Y-6870292D02*
X11793628Y-6908392D01*
X11822430Y-6709410D02*
X11860530Y-6747510D01*
X11860530Y-6709410D02*
X11822430Y-6747510D01*
X11916323Y-6895615D02*
X11954423Y-6933715D01*
X11954423Y-6895615D02*
X11916323Y-6933715D01*
X11946006Y-8440732D02*
X11984106Y-8478832D01*
X11984106Y-8440732D02*
X11946006Y-8478832D01*
X11962130Y-9330690D02*
X12000230Y-9368790D01*
X12000230Y-9330690D02*
X11962130Y-9368790D01*
X12054745Y-7992745D02*
X12092845Y-8030845D01*
X12092845Y-7992745D02*
X12054745Y-8030845D01*
X12096950Y-8114950D02*
X12135050Y-8153050D01*
X12135050Y-8114950D02*
X12096950Y-8153050D01*
X12121678Y-7834737D02*
X12159778Y-7872837D01*
X12159778Y-7834737D02*
X12121678Y-7872837D01*
X12173734Y-7122971D02*
X12211834Y-7161071D01*
X12211834Y-7122971D02*
X12173734Y-7161071D01*
X12190546Y-7204710D02*
X12228646Y-7242810D01*
X12228646Y-7204710D02*
X12190546Y-7242810D01*
X12190546Y-7344410D02*
X12228646Y-7382510D01*
X12228646Y-7344410D02*
X12190546Y-7382510D01*
X12195810Y-10755630D02*
X12233910Y-10793730D01*
X12233910Y-10755630D02*
X12195810Y-10793730D01*
X12213590Y-8756650D02*
X12251690Y-8794750D01*
X12251690Y-8756650D02*
X12213590Y-8794750D01*
X12221210Y-10288270D02*
X12259310Y-10326370D01*
X12259310Y-10288270D02*
X12221210Y-10326370D01*
X12246756Y-7406090D02*
X12284856Y-7444190D01*
X12284856Y-7406090D02*
X12246756Y-7444190D01*
X12305764Y-7465098D02*
X12343864Y-7503198D01*
X12343864Y-7465098D02*
X12305764Y-7503198D01*
X12358370Y-8972550D02*
X12396470Y-9010650D01*
X12396470Y-8972550D02*
X12358370Y-9010650D01*
X12377806Y-6797352D02*
X12415906Y-6835452D01*
X12415906Y-6797352D02*
X12377806Y-6835452D01*
X12381458Y-7500232D02*
X12419558Y-7538332D01*
X12419558Y-7500232D02*
X12381458Y-7538332D01*
X12393930Y-8771890D02*
X12432030Y-8809990D01*
X12432030Y-8771890D02*
X12393930Y-8809990D01*
X12438950Y-7915950D02*
X12477050Y-7954050D01*
X12477050Y-7915950D02*
X12438950Y-7954050D01*
X12454890Y-8510270D02*
X12492990Y-8548370D01*
X12492990Y-8510270D02*
X12454890Y-8548370D01*
X12565531Y-6895813D02*
X12603631Y-6933913D01*
X12603631Y-6895813D02*
X12565531Y-6933913D01*
X12591166Y-7564432D02*
X12629266Y-7602532D01*
X12629266Y-7564432D02*
X12591166Y-7602532D01*
X12631274Y-6947212D02*
X12669374Y-6985312D01*
X12669374Y-6947212D02*
X12631274Y-6985312D01*
X12640310Y-7651750D02*
X12678410Y-7689850D01*
X12678410Y-7651750D02*
X12640310Y-7689850D01*
X12650470Y-11428730D02*
X12688570Y-11466830D01*
X12688570Y-11428730D02*
X12650470Y-11466830D01*
X12788866Y-9267190D02*
X12826966Y-9305290D01*
X12826966Y-9267190D02*
X12788866Y-9305290D01*
X12804526Y-7638092D02*
X12842626Y-7676192D01*
X12842626Y-7638092D02*
X12804526Y-7676192D01*
X12861290Y-6752590D02*
X12899390Y-6790690D01*
X12899390Y-6752590D02*
X12861290Y-6790690D01*
X12866370Y-8218170D02*
X12904470Y-8256270D01*
X12904470Y-8218170D02*
X12866370Y-8256270D01*
X12901930Y-7994650D02*
X12940030Y-8032750D01*
X12940030Y-7994650D02*
X12901930Y-8032750D01*
X12940030Y-7131019D02*
X12978130Y-7169119D01*
X12978130Y-7131019D02*
X12940030Y-7169119D01*
X12990830Y-10468610D02*
X13028930Y-10506710D01*
X13028930Y-10468610D02*
X12990830Y-10506710D01*
X13360786Y-7851452D02*
X13398886Y-7889552D01*
X13398886Y-7851452D02*
X13360786Y-7889552D01*
X13409930Y-6948170D02*
X13448030Y-6986270D01*
X13448030Y-6948170D02*
X13409930Y-6986270D01*
X13415581Y-7409878D02*
X13453681Y-7447978D01*
X13453681Y-7409878D02*
X13415581Y-7447978D01*
X13461741Y-7306310D02*
X13499841Y-7344410D01*
X13499841Y-7306310D02*
X13461741Y-7344410D01*
X13461741Y-7547610D02*
X13499841Y-7585710D01*
X13499841Y-7547610D02*
X13461741Y-7585710D01*
X13579950Y-10499950D02*
X13618050Y-10538050D01*
X13618050Y-10499950D02*
X13579950Y-10538050D01*
X14370950Y-10173950D02*
X14409050Y-10212050D01*
X14409050Y-10173950D02*
X14370950Y-10212050D01*
X14441950Y-7624950D02*
X14480050Y-7663050D01*
X14480050Y-7624950D02*
X14441950Y-7663050D01*
X14827250Y-10034270D02*
X14865350Y-10072370D01*
X14865350Y-10034270D02*
X14827250Y-10072370D01*
X17443450Y-11637010D02*
X17481550Y-11675110D01*
X17481550Y-11637010D02*
X17443450Y-11675110D01*
X17550950Y-10820950D02*
X17589050Y-10859050D01*
X17589050Y-10820950D02*
X17550950Y-10859050D01*
X17640950Y-10410950D02*
X17679050Y-10449050D01*
X17679050Y-10410950D02*
X17640950Y-10449050D01*
X17640950Y-10500950D02*
X17679050Y-10539050D01*
X17679050Y-10500950D02*
X17640950Y-10539050D01*
X17640950Y-10820950D02*
X17679050Y-10859050D01*
X17679050Y-10820950D02*
X17640950Y-10859050D01*
X17730950Y-10821421D02*
X17769050Y-10859521D01*
X17769050Y-10821421D02*
X17730950Y-10859521D01*
X18026030Y-10395870D02*
X18064130Y-10433970D01*
X18064130Y-10395870D02*
X18026030Y-10433970D01*
X18080990Y-10575290D02*
X18119090Y-10613390D01*
X18119090Y-10575290D02*
X18080990Y-10613390D01*
X18124950Y-8240950D02*
X18163050Y-8279050D01*
X18163050Y-8240950D02*
X18124950Y-8279050D01*
D13*
X11681140Y-4726940D02*
G75*
G03*
X11681140Y-4726940I-20000J0D01*
G01*
X16194720Y-12059920D02*
G75*
G03*
X16194720Y-12059920I-20000J0D01*
G01*
X16202340Y-12565380D02*
G75*
G03*
X16202340Y-12565380I-20000J0D01*
G01*
X16563020Y-10988040D02*
G75*
G03*
X16563020Y-10988040I-20000J0D01*
G01*
D14*
X16680180Y-7294880D02*
X16680180Y-7371080D01*
X16642080Y-7332980D02*
X16718280Y-7332980D01*
X17155160Y-9949180D02*
X17155160Y-10025380D01*
X17117060Y-9987280D02*
X17193260Y-9987280D01*
X17402000Y-11496900D02*
X17402000Y-11573100D01*
X17363900Y-11535000D02*
X17440100Y-11535000D01*
D15*
X14245384Y-5160564D02*
X14245384Y-5106116D01*
X14190936Y-5106116D01*
X14190936Y-5160564D01*
X14245384Y-5160564D01*
X14245384Y-5414564D02*
X14245384Y-5360116D01*
X14190936Y-5360116D01*
X14190936Y-5414564D01*
X14245384Y-5414564D01*
X14245384Y-5668564D02*
X14245384Y-5614116D01*
X14190936Y-5614116D01*
X14190936Y-5668564D01*
X14245384Y-5668564D01*
X14245384Y-5922564D02*
X14245384Y-5868116D01*
X14190936Y-5868116D01*
X14190936Y-5922564D01*
X14245384Y-5922564D01*
X14245384Y-6176564D02*
X14245384Y-6122116D01*
X14190936Y-6122116D01*
X14190936Y-6176564D01*
X14245384Y-6176564D01*
X14245384Y-6430564D02*
X14245384Y-6376116D01*
X14190936Y-6376116D01*
X14190936Y-6430564D01*
X14245384Y-6430564D01*
X14245384Y-6684564D02*
X14245384Y-6630116D01*
X14190936Y-6630116D01*
X14190936Y-6684564D01*
X14245384Y-6684564D01*
X15039384Y-5160564D02*
X15039384Y-5106116D01*
X14984936Y-5106116D01*
X14984936Y-5160564D01*
X15039384Y-5160564D01*
X15039384Y-5414564D02*
X15039384Y-5360116D01*
X14984936Y-5360116D01*
X14984936Y-5414564D01*
X15039384Y-5414564D01*
X15039384Y-5668564D02*
X15039384Y-5614116D01*
X14984936Y-5614116D01*
X14984936Y-5668564D01*
X15039384Y-5668564D01*
X15039384Y-5922564D02*
X15039384Y-5868116D01*
X14984936Y-5868116D01*
X14984936Y-5922564D01*
X15039384Y-5922564D01*
X15039384Y-6176564D02*
X15039384Y-6122116D01*
X14984936Y-6122116D01*
X14984936Y-6176564D01*
X15039384Y-6176564D01*
X15039384Y-6430564D02*
X15039384Y-6376116D01*
X14984936Y-6376116D01*
X14984936Y-6430564D01*
X15039384Y-6430564D01*
X15039384Y-6684564D02*
X15039384Y-6630116D01*
X14984936Y-6630116D01*
X14984936Y-6684564D01*
X15039384Y-6684564D01*
D16*
X8176680Y-6119190D02*
X8216680Y-6079190D01*
X8176680Y-6039190D01*
X8136680Y-6079190D01*
X8176680Y-6119190D01*
X8176680Y-6373190D02*
X8216680Y-6333190D01*
X8176680Y-6293190D01*
X8136680Y-6333190D01*
X8176680Y-6373190D01*
X8176680Y-6627190D02*
X8216680Y-6587190D01*
X8176680Y-6547190D01*
X8136680Y-6587190D01*
X8176680Y-6627190D01*
X8176680Y-6881190D02*
X8216680Y-6841190D01*
X8176680Y-6801190D01*
X8136680Y-6841190D01*
X8176680Y-6881190D01*
X8430680Y-6119190D02*
X8470680Y-6079190D01*
X8430680Y-6039190D01*
X8390680Y-6079190D01*
X8430680Y-6119190D01*
X8430680Y-6373190D02*
X8470680Y-6333190D01*
X8430680Y-6293190D01*
X8390680Y-6333190D01*
X8430680Y-6373190D01*
X8430680Y-6627190D02*
X8470680Y-6587190D01*
X8430680Y-6547190D01*
X8390680Y-6587190D01*
X8430680Y-6627190D01*
X8430680Y-6881190D02*
X8470680Y-6841190D01*
X8430680Y-6801190D01*
X8390680Y-6841190D01*
X8430680Y-6881190D01*
X14286499Y-7300359D02*
X14326499Y-7260359D01*
X14286499Y-7220359D01*
X14246499Y-7260359D01*
X14286499Y-7300359D01*
X14286499Y-7554359D02*
X14326499Y-7514359D01*
X14286499Y-7474359D01*
X14246499Y-7514359D01*
X14286499Y-7554359D01*
X14286499Y-7808359D02*
X14326499Y-7768359D01*
X14286499Y-7728359D01*
X14246499Y-7768359D01*
X14286499Y-7808359D01*
X15048499Y-7300359D02*
X15088499Y-7260359D01*
X15048499Y-7220359D01*
X15008499Y-7260359D01*
X15048499Y-7300359D01*
X15048499Y-7554359D02*
X15088499Y-7514359D01*
X15048499Y-7474359D01*
X15008499Y-7514359D01*
X15048499Y-7554359D01*
X15048499Y-7808359D02*
X15088499Y-7768359D01*
X15048499Y-7728359D01*
X15008499Y-7768359D01*
X15048499Y-7808359D01*
D17*
X9913840Y-6734260D02*
X10003840Y-6824260D01*
X10003840Y-6734260D02*
X9913840Y-6824260D01*
X10003840Y-6779260D02*
G75*
G03*
X10003840Y-6779260I-45000J0D01*
G01*
X9914340Y-6127200D02*
X10004340Y-6217200D01*
X10004340Y-6127200D02*
X9914340Y-6217200D01*
X10004340Y-6172200D02*
G75*
G03*
X10004340Y-6172200I-45000J0D01*
G01*
X9916380Y-5563320D02*
X10006380Y-5653320D01*
X10006380Y-5563320D02*
X9916380Y-5653320D01*
X10006380Y-5608320D02*
G75*
G03*
X10006380Y-5608320I-45000J0D01*
G01*
X9921460Y-7280360D02*
X10011460Y-7370360D01*
X10011460Y-7280360D02*
X9921460Y-7370360D01*
X10011460Y-7325360D02*
G75*
G03*
X10011460Y-7325360I-45000J0D01*
G01*
X10167840Y-6734260D02*
X10257840Y-6824260D01*
X10257840Y-6734260D02*
X10167840Y-6824260D01*
X10257840Y-6779260D02*
G75*
G03*
X10257840Y-6779260I-45000J0D01*
G01*
X10168340Y-6127200D02*
X10258340Y-6217200D01*
X10258340Y-6127200D02*
X10168340Y-6217200D01*
X10258340Y-6172200D02*
G75*
G03*
X10258340Y-6172200I-45000J0D01*
G01*
X10170380Y-5563320D02*
X10260380Y-5653320D01*
X10260380Y-5563320D02*
X10170380Y-5653320D01*
X10260380Y-5608320D02*
G75*
G03*
X10260380Y-5608320I-45000J0D01*
G01*
X10175460Y-7280360D02*
X10265460Y-7370360D01*
X10265460Y-7280360D02*
X10175460Y-7370360D01*
X10265460Y-7325360D02*
G75*
G03*
X10265460Y-7325360I-45000J0D01*
G01*
D18*
X12337580Y-4422940D02*
X12437580Y-4522940D01*
X12437580Y-4422940D02*
X12337580Y-4522940D01*
X12387580Y-4422940D02*
X12387580Y-4522940D01*
X12337580Y-4472940D02*
X12437580Y-4472940D01*
X12337580Y-4676940D02*
X12437580Y-4776940D01*
X12437580Y-4676940D02*
X12337580Y-4776940D01*
X12387580Y-4676940D02*
X12387580Y-4776940D01*
X12337580Y-4726940D02*
X12437580Y-4726940D01*
X12591580Y-4422940D02*
X12691580Y-4522940D01*
X12691580Y-4422940D02*
X12591580Y-4522940D01*
X12641580Y-4422940D02*
X12641580Y-4522940D01*
X12591580Y-4472940D02*
X12691580Y-4472940D01*
X12591580Y-4676940D02*
X12691580Y-4776940D01*
X12691580Y-4676940D02*
X12591580Y-4776940D01*
X12641580Y-4676940D02*
X12641580Y-4776940D01*
X12591580Y-4726940D02*
X12691580Y-4726940D01*
X12845580Y-4422940D02*
X12945580Y-4522940D01*
X12945580Y-4422940D02*
X12845580Y-4522940D01*
X12895580Y-4422940D02*
X12895580Y-4522940D01*
X12845580Y-4472940D02*
X12945580Y-4472940D01*
X12845580Y-4676940D02*
X12945580Y-4776940D01*
X12945580Y-4676940D02*
X12845580Y-4776940D01*
X12895580Y-4676940D02*
X12895580Y-4776940D01*
X12845580Y-4726940D02*
X12945580Y-4726940D01*
X13099580Y-4422940D02*
X13199580Y-4522940D01*
X13199580Y-4422940D02*
X13099580Y-4522940D01*
X13149580Y-4422940D02*
X13149580Y-4522940D01*
X13099580Y-4472940D02*
X13199580Y-4472940D01*
X13099580Y-4676940D02*
X13199580Y-4776940D01*
X13199580Y-4676940D02*
X13099580Y-4776940D01*
X13149580Y-4676940D02*
X13149580Y-4776940D01*
X13099580Y-4726940D02*
X13199580Y-4726940D01*
X13353580Y-4422940D02*
X13453580Y-4522940D01*
X13453580Y-4422940D02*
X13353580Y-4522940D01*
X13403580Y-4422940D02*
X13403580Y-4522940D01*
X13353580Y-4472940D02*
X13453580Y-4472940D01*
X13353580Y-4676940D02*
X13453580Y-4776940D01*
X13453580Y-4676940D02*
X13353580Y-4776940D01*
X13403580Y-4676940D02*
X13403580Y-4776940D01*
X13353580Y-4726940D02*
X13453580Y-4726940D01*
X16535659Y-9481581D02*
X16635659Y-9581581D01*
X16635659Y-9481581D02*
X16535659Y-9581581D01*
X16585659Y-9481581D02*
X16585659Y-9581581D01*
X16535659Y-9531581D02*
X16635659Y-9531581D01*
X16535659Y-9735581D02*
X16635659Y-9835581D01*
X16635659Y-9735581D02*
X16535659Y-9835581D01*
X16585659Y-9735581D02*
X16585659Y-9835581D01*
X16535659Y-9785581D02*
X16635659Y-9785581D01*
X16535659Y-9989581D02*
X16635659Y-10089581D01*
X16635659Y-9989581D02*
X16535659Y-10089581D01*
X16585659Y-9989581D02*
X16585659Y-10089581D01*
X16535659Y-10039581D02*
X16635659Y-10039581D01*
X16789659Y-9481581D02*
X16889659Y-9581581D01*
X16889659Y-9481581D02*
X16789659Y-9581581D01*
X16839659Y-9481581D02*
X16839659Y-9581581D01*
X16789659Y-9531581D02*
X16889659Y-9531581D01*
X16789659Y-9735581D02*
X16889659Y-9835581D01*
X16889659Y-9735581D02*
X16789659Y-9835581D01*
X16839659Y-9735581D02*
X16839659Y-9835581D01*
X16789659Y-9785581D02*
X16889659Y-9785581D01*
X16789659Y-9989581D02*
X16889659Y-10089581D01*
X16889659Y-9989581D02*
X16789659Y-10089581D01*
X16839659Y-9989581D02*
X16839659Y-10089581D01*
X16789659Y-10039581D02*
X16889659Y-10039581D01*
X17327980Y-8723160D02*
X17427980Y-8823160D01*
X17427980Y-8723160D02*
X17327980Y-8823160D01*
X17377980Y-8723160D02*
X17377980Y-8823160D01*
X17327980Y-8773160D02*
X17427980Y-8773160D01*
X18077980Y-8723160D02*
X18177980Y-8823160D01*
X18177980Y-8723160D02*
X18077980Y-8823160D01*
X18127980Y-8723160D02*
X18127980Y-8823160D01*
X18077980Y-8773160D02*
X18177980Y-8773160D01*
D19*
X8178800Y-9969500D02*
X8280400Y-10071100D01*
X8280400Y-9969500D02*
X8178800Y-10071100D01*
X8265521Y-10056221D02*
X8265521Y-9984379D01*
X8193679Y-9984379D01*
X8193679Y-10056221D01*
X8265521Y-10056221D01*
X8178800Y-10223500D02*
X8280400Y-10325100D01*
X8280400Y-10223500D02*
X8178800Y-10325100D01*
X8265521Y-10310221D02*
X8265521Y-10238379D01*
X8193679Y-10238379D01*
X8193679Y-10310221D01*
X8265521Y-10310221D01*
X8178800Y-10477500D02*
X8280400Y-10579100D01*
X8280400Y-10477500D02*
X8178800Y-10579100D01*
X8265521Y-10564221D02*
X8265521Y-10492379D01*
X8193679Y-10492379D01*
X8193679Y-10564221D01*
X8265521Y-10564221D01*
X8178800Y-10731500D02*
X8280400Y-10833100D01*
X8280400Y-10731500D02*
X8178800Y-10833100D01*
X8265521Y-10818221D02*
X8265521Y-10746379D01*
X8193679Y-10746379D01*
X8193679Y-10818221D01*
X8265521Y-10818221D01*
X9730740Y-4127500D02*
X9832340Y-4229100D01*
X9832340Y-4127500D02*
X9730740Y-4229100D01*
X9817461Y-4214221D02*
X9817461Y-4142379D01*
X9745619Y-4142379D01*
X9745619Y-4214221D01*
X9817461Y-4214221D01*
X9984740Y-4127500D02*
X10086340Y-4229100D01*
X10086340Y-4127500D02*
X9984740Y-4229100D01*
X10071461Y-4214221D02*
X10071461Y-4142379D01*
X9999619Y-4142379D01*
X9999619Y-4214221D01*
X10071461Y-4214221D01*
X10096500Y-12156440D02*
X10198100Y-12258040D01*
X10198100Y-12156440D02*
X10096500Y-12258040D01*
X10183221Y-12243161D02*
X10183221Y-12171319D01*
X10111379Y-12171319D01*
X10111379Y-12243161D01*
X10183221Y-12243161D01*
X10152716Y-9730244D02*
X10254316Y-9831844D01*
X10254316Y-9730244D02*
X10152716Y-9831844D01*
X10239438Y-9816965D02*
X10239438Y-9745123D01*
X10167595Y-9745123D01*
X10167595Y-9816965D01*
X10239438Y-9816965D01*
X10238740Y-4127500D02*
X10340340Y-4229100D01*
X10340340Y-4127500D02*
X10238740Y-4229100D01*
X10325461Y-4214221D02*
X10325461Y-4142379D01*
X10253619Y-4142379D01*
X10253619Y-4214221D01*
X10325461Y-4214221D01*
X10350500Y-12156440D02*
X10452100Y-12258040D01*
X10452100Y-12156440D02*
X10350500Y-12258040D01*
X10437221Y-12243161D02*
X10437221Y-12171319D01*
X10365379Y-12171319D01*
X10365379Y-12243161D01*
X10437221Y-12243161D01*
X10406716Y-9730244D02*
X10508316Y-9831844D01*
X10508316Y-9730244D02*
X10406716Y-9831844D01*
X10493438Y-9816965D02*
X10493438Y-9745123D01*
X10421595Y-9745123D01*
X10421595Y-9816965D01*
X10493438Y-9816965D01*
X10492740Y-4127500D02*
X10594340Y-4229100D01*
X10594340Y-4127500D02*
X10492740Y-4229100D01*
X10579461Y-4214221D02*
X10579461Y-4142379D01*
X10507619Y-4142379D01*
X10507619Y-4214221D01*
X10579461Y-4214221D01*
X10604500Y-12156440D02*
X10706100Y-12258040D01*
X10706100Y-12156440D02*
X10604500Y-12258040D01*
X10691221Y-12243161D02*
X10691221Y-12171319D01*
X10619379Y-12171319D01*
X10619379Y-12243161D01*
X10691221Y-12243161D01*
X10660716Y-9730244D02*
X10762316Y-9831844D01*
X10762316Y-9730244D02*
X10660716Y-9831844D01*
X10747438Y-9816965D02*
X10747438Y-9745123D01*
X10675595Y-9745123D01*
X10675595Y-9816965D01*
X10747438Y-9816965D01*
X10746740Y-4127500D02*
X10848340Y-4229100D01*
X10848340Y-4127500D02*
X10746740Y-4229100D01*
X10833461Y-4214221D02*
X10833461Y-4142379D01*
X10761619Y-4142379D01*
X10761619Y-4214221D01*
X10833461Y-4214221D01*
X10858500Y-12156440D02*
X10960100Y-12258040D01*
X10960100Y-12156440D02*
X10858500Y-12258040D01*
X10945221Y-12243161D02*
X10945221Y-12171319D01*
X10873379Y-12171319D01*
X10873379Y-12243161D01*
X10945221Y-12243161D01*
X10914716Y-9730244D02*
X11016316Y-9831844D01*
X11016316Y-9730244D02*
X10914716Y-9831844D01*
X11001438Y-9816965D02*
X11001438Y-9745123D01*
X10929595Y-9745123D01*
X10929595Y-9816965D01*
X11001438Y-9816965D01*
X11000740Y-4127500D02*
X11102340Y-4229100D01*
X11102340Y-4127500D02*
X11000740Y-4229100D01*
X11087461Y-4214221D02*
X11087461Y-4142379D01*
X11015619Y-4142379D01*
X11015619Y-4214221D01*
X11087461Y-4214221D01*
X11112500Y-12156440D02*
X11214100Y-12258040D01*
X11214100Y-12156440D02*
X11112500Y-12258040D01*
X11199221Y-12243161D02*
X11199221Y-12171319D01*
X11127379Y-12171319D01*
X11127379Y-12243161D01*
X11199221Y-12243161D01*
X11168716Y-9730244D02*
X11270316Y-9831844D01*
X11270316Y-9730244D02*
X11168716Y-9831844D01*
X11255438Y-9816965D02*
X11255438Y-9745123D01*
X11183595Y-9745123D01*
X11183595Y-9816965D01*
X11255438Y-9816965D01*
X11254740Y-4127500D02*
X11356340Y-4229100D01*
X11356340Y-4127500D02*
X11254740Y-4229100D01*
X11341461Y-4214221D02*
X11341461Y-4142379D01*
X11269619Y-4142379D01*
X11269619Y-4214221D01*
X11341461Y-4214221D01*
X11366500Y-12156440D02*
X11468100Y-12258040D01*
X11468100Y-12156440D02*
X11366500Y-12258040D01*
X11453221Y-12243161D02*
X11453221Y-12171319D01*
X11381379Y-12171319D01*
X11381379Y-12243161D01*
X11453221Y-12243161D01*
X11422716Y-9730244D02*
X11524316Y-9831844D01*
X11524316Y-9730244D02*
X11422716Y-9831844D01*
X11509438Y-9816965D02*
X11509438Y-9745123D01*
X11437595Y-9745123D01*
X11437595Y-9816965D01*
X11509438Y-9816965D01*
X11508740Y-4127500D02*
X11610340Y-4229100D01*
X11610340Y-4127500D02*
X11508740Y-4229100D01*
X11595461Y-4214221D02*
X11595461Y-4142379D01*
X11523619Y-4142379D01*
X11523619Y-4214221D01*
X11595461Y-4214221D01*
X11620500Y-12156440D02*
X11722100Y-12258040D01*
X11722100Y-12156440D02*
X11620500Y-12258040D01*
X11707221Y-12243161D02*
X11707221Y-12171319D01*
X11635379Y-12171319D01*
X11635379Y-12243161D01*
X11707221Y-12243161D01*
X11676716Y-9730244D02*
X11778316Y-9831844D01*
X11778316Y-9730244D02*
X11676716Y-9831844D01*
X11763438Y-9816965D02*
X11763438Y-9745123D01*
X11691595Y-9745123D01*
X11691595Y-9816965D01*
X11763438Y-9816965D01*
X11874500Y-12156440D02*
X11976100Y-12258040D01*
X11976100Y-12156440D02*
X11874500Y-12258040D01*
X11961221Y-12243161D02*
X11961221Y-12171319D01*
X11889379Y-12171319D01*
X11889379Y-12243161D01*
X11961221Y-12243161D01*
X11930716Y-9730244D02*
X12032316Y-9831844D01*
X12032316Y-9730244D02*
X11930716Y-9831844D01*
X12017438Y-9816965D02*
X12017438Y-9745123D01*
X11945595Y-9745123D01*
X11945595Y-9816965D01*
X12017438Y-9816965D01*
X12128500Y-12156440D02*
X12230100Y-12258040D01*
X12230100Y-12156440D02*
X12128500Y-12258040D01*
X12215221Y-12243161D02*
X12215221Y-12171319D01*
X12143379Y-12171319D01*
X12143379Y-12243161D01*
X12215221Y-12243161D01*
X12184716Y-9730244D02*
X12286316Y-9831844D01*
X12286316Y-9730244D02*
X12184716Y-9831844D01*
X12271438Y-9816965D02*
X12271438Y-9745123D01*
X12199595Y-9745123D01*
X12199595Y-9816965D01*
X12271438Y-9816965D01*
X12382500Y-12156440D02*
X12484100Y-12258040D01*
X12484100Y-12156440D02*
X12382500Y-12258040D01*
X12469221Y-12243161D02*
X12469221Y-12171319D01*
X12397379Y-12171319D01*
X12397379Y-12243161D01*
X12469221Y-12243161D01*
X12438716Y-9730244D02*
X12540316Y-9831844D01*
X12540316Y-9730244D02*
X12438716Y-9831844D01*
X12525438Y-9816965D02*
X12525438Y-9745123D01*
X12453595Y-9745123D01*
X12453595Y-9816965D01*
X12525438Y-9816965D01*
X12636500Y-12156440D02*
X12738100Y-12258040D01*
X12738100Y-12156440D02*
X12636500Y-12258040D01*
X12723221Y-12243161D02*
X12723221Y-12171319D01*
X12651379Y-12171319D01*
X12651379Y-12243161D01*
X12723221Y-12243161D01*
X12692716Y-9730244D02*
X12794316Y-9831844D01*
X12794316Y-9730244D02*
X12692716Y-9831844D01*
X12779438Y-9816965D02*
X12779438Y-9745123D01*
X12707595Y-9745123D01*
X12707595Y-9816965D01*
X12779438Y-9816965D01*
X12890500Y-12156440D02*
X12992100Y-12258040D01*
X12992100Y-12156440D02*
X12890500Y-12258040D01*
X12977221Y-12243161D02*
X12977221Y-12171319D01*
X12905379Y-12171319D01*
X12905379Y-12243161D01*
X12977221Y-12243161D01*
X12946716Y-9730244D02*
X13048316Y-9831844D01*
X13048316Y-9730244D02*
X12946716Y-9831844D01*
X13033438Y-9816965D02*
X13033438Y-9745123D01*
X12961595Y-9745123D01*
X12961595Y-9816965D01*
X13033438Y-9816965D01*
X13144500Y-12156440D02*
X13246100Y-12258040D01*
X13246100Y-12156440D02*
X13144500Y-12258040D01*
X13231221Y-12243161D02*
X13231221Y-12171319D01*
X13159379Y-12171319D01*
X13159379Y-12243161D01*
X13231221Y-12243161D01*
X13200716Y-9730244D02*
X13302316Y-9831844D01*
X13302316Y-9730244D02*
X13200716Y-9831844D01*
X13287438Y-9816965D02*
X13287438Y-9745123D01*
X13215595Y-9745123D01*
X13215595Y-9816965D01*
X13287438Y-9816965D01*
X13398500Y-12156440D02*
X13500100Y-12258040D01*
X13500100Y-12156440D02*
X13398500Y-12258040D01*
X13485221Y-12243161D02*
X13485221Y-12171319D01*
X13413379Y-12171319D01*
X13413379Y-12243161D01*
X13485221Y-12243161D01*
X13454716Y-9730244D02*
X13556316Y-9831844D01*
X13556316Y-9730244D02*
X13454716Y-9831844D01*
X13541438Y-9816965D02*
X13541438Y-9745123D01*
X13469595Y-9745123D01*
X13469595Y-9816965D01*
X13541438Y-9816965D01*
X13708716Y-9730244D02*
X13810316Y-9831844D01*
X13810316Y-9730244D02*
X13708716Y-9831844D01*
X13795438Y-9816965D02*
X13795438Y-9745123D01*
X13723595Y-9745123D01*
X13723595Y-9816965D01*
X13795438Y-9816965D01*
X15430500Y-10789920D02*
X15532100Y-10891520D01*
X15532100Y-10789920D02*
X15430500Y-10891520D01*
X15517221Y-10876641D02*
X15517221Y-10804799D01*
X15445379Y-10804799D01*
X15445379Y-10876641D01*
X15517221Y-10876641D01*
X15684500Y-10789920D02*
X15786100Y-10891520D01*
X15786100Y-10789920D02*
X15684500Y-10891520D01*
X15771221Y-10876641D02*
X15771221Y-10804799D01*
X15699379Y-10804799D01*
X15699379Y-10876641D01*
X15771221Y-10876641D01*
X15938500Y-10789920D02*
X16040100Y-10891520D01*
X16040100Y-10789920D02*
X15938500Y-10891520D01*
X16025221Y-10876641D02*
X16025221Y-10804799D01*
X15953379Y-10804799D01*
X15953379Y-10876641D01*
X16025221Y-10876641D01*
X18254980Y-5720080D02*
X18356580Y-5821680D01*
X18356580Y-5720080D02*
X18254980Y-5821680D01*
X18341701Y-5806801D02*
X18341701Y-5734959D01*
X18269859Y-5734959D01*
X18269859Y-5806801D01*
X18341701Y-5806801D01*
X18491200Y-5074285D02*
X18592800Y-5175885D01*
X18592800Y-5074285D02*
X18491200Y-5175885D01*
X18577921Y-5161006D02*
X18577921Y-5089164D01*
X18506079Y-5089164D01*
X18506079Y-5161006D01*
X18577921Y-5161006D01*
X18508980Y-5720080D02*
X18610580Y-5821680D01*
X18610580Y-5720080D02*
X18508980Y-5821680D01*
X18595701Y-5806801D02*
X18595701Y-5734959D01*
X18523859Y-5734959D01*
X18523859Y-5806801D01*
X18595701Y-5806801D01*
X18999200Y-4825365D02*
X19100800Y-4926965D01*
X19100800Y-4825365D02*
X18999200Y-4926965D01*
X19085921Y-4912086D02*
X19085921Y-4840244D01*
X19014079Y-4840244D01*
X19014079Y-4912086D01*
X19085921Y-4912086D01*
X18999200Y-5333365D02*
X19100800Y-5434965D01*
X19100800Y-5333365D02*
X18999200Y-5434965D01*
X19085921Y-5420086D02*
X19085921Y-5348244D01*
X19014079Y-5348244D01*
X19014079Y-5420086D01*
X19085921Y-5420086D01*
D20*
X15239219Y-11481360D02*
X15344019Y-11586160D01*
X15344019Y-11481360D02*
X15239219Y-11586160D01*
X15291619Y-11586160D02*
X15344019Y-11533760D01*
X15291619Y-11481360D01*
X15239219Y-11533760D01*
X15291619Y-11586160D01*
X15239219Y-13256360D02*
X15344019Y-13361160D01*
X15344019Y-13256360D02*
X15239219Y-13361160D01*
X15291619Y-13361160D02*
X15344019Y-13308760D01*
X15291619Y-13256360D01*
X15239219Y-13308760D01*
X15291619Y-13361160D01*
X19234220Y-11481360D02*
X19339020Y-11586160D01*
X19339020Y-11481360D02*
X19234220Y-11586160D01*
X19286620Y-11586160D02*
X19339020Y-11533760D01*
X19286620Y-11481360D01*
X19234220Y-11533760D01*
X19286620Y-11586160D01*
X19234220Y-13256360D02*
X19339020Y-13361160D01*
X19339020Y-13256360D02*
X19234220Y-13361160D01*
X19286620Y-13361160D02*
X19339020Y-13308760D01*
X19286620Y-13256360D01*
X19234220Y-13308760D01*
X19286620Y-13361160D01*
D21*
X16118840Y-8316920D02*
X16118840Y-8436920D01*
X16058840Y-8376920D02*
X16178840Y-8376920D01*
X16178840Y-8376920D02*
G75*
G03*
X16178840Y-8376920I-60000J0D01*
G01*
X16118840Y-8816920D02*
X16118840Y-8936920D01*
X16058840Y-8876920D02*
X16178840Y-8876920D01*
X16178840Y-8876920D02*
G75*
G03*
X16178840Y-8876920I-60000J0D01*
G01*
D22*
X15989673Y-4175453D02*
X15989673Y-4069386D01*
X15883606Y-4069386D01*
X15883606Y-4175453D01*
X15989673Y-4175453D01*
X16011640Y-4122420D02*
G75*
G03*
X16011640Y-4122420I-75000J0D01*
G01*
X15994233Y-5524194D02*
X15994233Y-5418127D01*
X15888166Y-5418127D01*
X15888166Y-5524194D01*
X15994233Y-5524194D01*
X16016199Y-5471160D02*
G75*
G03*
X16016199Y-5471160I-75000J0D01*
G01*
X15994753Y-4820614D02*
X15994753Y-4714547D01*
X15888686Y-4714547D01*
X15888686Y-4820614D01*
X15994753Y-4820614D01*
X16016720Y-4767580D02*
G75*
G03*
X16016720Y-4767580I-75000J0D01*
G01*
X15999833Y-6146493D02*
X15999833Y-6040426D01*
X15893766Y-6040426D01*
X15893766Y-6146493D01*
X15999833Y-6146493D01*
X16021800Y-6093460D02*
G75*
G03*
X16021800Y-6093460I-75000J0D01*
G01*
X16015073Y-6766253D02*
X16015073Y-6660186D01*
X15909006Y-6660186D01*
X15909006Y-6766253D01*
X16015073Y-6766253D01*
X16037040Y-6713220D02*
G75*
G03*
X16037040Y-6713220I-75000J0D01*
G01*
X16020153Y-7459673D02*
X16020153Y-7353606D01*
X15914086Y-7353606D01*
X15914086Y-7459673D01*
X16020153Y-7459673D01*
X16042120Y-7406640D02*
G75*
G03*
X16042120Y-7406640I-75000J0D01*
G01*
X17979674Y-4175453D02*
X17979674Y-4069386D01*
X17873607Y-4069386D01*
X17873607Y-4175453D01*
X17979674Y-4175453D01*
X18001640Y-4122420D02*
G75*
G03*
X18001640Y-4122420I-75000J0D01*
G01*
X17984233Y-5524194D02*
X17984233Y-5418127D01*
X17878166Y-5418127D01*
X17878166Y-5524194D01*
X17984233Y-5524194D01*
X18006199Y-5471160D02*
G75*
G03*
X18006199Y-5471160I-75000J0D01*
G01*
X17984754Y-4820614D02*
X17984754Y-4714547D01*
X17878687Y-4714547D01*
X17878687Y-4820614D01*
X17984754Y-4820614D01*
X18006720Y-4767580D02*
G75*
G03*
X18006720Y-4767580I-75000J0D01*
G01*
X17989834Y-6146493D02*
X17989834Y-6040426D01*
X17883767Y-6040426D01*
X17883767Y-6146493D01*
X17989834Y-6146493D01*
X18011800Y-6093460D02*
G75*
G03*
X18011800Y-6093460I-75000J0D01*
G01*
X18005074Y-6766253D02*
X18005074Y-6660186D01*
X17899007Y-6660186D01*
X17899007Y-6766253D01*
X18005074Y-6766253D01*
X18027040Y-6713220D02*
G75*
G03*
X18027040Y-6713220I-75000J0D01*
G01*
X18010154Y-7459673D02*
X18010154Y-7353606D01*
X17904087Y-7353606D01*
X17904087Y-7459673D01*
X18010154Y-7459673D01*
X18032120Y-7406640D02*
G75*
G03*
X18032120Y-7406640I-75000J0D01*
G01*
D23*
X19213720Y-8591381D02*
X19303720Y-8501381D01*
X19213720Y-8411381D01*
X19123720Y-8501381D01*
X19213720Y-8591381D01*
X19303720Y-8501381D02*
G75*
G03*
X19303720Y-8501381I-90000J0D01*
G01*
X21223720Y-9411381D02*
X21313720Y-9321381D01*
X21223720Y-9231381D01*
X21133720Y-9321381D01*
X21223720Y-9411381D01*
X21313720Y-9321381D02*
G75*
G03*
X21313720Y-9321381I-90000J0D01*
G01*
D24*
X14630400Y-13162280D02*
X14630400Y-13416280D01*
X14503400Y-13289280D02*
X14757400Y-13289280D01*
X14720203Y-13379083D02*
X14720203Y-13199477D01*
X14540597Y-13199477D01*
X14540597Y-13379083D01*
X14720203Y-13379083D01*
D11*
X7450966Y-14109505D02*
X7450966Y-13909505D01*
X7498585Y-13909505D01*
X7527157Y-13919029D01*
X7546204Y-13938077D01*
X7555728Y-13957124D01*
X7565252Y-13995219D01*
X7565252Y-14023791D01*
X7555728Y-14061886D01*
X7546204Y-14080934D01*
X7527157Y-14099981D01*
X7498585Y-14109505D01*
X7450966Y-14109505D01*
X7650966Y-14109505D02*
X7650966Y-13976172D01*
X7650966Y-14014267D02*
X7660490Y-13995219D01*
X7670014Y-13985696D01*
X7689061Y-13976172D01*
X7708109Y-13976172D01*
X7774776Y-14109505D02*
X7774776Y-13976172D01*
X7774776Y-13909505D02*
X7765252Y-13919029D01*
X7774776Y-13928553D01*
X7784300Y-13919029D01*
X7774776Y-13909505D01*
X7774776Y-13928553D01*
X7898585Y-14109505D02*
X7879538Y-14099981D01*
X7870014Y-14080934D01*
X7870014Y-13909505D01*
X8003347Y-14109505D02*
X7984300Y-14099981D01*
X7974776Y-14080934D01*
X7974776Y-13909505D01*
X8231919Y-14109505D02*
X8231919Y-13909505D01*
X8298585Y-14052362D01*
X8365252Y-13909505D01*
X8365252Y-14109505D01*
X8546204Y-14109505D02*
X8546204Y-14004743D01*
X8536681Y-13985696D01*
X8517633Y-13976172D01*
X8479538Y-13976172D01*
X8460490Y-13985696D01*
X8546204Y-14099981D02*
X8527157Y-14109505D01*
X8479538Y-14109505D01*
X8460490Y-14099981D01*
X8450966Y-14080934D01*
X8450966Y-14061886D01*
X8460490Y-14042839D01*
X8479538Y-14033315D01*
X8527157Y-14033315D01*
X8546204Y-14023791D01*
X8641443Y-13976172D02*
X8641443Y-14176172D01*
X8641443Y-13985696D02*
X8660490Y-13976172D01*
X8698585Y-13976172D01*
X8717633Y-13985696D01*
X8727157Y-13995219D01*
X8736681Y-14014267D01*
X8736681Y-14071410D01*
X8727157Y-14090458D01*
X8717633Y-14099981D01*
X8698585Y-14109505D01*
X8660490Y-14109505D01*
X8641443Y-14099981D01*
X8822395Y-14090458D02*
X8831919Y-14099981D01*
X8822395Y-14109505D01*
X8812871Y-14099981D01*
X8822395Y-14090458D01*
X8822395Y-14109505D01*
X8822395Y-13985696D02*
X8831919Y-13995219D01*
X8822395Y-14004743D01*
X8812871Y-13995219D01*
X8822395Y-13985696D01*
X8822395Y-14004743D01*
D12*
X7155247Y-14419979D02*
X7193347Y-14458079D01*
X7193347Y-14419979D02*
X7155247Y-14458079D01*
D11*
X7489061Y-14329505D02*
X7508109Y-14329505D01*
X7527157Y-14339029D01*
X7536681Y-14348553D01*
X7546204Y-14367600D01*
X7555728Y-14405696D01*
X7555728Y-14453315D01*
X7546204Y-14491410D01*
X7536681Y-14510458D01*
X7527157Y-14519981D01*
X7508109Y-14529505D01*
X7489061Y-14529505D01*
X7470014Y-14519981D01*
X7460490Y-14510458D01*
X7450966Y-14491410D01*
X7441442Y-14453315D01*
X7441442Y-14405696D01*
X7450966Y-14367600D01*
X7460490Y-14348553D01*
X7470014Y-14339029D01*
X7489061Y-14329505D01*
X7641442Y-14510458D02*
X7650966Y-14519981D01*
X7641442Y-14529505D01*
X7631919Y-14519981D01*
X7641442Y-14510458D01*
X7641442Y-14529505D01*
X7717633Y-14329505D02*
X7841442Y-14329505D01*
X7774776Y-14405696D01*
X7803347Y-14405696D01*
X7822395Y-14415219D01*
X7831919Y-14424743D01*
X7841442Y-14443791D01*
X7841442Y-14491410D01*
X7831919Y-14510458D01*
X7822395Y-14519981D01*
X7803347Y-14529505D01*
X7746204Y-14529505D01*
X7727157Y-14519981D01*
X7717633Y-14510458D01*
X7955728Y-14415219D02*
X7936681Y-14405696D01*
X7927157Y-14396172D01*
X7917633Y-14377124D01*
X7917633Y-14367600D01*
X7927157Y-14348553D01*
X7936681Y-14339029D01*
X7955728Y-14329505D01*
X7993823Y-14329505D01*
X8012871Y-14339029D01*
X8022395Y-14348553D01*
X8031919Y-14367600D01*
X8031919Y-14377124D01*
X8022395Y-14396172D01*
X8012871Y-14405696D01*
X7993823Y-14415219D01*
X7955728Y-14415219D01*
X7936681Y-14424743D01*
X7927157Y-14434267D01*
X7917633Y-14453315D01*
X7917633Y-14491410D01*
X7927157Y-14510458D01*
X7936681Y-14519981D01*
X7955728Y-14529505D01*
X7993823Y-14529505D01*
X8012871Y-14519981D01*
X8022395Y-14510458D01*
X8031919Y-14491410D01*
X8031919Y-14453315D01*
X8022395Y-14434267D01*
X8012871Y-14424743D01*
X7993823Y-14415219D01*
X8222395Y-14529505D02*
X8108109Y-14529505D01*
X8165252Y-14529505D02*
X8165252Y-14329505D01*
X8146204Y-14358077D01*
X8127157Y-14377124D01*
X8108109Y-14386648D01*
X8308109Y-14529505D02*
X8308109Y-14396172D01*
X8308109Y-14415219D02*
X8317633Y-14405696D01*
X8336681Y-14396172D01*
X8365252Y-14396172D01*
X8384300Y-14405696D01*
X8393823Y-14424743D01*
X8393823Y-14529505D01*
X8393823Y-14424743D02*
X8403347Y-14405696D01*
X8422395Y-14396172D01*
X8450966Y-14396172D01*
X8470014Y-14405696D01*
X8479538Y-14424743D01*
X8479538Y-14529505D01*
X8574776Y-14529505D02*
X8574776Y-14396172D01*
X8574776Y-14415219D02*
X8584300Y-14405696D01*
X8603347Y-14396172D01*
X8631919Y-14396172D01*
X8650966Y-14405696D01*
X8660490Y-14424743D01*
X8660490Y-14529505D01*
X8660490Y-14424743D02*
X8670014Y-14405696D01*
X8689062Y-14396172D01*
X8717633Y-14396172D01*
X8736681Y-14405696D01*
X8746204Y-14424743D01*
X8746204Y-14529505D01*
X9136681Y-14319981D02*
X8965252Y-14577124D01*
X9393823Y-14329505D02*
X9412871Y-14329505D01*
X9431919Y-14339029D01*
X9441443Y-14348553D01*
X9450966Y-14367600D01*
X9460490Y-14405696D01*
X9460490Y-14453315D01*
X9450966Y-14491410D01*
X9441443Y-14510458D01*
X9431919Y-14519981D01*
X9412871Y-14529505D01*
X9393823Y-14529505D01*
X9374776Y-14519981D01*
X9365252Y-14510458D01*
X9355728Y-14491410D01*
X9346204Y-14453315D01*
X9346204Y-14405696D01*
X9355728Y-14367600D01*
X9365252Y-14348553D01*
X9374776Y-14339029D01*
X9393823Y-14329505D01*
X9546204Y-14510458D02*
X9555728Y-14519981D01*
X9546204Y-14529505D01*
X9536681Y-14519981D01*
X9546204Y-14510458D01*
X9546204Y-14529505D01*
X9679538Y-14329505D02*
X9698585Y-14329505D01*
X9717633Y-14339029D01*
X9727157Y-14348553D01*
X9736681Y-14367600D01*
X9746204Y-14405696D01*
X9746204Y-14453315D01*
X9736681Y-14491410D01*
X9727157Y-14510458D01*
X9717633Y-14519981D01*
X9698585Y-14529505D01*
X9679538Y-14529505D01*
X9660490Y-14519981D01*
X9650966Y-14510458D01*
X9641443Y-14491410D01*
X9631919Y-14453315D01*
X9631919Y-14405696D01*
X9641443Y-14367600D01*
X9650966Y-14348553D01*
X9660490Y-14339029D01*
X9679538Y-14329505D01*
X9936681Y-14529505D02*
X9822395Y-14529505D01*
X9879538Y-14529505D02*
X9879538Y-14329505D01*
X9860490Y-14358077D01*
X9841443Y-14377124D01*
X9822395Y-14386648D01*
X10117633Y-14329505D02*
X10022395Y-14329505D01*
X10012871Y-14424743D01*
X10022395Y-14415219D01*
X10041443Y-14405696D01*
X10089062Y-14405696D01*
X10108109Y-14415219D01*
X10117633Y-14424743D01*
X10127157Y-14443791D01*
X10127157Y-14491410D01*
X10117633Y-14510458D01*
X10108109Y-14519981D01*
X10089062Y-14529505D01*
X10041443Y-14529505D01*
X10022395Y-14519981D01*
X10012871Y-14510458D01*
X10250966Y-14329505D02*
X10270014Y-14329505D01*
X10289062Y-14339029D01*
X10298585Y-14348553D01*
X10308109Y-14367600D01*
X10317633Y-14405696D01*
X10317633Y-14453315D01*
X10308109Y-14491410D01*
X10298585Y-14510458D01*
X10289062Y-14519981D01*
X10270014Y-14529505D01*
X10250966Y-14529505D01*
X10231919Y-14519981D01*
X10222395Y-14510458D01*
X10212871Y-14491410D01*
X10203347Y-14453315D01*
X10203347Y-14405696D01*
X10212871Y-14367600D01*
X10222395Y-14348553D01*
X10231919Y-14339029D01*
X10250966Y-14329505D01*
X10393823Y-14329505D02*
X10393823Y-14367600D01*
X10470014Y-14329505D02*
X10470014Y-14367600D01*
X10765252Y-14605696D02*
X10755728Y-14596172D01*
X10736681Y-14567600D01*
X10727157Y-14548553D01*
X10717633Y-14519981D01*
X10708109Y-14472362D01*
X10708109Y-14434267D01*
X10717633Y-14386648D01*
X10727157Y-14358077D01*
X10736681Y-14339029D01*
X10755728Y-14310458D01*
X10765252Y-14300934D01*
X10850966Y-14529505D02*
X10889062Y-14529505D01*
X10908109Y-14519981D01*
X10917633Y-14510458D01*
X10936681Y-14481886D01*
X10946204Y-14443791D01*
X10946204Y-14367600D01*
X10936681Y-14348553D01*
X10927157Y-14339029D01*
X10908109Y-14329505D01*
X10870014Y-14329505D01*
X10850966Y-14339029D01*
X10841443Y-14348553D01*
X10831919Y-14367600D01*
X10831919Y-14415219D01*
X10841443Y-14434267D01*
X10850966Y-14443791D01*
X10870014Y-14453315D01*
X10908109Y-14453315D01*
X10927157Y-14443791D01*
X10936681Y-14434267D01*
X10946204Y-14415219D01*
X11022395Y-14348553D02*
X11031919Y-14339029D01*
X11050966Y-14329505D01*
X11098585Y-14329505D01*
X11117633Y-14339029D01*
X11127157Y-14348553D01*
X11136681Y-14367600D01*
X11136681Y-14386648D01*
X11127157Y-14415219D01*
X11012871Y-14529505D01*
X11136681Y-14529505D01*
X11374776Y-14529505D02*
X11374776Y-14329505D01*
X11460490Y-14529505D02*
X11460490Y-14424743D01*
X11450966Y-14405696D01*
X11431919Y-14396172D01*
X11403347Y-14396172D01*
X11384300Y-14405696D01*
X11374776Y-14415219D01*
X11584300Y-14529505D02*
X11565252Y-14519981D01*
X11555728Y-14510458D01*
X11546204Y-14491410D01*
X11546204Y-14434267D01*
X11555728Y-14415219D01*
X11565252Y-14405696D01*
X11584300Y-14396172D01*
X11612871Y-14396172D01*
X11631919Y-14405696D01*
X11641442Y-14415219D01*
X11650966Y-14434267D01*
X11650966Y-14491410D01*
X11641442Y-14510458D01*
X11631919Y-14519981D01*
X11612871Y-14529505D01*
X11584300Y-14529505D01*
X11765252Y-14529505D02*
X11746204Y-14519981D01*
X11736681Y-14500934D01*
X11736681Y-14329505D01*
X11917633Y-14519981D02*
X11898585Y-14529505D01*
X11860490Y-14529505D01*
X11841442Y-14519981D01*
X11831919Y-14500934D01*
X11831919Y-14424743D01*
X11841442Y-14405696D01*
X11860490Y-14396172D01*
X11898585Y-14396172D01*
X11917633Y-14405696D01*
X11927157Y-14424743D01*
X11927157Y-14443791D01*
X11831919Y-14462839D01*
X12003347Y-14519981D02*
X12022395Y-14529505D01*
X12060490Y-14529505D01*
X12079538Y-14519981D01*
X12089061Y-14500934D01*
X12089061Y-14491410D01*
X12079538Y-14472362D01*
X12060490Y-14462839D01*
X12031919Y-14462839D01*
X12012871Y-14453315D01*
X12003347Y-14434267D01*
X12003347Y-14424743D01*
X12012871Y-14405696D01*
X12031919Y-14396172D01*
X12060490Y-14396172D01*
X12079538Y-14405696D01*
X12155728Y-14605696D02*
X12165252Y-14596172D01*
X12184300Y-14567600D01*
X12193823Y-14548553D01*
X12203347Y-14519981D01*
X12212871Y-14472362D01*
X12212871Y-14434267D01*
X12203347Y-14386648D01*
X12193823Y-14358077D01*
X12184300Y-14339029D01*
X12165252Y-14310458D01*
X12155728Y-14300934D01*
D13*
X7193347Y-14703029D02*
G75*
G03*
X7193347Y-14703029I-20000J0D01*
G01*
D11*
X7489061Y-14593505D02*
X7508109Y-14593505D01*
X7527157Y-14603029D01*
X7536681Y-14612553D01*
X7546204Y-14631600D01*
X7555728Y-14669696D01*
X7555728Y-14717315D01*
X7546204Y-14755410D01*
X7536681Y-14774458D01*
X7527157Y-14783981D01*
X7508109Y-14793505D01*
X7489061Y-14793505D01*
X7470014Y-14783981D01*
X7460490Y-14774458D01*
X7450966Y-14755410D01*
X7441442Y-14717315D01*
X7441442Y-14669696D01*
X7450966Y-14631600D01*
X7460490Y-14612553D01*
X7470014Y-14603029D01*
X7489061Y-14593505D01*
X7641442Y-14774458D02*
X7650966Y-14783981D01*
X7641442Y-14793505D01*
X7631919Y-14783981D01*
X7641442Y-14774458D01*
X7641442Y-14793505D01*
X7822395Y-14660172D02*
X7822395Y-14793505D01*
X7774776Y-14583981D02*
X7727157Y-14726839D01*
X7850966Y-14726839D01*
X7965252Y-14593505D02*
X7984300Y-14593505D01*
X8003347Y-14603029D01*
X8012871Y-14612553D01*
X8022395Y-14631600D01*
X8031919Y-14669696D01*
X8031919Y-14717315D01*
X8022395Y-14755410D01*
X8012871Y-14774458D01*
X8003347Y-14783981D01*
X7984300Y-14793505D01*
X7965252Y-14793505D01*
X7946204Y-14783981D01*
X7936681Y-14774458D01*
X7927157Y-14755410D01*
X7917633Y-14717315D01*
X7917633Y-14669696D01*
X7927157Y-14631600D01*
X7936681Y-14612553D01*
X7946204Y-14603029D01*
X7965252Y-14593505D01*
X8155728Y-14593505D02*
X8174776Y-14593505D01*
X8193823Y-14603029D01*
X8203347Y-14612553D01*
X8212871Y-14631600D01*
X8222395Y-14669696D01*
X8222395Y-14717315D01*
X8212871Y-14755410D01*
X8203347Y-14774458D01*
X8193823Y-14783981D01*
X8174776Y-14793505D01*
X8155728Y-14793505D01*
X8136681Y-14783981D01*
X8127157Y-14774458D01*
X8117633Y-14755410D01*
X8108109Y-14717315D01*
X8108109Y-14669696D01*
X8117633Y-14631600D01*
X8127157Y-14612553D01*
X8136681Y-14603029D01*
X8155728Y-14593505D01*
X8308109Y-14793505D02*
X8308109Y-14660172D01*
X8308109Y-14679219D02*
X8317633Y-14669696D01*
X8336681Y-14660172D01*
X8365252Y-14660172D01*
X8384300Y-14669696D01*
X8393823Y-14688743D01*
X8393823Y-14793505D01*
X8393823Y-14688743D02*
X8403347Y-14669696D01*
X8422395Y-14660172D01*
X8450966Y-14660172D01*
X8470014Y-14669696D01*
X8479538Y-14688743D01*
X8479538Y-14793505D01*
X8574776Y-14793505D02*
X8574776Y-14660172D01*
X8574776Y-14679219D02*
X8584300Y-14669696D01*
X8603347Y-14660172D01*
X8631919Y-14660172D01*
X8650966Y-14669696D01*
X8660490Y-14688743D01*
X8660490Y-14793505D01*
X8660490Y-14688743D02*
X8670014Y-14669696D01*
X8689062Y-14660172D01*
X8717633Y-14660172D01*
X8736681Y-14669696D01*
X8746204Y-14688743D01*
X8746204Y-14793505D01*
X9136681Y-14583981D02*
X8965252Y-14841124D01*
X9393823Y-14593505D02*
X9412871Y-14593505D01*
X9431919Y-14603029D01*
X9441443Y-14612553D01*
X9450966Y-14631600D01*
X9460490Y-14669696D01*
X9460490Y-14717315D01*
X9450966Y-14755410D01*
X9441443Y-14774458D01*
X9431919Y-14783981D01*
X9412871Y-14793505D01*
X9393823Y-14793505D01*
X9374776Y-14783981D01*
X9365252Y-14774458D01*
X9355728Y-14755410D01*
X9346204Y-14717315D01*
X9346204Y-14669696D01*
X9355728Y-14631600D01*
X9365252Y-14612553D01*
X9374776Y-14603029D01*
X9393823Y-14593505D01*
X9546204Y-14774458D02*
X9555728Y-14783981D01*
X9546204Y-14793505D01*
X9536681Y-14783981D01*
X9546204Y-14774458D01*
X9546204Y-14793505D01*
X9679538Y-14593505D02*
X9698585Y-14593505D01*
X9717633Y-14603029D01*
X9727157Y-14612553D01*
X9736681Y-14631600D01*
X9746204Y-14669696D01*
X9746204Y-14717315D01*
X9736681Y-14755410D01*
X9727157Y-14774458D01*
X9717633Y-14783981D01*
X9698585Y-14793505D01*
X9679538Y-14793505D01*
X9660490Y-14783981D01*
X9650966Y-14774458D01*
X9641443Y-14755410D01*
X9631919Y-14717315D01*
X9631919Y-14669696D01*
X9641443Y-14631600D01*
X9650966Y-14612553D01*
X9660490Y-14603029D01*
X9679538Y-14593505D01*
X9936681Y-14793505D02*
X9822395Y-14793505D01*
X9879538Y-14793505D02*
X9879538Y-14593505D01*
X9860490Y-14622077D01*
X9841443Y-14641124D01*
X9822395Y-14650648D01*
X10117633Y-14593505D02*
X10022395Y-14593505D01*
X10012871Y-14688743D01*
X10022395Y-14679219D01*
X10041443Y-14669696D01*
X10089062Y-14669696D01*
X10108109Y-14679219D01*
X10117633Y-14688743D01*
X10127157Y-14707791D01*
X10127157Y-14755410D01*
X10117633Y-14774458D01*
X10108109Y-14783981D01*
X10089062Y-14793505D01*
X10041443Y-14793505D01*
X10022395Y-14783981D01*
X10012871Y-14774458D01*
X10193823Y-14593505D02*
X10327157Y-14593505D01*
X10241443Y-14793505D01*
X10393823Y-14593505D02*
X10393823Y-14631600D01*
X10470014Y-14593505D02*
X10470014Y-14631600D01*
X10765252Y-14869696D02*
X10755728Y-14860172D01*
X10736681Y-14831600D01*
X10727157Y-14812553D01*
X10717633Y-14783981D01*
X10708109Y-14736362D01*
X10708109Y-14698267D01*
X10717633Y-14650648D01*
X10727157Y-14622077D01*
X10736681Y-14603029D01*
X10755728Y-14574458D01*
X10765252Y-14564934D01*
X10927157Y-14660172D02*
X10927157Y-14793505D01*
X10879538Y-14583981D02*
X10831919Y-14726839D01*
X10955728Y-14726839D01*
X11184300Y-14793505D02*
X11184300Y-14593505D01*
X11270014Y-14793505D02*
X11270014Y-14688743D01*
X11260490Y-14669696D01*
X11241442Y-14660172D01*
X11212871Y-14660172D01*
X11193823Y-14669696D01*
X11184300Y-14679219D01*
X11393823Y-14793505D02*
X11374776Y-14783981D01*
X11365252Y-14774458D01*
X11355728Y-14755410D01*
X11355728Y-14698267D01*
X11365252Y-14679219D01*
X11374776Y-14669696D01*
X11393823Y-14660172D01*
X11422395Y-14660172D01*
X11441442Y-14669696D01*
X11450966Y-14679219D01*
X11460490Y-14698267D01*
X11460490Y-14755410D01*
X11450966Y-14774458D01*
X11441442Y-14783981D01*
X11422395Y-14793505D01*
X11393823Y-14793505D01*
X11574776Y-14793505D02*
X11555728Y-14783981D01*
X11546204Y-14764934D01*
X11546204Y-14593505D01*
X11727157Y-14783981D02*
X11708109Y-14793505D01*
X11670014Y-14793505D01*
X11650966Y-14783981D01*
X11641442Y-14764934D01*
X11641442Y-14688743D01*
X11650966Y-14669696D01*
X11670014Y-14660172D01*
X11708109Y-14660172D01*
X11727157Y-14669696D01*
X11736681Y-14688743D01*
X11736681Y-14707791D01*
X11641442Y-14726839D01*
X11812871Y-14783981D02*
X11831919Y-14793505D01*
X11870014Y-14793505D01*
X11889061Y-14783981D01*
X11898585Y-14764934D01*
X11898585Y-14755410D01*
X11889061Y-14736362D01*
X11870014Y-14726839D01*
X11841442Y-14726839D01*
X11822395Y-14717315D01*
X11812871Y-14698267D01*
X11812871Y-14688743D01*
X11822395Y-14669696D01*
X11841442Y-14660172D01*
X11870014Y-14660172D01*
X11889061Y-14669696D01*
X11965252Y-14869696D02*
X11974776Y-14860172D01*
X11993823Y-14831600D01*
X12003347Y-14812553D01*
X12012871Y-14783981D01*
X12022395Y-14736362D01*
X12022395Y-14698267D01*
X12012871Y-14650648D01*
X12003347Y-14622077D01*
X11993823Y-14603029D01*
X11974776Y-14574458D01*
X11965252Y-14564934D01*
D14*
X7155247Y-14928929D02*
X7155247Y-15005129D01*
X7117147Y-14967029D02*
X7193347Y-14967029D01*
D11*
X7489061Y-14857505D02*
X7508109Y-14857505D01*
X7527157Y-14867029D01*
X7536681Y-14876553D01*
X7546204Y-14895600D01*
X7555728Y-14933696D01*
X7555728Y-14981315D01*
X7546204Y-15019410D01*
X7536681Y-15038458D01*
X7527157Y-15047981D01*
X7508109Y-15057505D01*
X7489061Y-15057505D01*
X7470014Y-15047981D01*
X7460490Y-15038458D01*
X7450966Y-15019410D01*
X7441442Y-14981315D01*
X7441442Y-14933696D01*
X7450966Y-14895600D01*
X7460490Y-14876553D01*
X7470014Y-14867029D01*
X7489061Y-14857505D01*
X7641442Y-15038458D02*
X7650966Y-15047981D01*
X7641442Y-15057505D01*
X7631919Y-15047981D01*
X7641442Y-15038458D01*
X7641442Y-15057505D01*
X7717633Y-14857505D02*
X7850966Y-14857505D01*
X7765252Y-15057505D01*
X8012871Y-14857505D02*
X7974776Y-14857505D01*
X7955728Y-14867029D01*
X7946204Y-14876553D01*
X7927157Y-14905124D01*
X7917633Y-14943219D01*
X7917633Y-15019410D01*
X7927157Y-15038458D01*
X7936681Y-15047981D01*
X7955728Y-15057505D01*
X7993823Y-15057505D01*
X8012871Y-15047981D01*
X8022395Y-15038458D01*
X8031919Y-15019410D01*
X8031919Y-14971791D01*
X8022395Y-14952743D01*
X8012871Y-14943219D01*
X7993823Y-14933696D01*
X7955728Y-14933696D01*
X7936681Y-14943219D01*
X7927157Y-14952743D01*
X7917633Y-14971791D01*
X8108109Y-14876553D02*
X8117633Y-14867029D01*
X8136681Y-14857505D01*
X8184300Y-14857505D01*
X8203347Y-14867029D01*
X8212871Y-14876553D01*
X8222395Y-14895600D01*
X8222395Y-14914648D01*
X8212871Y-14943219D01*
X8098585Y-15057505D01*
X8222395Y-15057505D01*
X8308109Y-15057505D02*
X8308109Y-14924172D01*
X8308109Y-14943219D02*
X8317633Y-14933696D01*
X8336681Y-14924172D01*
X8365252Y-14924172D01*
X8384300Y-14933696D01*
X8393823Y-14952743D01*
X8393823Y-15057505D01*
X8393823Y-14952743D02*
X8403347Y-14933696D01*
X8422395Y-14924172D01*
X8450966Y-14924172D01*
X8470014Y-14933696D01*
X8479538Y-14952743D01*
X8479538Y-15057505D01*
X8574776Y-15057505D02*
X8574776Y-14924172D01*
X8574776Y-14943219D02*
X8584300Y-14933696D01*
X8603347Y-14924172D01*
X8631919Y-14924172D01*
X8650966Y-14933696D01*
X8660490Y-14952743D01*
X8660490Y-15057505D01*
X8660490Y-14952743D02*
X8670014Y-14933696D01*
X8689062Y-14924172D01*
X8717633Y-14924172D01*
X8736681Y-14933696D01*
X8746204Y-14952743D01*
X8746204Y-15057505D01*
X9136681Y-14847981D02*
X8965252Y-15105124D01*
X9393823Y-14857505D02*
X9412871Y-14857505D01*
X9431919Y-14867029D01*
X9441443Y-14876553D01*
X9450966Y-14895600D01*
X9460490Y-14933696D01*
X9460490Y-14981315D01*
X9450966Y-15019410D01*
X9441443Y-15038458D01*
X9431919Y-15047981D01*
X9412871Y-15057505D01*
X9393823Y-15057505D01*
X9374776Y-15047981D01*
X9365252Y-15038458D01*
X9355728Y-15019410D01*
X9346204Y-14981315D01*
X9346204Y-14933696D01*
X9355728Y-14895600D01*
X9365252Y-14876553D01*
X9374776Y-14867029D01*
X9393823Y-14857505D01*
X9546204Y-15038458D02*
X9555728Y-15047981D01*
X9546204Y-15057505D01*
X9536681Y-15047981D01*
X9546204Y-15038458D01*
X9546204Y-15057505D01*
X9679538Y-14857505D02*
X9698585Y-14857505D01*
X9717633Y-14867029D01*
X9727157Y-14876553D01*
X9736681Y-14895600D01*
X9746204Y-14933696D01*
X9746204Y-14981315D01*
X9736681Y-15019410D01*
X9727157Y-15038458D01*
X9717633Y-15047981D01*
X9698585Y-15057505D01*
X9679538Y-15057505D01*
X9660490Y-15047981D01*
X9650966Y-15038458D01*
X9641443Y-15019410D01*
X9631919Y-14981315D01*
X9631919Y-14933696D01*
X9641443Y-14895600D01*
X9650966Y-14876553D01*
X9660490Y-14867029D01*
X9679538Y-14857505D01*
X9812871Y-14857505D02*
X9936681Y-14857505D01*
X9870014Y-14933696D01*
X9898585Y-14933696D01*
X9917633Y-14943219D01*
X9927157Y-14952743D01*
X9936681Y-14971791D01*
X9936681Y-15019410D01*
X9927157Y-15038458D01*
X9917633Y-15047981D01*
X9898585Y-15057505D01*
X9841443Y-15057505D01*
X9822395Y-15047981D01*
X9812871Y-15038458D01*
X10060490Y-14857505D02*
X10079538Y-14857505D01*
X10098585Y-14867029D01*
X10108109Y-14876553D01*
X10117633Y-14895600D01*
X10127157Y-14933696D01*
X10127157Y-14981315D01*
X10117633Y-15019410D01*
X10108109Y-15038458D01*
X10098585Y-15047981D01*
X10079538Y-15057505D01*
X10060490Y-15057505D01*
X10041443Y-15047981D01*
X10031919Y-15038458D01*
X10022395Y-15019410D01*
X10012871Y-14981315D01*
X10012871Y-14933696D01*
X10022395Y-14895600D01*
X10031919Y-14876553D01*
X10041443Y-14867029D01*
X10060490Y-14857505D01*
X10250966Y-14857505D02*
X10270014Y-14857505D01*
X10289062Y-14867029D01*
X10298585Y-14876553D01*
X10308109Y-14895600D01*
X10317633Y-14933696D01*
X10317633Y-14981315D01*
X10308109Y-15019410D01*
X10298585Y-15038458D01*
X10289062Y-15047981D01*
X10270014Y-15057505D01*
X10250966Y-15057505D01*
X10231919Y-15047981D01*
X10222395Y-15038458D01*
X10212871Y-15019410D01*
X10203347Y-14981315D01*
X10203347Y-14933696D01*
X10212871Y-14895600D01*
X10222395Y-14876553D01*
X10231919Y-14867029D01*
X10250966Y-14857505D01*
X10393823Y-14857505D02*
X10393823Y-14895600D01*
X10470014Y-14857505D02*
X10470014Y-14895600D01*
X10765252Y-15133696D02*
X10755728Y-15124172D01*
X10736681Y-15095600D01*
X10727157Y-15076553D01*
X10717633Y-15047981D01*
X10708109Y-15000362D01*
X10708109Y-14962267D01*
X10717633Y-14914648D01*
X10727157Y-14886077D01*
X10736681Y-14867029D01*
X10755728Y-14838458D01*
X10765252Y-14828934D01*
X10822395Y-14857505D02*
X10946204Y-14857505D01*
X10879538Y-14933696D01*
X10908109Y-14933696D01*
X10927157Y-14943219D01*
X10936681Y-14952743D01*
X10946204Y-14971791D01*
X10946204Y-15019410D01*
X10936681Y-15038458D01*
X10927157Y-15047981D01*
X10908109Y-15057505D01*
X10850966Y-15057505D01*
X10831919Y-15047981D01*
X10822395Y-15038458D01*
X11184300Y-15057505D02*
X11184300Y-14857505D01*
X11270014Y-15057505D02*
X11270014Y-14952743D01*
X11260490Y-14933696D01*
X11241442Y-14924172D01*
X11212871Y-14924172D01*
X11193823Y-14933696D01*
X11184300Y-14943219D01*
X11393823Y-15057505D02*
X11374776Y-15047981D01*
X11365252Y-15038458D01*
X11355728Y-15019410D01*
X11355728Y-14962267D01*
X11365252Y-14943219D01*
X11374776Y-14933696D01*
X11393823Y-14924172D01*
X11422395Y-14924172D01*
X11441442Y-14933696D01*
X11450966Y-14943219D01*
X11460490Y-14962267D01*
X11460490Y-15019410D01*
X11450966Y-15038458D01*
X11441442Y-15047981D01*
X11422395Y-15057505D01*
X11393823Y-15057505D01*
X11574776Y-15057505D02*
X11555728Y-15047981D01*
X11546204Y-15028934D01*
X11546204Y-14857505D01*
X11727157Y-15047981D02*
X11708109Y-15057505D01*
X11670014Y-15057505D01*
X11650966Y-15047981D01*
X11641442Y-15028934D01*
X11641442Y-14952743D01*
X11650966Y-14933696D01*
X11670014Y-14924172D01*
X11708109Y-14924172D01*
X11727157Y-14933696D01*
X11736681Y-14952743D01*
X11736681Y-14971791D01*
X11641442Y-14990839D01*
X11812871Y-15047981D02*
X11831919Y-15057505D01*
X11870014Y-15057505D01*
X11889061Y-15047981D01*
X11898585Y-15028934D01*
X11898585Y-15019410D01*
X11889061Y-15000362D01*
X11870014Y-14990839D01*
X11841442Y-14990839D01*
X11822395Y-14981315D01*
X11812871Y-14962267D01*
X11812871Y-14952743D01*
X11822395Y-14933696D01*
X11841442Y-14924172D01*
X11870014Y-14924172D01*
X11889061Y-14933696D01*
X11965252Y-15133696D02*
X11974776Y-15124172D01*
X11993823Y-15095600D01*
X12003347Y-15076553D01*
X12012871Y-15047981D01*
X12022395Y-15000362D01*
X12022395Y-14962267D01*
X12012871Y-14914648D01*
X12003347Y-14886077D01*
X11993823Y-14867029D01*
X11974776Y-14838458D01*
X11965252Y-14828934D01*
D15*
X7182071Y-15258253D02*
X7182071Y-15203805D01*
X7127623Y-15203805D01*
X7127623Y-15258253D01*
X7182071Y-15258253D01*
D11*
X7489061Y-15121505D02*
X7508109Y-15121505D01*
X7527157Y-15131029D01*
X7536681Y-15140553D01*
X7546204Y-15159600D01*
X7555728Y-15197696D01*
X7555728Y-15245315D01*
X7546204Y-15283410D01*
X7536681Y-15302458D01*
X7527157Y-15311981D01*
X7508109Y-15321505D01*
X7489061Y-15321505D01*
X7470014Y-15311981D01*
X7460490Y-15302458D01*
X7450966Y-15283410D01*
X7441442Y-15245315D01*
X7441442Y-15197696D01*
X7450966Y-15159600D01*
X7460490Y-15140553D01*
X7470014Y-15131029D01*
X7489061Y-15121505D01*
X7641442Y-15302458D02*
X7650966Y-15311981D01*
X7641442Y-15321505D01*
X7631919Y-15311981D01*
X7641442Y-15302458D01*
X7641442Y-15321505D01*
X7717633Y-15121505D02*
X7850966Y-15121505D01*
X7765252Y-15321505D01*
X7908109Y-15121505D02*
X8041442Y-15121505D01*
X7955728Y-15321505D01*
X8155728Y-15121505D02*
X8174776Y-15121505D01*
X8193823Y-15131029D01*
X8203347Y-15140553D01*
X8212871Y-15159600D01*
X8222395Y-15197696D01*
X8222395Y-15245315D01*
X8212871Y-15283410D01*
X8203347Y-15302458D01*
X8193823Y-15311981D01*
X8174776Y-15321505D01*
X8155728Y-15321505D01*
X8136681Y-15311981D01*
X8127157Y-15302458D01*
X8117633Y-15283410D01*
X8108109Y-15245315D01*
X8108109Y-15197696D01*
X8117633Y-15159600D01*
X8127157Y-15140553D01*
X8136681Y-15131029D01*
X8155728Y-15121505D01*
X8308109Y-15321505D02*
X8308109Y-15188172D01*
X8308109Y-15207219D02*
X8317633Y-15197696D01*
X8336681Y-15188172D01*
X8365252Y-15188172D01*
X8384300Y-15197696D01*
X8393823Y-15216743D01*
X8393823Y-15321505D01*
X8393823Y-15216743D02*
X8403347Y-15197696D01*
X8422395Y-15188172D01*
X8450966Y-15188172D01*
X8470014Y-15197696D01*
X8479538Y-15216743D01*
X8479538Y-15321505D01*
X8574776Y-15321505D02*
X8574776Y-15188172D01*
X8574776Y-15207219D02*
X8584300Y-15197696D01*
X8603347Y-15188172D01*
X8631919Y-15188172D01*
X8650966Y-15197696D01*
X8660490Y-15216743D01*
X8660490Y-15321505D01*
X8660490Y-15216743D02*
X8670014Y-15197696D01*
X8689062Y-15188172D01*
X8717633Y-15188172D01*
X8736681Y-15197696D01*
X8746204Y-15216743D01*
X8746204Y-15321505D01*
X9136681Y-15111981D02*
X8965252Y-15369124D01*
X9393823Y-15121505D02*
X9412871Y-15121505D01*
X9431919Y-15131029D01*
X9441443Y-15140553D01*
X9450966Y-15159600D01*
X9460490Y-15197696D01*
X9460490Y-15245315D01*
X9450966Y-15283410D01*
X9441443Y-15302458D01*
X9431919Y-15311981D01*
X9412871Y-15321505D01*
X9393823Y-15321505D01*
X9374776Y-15311981D01*
X9365252Y-15302458D01*
X9355728Y-15283410D01*
X9346204Y-15245315D01*
X9346204Y-15197696D01*
X9355728Y-15159600D01*
X9365252Y-15140553D01*
X9374776Y-15131029D01*
X9393823Y-15121505D01*
X9546204Y-15302458D02*
X9555728Y-15311981D01*
X9546204Y-15321505D01*
X9536681Y-15311981D01*
X9546204Y-15302458D01*
X9546204Y-15321505D01*
X9679538Y-15121505D02*
X9698585Y-15121505D01*
X9717633Y-15131029D01*
X9727157Y-15140553D01*
X9736681Y-15159600D01*
X9746204Y-15197696D01*
X9746204Y-15245315D01*
X9736681Y-15283410D01*
X9727157Y-15302458D01*
X9717633Y-15311981D01*
X9698585Y-15321505D01*
X9679538Y-15321505D01*
X9660490Y-15311981D01*
X9650966Y-15302458D01*
X9641443Y-15283410D01*
X9631919Y-15245315D01*
X9631919Y-15197696D01*
X9641443Y-15159600D01*
X9650966Y-15140553D01*
X9660490Y-15131029D01*
X9679538Y-15121505D01*
X9812871Y-15121505D02*
X9936681Y-15121505D01*
X9870014Y-15197696D01*
X9898585Y-15197696D01*
X9917633Y-15207219D01*
X9927157Y-15216743D01*
X9936681Y-15235791D01*
X9936681Y-15283410D01*
X9927157Y-15302458D01*
X9917633Y-15311981D01*
X9898585Y-15321505D01*
X9841443Y-15321505D01*
X9822395Y-15311981D01*
X9812871Y-15302458D01*
X10060490Y-15121505D02*
X10079538Y-15121505D01*
X10098585Y-15131029D01*
X10108109Y-15140553D01*
X10117633Y-15159600D01*
X10127157Y-15197696D01*
X10127157Y-15245315D01*
X10117633Y-15283410D01*
X10108109Y-15302458D01*
X10098585Y-15311981D01*
X10079538Y-15321505D01*
X10060490Y-15321505D01*
X10041443Y-15311981D01*
X10031919Y-15302458D01*
X10022395Y-15283410D01*
X10012871Y-15245315D01*
X10012871Y-15197696D01*
X10022395Y-15159600D01*
X10031919Y-15140553D01*
X10041443Y-15131029D01*
X10060490Y-15121505D01*
X10193823Y-15121505D02*
X10317633Y-15121505D01*
X10250966Y-15197696D01*
X10279538Y-15197696D01*
X10298585Y-15207219D01*
X10308109Y-15216743D01*
X10317633Y-15235791D01*
X10317633Y-15283410D01*
X10308109Y-15302458D01*
X10298585Y-15311981D01*
X10279538Y-15321505D01*
X10222395Y-15321505D01*
X10203347Y-15311981D01*
X10193823Y-15302458D01*
X10393823Y-15121505D02*
X10393823Y-15159600D01*
X10470014Y-15121505D02*
X10470014Y-15159600D01*
X10765252Y-15397696D02*
X10755728Y-15388172D01*
X10736681Y-15359600D01*
X10727157Y-15340553D01*
X10717633Y-15311981D01*
X10708109Y-15264362D01*
X10708109Y-15226267D01*
X10717633Y-15178648D01*
X10727157Y-15150077D01*
X10736681Y-15131029D01*
X10755728Y-15102458D01*
X10765252Y-15092934D01*
X10946204Y-15321505D02*
X10831919Y-15321505D01*
X10889062Y-15321505D02*
X10889062Y-15121505D01*
X10870014Y-15150077D01*
X10850966Y-15169124D01*
X10831919Y-15178648D01*
X11117633Y-15188172D02*
X11117633Y-15321505D01*
X11070014Y-15111981D02*
X11022395Y-15254839D01*
X11146204Y-15254839D01*
X11374776Y-15321505D02*
X11374776Y-15121505D01*
X11460490Y-15321505D02*
X11460490Y-15216743D01*
X11450966Y-15197696D01*
X11431919Y-15188172D01*
X11403347Y-15188172D01*
X11384300Y-15197696D01*
X11374776Y-15207219D01*
X11584300Y-15321505D02*
X11565252Y-15311981D01*
X11555728Y-15302458D01*
X11546204Y-15283410D01*
X11546204Y-15226267D01*
X11555728Y-15207219D01*
X11565252Y-15197696D01*
X11584300Y-15188172D01*
X11612871Y-15188172D01*
X11631919Y-15197696D01*
X11641442Y-15207219D01*
X11650966Y-15226267D01*
X11650966Y-15283410D01*
X11641442Y-15302458D01*
X11631919Y-15311981D01*
X11612871Y-15321505D01*
X11584300Y-15321505D01*
X11765252Y-15321505D02*
X11746204Y-15311981D01*
X11736681Y-15292934D01*
X11736681Y-15121505D01*
X11917633Y-15311981D02*
X11898585Y-15321505D01*
X11860490Y-15321505D01*
X11841442Y-15311981D01*
X11831919Y-15292934D01*
X11831919Y-15216743D01*
X11841442Y-15197696D01*
X11860490Y-15188172D01*
X11898585Y-15188172D01*
X11917633Y-15197696D01*
X11927157Y-15216743D01*
X11927157Y-15235791D01*
X11831919Y-15254839D01*
X12003347Y-15311981D02*
X12022395Y-15321505D01*
X12060490Y-15321505D01*
X12079538Y-15311981D01*
X12089061Y-15292934D01*
X12089061Y-15283410D01*
X12079538Y-15264362D01*
X12060490Y-15254839D01*
X12031919Y-15254839D01*
X12012871Y-15245315D01*
X12003347Y-15226267D01*
X12003347Y-15216743D01*
X12012871Y-15197696D01*
X12031919Y-15188172D01*
X12060490Y-15188172D01*
X12079538Y-15197696D01*
X12155728Y-15397696D02*
X12165252Y-15388172D01*
X12184300Y-15359600D01*
X12193823Y-15340553D01*
X12203347Y-15311981D01*
X12212871Y-15264362D01*
X12212871Y-15226267D01*
X12203347Y-15178648D01*
X12193823Y-15150077D01*
X12184300Y-15131029D01*
X12165252Y-15102458D01*
X12155728Y-15092934D01*
D16*
X7153347Y-15535029D02*
X7193347Y-15495029D01*
X7153347Y-15455029D01*
X7113347Y-15495029D01*
X7153347Y-15535029D01*
D11*
X7489061Y-15385505D02*
X7508109Y-15385505D01*
X7527157Y-15395029D01*
X7536681Y-15404553D01*
X7546204Y-15423600D01*
X7555728Y-15461696D01*
X7555728Y-15509315D01*
X7546204Y-15547410D01*
X7536681Y-15566458D01*
X7527157Y-15575981D01*
X7508109Y-15585505D01*
X7489061Y-15585505D01*
X7470014Y-15575981D01*
X7460490Y-15566458D01*
X7450966Y-15547410D01*
X7441442Y-15509315D01*
X7441442Y-15461696D01*
X7450966Y-15423600D01*
X7460490Y-15404553D01*
X7470014Y-15395029D01*
X7489061Y-15385505D01*
X7641442Y-15566458D02*
X7650966Y-15575981D01*
X7641442Y-15585505D01*
X7631919Y-15575981D01*
X7641442Y-15566458D01*
X7641442Y-15585505D01*
X7765252Y-15471219D02*
X7746204Y-15461696D01*
X7736681Y-15452172D01*
X7727157Y-15433124D01*
X7727157Y-15423600D01*
X7736681Y-15404553D01*
X7746204Y-15395029D01*
X7765252Y-15385505D01*
X7803347Y-15385505D01*
X7822395Y-15395029D01*
X7831919Y-15404553D01*
X7841442Y-15423600D01*
X7841442Y-15433124D01*
X7831919Y-15452172D01*
X7822395Y-15461696D01*
X7803347Y-15471219D01*
X7765252Y-15471219D01*
X7746204Y-15480743D01*
X7736681Y-15490267D01*
X7727157Y-15509315D01*
X7727157Y-15547410D01*
X7736681Y-15566458D01*
X7746204Y-15575981D01*
X7765252Y-15585505D01*
X7803347Y-15585505D01*
X7822395Y-15575981D01*
X7831919Y-15566458D01*
X7841442Y-15547410D01*
X7841442Y-15509315D01*
X7831919Y-15490267D01*
X7822395Y-15480743D01*
X7803347Y-15471219D01*
X7965252Y-15385505D02*
X7984300Y-15385505D01*
X8003347Y-15395029D01*
X8012871Y-15404553D01*
X8022395Y-15423600D01*
X8031919Y-15461696D01*
X8031919Y-15509315D01*
X8022395Y-15547410D01*
X8012871Y-15566458D01*
X8003347Y-15575981D01*
X7984300Y-15585505D01*
X7965252Y-15585505D01*
X7946204Y-15575981D01*
X7936681Y-15566458D01*
X7927157Y-15547410D01*
X7917633Y-15509315D01*
X7917633Y-15461696D01*
X7927157Y-15423600D01*
X7936681Y-15404553D01*
X7946204Y-15395029D01*
X7965252Y-15385505D01*
X8155728Y-15385505D02*
X8174776Y-15385505D01*
X8193823Y-15395029D01*
X8203347Y-15404553D01*
X8212871Y-15423600D01*
X8222395Y-15461696D01*
X8222395Y-15509315D01*
X8212871Y-15547410D01*
X8203347Y-15566458D01*
X8193823Y-15575981D01*
X8174776Y-15585505D01*
X8155728Y-15585505D01*
X8136681Y-15575981D01*
X8127157Y-15566458D01*
X8117633Y-15547410D01*
X8108109Y-15509315D01*
X8108109Y-15461696D01*
X8117633Y-15423600D01*
X8127157Y-15404553D01*
X8136681Y-15395029D01*
X8155728Y-15385505D01*
X8308109Y-15585505D02*
X8308109Y-15452172D01*
X8308109Y-15471219D02*
X8317633Y-15461696D01*
X8336681Y-15452172D01*
X8365252Y-15452172D01*
X8384300Y-15461696D01*
X8393823Y-15480743D01*
X8393823Y-15585505D01*
X8393823Y-15480743D02*
X8403347Y-15461696D01*
X8422395Y-15452172D01*
X8450966Y-15452172D01*
X8470014Y-15461696D01*
X8479538Y-15480743D01*
X8479538Y-15585505D01*
X8574776Y-15585505D02*
X8574776Y-15452172D01*
X8574776Y-15471219D02*
X8584300Y-15461696D01*
X8603347Y-15452172D01*
X8631919Y-15452172D01*
X8650966Y-15461696D01*
X8660490Y-15480743D01*
X8660490Y-15585505D01*
X8660490Y-15480743D02*
X8670014Y-15461696D01*
X8689062Y-15452172D01*
X8717633Y-15452172D01*
X8736681Y-15461696D01*
X8746204Y-15480743D01*
X8746204Y-15585505D01*
X9136681Y-15375981D02*
X8965252Y-15633124D01*
X9393823Y-15385505D02*
X9412871Y-15385505D01*
X9431919Y-15395029D01*
X9441443Y-15404553D01*
X9450966Y-15423600D01*
X9460490Y-15461696D01*
X9460490Y-15509315D01*
X9450966Y-15547410D01*
X9441443Y-15566458D01*
X9431919Y-15575981D01*
X9412871Y-15585505D01*
X9393823Y-15585505D01*
X9374776Y-15575981D01*
X9365252Y-15566458D01*
X9355728Y-15547410D01*
X9346204Y-15509315D01*
X9346204Y-15461696D01*
X9355728Y-15423600D01*
X9365252Y-15404553D01*
X9374776Y-15395029D01*
X9393823Y-15385505D01*
X9546204Y-15566458D02*
X9555728Y-15575981D01*
X9546204Y-15585505D01*
X9536681Y-15575981D01*
X9546204Y-15566458D01*
X9546204Y-15585505D01*
X9679538Y-15385505D02*
X9698585Y-15385505D01*
X9717633Y-15395029D01*
X9727157Y-15404553D01*
X9736681Y-15423600D01*
X9746204Y-15461696D01*
X9746204Y-15509315D01*
X9736681Y-15547410D01*
X9727157Y-15566458D01*
X9717633Y-15575981D01*
X9698585Y-15585505D01*
X9679538Y-15585505D01*
X9660490Y-15575981D01*
X9650966Y-15566458D01*
X9641443Y-15547410D01*
X9631919Y-15509315D01*
X9631919Y-15461696D01*
X9641443Y-15423600D01*
X9650966Y-15404553D01*
X9660490Y-15395029D01*
X9679538Y-15385505D01*
X9812871Y-15385505D02*
X9936681Y-15385505D01*
X9870014Y-15461696D01*
X9898585Y-15461696D01*
X9917633Y-15471219D01*
X9927157Y-15480743D01*
X9936681Y-15499791D01*
X9936681Y-15547410D01*
X9927157Y-15566458D01*
X9917633Y-15575981D01*
X9898585Y-15585505D01*
X9841443Y-15585505D01*
X9822395Y-15575981D01*
X9812871Y-15566458D01*
X10127157Y-15585505D02*
X10012871Y-15585505D01*
X10070014Y-15585505D02*
X10070014Y-15385505D01*
X10050966Y-15414077D01*
X10031919Y-15433124D01*
X10012871Y-15442648D01*
X10308109Y-15385505D02*
X10212871Y-15385505D01*
X10203347Y-15480743D01*
X10212871Y-15471219D01*
X10231919Y-15461696D01*
X10279538Y-15461696D01*
X10298585Y-15471219D01*
X10308109Y-15480743D01*
X10317633Y-15499791D01*
X10317633Y-15547410D01*
X10308109Y-15566458D01*
X10298585Y-15575981D01*
X10279538Y-15585505D01*
X10231919Y-15585505D01*
X10212871Y-15575981D01*
X10203347Y-15566458D01*
X10393823Y-15385505D02*
X10393823Y-15423600D01*
X10470014Y-15385505D02*
X10470014Y-15423600D01*
X10765252Y-15661696D02*
X10755728Y-15652172D01*
X10736681Y-15623600D01*
X10727157Y-15604553D01*
X10717633Y-15575981D01*
X10708109Y-15528362D01*
X10708109Y-15490267D01*
X10717633Y-15442648D01*
X10727157Y-15414077D01*
X10736681Y-15395029D01*
X10755728Y-15366458D01*
X10765252Y-15356934D01*
X10946204Y-15585505D02*
X10831919Y-15585505D01*
X10889062Y-15585505D02*
X10889062Y-15385505D01*
X10870014Y-15414077D01*
X10850966Y-15433124D01*
X10831919Y-15442648D01*
X11117633Y-15452172D02*
X11117633Y-15585505D01*
X11070014Y-15375981D02*
X11022395Y-15518839D01*
X11146204Y-15518839D01*
X11374776Y-15585505D02*
X11374776Y-15385505D01*
X11460490Y-15585505D02*
X11460490Y-15480743D01*
X11450966Y-15461696D01*
X11431919Y-15452172D01*
X11403347Y-15452172D01*
X11384300Y-15461696D01*
X11374776Y-15471219D01*
X11584300Y-15585505D02*
X11565252Y-15575981D01*
X11555728Y-15566458D01*
X11546204Y-15547410D01*
X11546204Y-15490267D01*
X11555728Y-15471219D01*
X11565252Y-15461696D01*
X11584300Y-15452172D01*
X11612871Y-15452172D01*
X11631919Y-15461696D01*
X11641442Y-15471219D01*
X11650966Y-15490267D01*
X11650966Y-15547410D01*
X11641442Y-15566458D01*
X11631919Y-15575981D01*
X11612871Y-15585505D01*
X11584300Y-15585505D01*
X11765252Y-15585505D02*
X11746204Y-15575981D01*
X11736681Y-15556934D01*
X11736681Y-15385505D01*
X11917633Y-15575981D02*
X11898585Y-15585505D01*
X11860490Y-15585505D01*
X11841442Y-15575981D01*
X11831919Y-15556934D01*
X11831919Y-15480743D01*
X11841442Y-15461696D01*
X11860490Y-15452172D01*
X11898585Y-15452172D01*
X11917633Y-15461696D01*
X11927157Y-15480743D01*
X11927157Y-15499791D01*
X11831919Y-15518839D01*
X12003347Y-15575981D02*
X12022395Y-15585505D01*
X12060490Y-15585505D01*
X12079538Y-15575981D01*
X12089061Y-15556934D01*
X12089061Y-15547410D01*
X12079538Y-15528362D01*
X12060490Y-15518839D01*
X12031919Y-15518839D01*
X12012871Y-15509315D01*
X12003347Y-15490267D01*
X12003347Y-15480743D01*
X12012871Y-15461696D01*
X12031919Y-15452172D01*
X12060490Y-15452172D01*
X12079538Y-15461696D01*
X12155728Y-15661696D02*
X12165252Y-15652172D01*
X12184300Y-15623600D01*
X12193823Y-15604553D01*
X12203347Y-15575981D01*
X12212871Y-15528362D01*
X12212871Y-15490267D01*
X12203347Y-15442648D01*
X12193823Y-15414077D01*
X12184300Y-15395029D01*
X12165252Y-15366458D01*
X12155728Y-15356934D01*
D17*
X7103347Y-15714029D02*
X7193347Y-15804029D01*
X7193347Y-15714029D02*
X7103347Y-15804029D01*
X7193347Y-15759029D02*
G75*
G03*
X7193347Y-15759029I-45000J0D01*
G01*
D11*
X7489061Y-15649505D02*
X7508109Y-15649505D01*
X7527157Y-15659029D01*
X7536681Y-15668553D01*
X7546204Y-15687600D01*
X7555728Y-15725696D01*
X7555728Y-15773315D01*
X7546204Y-15811410D01*
X7536681Y-15830458D01*
X7527157Y-15839981D01*
X7508109Y-15849505D01*
X7489061Y-15849505D01*
X7470014Y-15839981D01*
X7460490Y-15830458D01*
X7450966Y-15811410D01*
X7441442Y-15773315D01*
X7441442Y-15725696D01*
X7450966Y-15687600D01*
X7460490Y-15668553D01*
X7470014Y-15659029D01*
X7489061Y-15649505D01*
X7641442Y-15830458D02*
X7650966Y-15839981D01*
X7641442Y-15849505D01*
X7631919Y-15839981D01*
X7641442Y-15830458D01*
X7641442Y-15849505D01*
X7746204Y-15849505D02*
X7784300Y-15849505D01*
X7803347Y-15839981D01*
X7812871Y-15830458D01*
X7831919Y-15801886D01*
X7841442Y-15763791D01*
X7841442Y-15687600D01*
X7831919Y-15668553D01*
X7822395Y-15659029D01*
X7803347Y-15649505D01*
X7765252Y-15649505D01*
X7746204Y-15659029D01*
X7736681Y-15668553D01*
X7727157Y-15687600D01*
X7727157Y-15735219D01*
X7736681Y-15754267D01*
X7746204Y-15763791D01*
X7765252Y-15773315D01*
X7803347Y-15773315D01*
X7822395Y-15763791D01*
X7831919Y-15754267D01*
X7841442Y-15735219D01*
X7965252Y-15649505D02*
X7984300Y-15649505D01*
X8003347Y-15659029D01*
X8012871Y-15668553D01*
X8022395Y-15687600D01*
X8031919Y-15725696D01*
X8031919Y-15773315D01*
X8022395Y-15811410D01*
X8012871Y-15830458D01*
X8003347Y-15839981D01*
X7984300Y-15849505D01*
X7965252Y-15849505D01*
X7946204Y-15839981D01*
X7936681Y-15830458D01*
X7927157Y-15811410D01*
X7917633Y-15773315D01*
X7917633Y-15725696D01*
X7927157Y-15687600D01*
X7936681Y-15668553D01*
X7946204Y-15659029D01*
X7965252Y-15649505D01*
X8155728Y-15649505D02*
X8174776Y-15649505D01*
X8193823Y-15659029D01*
X8203347Y-15668553D01*
X8212871Y-15687600D01*
X8222395Y-15725696D01*
X8222395Y-15773315D01*
X8212871Y-15811410D01*
X8203347Y-15830458D01*
X8193823Y-15839981D01*
X8174776Y-15849505D01*
X8155728Y-15849505D01*
X8136681Y-15839981D01*
X8127157Y-15830458D01*
X8117633Y-15811410D01*
X8108109Y-15773315D01*
X8108109Y-15725696D01*
X8117633Y-15687600D01*
X8127157Y-15668553D01*
X8136681Y-15659029D01*
X8155728Y-15649505D01*
X8308109Y-15849505D02*
X8308109Y-15716172D01*
X8308109Y-15735219D02*
X8317633Y-15725696D01*
X8336681Y-15716172D01*
X8365252Y-15716172D01*
X8384300Y-15725696D01*
X8393823Y-15744743D01*
X8393823Y-15849505D01*
X8393823Y-15744743D02*
X8403347Y-15725696D01*
X8422395Y-15716172D01*
X8450966Y-15716172D01*
X8470014Y-15725696D01*
X8479538Y-15744743D01*
X8479538Y-15849505D01*
X8574776Y-15849505D02*
X8574776Y-15716172D01*
X8574776Y-15735219D02*
X8584300Y-15725696D01*
X8603347Y-15716172D01*
X8631919Y-15716172D01*
X8650966Y-15725696D01*
X8660490Y-15744743D01*
X8660490Y-15849505D01*
X8660490Y-15744743D02*
X8670014Y-15725696D01*
X8689062Y-15716172D01*
X8717633Y-15716172D01*
X8736681Y-15725696D01*
X8746204Y-15744743D01*
X8746204Y-15849505D01*
X9136681Y-15639981D02*
X8965252Y-15897124D01*
X9393823Y-15649505D02*
X9412871Y-15649505D01*
X9431919Y-15659029D01*
X9441443Y-15668553D01*
X9450966Y-15687600D01*
X9460490Y-15725696D01*
X9460490Y-15773315D01*
X9450966Y-15811410D01*
X9441443Y-15830458D01*
X9431919Y-15839981D01*
X9412871Y-15849505D01*
X9393823Y-15849505D01*
X9374776Y-15839981D01*
X9365252Y-15830458D01*
X9355728Y-15811410D01*
X9346204Y-15773315D01*
X9346204Y-15725696D01*
X9355728Y-15687600D01*
X9365252Y-15668553D01*
X9374776Y-15659029D01*
X9393823Y-15649505D01*
X9546204Y-15830458D02*
X9555728Y-15839981D01*
X9546204Y-15849505D01*
X9536681Y-15839981D01*
X9546204Y-15830458D01*
X9546204Y-15849505D01*
X9679538Y-15649505D02*
X9698585Y-15649505D01*
X9717633Y-15659029D01*
X9727157Y-15668553D01*
X9736681Y-15687600D01*
X9746204Y-15725696D01*
X9746204Y-15773315D01*
X9736681Y-15811410D01*
X9727157Y-15830458D01*
X9717633Y-15839981D01*
X9698585Y-15849505D01*
X9679538Y-15849505D01*
X9660490Y-15839981D01*
X9650966Y-15830458D01*
X9641443Y-15811410D01*
X9631919Y-15773315D01*
X9631919Y-15725696D01*
X9641443Y-15687600D01*
X9650966Y-15668553D01*
X9660490Y-15659029D01*
X9679538Y-15649505D01*
X9812871Y-15649505D02*
X9936681Y-15649505D01*
X9870014Y-15725696D01*
X9898585Y-15725696D01*
X9917633Y-15735219D01*
X9927157Y-15744743D01*
X9936681Y-15763791D01*
X9936681Y-15811410D01*
X9927157Y-15830458D01*
X9917633Y-15839981D01*
X9898585Y-15849505D01*
X9841443Y-15849505D01*
X9822395Y-15839981D01*
X9812871Y-15830458D01*
X10117633Y-15649505D02*
X10022395Y-15649505D01*
X10012871Y-15744743D01*
X10022395Y-15735219D01*
X10041443Y-15725696D01*
X10089062Y-15725696D01*
X10108109Y-15735219D01*
X10117633Y-15744743D01*
X10127157Y-15763791D01*
X10127157Y-15811410D01*
X10117633Y-15830458D01*
X10108109Y-15839981D01*
X10089062Y-15849505D01*
X10041443Y-15849505D01*
X10022395Y-15839981D01*
X10012871Y-15830458D01*
X10298585Y-15716172D02*
X10298585Y-15849505D01*
X10250966Y-15639981D02*
X10203347Y-15782839D01*
X10327157Y-15782839D01*
X10393823Y-15649505D02*
X10393823Y-15687600D01*
X10470014Y-15649505D02*
X10470014Y-15687600D01*
X10765252Y-15925696D02*
X10755728Y-15916172D01*
X10736681Y-15887600D01*
X10727157Y-15868553D01*
X10717633Y-15839981D01*
X10708109Y-15792362D01*
X10708109Y-15754267D01*
X10717633Y-15706648D01*
X10727157Y-15678077D01*
X10736681Y-15659029D01*
X10755728Y-15630458D01*
X10765252Y-15620934D01*
X10870014Y-15735219D02*
X10850966Y-15725696D01*
X10841443Y-15716172D01*
X10831919Y-15697124D01*
X10831919Y-15687600D01*
X10841443Y-15668553D01*
X10850966Y-15659029D01*
X10870014Y-15649505D01*
X10908109Y-15649505D01*
X10927157Y-15659029D01*
X10936681Y-15668553D01*
X10946204Y-15687600D01*
X10946204Y-15697124D01*
X10936681Y-15716172D01*
X10927157Y-15725696D01*
X10908109Y-15735219D01*
X10870014Y-15735219D01*
X10850966Y-15744743D01*
X10841443Y-15754267D01*
X10831919Y-15773315D01*
X10831919Y-15811410D01*
X10841443Y-15830458D01*
X10850966Y-15839981D01*
X10870014Y-15849505D01*
X10908109Y-15849505D01*
X10927157Y-15839981D01*
X10936681Y-15830458D01*
X10946204Y-15811410D01*
X10946204Y-15773315D01*
X10936681Y-15754267D01*
X10927157Y-15744743D01*
X10908109Y-15735219D01*
X11184300Y-15849505D02*
X11184300Y-15649505D01*
X11270014Y-15849505D02*
X11270014Y-15744743D01*
X11260490Y-15725696D01*
X11241442Y-15716172D01*
X11212871Y-15716172D01*
X11193823Y-15725696D01*
X11184300Y-15735219D01*
X11393823Y-15849505D02*
X11374776Y-15839981D01*
X11365252Y-15830458D01*
X11355728Y-15811410D01*
X11355728Y-15754267D01*
X11365252Y-15735219D01*
X11374776Y-15725696D01*
X11393823Y-15716172D01*
X11422395Y-15716172D01*
X11441442Y-15725696D01*
X11450966Y-15735219D01*
X11460490Y-15754267D01*
X11460490Y-15811410D01*
X11450966Y-15830458D01*
X11441442Y-15839981D01*
X11422395Y-15849505D01*
X11393823Y-15849505D01*
X11574776Y-15849505D02*
X11555728Y-15839981D01*
X11546204Y-15820934D01*
X11546204Y-15649505D01*
X11727157Y-15839981D02*
X11708109Y-15849505D01*
X11670014Y-15849505D01*
X11650966Y-15839981D01*
X11641442Y-15820934D01*
X11641442Y-15744743D01*
X11650966Y-15725696D01*
X11670014Y-15716172D01*
X11708109Y-15716172D01*
X11727157Y-15725696D01*
X11736681Y-15744743D01*
X11736681Y-15763791D01*
X11641442Y-15782839D01*
X11812871Y-15839981D02*
X11831919Y-15849505D01*
X11870014Y-15849505D01*
X11889061Y-15839981D01*
X11898585Y-15820934D01*
X11898585Y-15811410D01*
X11889061Y-15792362D01*
X11870014Y-15782839D01*
X11841442Y-15782839D01*
X11822395Y-15773315D01*
X11812871Y-15754267D01*
X11812871Y-15744743D01*
X11822395Y-15725696D01*
X11841442Y-15716172D01*
X11870014Y-15716172D01*
X11889061Y-15725696D01*
X11965252Y-15925696D02*
X11974776Y-15916172D01*
X11993823Y-15887600D01*
X12003347Y-15868553D01*
X12012871Y-15839981D01*
X12022395Y-15792362D01*
X12022395Y-15754267D01*
X12012871Y-15706648D01*
X12003347Y-15678077D01*
X11993823Y-15659029D01*
X11974776Y-15630458D01*
X11965252Y-15620934D01*
D18*
X7093347Y-15973029D02*
X7193347Y-16073029D01*
X7193347Y-15973029D02*
X7093347Y-16073029D01*
X7143347Y-15973029D02*
X7143347Y-16073029D01*
X7093347Y-16023029D02*
X7193347Y-16023029D01*
D11*
X7555728Y-16113505D02*
X7441442Y-16113505D01*
X7498585Y-16113505D02*
X7498585Y-15913505D01*
X7479538Y-15942077D01*
X7460490Y-15961124D01*
X7441442Y-15970648D01*
X7641442Y-16094458D02*
X7650966Y-16103981D01*
X7641442Y-16113505D01*
X7631919Y-16103981D01*
X7641442Y-16094458D01*
X7641442Y-16113505D01*
X7774776Y-15913505D02*
X7793823Y-15913505D01*
X7812871Y-15923029D01*
X7822395Y-15932553D01*
X7831919Y-15951600D01*
X7841442Y-15989696D01*
X7841442Y-16037315D01*
X7831919Y-16075410D01*
X7822395Y-16094458D01*
X7812871Y-16103981D01*
X7793823Y-16113505D01*
X7774776Y-16113505D01*
X7755728Y-16103981D01*
X7746204Y-16094458D01*
X7736681Y-16075410D01*
X7727157Y-16037315D01*
X7727157Y-15989696D01*
X7736681Y-15951600D01*
X7746204Y-15932553D01*
X7755728Y-15923029D01*
X7774776Y-15913505D01*
X7965252Y-15913505D02*
X7984300Y-15913505D01*
X8003347Y-15923029D01*
X8012871Y-15932553D01*
X8022395Y-15951600D01*
X8031919Y-15989696D01*
X8031919Y-16037315D01*
X8022395Y-16075410D01*
X8012871Y-16094458D01*
X8003347Y-16103981D01*
X7984300Y-16113505D01*
X7965252Y-16113505D01*
X7946204Y-16103981D01*
X7936681Y-16094458D01*
X7927157Y-16075410D01*
X7917633Y-16037315D01*
X7917633Y-15989696D01*
X7927157Y-15951600D01*
X7936681Y-15932553D01*
X7946204Y-15923029D01*
X7965252Y-15913505D01*
X8155728Y-15913505D02*
X8174776Y-15913505D01*
X8193823Y-15923029D01*
X8203347Y-15932553D01*
X8212871Y-15951600D01*
X8222395Y-15989696D01*
X8222395Y-16037315D01*
X8212871Y-16075410D01*
X8203347Y-16094458D01*
X8193823Y-16103981D01*
X8174776Y-16113505D01*
X8155728Y-16113505D01*
X8136681Y-16103981D01*
X8127157Y-16094458D01*
X8117633Y-16075410D01*
X8108109Y-16037315D01*
X8108109Y-15989696D01*
X8117633Y-15951600D01*
X8127157Y-15932553D01*
X8136681Y-15923029D01*
X8155728Y-15913505D01*
X8308109Y-16113505D02*
X8308109Y-15980172D01*
X8308109Y-15999219D02*
X8317633Y-15989696D01*
X8336681Y-15980172D01*
X8365252Y-15980172D01*
X8384300Y-15989696D01*
X8393823Y-16008743D01*
X8393823Y-16113505D01*
X8393823Y-16008743D02*
X8403347Y-15989696D01*
X8422395Y-15980172D01*
X8450966Y-15980172D01*
X8470014Y-15989696D01*
X8479538Y-16008743D01*
X8479538Y-16113505D01*
X8574776Y-16113505D02*
X8574776Y-15980172D01*
X8574776Y-15999219D02*
X8584300Y-15989696D01*
X8603347Y-15980172D01*
X8631919Y-15980172D01*
X8650966Y-15989696D01*
X8660490Y-16008743D01*
X8660490Y-16113505D01*
X8660490Y-16008743D02*
X8670014Y-15989696D01*
X8689062Y-15980172D01*
X8717633Y-15980172D01*
X8736681Y-15989696D01*
X8746204Y-16008743D01*
X8746204Y-16113505D01*
X9136681Y-15903981D02*
X8965252Y-16161124D01*
X9393823Y-15913505D02*
X9412871Y-15913505D01*
X9431919Y-15923029D01*
X9441443Y-15932553D01*
X9450966Y-15951600D01*
X9460490Y-15989696D01*
X9460490Y-16037315D01*
X9450966Y-16075410D01*
X9441443Y-16094458D01*
X9431919Y-16103981D01*
X9412871Y-16113505D01*
X9393823Y-16113505D01*
X9374776Y-16103981D01*
X9365252Y-16094458D01*
X9355728Y-16075410D01*
X9346204Y-16037315D01*
X9346204Y-15989696D01*
X9355728Y-15951600D01*
X9365252Y-15932553D01*
X9374776Y-15923029D01*
X9393823Y-15913505D01*
X9546204Y-16094458D02*
X9555728Y-16103981D01*
X9546204Y-16113505D01*
X9536681Y-16103981D01*
X9546204Y-16094458D01*
X9546204Y-16113505D01*
X9679538Y-15913505D02*
X9698585Y-15913505D01*
X9717633Y-15923029D01*
X9727157Y-15932553D01*
X9736681Y-15951600D01*
X9746204Y-15989696D01*
X9746204Y-16037315D01*
X9736681Y-16075410D01*
X9727157Y-16094458D01*
X9717633Y-16103981D01*
X9698585Y-16113505D01*
X9679538Y-16113505D01*
X9660490Y-16103981D01*
X9650966Y-16094458D01*
X9641443Y-16075410D01*
X9631919Y-16037315D01*
X9631919Y-15989696D01*
X9641443Y-15951600D01*
X9650966Y-15932553D01*
X9660490Y-15923029D01*
X9679538Y-15913505D01*
X9812871Y-15913505D02*
X9936681Y-15913505D01*
X9870014Y-15989696D01*
X9898585Y-15989696D01*
X9917633Y-15999219D01*
X9927157Y-16008743D01*
X9936681Y-16027791D01*
X9936681Y-16075410D01*
X9927157Y-16094458D01*
X9917633Y-16103981D01*
X9898585Y-16113505D01*
X9841443Y-16113505D01*
X9822395Y-16103981D01*
X9812871Y-16094458D01*
X10031919Y-16113505D02*
X10070014Y-16113505D01*
X10089062Y-16103981D01*
X10098585Y-16094458D01*
X10117633Y-16065886D01*
X10127157Y-16027791D01*
X10127157Y-15951600D01*
X10117633Y-15932553D01*
X10108109Y-15923029D01*
X10089062Y-15913505D01*
X10050966Y-15913505D01*
X10031919Y-15923029D01*
X10022395Y-15932553D01*
X10012871Y-15951600D01*
X10012871Y-15999219D01*
X10022395Y-16018267D01*
X10031919Y-16027791D01*
X10050966Y-16037315D01*
X10089062Y-16037315D01*
X10108109Y-16027791D01*
X10117633Y-16018267D01*
X10127157Y-15999219D01*
X10298585Y-15980172D02*
X10298585Y-16113505D01*
X10250966Y-15903981D02*
X10203347Y-16046839D01*
X10327157Y-16046839D01*
X10393823Y-15913505D02*
X10393823Y-15951600D01*
X10470014Y-15913505D02*
X10470014Y-15951600D01*
X10765252Y-16189696D02*
X10755728Y-16180172D01*
X10736681Y-16151600D01*
X10727157Y-16132553D01*
X10717633Y-16103981D01*
X10708109Y-16056362D01*
X10708109Y-16018267D01*
X10717633Y-15970648D01*
X10727157Y-15942077D01*
X10736681Y-15923029D01*
X10755728Y-15894458D01*
X10765252Y-15884934D01*
X10946204Y-16113505D02*
X10831919Y-16113505D01*
X10889062Y-16113505D02*
X10889062Y-15913505D01*
X10870014Y-15942077D01*
X10850966Y-15961124D01*
X10831919Y-15970648D01*
X11060490Y-15999219D02*
X11041443Y-15989696D01*
X11031919Y-15980172D01*
X11022395Y-15961124D01*
X11022395Y-15951600D01*
X11031919Y-15932553D01*
X11041443Y-15923029D01*
X11060490Y-15913505D01*
X11098585Y-15913505D01*
X11117633Y-15923029D01*
X11127157Y-15932553D01*
X11136681Y-15951600D01*
X11136681Y-15961124D01*
X11127157Y-15980172D01*
X11117633Y-15989696D01*
X11098585Y-15999219D01*
X11060490Y-15999219D01*
X11041443Y-16008743D01*
X11031919Y-16018267D01*
X11022395Y-16037315D01*
X11022395Y-16075410D01*
X11031919Y-16094458D01*
X11041443Y-16103981D01*
X11060490Y-16113505D01*
X11098585Y-16113505D01*
X11117633Y-16103981D01*
X11127157Y-16094458D01*
X11136681Y-16075410D01*
X11136681Y-16037315D01*
X11127157Y-16018267D01*
X11117633Y-16008743D01*
X11098585Y-15999219D01*
X11374776Y-16113505D02*
X11374776Y-15913505D01*
X11460490Y-16113505D02*
X11460490Y-16008743D01*
X11450966Y-15989696D01*
X11431919Y-15980172D01*
X11403347Y-15980172D01*
X11384300Y-15989696D01*
X11374776Y-15999219D01*
X11584300Y-16113505D02*
X11565252Y-16103981D01*
X11555728Y-16094458D01*
X11546204Y-16075410D01*
X11546204Y-16018267D01*
X11555728Y-15999219D01*
X11565252Y-15989696D01*
X11584300Y-15980172D01*
X11612871Y-15980172D01*
X11631919Y-15989696D01*
X11641442Y-15999219D01*
X11650966Y-16018267D01*
X11650966Y-16075410D01*
X11641442Y-16094458D01*
X11631919Y-16103981D01*
X11612871Y-16113505D01*
X11584300Y-16113505D01*
X11765252Y-16113505D02*
X11746204Y-16103981D01*
X11736681Y-16084934D01*
X11736681Y-15913505D01*
X11917633Y-16103981D02*
X11898585Y-16113505D01*
X11860490Y-16113505D01*
X11841442Y-16103981D01*
X11831919Y-16084934D01*
X11831919Y-16008743D01*
X11841442Y-15989696D01*
X11860490Y-15980172D01*
X11898585Y-15980172D01*
X11917633Y-15989696D01*
X11927157Y-16008743D01*
X11927157Y-16027791D01*
X11831919Y-16046839D01*
X12003347Y-16103981D02*
X12022395Y-16113505D01*
X12060490Y-16113505D01*
X12079538Y-16103981D01*
X12089061Y-16084934D01*
X12089061Y-16075410D01*
X12079538Y-16056362D01*
X12060490Y-16046839D01*
X12031919Y-16046839D01*
X12012871Y-16037315D01*
X12003347Y-16018267D01*
X12003347Y-16008743D01*
X12012871Y-15989696D01*
X12031919Y-15980172D01*
X12060490Y-15980172D01*
X12079538Y-15989696D01*
X12155728Y-16189696D02*
X12165252Y-16180172D01*
X12184300Y-16151600D01*
X12193823Y-16132553D01*
X12203347Y-16103981D01*
X12212871Y-16056362D01*
X12212871Y-16018267D01*
X12203347Y-15970648D01*
X12193823Y-15942077D01*
X12184300Y-15923029D01*
X12165252Y-15894458D01*
X12155728Y-15884934D01*
D19*
X7091747Y-16236229D02*
X7193347Y-16337829D01*
X7193347Y-16236229D02*
X7091747Y-16337829D01*
X7178469Y-16322950D02*
X7178469Y-16251108D01*
X7106626Y-16251108D01*
X7106626Y-16322950D01*
X7178469Y-16322950D01*
D11*
X7555728Y-16377505D02*
X7441442Y-16377505D01*
X7498585Y-16377505D02*
X7498585Y-16177505D01*
X7479538Y-16206077D01*
X7460490Y-16225124D01*
X7441442Y-16234648D01*
X7641442Y-16358458D02*
X7650966Y-16367981D01*
X7641442Y-16377505D01*
X7631919Y-16367981D01*
X7641442Y-16358458D01*
X7641442Y-16377505D01*
X7774776Y-16177505D02*
X7793823Y-16177505D01*
X7812871Y-16187029D01*
X7822395Y-16196553D01*
X7831919Y-16215600D01*
X7841442Y-16253696D01*
X7841442Y-16301315D01*
X7831919Y-16339410D01*
X7822395Y-16358458D01*
X7812871Y-16367981D01*
X7793823Y-16377505D01*
X7774776Y-16377505D01*
X7755728Y-16367981D01*
X7746204Y-16358458D01*
X7736681Y-16339410D01*
X7727157Y-16301315D01*
X7727157Y-16253696D01*
X7736681Y-16215600D01*
X7746204Y-16196553D01*
X7755728Y-16187029D01*
X7774776Y-16177505D01*
X8031919Y-16377505D02*
X7917633Y-16377505D01*
X7974776Y-16377505D02*
X7974776Y-16177505D01*
X7955728Y-16206077D01*
X7936681Y-16225124D01*
X7917633Y-16234648D01*
X8203347Y-16177505D02*
X8165252Y-16177505D01*
X8146204Y-16187029D01*
X8136681Y-16196553D01*
X8117633Y-16225124D01*
X8108109Y-16263219D01*
X8108109Y-16339410D01*
X8117633Y-16358458D01*
X8127157Y-16367981D01*
X8146204Y-16377505D01*
X8184300Y-16377505D01*
X8203347Y-16367981D01*
X8212871Y-16358458D01*
X8222395Y-16339410D01*
X8222395Y-16291791D01*
X8212871Y-16272743D01*
X8203347Y-16263219D01*
X8184300Y-16253696D01*
X8146204Y-16253696D01*
X8127157Y-16263219D01*
X8117633Y-16272743D01*
X8108109Y-16291791D01*
X8308109Y-16377505D02*
X8308109Y-16244172D01*
X8308109Y-16263219D02*
X8317633Y-16253696D01*
X8336681Y-16244172D01*
X8365252Y-16244172D01*
X8384300Y-16253696D01*
X8393823Y-16272743D01*
X8393823Y-16377505D01*
X8393823Y-16272743D02*
X8403347Y-16253696D01*
X8422395Y-16244172D01*
X8450966Y-16244172D01*
X8470014Y-16253696D01*
X8479538Y-16272743D01*
X8479538Y-16377505D01*
X8574776Y-16377505D02*
X8574776Y-16244172D01*
X8574776Y-16263219D02*
X8584300Y-16253696D01*
X8603347Y-16244172D01*
X8631919Y-16244172D01*
X8650966Y-16253696D01*
X8660490Y-16272743D01*
X8660490Y-16377505D01*
X8660490Y-16272743D02*
X8670014Y-16253696D01*
X8689062Y-16244172D01*
X8717633Y-16244172D01*
X8736681Y-16253696D01*
X8746204Y-16272743D01*
X8746204Y-16377505D01*
X9136681Y-16167981D02*
X8965252Y-16425124D01*
X9393823Y-16177505D02*
X9412871Y-16177505D01*
X9431919Y-16187029D01*
X9441443Y-16196553D01*
X9450966Y-16215600D01*
X9460490Y-16253696D01*
X9460490Y-16301315D01*
X9450966Y-16339410D01*
X9441443Y-16358458D01*
X9431919Y-16367981D01*
X9412871Y-16377505D01*
X9393823Y-16377505D01*
X9374776Y-16367981D01*
X9365252Y-16358458D01*
X9355728Y-16339410D01*
X9346204Y-16301315D01*
X9346204Y-16253696D01*
X9355728Y-16215600D01*
X9365252Y-16196553D01*
X9374776Y-16187029D01*
X9393823Y-16177505D01*
X9546204Y-16358458D02*
X9555728Y-16367981D01*
X9546204Y-16377505D01*
X9536681Y-16367981D01*
X9546204Y-16358458D01*
X9546204Y-16377505D01*
X9679538Y-16177505D02*
X9698585Y-16177505D01*
X9717633Y-16187029D01*
X9727157Y-16196553D01*
X9736681Y-16215600D01*
X9746204Y-16253696D01*
X9746204Y-16301315D01*
X9736681Y-16339410D01*
X9727157Y-16358458D01*
X9717633Y-16367981D01*
X9698585Y-16377505D01*
X9679538Y-16377505D01*
X9660490Y-16367981D01*
X9650966Y-16358458D01*
X9641443Y-16339410D01*
X9631919Y-16301315D01*
X9631919Y-16253696D01*
X9641443Y-16215600D01*
X9650966Y-16196553D01*
X9660490Y-16187029D01*
X9679538Y-16177505D01*
X9917633Y-16244172D02*
X9917633Y-16377505D01*
X9870014Y-16167981D02*
X9822395Y-16310839D01*
X9946204Y-16310839D01*
X10060490Y-16177505D02*
X10079538Y-16177505D01*
X10098585Y-16187029D01*
X10108109Y-16196553D01*
X10117633Y-16215600D01*
X10127157Y-16253696D01*
X10127157Y-16301315D01*
X10117633Y-16339410D01*
X10108109Y-16358458D01*
X10098585Y-16367981D01*
X10079538Y-16377505D01*
X10060490Y-16377505D01*
X10041443Y-16367981D01*
X10031919Y-16358458D01*
X10022395Y-16339410D01*
X10012871Y-16301315D01*
X10012871Y-16253696D01*
X10022395Y-16215600D01*
X10031919Y-16196553D01*
X10041443Y-16187029D01*
X10060490Y-16177505D01*
X10250966Y-16177505D02*
X10270014Y-16177505D01*
X10289062Y-16187029D01*
X10298585Y-16196553D01*
X10308109Y-16215600D01*
X10317633Y-16253696D01*
X10317633Y-16301315D01*
X10308109Y-16339410D01*
X10298585Y-16358458D01*
X10289062Y-16367981D01*
X10270014Y-16377505D01*
X10250966Y-16377505D01*
X10231919Y-16367981D01*
X10222395Y-16358458D01*
X10212871Y-16339410D01*
X10203347Y-16301315D01*
X10203347Y-16253696D01*
X10212871Y-16215600D01*
X10222395Y-16196553D01*
X10231919Y-16187029D01*
X10250966Y-16177505D01*
X10393823Y-16177505D02*
X10393823Y-16215600D01*
X10470014Y-16177505D02*
X10470014Y-16215600D01*
X10765252Y-16453696D02*
X10755728Y-16444172D01*
X10736681Y-16415600D01*
X10727157Y-16396553D01*
X10717633Y-16367981D01*
X10708109Y-16320362D01*
X10708109Y-16282267D01*
X10717633Y-16234648D01*
X10727157Y-16206077D01*
X10736681Y-16187029D01*
X10755728Y-16158458D01*
X10765252Y-16148934D01*
X10927157Y-16244172D02*
X10927157Y-16377505D01*
X10879538Y-16167981D02*
X10831919Y-16310839D01*
X10955728Y-16310839D01*
X11041443Y-16377505D02*
X11079538Y-16377505D01*
X11098585Y-16367981D01*
X11108109Y-16358458D01*
X11127157Y-16329886D01*
X11136681Y-16291791D01*
X11136681Y-16215600D01*
X11127157Y-16196553D01*
X11117633Y-16187029D01*
X11098585Y-16177505D01*
X11060490Y-16177505D01*
X11041443Y-16187029D01*
X11031919Y-16196553D01*
X11022395Y-16215600D01*
X11022395Y-16263219D01*
X11031919Y-16282267D01*
X11041443Y-16291791D01*
X11060490Y-16301315D01*
X11098585Y-16301315D01*
X11117633Y-16291791D01*
X11127157Y-16282267D01*
X11136681Y-16263219D01*
X11374776Y-16377505D02*
X11374776Y-16177505D01*
X11460490Y-16377505D02*
X11460490Y-16272743D01*
X11450966Y-16253696D01*
X11431919Y-16244172D01*
X11403347Y-16244172D01*
X11384300Y-16253696D01*
X11374776Y-16263219D01*
X11584300Y-16377505D02*
X11565252Y-16367981D01*
X11555728Y-16358458D01*
X11546204Y-16339410D01*
X11546204Y-16282267D01*
X11555728Y-16263219D01*
X11565252Y-16253696D01*
X11584300Y-16244172D01*
X11612871Y-16244172D01*
X11631919Y-16253696D01*
X11641442Y-16263219D01*
X11650966Y-16282267D01*
X11650966Y-16339410D01*
X11641442Y-16358458D01*
X11631919Y-16367981D01*
X11612871Y-16377505D01*
X11584300Y-16377505D01*
X11765252Y-16377505D02*
X11746204Y-16367981D01*
X11736681Y-16348934D01*
X11736681Y-16177505D01*
X11917633Y-16367981D02*
X11898585Y-16377505D01*
X11860490Y-16377505D01*
X11841442Y-16367981D01*
X11831919Y-16348934D01*
X11831919Y-16272743D01*
X11841442Y-16253696D01*
X11860490Y-16244172D01*
X11898585Y-16244172D01*
X11917633Y-16253696D01*
X11927157Y-16272743D01*
X11927157Y-16291791D01*
X11831919Y-16310839D01*
X12003347Y-16367981D02*
X12022395Y-16377505D01*
X12060490Y-16377505D01*
X12079538Y-16367981D01*
X12089061Y-16348934D01*
X12089061Y-16339410D01*
X12079538Y-16320362D01*
X12060490Y-16310839D01*
X12031919Y-16310839D01*
X12012871Y-16301315D01*
X12003347Y-16282267D01*
X12003347Y-16272743D01*
X12012871Y-16253696D01*
X12031919Y-16244172D01*
X12060490Y-16244172D01*
X12079538Y-16253696D01*
X12155728Y-16453696D02*
X12165252Y-16444172D01*
X12184300Y-16415600D01*
X12193823Y-16396553D01*
X12203347Y-16367981D01*
X12212871Y-16320362D01*
X12212871Y-16282267D01*
X12203347Y-16234648D01*
X12193823Y-16206077D01*
X12184300Y-16187029D01*
X12165252Y-16158458D01*
X12155728Y-16148934D01*
D20*
X7088547Y-16498629D02*
X7193347Y-16603429D01*
X7193347Y-16498629D02*
X7088547Y-16603429D01*
X7140947Y-16603429D02*
X7193347Y-16551029D01*
X7140947Y-16498629D01*
X7088547Y-16551029D01*
X7140947Y-16603429D01*
D11*
X7555728Y-16641505D02*
X7441442Y-16641505D01*
X7498585Y-16641505D02*
X7498585Y-16441505D01*
X7479538Y-16470077D01*
X7460490Y-16489124D01*
X7441442Y-16498648D01*
X7641442Y-16622458D02*
X7650966Y-16631981D01*
X7641442Y-16641505D01*
X7631919Y-16631981D01*
X7641442Y-16622458D01*
X7641442Y-16641505D01*
X7774776Y-16441505D02*
X7793823Y-16441505D01*
X7812871Y-16451029D01*
X7822395Y-16460553D01*
X7831919Y-16479600D01*
X7841442Y-16517696D01*
X7841442Y-16565315D01*
X7831919Y-16603410D01*
X7822395Y-16622458D01*
X7812871Y-16631981D01*
X7793823Y-16641505D01*
X7774776Y-16641505D01*
X7755728Y-16631981D01*
X7746204Y-16622458D01*
X7736681Y-16603410D01*
X7727157Y-16565315D01*
X7727157Y-16517696D01*
X7736681Y-16479600D01*
X7746204Y-16460553D01*
X7755728Y-16451029D01*
X7774776Y-16441505D01*
X8012871Y-16508172D02*
X8012871Y-16641505D01*
X7965252Y-16431981D02*
X7917633Y-16574839D01*
X8041442Y-16574839D01*
X8146204Y-16527219D02*
X8127157Y-16517696D01*
X8117633Y-16508172D01*
X8108109Y-16489124D01*
X8108109Y-16479600D01*
X8117633Y-16460553D01*
X8127157Y-16451029D01*
X8146204Y-16441505D01*
X8184300Y-16441505D01*
X8203347Y-16451029D01*
X8212871Y-16460553D01*
X8222395Y-16479600D01*
X8222395Y-16489124D01*
X8212871Y-16508172D01*
X8203347Y-16517696D01*
X8184300Y-16527219D01*
X8146204Y-16527219D01*
X8127157Y-16536743D01*
X8117633Y-16546267D01*
X8108109Y-16565315D01*
X8108109Y-16603410D01*
X8117633Y-16622458D01*
X8127157Y-16631981D01*
X8146204Y-16641505D01*
X8184300Y-16641505D01*
X8203347Y-16631981D01*
X8212871Y-16622458D01*
X8222395Y-16603410D01*
X8222395Y-16565315D01*
X8212871Y-16546267D01*
X8203347Y-16536743D01*
X8184300Y-16527219D01*
X8308109Y-16641505D02*
X8308109Y-16508172D01*
X8308109Y-16527219D02*
X8317633Y-16517696D01*
X8336681Y-16508172D01*
X8365252Y-16508172D01*
X8384300Y-16517696D01*
X8393823Y-16536743D01*
X8393823Y-16641505D01*
X8393823Y-16536743D02*
X8403347Y-16517696D01*
X8422395Y-16508172D01*
X8450966Y-16508172D01*
X8470014Y-16517696D01*
X8479538Y-16536743D01*
X8479538Y-16641505D01*
X8574776Y-16641505D02*
X8574776Y-16508172D01*
X8574776Y-16527219D02*
X8584300Y-16517696D01*
X8603347Y-16508172D01*
X8631919Y-16508172D01*
X8650966Y-16517696D01*
X8660490Y-16536743D01*
X8660490Y-16641505D01*
X8660490Y-16536743D02*
X8670014Y-16517696D01*
X8689062Y-16508172D01*
X8717633Y-16508172D01*
X8736681Y-16517696D01*
X8746204Y-16536743D01*
X8746204Y-16641505D01*
X9136681Y-16431981D02*
X8965252Y-16689124D01*
X9393823Y-16441505D02*
X9412871Y-16441505D01*
X9431919Y-16451029D01*
X9441443Y-16460553D01*
X9450966Y-16479600D01*
X9460490Y-16517696D01*
X9460490Y-16565315D01*
X9450966Y-16603410D01*
X9441443Y-16622458D01*
X9431919Y-16631981D01*
X9412871Y-16641505D01*
X9393823Y-16641505D01*
X9374776Y-16631981D01*
X9365252Y-16622458D01*
X9355728Y-16603410D01*
X9346204Y-16565315D01*
X9346204Y-16517696D01*
X9355728Y-16479600D01*
X9365252Y-16460553D01*
X9374776Y-16451029D01*
X9393823Y-16441505D01*
X9546204Y-16622458D02*
X9555728Y-16631981D01*
X9546204Y-16641505D01*
X9536681Y-16631981D01*
X9546204Y-16622458D01*
X9546204Y-16641505D01*
X9679538Y-16441505D02*
X9698585Y-16441505D01*
X9717633Y-16451029D01*
X9727157Y-16460553D01*
X9736681Y-16479600D01*
X9746204Y-16517696D01*
X9746204Y-16565315D01*
X9736681Y-16603410D01*
X9727157Y-16622458D01*
X9717633Y-16631981D01*
X9698585Y-16641505D01*
X9679538Y-16641505D01*
X9660490Y-16631981D01*
X9650966Y-16622458D01*
X9641443Y-16603410D01*
X9631919Y-16565315D01*
X9631919Y-16517696D01*
X9641443Y-16479600D01*
X9650966Y-16460553D01*
X9660490Y-16451029D01*
X9679538Y-16441505D01*
X9917633Y-16508172D02*
X9917633Y-16641505D01*
X9870014Y-16431981D02*
X9822395Y-16574839D01*
X9946204Y-16574839D01*
X10127157Y-16641505D02*
X10012871Y-16641505D01*
X10070014Y-16641505D02*
X10070014Y-16441505D01*
X10050966Y-16470077D01*
X10031919Y-16489124D01*
X10012871Y-16498648D01*
X10193823Y-16441505D02*
X10317633Y-16441505D01*
X10250966Y-16517696D01*
X10279538Y-16517696D01*
X10298585Y-16527219D01*
X10308109Y-16536743D01*
X10317633Y-16555791D01*
X10317633Y-16603410D01*
X10308109Y-16622458D01*
X10298585Y-16631981D01*
X10279538Y-16641505D01*
X10222395Y-16641505D01*
X10203347Y-16631981D01*
X10193823Y-16622458D01*
X10393823Y-16441505D02*
X10393823Y-16479600D01*
X10470014Y-16441505D02*
X10470014Y-16479600D01*
X10765252Y-16717696D02*
X10755728Y-16708172D01*
X10736681Y-16679600D01*
X10727157Y-16660553D01*
X10717633Y-16631981D01*
X10708109Y-16584362D01*
X10708109Y-16546267D01*
X10717633Y-16498648D01*
X10727157Y-16470077D01*
X10736681Y-16451029D01*
X10755728Y-16422458D01*
X10765252Y-16412934D01*
X10927157Y-16508172D02*
X10927157Y-16641505D01*
X10879538Y-16431981D02*
X10831919Y-16574839D01*
X10955728Y-16574839D01*
X11184300Y-16641505D02*
X11184300Y-16441505D01*
X11270014Y-16641505D02*
X11270014Y-16536743D01*
X11260490Y-16517696D01*
X11241442Y-16508172D01*
X11212871Y-16508172D01*
X11193823Y-16517696D01*
X11184300Y-16527219D01*
X11393823Y-16641505D02*
X11374776Y-16631981D01*
X11365252Y-16622458D01*
X11355728Y-16603410D01*
X11355728Y-16546267D01*
X11365252Y-16527219D01*
X11374776Y-16517696D01*
X11393823Y-16508172D01*
X11422395Y-16508172D01*
X11441442Y-16517696D01*
X11450966Y-16527219D01*
X11460490Y-16546267D01*
X11460490Y-16603410D01*
X11450966Y-16622458D01*
X11441442Y-16631981D01*
X11422395Y-16641505D01*
X11393823Y-16641505D01*
X11574776Y-16641505D02*
X11555728Y-16631981D01*
X11546204Y-16612934D01*
X11546204Y-16441505D01*
X11727157Y-16631981D02*
X11708109Y-16641505D01*
X11670014Y-16641505D01*
X11650966Y-16631981D01*
X11641442Y-16612934D01*
X11641442Y-16536743D01*
X11650966Y-16517696D01*
X11670014Y-16508172D01*
X11708109Y-16508172D01*
X11727157Y-16517696D01*
X11736681Y-16536743D01*
X11736681Y-16555791D01*
X11641442Y-16574839D01*
X11812871Y-16631981D02*
X11831919Y-16641505D01*
X11870014Y-16641505D01*
X11889061Y-16631981D01*
X11898585Y-16612934D01*
X11898585Y-16603410D01*
X11889061Y-16584362D01*
X11870014Y-16574839D01*
X11841442Y-16574839D01*
X11822395Y-16565315D01*
X11812871Y-16546267D01*
X11812871Y-16536743D01*
X11822395Y-16517696D01*
X11841442Y-16508172D01*
X11870014Y-16508172D01*
X11889061Y-16517696D01*
X11965252Y-16717696D02*
X11974776Y-16708172D01*
X11993823Y-16679600D01*
X12003347Y-16660553D01*
X12012871Y-16631981D01*
X12022395Y-16584362D01*
X12022395Y-16546267D01*
X12012871Y-16498648D01*
X12003347Y-16470077D01*
X11993823Y-16451029D01*
X11974776Y-16422458D01*
X11965252Y-16412934D01*
D21*
X7133347Y-16755029D02*
X7133347Y-16875029D01*
X7073347Y-16815029D02*
X7193347Y-16815029D01*
X7193347Y-16815029D02*
G75*
G03*
X7193347Y-16815029I-60000J0D01*
G01*
D11*
X7555728Y-16905505D02*
X7441442Y-16905505D01*
X7498585Y-16905505D02*
X7498585Y-16705505D01*
X7479538Y-16734077D01*
X7460490Y-16753124D01*
X7441442Y-16762648D01*
X7641442Y-16886458D02*
X7650966Y-16895981D01*
X7641442Y-16905505D01*
X7631919Y-16895981D01*
X7641442Y-16886458D01*
X7641442Y-16905505D01*
X7727157Y-16724553D02*
X7736681Y-16715029D01*
X7755728Y-16705505D01*
X7803347Y-16705505D01*
X7822395Y-16715029D01*
X7831919Y-16724553D01*
X7841442Y-16743600D01*
X7841442Y-16762648D01*
X7831919Y-16791220D01*
X7717633Y-16905505D01*
X7841442Y-16905505D01*
X7965252Y-16705505D02*
X7984300Y-16705505D01*
X8003347Y-16715029D01*
X8012871Y-16724553D01*
X8022395Y-16743600D01*
X8031919Y-16781696D01*
X8031919Y-16829315D01*
X8022395Y-16867410D01*
X8012871Y-16886458D01*
X8003347Y-16895981D01*
X7984300Y-16905505D01*
X7965252Y-16905505D01*
X7946204Y-16895981D01*
X7936681Y-16886458D01*
X7927157Y-16867410D01*
X7917633Y-16829315D01*
X7917633Y-16781696D01*
X7927157Y-16743600D01*
X7936681Y-16724553D01*
X7946204Y-16715029D01*
X7965252Y-16705505D01*
X8155728Y-16705505D02*
X8174776Y-16705505D01*
X8193823Y-16715029D01*
X8203347Y-16724553D01*
X8212871Y-16743600D01*
X8222395Y-16781696D01*
X8222395Y-16829315D01*
X8212871Y-16867410D01*
X8203347Y-16886458D01*
X8193823Y-16895981D01*
X8174776Y-16905505D01*
X8155728Y-16905505D01*
X8136681Y-16895981D01*
X8127157Y-16886458D01*
X8117633Y-16867410D01*
X8108109Y-16829315D01*
X8108109Y-16781696D01*
X8117633Y-16743600D01*
X8127157Y-16724553D01*
X8136681Y-16715029D01*
X8155728Y-16705505D01*
X8308109Y-16905505D02*
X8308109Y-16772172D01*
X8308109Y-16791220D02*
X8317633Y-16781696D01*
X8336681Y-16772172D01*
X8365252Y-16772172D01*
X8384300Y-16781696D01*
X8393823Y-16800743D01*
X8393823Y-16905505D01*
X8393823Y-16800743D02*
X8403347Y-16781696D01*
X8422395Y-16772172D01*
X8450966Y-16772172D01*
X8470014Y-16781696D01*
X8479538Y-16800743D01*
X8479538Y-16905505D01*
X8574776Y-16905505D02*
X8574776Y-16772172D01*
X8574776Y-16791220D02*
X8584300Y-16781696D01*
X8603347Y-16772172D01*
X8631919Y-16772172D01*
X8650966Y-16781696D01*
X8660490Y-16800743D01*
X8660490Y-16905505D01*
X8660490Y-16800743D02*
X8670014Y-16781696D01*
X8689062Y-16772172D01*
X8717633Y-16772172D01*
X8736681Y-16781696D01*
X8746204Y-16800743D01*
X8746204Y-16905505D01*
X9136681Y-16695981D02*
X8965252Y-16953124D01*
X9393823Y-16705505D02*
X9412871Y-16705505D01*
X9431919Y-16715029D01*
X9441443Y-16724553D01*
X9450966Y-16743600D01*
X9460490Y-16781696D01*
X9460490Y-16829315D01*
X9450966Y-16867410D01*
X9441443Y-16886458D01*
X9431919Y-16895981D01*
X9412871Y-16905505D01*
X9393823Y-16905505D01*
X9374776Y-16895981D01*
X9365252Y-16886458D01*
X9355728Y-16867410D01*
X9346204Y-16829315D01*
X9346204Y-16781696D01*
X9355728Y-16743600D01*
X9365252Y-16724553D01*
X9374776Y-16715029D01*
X9393823Y-16705505D01*
X9546204Y-16886458D02*
X9555728Y-16895981D01*
X9546204Y-16905505D01*
X9536681Y-16895981D01*
X9546204Y-16886458D01*
X9546204Y-16905505D01*
X9679538Y-16705505D02*
X9698585Y-16705505D01*
X9717633Y-16715029D01*
X9727157Y-16724553D01*
X9736681Y-16743600D01*
X9746204Y-16781696D01*
X9746204Y-16829315D01*
X9736681Y-16867410D01*
X9727157Y-16886458D01*
X9717633Y-16895981D01*
X9698585Y-16905505D01*
X9679538Y-16905505D01*
X9660490Y-16895981D01*
X9650966Y-16886458D01*
X9641443Y-16867410D01*
X9631919Y-16829315D01*
X9631919Y-16781696D01*
X9641443Y-16743600D01*
X9650966Y-16724553D01*
X9660490Y-16715029D01*
X9679538Y-16705505D01*
X9917633Y-16772172D02*
X9917633Y-16905505D01*
X9870014Y-16695981D02*
X9822395Y-16838839D01*
X9946204Y-16838839D01*
X10003347Y-16705505D02*
X10136681Y-16705505D01*
X10050966Y-16905505D01*
X10203347Y-16724553D02*
X10212871Y-16715029D01*
X10231919Y-16705505D01*
X10279538Y-16705505D01*
X10298585Y-16715029D01*
X10308109Y-16724553D01*
X10317633Y-16743600D01*
X10317633Y-16762648D01*
X10308109Y-16791220D01*
X10193823Y-16905505D01*
X10317633Y-16905505D01*
X10393823Y-16705505D02*
X10393823Y-16743600D01*
X10470014Y-16705505D02*
X10470014Y-16743600D01*
X10765252Y-16981696D02*
X10755728Y-16972172D01*
X10736681Y-16943601D01*
X10727157Y-16924553D01*
X10717633Y-16895981D01*
X10708109Y-16848362D01*
X10708109Y-16810267D01*
X10717633Y-16762648D01*
X10727157Y-16734077D01*
X10736681Y-16715029D01*
X10755728Y-16686458D01*
X10765252Y-16676934D01*
X10831919Y-16724553D02*
X10841443Y-16715029D01*
X10860490Y-16705505D01*
X10908109Y-16705505D01*
X10927157Y-16715029D01*
X10936681Y-16724553D01*
X10946204Y-16743600D01*
X10946204Y-16762648D01*
X10936681Y-16791220D01*
X10822395Y-16905505D01*
X10946204Y-16905505D01*
X11184300Y-16905505D02*
X11184300Y-16705505D01*
X11270014Y-16905505D02*
X11270014Y-16800743D01*
X11260490Y-16781696D01*
X11241442Y-16772172D01*
X11212871Y-16772172D01*
X11193823Y-16781696D01*
X11184300Y-16791220D01*
X11393823Y-16905505D02*
X11374776Y-16895981D01*
X11365252Y-16886458D01*
X11355728Y-16867410D01*
X11355728Y-16810267D01*
X11365252Y-16791220D01*
X11374776Y-16781696D01*
X11393823Y-16772172D01*
X11422395Y-16772172D01*
X11441442Y-16781696D01*
X11450966Y-16791220D01*
X11460490Y-16810267D01*
X11460490Y-16867410D01*
X11450966Y-16886458D01*
X11441442Y-16895981D01*
X11422395Y-16905505D01*
X11393823Y-16905505D01*
X11574776Y-16905505D02*
X11555728Y-16895981D01*
X11546204Y-16876934D01*
X11546204Y-16705505D01*
X11727157Y-16895981D02*
X11708109Y-16905505D01*
X11670014Y-16905505D01*
X11650966Y-16895981D01*
X11641442Y-16876934D01*
X11641442Y-16800743D01*
X11650966Y-16781696D01*
X11670014Y-16772172D01*
X11708109Y-16772172D01*
X11727157Y-16781696D01*
X11736681Y-16800743D01*
X11736681Y-16819791D01*
X11641442Y-16838839D01*
X11812871Y-16895981D02*
X11831919Y-16905505D01*
X11870014Y-16905505D01*
X11889061Y-16895981D01*
X11898585Y-16876934D01*
X11898585Y-16867410D01*
X11889061Y-16848362D01*
X11870014Y-16838839D01*
X11841442Y-16838839D01*
X11822395Y-16829315D01*
X11812871Y-16810267D01*
X11812871Y-16800743D01*
X11822395Y-16781696D01*
X11841442Y-16772172D01*
X11870014Y-16772172D01*
X11889061Y-16781696D01*
X11965252Y-16981696D02*
X11974776Y-16972172D01*
X11993823Y-16943601D01*
X12003347Y-16924553D01*
X12012871Y-16895981D01*
X12022395Y-16848362D01*
X12022395Y-16810267D01*
X12012871Y-16762648D01*
X12003347Y-16734077D01*
X11993823Y-16715029D01*
X11974776Y-16686458D01*
X11965252Y-16676934D01*
D22*
X7171381Y-17132063D02*
X7171381Y-17025996D01*
X7065314Y-17025996D01*
X7065314Y-17132063D01*
X7171381Y-17132063D01*
X7193347Y-17079029D02*
G75*
G03*
X7193347Y-17079029I-75000J0D01*
G01*
D11*
X7555728Y-17169505D02*
X7441442Y-17169505D01*
X7498585Y-17169505D02*
X7498585Y-16969505D01*
X7479538Y-16998077D01*
X7460490Y-17017124D01*
X7441442Y-17026648D01*
X7641442Y-17150458D02*
X7650966Y-17159981D01*
X7641442Y-17169505D01*
X7631919Y-17159981D01*
X7641442Y-17150458D01*
X7641442Y-17169505D01*
X7831919Y-16969505D02*
X7736681Y-16969505D01*
X7727157Y-17064743D01*
X7736681Y-17055220D01*
X7755728Y-17045696D01*
X7803347Y-17045696D01*
X7822395Y-17055220D01*
X7831919Y-17064743D01*
X7841442Y-17083791D01*
X7841442Y-17131410D01*
X7831919Y-17150458D01*
X7822395Y-17159981D01*
X7803347Y-17169505D01*
X7755728Y-17169505D01*
X7736681Y-17159981D01*
X7727157Y-17150458D01*
X7965252Y-16969505D02*
X7984300Y-16969505D01*
X8003347Y-16979029D01*
X8012871Y-16988553D01*
X8022395Y-17007601D01*
X8031919Y-17045696D01*
X8031919Y-17093315D01*
X8022395Y-17131410D01*
X8012871Y-17150458D01*
X8003347Y-17159981D01*
X7984300Y-17169505D01*
X7965252Y-17169505D01*
X7946204Y-17159981D01*
X7936681Y-17150458D01*
X7927157Y-17131410D01*
X7917633Y-17093315D01*
X7917633Y-17045696D01*
X7927157Y-17007601D01*
X7936681Y-16988553D01*
X7946204Y-16979029D01*
X7965252Y-16969505D01*
X8155728Y-16969505D02*
X8174776Y-16969505D01*
X8193823Y-16979029D01*
X8203347Y-16988553D01*
X8212871Y-17007601D01*
X8222395Y-17045696D01*
X8222395Y-17093315D01*
X8212871Y-17131410D01*
X8203347Y-17150458D01*
X8193823Y-17159981D01*
X8174776Y-17169505D01*
X8155728Y-17169505D01*
X8136681Y-17159981D01*
X8127157Y-17150458D01*
X8117633Y-17131410D01*
X8108109Y-17093315D01*
X8108109Y-17045696D01*
X8117633Y-17007601D01*
X8127157Y-16988553D01*
X8136681Y-16979029D01*
X8155728Y-16969505D01*
X8308109Y-17169505D02*
X8308109Y-17036172D01*
X8308109Y-17055220D02*
X8317633Y-17045696D01*
X8336681Y-17036172D01*
X8365252Y-17036172D01*
X8384300Y-17045696D01*
X8393823Y-17064743D01*
X8393823Y-17169505D01*
X8393823Y-17064743D02*
X8403347Y-17045696D01*
X8422395Y-17036172D01*
X8450966Y-17036172D01*
X8470014Y-17045696D01*
X8479538Y-17064743D01*
X8479538Y-17169505D01*
X8574776Y-17169505D02*
X8574776Y-17036172D01*
X8574776Y-17055220D02*
X8584300Y-17045696D01*
X8603347Y-17036172D01*
X8631919Y-17036172D01*
X8650966Y-17045696D01*
X8660490Y-17064743D01*
X8660490Y-17169505D01*
X8660490Y-17064743D02*
X8670014Y-17045696D01*
X8689062Y-17036172D01*
X8717633Y-17036172D01*
X8736681Y-17045696D01*
X8746204Y-17064743D01*
X8746204Y-17169505D01*
X9136681Y-16959981D02*
X8965252Y-17217124D01*
X9393823Y-16969505D02*
X9412871Y-16969505D01*
X9431919Y-16979029D01*
X9441443Y-16988553D01*
X9450966Y-17007601D01*
X9460490Y-17045696D01*
X9460490Y-17093315D01*
X9450966Y-17131410D01*
X9441443Y-17150458D01*
X9431919Y-17159981D01*
X9412871Y-17169505D01*
X9393823Y-17169505D01*
X9374776Y-17159981D01*
X9365252Y-17150458D01*
X9355728Y-17131410D01*
X9346204Y-17093315D01*
X9346204Y-17045696D01*
X9355728Y-17007601D01*
X9365252Y-16988553D01*
X9374776Y-16979029D01*
X9393823Y-16969505D01*
X9546204Y-17150458D02*
X9555728Y-17159981D01*
X9546204Y-17169505D01*
X9536681Y-17159981D01*
X9546204Y-17150458D01*
X9546204Y-17169505D01*
X9679538Y-16969505D02*
X9698585Y-16969505D01*
X9717633Y-16979029D01*
X9727157Y-16988553D01*
X9736681Y-17007601D01*
X9746204Y-17045696D01*
X9746204Y-17093315D01*
X9736681Y-17131410D01*
X9727157Y-17150458D01*
X9717633Y-17159981D01*
X9698585Y-17169505D01*
X9679538Y-17169505D01*
X9660490Y-17159981D01*
X9650966Y-17150458D01*
X9641443Y-17131410D01*
X9631919Y-17093315D01*
X9631919Y-17045696D01*
X9641443Y-17007601D01*
X9650966Y-16988553D01*
X9660490Y-16979029D01*
X9679538Y-16969505D01*
X9927157Y-16969505D02*
X9831919Y-16969505D01*
X9822395Y-17064743D01*
X9831919Y-17055220D01*
X9850966Y-17045696D01*
X9898585Y-17045696D01*
X9917633Y-17055220D01*
X9927157Y-17064743D01*
X9936681Y-17083791D01*
X9936681Y-17131410D01*
X9927157Y-17150458D01*
X9917633Y-17159981D01*
X9898585Y-17169505D01*
X9850966Y-17169505D01*
X9831919Y-17159981D01*
X9822395Y-17150458D01*
X10031919Y-17169505D02*
X10070014Y-17169505D01*
X10089062Y-17159981D01*
X10098585Y-17150458D01*
X10117633Y-17121886D01*
X10127157Y-17083791D01*
X10127157Y-17007601D01*
X10117633Y-16988553D01*
X10108109Y-16979029D01*
X10089062Y-16969505D01*
X10050966Y-16969505D01*
X10031919Y-16979029D01*
X10022395Y-16988553D01*
X10012871Y-17007601D01*
X10012871Y-17055220D01*
X10022395Y-17074267D01*
X10031919Y-17083791D01*
X10050966Y-17093315D01*
X10089062Y-17093315D01*
X10108109Y-17083791D01*
X10117633Y-17074267D01*
X10127157Y-17055220D01*
X10317633Y-17169505D02*
X10203347Y-17169505D01*
X10260490Y-17169505D02*
X10260490Y-16969505D01*
X10241443Y-16998077D01*
X10222395Y-17017124D01*
X10203347Y-17026648D01*
X10393823Y-16969505D02*
X10393823Y-17007601D01*
X10470014Y-16969505D02*
X10470014Y-17007601D01*
X10765252Y-17245696D02*
X10755728Y-17236172D01*
X10736681Y-17207601D01*
X10727157Y-17188553D01*
X10717633Y-17159981D01*
X10708109Y-17112362D01*
X10708109Y-17074267D01*
X10717633Y-17026648D01*
X10727157Y-16998077D01*
X10736681Y-16979029D01*
X10755728Y-16950458D01*
X10765252Y-16940934D01*
X10946204Y-17169505D02*
X10831919Y-17169505D01*
X10889062Y-17169505D02*
X10889062Y-16969505D01*
X10870014Y-16998077D01*
X10850966Y-17017124D01*
X10831919Y-17026648D01*
X11022395Y-16988553D02*
X11031919Y-16979029D01*
X11050966Y-16969505D01*
X11098585Y-16969505D01*
X11117633Y-16979029D01*
X11127157Y-16988553D01*
X11136681Y-17007601D01*
X11136681Y-17026648D01*
X11127157Y-17055220D01*
X11012871Y-17169505D01*
X11136681Y-17169505D01*
X11374776Y-17169505D02*
X11374776Y-16969505D01*
X11460490Y-17169505D02*
X11460490Y-17064743D01*
X11450966Y-17045696D01*
X11431919Y-17036172D01*
X11403347Y-17036172D01*
X11384300Y-17045696D01*
X11374776Y-17055220D01*
X11584300Y-17169505D02*
X11565252Y-17159981D01*
X11555728Y-17150458D01*
X11546204Y-17131410D01*
X11546204Y-17074267D01*
X11555728Y-17055220D01*
X11565252Y-17045696D01*
X11584300Y-17036172D01*
X11612871Y-17036172D01*
X11631919Y-17045696D01*
X11641442Y-17055220D01*
X11650966Y-17074267D01*
X11650966Y-17131410D01*
X11641442Y-17150458D01*
X11631919Y-17159981D01*
X11612871Y-17169505D01*
X11584300Y-17169505D01*
X11765252Y-17169505D02*
X11746204Y-17159981D01*
X11736681Y-17140934D01*
X11736681Y-16969505D01*
X11917633Y-17159981D02*
X11898585Y-17169505D01*
X11860490Y-17169505D01*
X11841442Y-17159981D01*
X11831919Y-17140934D01*
X11831919Y-17064743D01*
X11841442Y-17045696D01*
X11860490Y-17036172D01*
X11898585Y-17036172D01*
X11917633Y-17045696D01*
X11927157Y-17064743D01*
X11927157Y-17083791D01*
X11831919Y-17102839D01*
X12003347Y-17159981D02*
X12022395Y-17169505D01*
X12060490Y-17169505D01*
X12079538Y-17159981D01*
X12089061Y-17140934D01*
X12089061Y-17131410D01*
X12079538Y-17112362D01*
X12060490Y-17102839D01*
X12031919Y-17102839D01*
X12012871Y-17093315D01*
X12003347Y-17074267D01*
X12003347Y-17064743D01*
X12012871Y-17045696D01*
X12031919Y-17036172D01*
X12060490Y-17036172D01*
X12079538Y-17045696D01*
X12155728Y-17245696D02*
X12165252Y-17236172D01*
X12184300Y-17207601D01*
X12193823Y-17188553D01*
X12203347Y-17159981D01*
X12212871Y-17112362D01*
X12212871Y-17074267D01*
X12203347Y-17026648D01*
X12193823Y-16998077D01*
X12184300Y-16979029D01*
X12165252Y-16950458D01*
X12155728Y-16940934D01*
D23*
X7103347Y-17439029D02*
X7193347Y-17349029D01*
X7103347Y-17259029D01*
X7013347Y-17349029D01*
X7103347Y-17439029D01*
X7193347Y-17349029D02*
G75*
G03*
X7193347Y-17349029I-90000J0D01*
G01*
D11*
X7555728Y-17439505D02*
X7441442Y-17439505D01*
X7498585Y-17439505D02*
X7498585Y-17239505D01*
X7479538Y-17268077D01*
X7460490Y-17287124D01*
X7441442Y-17296648D01*
X7641442Y-17420458D02*
X7650966Y-17429981D01*
X7641442Y-17439505D01*
X7631919Y-17429981D01*
X7641442Y-17420458D01*
X7641442Y-17439505D01*
X7765252Y-17325220D02*
X7746204Y-17315696D01*
X7736681Y-17306172D01*
X7727157Y-17287124D01*
X7727157Y-17277601D01*
X7736681Y-17258553D01*
X7746204Y-17249029D01*
X7765252Y-17239505D01*
X7803347Y-17239505D01*
X7822395Y-17249029D01*
X7831919Y-17258553D01*
X7841442Y-17277601D01*
X7841442Y-17287124D01*
X7831919Y-17306172D01*
X7822395Y-17315696D01*
X7803347Y-17325220D01*
X7765252Y-17325220D01*
X7746204Y-17334743D01*
X7736681Y-17344267D01*
X7727157Y-17363315D01*
X7727157Y-17401410D01*
X7736681Y-17420458D01*
X7746204Y-17429981D01*
X7765252Y-17439505D01*
X7803347Y-17439505D01*
X7822395Y-17429981D01*
X7831919Y-17420458D01*
X7841442Y-17401410D01*
X7841442Y-17363315D01*
X7831919Y-17344267D01*
X7822395Y-17334743D01*
X7803347Y-17325220D01*
X7965252Y-17239505D02*
X7984300Y-17239505D01*
X8003347Y-17249029D01*
X8012871Y-17258553D01*
X8022395Y-17277601D01*
X8031919Y-17315696D01*
X8031919Y-17363315D01*
X8022395Y-17401410D01*
X8012871Y-17420458D01*
X8003347Y-17429981D01*
X7984300Y-17439505D01*
X7965252Y-17439505D01*
X7946204Y-17429981D01*
X7936681Y-17420458D01*
X7927157Y-17401410D01*
X7917633Y-17363315D01*
X7917633Y-17315696D01*
X7927157Y-17277601D01*
X7936681Y-17258553D01*
X7946204Y-17249029D01*
X7965252Y-17239505D01*
X8155728Y-17239505D02*
X8174776Y-17239505D01*
X8193823Y-17249029D01*
X8203347Y-17258553D01*
X8212871Y-17277601D01*
X8222395Y-17315696D01*
X8222395Y-17363315D01*
X8212871Y-17401410D01*
X8203347Y-17420458D01*
X8193823Y-17429981D01*
X8174776Y-17439505D01*
X8155728Y-17439505D01*
X8136681Y-17429981D01*
X8127157Y-17420458D01*
X8117633Y-17401410D01*
X8108109Y-17363315D01*
X8108109Y-17315696D01*
X8117633Y-17277601D01*
X8127157Y-17258553D01*
X8136681Y-17249029D01*
X8155728Y-17239505D01*
X8308109Y-17439505D02*
X8308109Y-17306172D01*
X8308109Y-17325220D02*
X8317633Y-17315696D01*
X8336681Y-17306172D01*
X8365252Y-17306172D01*
X8384300Y-17315696D01*
X8393823Y-17334743D01*
X8393823Y-17439505D01*
X8393823Y-17334743D02*
X8403347Y-17315696D01*
X8422395Y-17306172D01*
X8450966Y-17306172D01*
X8470014Y-17315696D01*
X8479538Y-17334743D01*
X8479538Y-17439505D01*
X8574776Y-17439505D02*
X8574776Y-17306172D01*
X8574776Y-17325220D02*
X8584300Y-17315696D01*
X8603347Y-17306172D01*
X8631919Y-17306172D01*
X8650966Y-17315696D01*
X8660490Y-17334743D01*
X8660490Y-17439505D01*
X8660490Y-17334743D02*
X8670014Y-17315696D01*
X8689062Y-17306172D01*
X8717633Y-17306172D01*
X8736681Y-17315696D01*
X8746204Y-17334743D01*
X8746204Y-17439505D01*
X9136681Y-17229981D02*
X8965252Y-17487124D01*
X9393823Y-17239505D02*
X9412871Y-17239505D01*
X9431919Y-17249029D01*
X9441443Y-17258553D01*
X9450966Y-17277601D01*
X9460490Y-17315696D01*
X9460490Y-17363315D01*
X9450966Y-17401410D01*
X9441443Y-17420458D01*
X9431919Y-17429981D01*
X9412871Y-17439505D01*
X9393823Y-17439505D01*
X9374776Y-17429981D01*
X9365252Y-17420458D01*
X9355728Y-17401410D01*
X9346204Y-17363315D01*
X9346204Y-17315696D01*
X9355728Y-17277601D01*
X9365252Y-17258553D01*
X9374776Y-17249029D01*
X9393823Y-17239505D01*
X9546204Y-17420458D02*
X9555728Y-17429981D01*
X9546204Y-17439505D01*
X9536681Y-17429981D01*
X9546204Y-17420458D01*
X9546204Y-17439505D01*
X9679538Y-17239505D02*
X9698585Y-17239505D01*
X9717633Y-17249029D01*
X9727157Y-17258553D01*
X9736681Y-17277601D01*
X9746204Y-17315696D01*
X9746204Y-17363315D01*
X9736681Y-17401410D01*
X9727157Y-17420458D01*
X9717633Y-17429981D01*
X9698585Y-17439505D01*
X9679538Y-17439505D01*
X9660490Y-17429981D01*
X9650966Y-17420458D01*
X9641443Y-17401410D01*
X9631919Y-17363315D01*
X9631919Y-17315696D01*
X9641443Y-17277601D01*
X9650966Y-17258553D01*
X9660490Y-17249029D01*
X9679538Y-17239505D01*
X9812871Y-17239505D02*
X9946204Y-17239505D01*
X9860490Y-17439505D01*
X10060490Y-17239505D02*
X10079538Y-17239505D01*
X10098585Y-17249029D01*
X10108109Y-17258553D01*
X10117633Y-17277601D01*
X10127157Y-17315696D01*
X10127157Y-17363315D01*
X10117633Y-17401410D01*
X10108109Y-17420458D01*
X10098585Y-17429981D01*
X10079538Y-17439505D01*
X10060490Y-17439505D01*
X10041443Y-17429981D01*
X10031919Y-17420458D01*
X10022395Y-17401410D01*
X10012871Y-17363315D01*
X10012871Y-17315696D01*
X10022395Y-17277601D01*
X10031919Y-17258553D01*
X10041443Y-17249029D01*
X10060490Y-17239505D01*
X10222395Y-17439505D02*
X10260490Y-17439505D01*
X10279538Y-17429981D01*
X10289062Y-17420458D01*
X10308109Y-17391886D01*
X10317633Y-17353791D01*
X10317633Y-17277601D01*
X10308109Y-17258553D01*
X10298585Y-17249029D01*
X10279538Y-17239505D01*
X10241443Y-17239505D01*
X10222395Y-17249029D01*
X10212871Y-17258553D01*
X10203347Y-17277601D01*
X10203347Y-17325220D01*
X10212871Y-17344267D01*
X10222395Y-17353791D01*
X10241443Y-17363315D01*
X10279538Y-17363315D01*
X10298585Y-17353791D01*
X10308109Y-17344267D01*
X10317633Y-17325220D01*
X10393823Y-17239505D02*
X10393823Y-17277601D01*
X10470014Y-17239505D02*
X10470014Y-17277601D01*
X10765252Y-17515696D02*
X10755728Y-17506172D01*
X10736681Y-17477601D01*
X10727157Y-17458553D01*
X10717633Y-17429981D01*
X10708109Y-17382362D01*
X10708109Y-17344267D01*
X10717633Y-17296648D01*
X10727157Y-17268077D01*
X10736681Y-17249029D01*
X10755728Y-17220458D01*
X10765252Y-17210934D01*
X10831919Y-17258553D02*
X10841443Y-17249029D01*
X10860490Y-17239505D01*
X10908109Y-17239505D01*
X10927157Y-17249029D01*
X10936681Y-17258553D01*
X10946204Y-17277601D01*
X10946204Y-17296648D01*
X10936681Y-17325220D01*
X10822395Y-17439505D01*
X10946204Y-17439505D01*
X11184300Y-17439505D02*
X11184300Y-17239505D01*
X11270014Y-17439505D02*
X11270014Y-17334743D01*
X11260490Y-17315696D01*
X11241442Y-17306172D01*
X11212871Y-17306172D01*
X11193823Y-17315696D01*
X11184300Y-17325220D01*
X11393823Y-17439505D02*
X11374776Y-17429981D01*
X11365252Y-17420458D01*
X11355728Y-17401410D01*
X11355728Y-17344267D01*
X11365252Y-17325220D01*
X11374776Y-17315696D01*
X11393823Y-17306172D01*
X11422395Y-17306172D01*
X11441442Y-17315696D01*
X11450966Y-17325220D01*
X11460490Y-17344267D01*
X11460490Y-17401410D01*
X11450966Y-17420458D01*
X11441442Y-17429981D01*
X11422395Y-17439505D01*
X11393823Y-17439505D01*
X11574776Y-17439505D02*
X11555728Y-17429981D01*
X11546204Y-17410934D01*
X11546204Y-17239505D01*
X11727157Y-17429981D02*
X11708109Y-17439505D01*
X11670014Y-17439505D01*
X11650966Y-17429981D01*
X11641442Y-17410934D01*
X11641442Y-17334743D01*
X11650966Y-17315696D01*
X11670014Y-17306172D01*
X11708109Y-17306172D01*
X11727157Y-17315696D01*
X11736681Y-17334743D01*
X11736681Y-17353791D01*
X11641442Y-17372839D01*
X11812871Y-17429981D02*
X11831919Y-17439505D01*
X11870014Y-17439505D01*
X11889061Y-17429981D01*
X11898585Y-17410934D01*
X11898585Y-17401410D01*
X11889061Y-17382362D01*
X11870014Y-17372839D01*
X11841442Y-17372839D01*
X11822395Y-17363315D01*
X11812871Y-17344267D01*
X11812871Y-17334743D01*
X11822395Y-17315696D01*
X11841442Y-17306172D01*
X11870014Y-17306172D01*
X11889061Y-17315696D01*
X11965252Y-17515696D02*
X11974776Y-17506172D01*
X11993823Y-17477601D01*
X12003347Y-17458553D01*
X12012871Y-17429981D01*
X12022395Y-17382362D01*
X12022395Y-17344267D01*
X12012871Y-17296648D01*
X12003347Y-17268077D01*
X11993823Y-17249029D01*
X11974776Y-17220458D01*
X11965252Y-17210934D01*
X7093347Y-17549029D02*
X7093347Y-17749029D01*
X6993347Y-17649029D02*
X7193347Y-17649029D01*
X7164059Y-17719741D02*
X7164059Y-17578318D01*
X7022636Y-17578318D01*
X7022636Y-17719741D01*
X7164059Y-17719741D01*
X7441442Y-17558553D02*
X7450966Y-17549029D01*
X7470014Y-17539505D01*
X7517633Y-17539505D01*
X7536681Y-17549029D01*
X7546204Y-17558553D01*
X7555728Y-17577601D01*
X7555728Y-17596648D01*
X7546204Y-17625220D01*
X7431919Y-17739505D01*
X7555728Y-17739505D01*
X7641442Y-17720458D02*
X7650966Y-17729981D01*
X7641442Y-17739505D01*
X7631919Y-17729981D01*
X7641442Y-17720458D01*
X7641442Y-17739505D01*
X7831919Y-17539505D02*
X7736681Y-17539505D01*
X7727157Y-17634743D01*
X7736681Y-17625220D01*
X7755728Y-17615696D01*
X7803347Y-17615696D01*
X7822395Y-17625220D01*
X7831919Y-17634743D01*
X7841442Y-17653791D01*
X7841442Y-17701410D01*
X7831919Y-17720458D01*
X7822395Y-17729981D01*
X7803347Y-17739505D01*
X7755728Y-17739505D01*
X7736681Y-17729981D01*
X7727157Y-17720458D01*
X8012871Y-17606172D02*
X8012871Y-17739505D01*
X7965252Y-17529981D02*
X7917633Y-17672839D01*
X8041442Y-17672839D01*
X8155728Y-17539505D02*
X8174776Y-17539505D01*
X8193823Y-17549029D01*
X8203347Y-17558553D01*
X8212871Y-17577601D01*
X8222395Y-17615696D01*
X8222395Y-17663315D01*
X8212871Y-17701410D01*
X8203347Y-17720458D01*
X8193823Y-17729981D01*
X8174776Y-17739505D01*
X8155728Y-17739505D01*
X8136681Y-17729981D01*
X8127157Y-17720458D01*
X8117633Y-17701410D01*
X8108109Y-17663315D01*
X8108109Y-17615696D01*
X8117633Y-17577601D01*
X8127157Y-17558553D01*
X8136681Y-17549029D01*
X8155728Y-17539505D01*
X8308109Y-17739505D02*
X8308109Y-17606172D01*
X8308109Y-17625220D02*
X8317633Y-17615696D01*
X8336681Y-17606172D01*
X8365252Y-17606172D01*
X8384300Y-17615696D01*
X8393823Y-17634743D01*
X8393823Y-17739505D01*
X8393823Y-17634743D02*
X8403347Y-17615696D01*
X8422395Y-17606172D01*
X8450966Y-17606172D01*
X8470014Y-17615696D01*
X8479538Y-17634743D01*
X8479538Y-17739505D01*
X8574776Y-17739505D02*
X8574776Y-17606172D01*
X8574776Y-17625220D02*
X8584300Y-17615696D01*
X8603347Y-17606172D01*
X8631919Y-17606172D01*
X8650966Y-17615696D01*
X8660490Y-17634743D01*
X8660490Y-17739505D01*
X8660490Y-17634743D02*
X8670014Y-17615696D01*
X8689062Y-17606172D01*
X8717633Y-17606172D01*
X8736681Y-17615696D01*
X8746204Y-17634743D01*
X8746204Y-17739505D01*
X9136681Y-17529981D02*
X8965252Y-17787124D01*
X9393823Y-17539505D02*
X9412871Y-17539505D01*
X9431919Y-17549029D01*
X9441443Y-17558553D01*
X9450966Y-17577601D01*
X9460490Y-17615696D01*
X9460490Y-17663315D01*
X9450966Y-17701410D01*
X9441443Y-17720458D01*
X9431919Y-17729981D01*
X9412871Y-17739505D01*
X9393823Y-17739505D01*
X9374776Y-17729981D01*
X9365252Y-17720458D01*
X9355728Y-17701410D01*
X9346204Y-17663315D01*
X9346204Y-17615696D01*
X9355728Y-17577601D01*
X9365252Y-17558553D01*
X9374776Y-17549029D01*
X9393823Y-17539505D01*
X9546204Y-17720458D02*
X9555728Y-17729981D01*
X9546204Y-17739505D01*
X9536681Y-17729981D01*
X9546204Y-17720458D01*
X9546204Y-17739505D01*
X9746204Y-17739505D02*
X9631919Y-17739505D01*
X9689062Y-17739505D02*
X9689062Y-17539505D01*
X9670014Y-17568077D01*
X9650966Y-17587124D01*
X9631919Y-17596648D01*
X9870014Y-17539505D02*
X9889062Y-17539505D01*
X9908109Y-17549029D01*
X9917633Y-17558553D01*
X9927157Y-17577601D01*
X9936681Y-17615696D01*
X9936681Y-17663315D01*
X9927157Y-17701410D01*
X9917633Y-17720458D01*
X9908109Y-17729981D01*
X9889062Y-17739505D01*
X9870014Y-17739505D01*
X9850966Y-17729981D01*
X9841443Y-17720458D01*
X9831919Y-17701410D01*
X9822395Y-17663315D01*
X9822395Y-17615696D01*
X9831919Y-17577601D01*
X9841443Y-17558553D01*
X9850966Y-17549029D01*
X9870014Y-17539505D01*
X10060490Y-17539505D02*
X10079538Y-17539505D01*
X10098585Y-17549029D01*
X10108109Y-17558553D01*
X10117633Y-17577601D01*
X10127157Y-17615696D01*
X10127157Y-17663315D01*
X10117633Y-17701410D01*
X10108109Y-17720458D01*
X10098585Y-17729981D01*
X10079538Y-17739505D01*
X10060490Y-17739505D01*
X10041443Y-17729981D01*
X10031919Y-17720458D01*
X10022395Y-17701410D01*
X10012871Y-17663315D01*
X10012871Y-17615696D01*
X10022395Y-17577601D01*
X10031919Y-17558553D01*
X10041443Y-17549029D01*
X10060490Y-17539505D01*
X10250966Y-17539505D02*
X10270014Y-17539505D01*
X10289062Y-17549029D01*
X10298585Y-17558553D01*
X10308109Y-17577601D01*
X10317633Y-17615696D01*
X10317633Y-17663315D01*
X10308109Y-17701410D01*
X10298585Y-17720458D01*
X10289062Y-17729981D01*
X10270014Y-17739505D01*
X10250966Y-17739505D01*
X10231919Y-17729981D01*
X10222395Y-17720458D01*
X10212871Y-17701410D01*
X10203347Y-17663315D01*
X10203347Y-17615696D01*
X10212871Y-17577601D01*
X10222395Y-17558553D01*
X10231919Y-17549029D01*
X10250966Y-17539505D01*
X10393823Y-17539505D02*
X10393823Y-17577601D01*
X10470014Y-17539505D02*
X10470014Y-17577601D01*
X10765252Y-17815696D02*
X10755728Y-17806172D01*
X10736681Y-17777601D01*
X10727157Y-17758553D01*
X10717633Y-17729981D01*
X10708109Y-17682362D01*
X10708109Y-17644267D01*
X10717633Y-17596648D01*
X10727157Y-17568077D01*
X10736681Y-17549029D01*
X10755728Y-17520458D01*
X10765252Y-17510934D01*
X10946204Y-17739505D02*
X10831919Y-17739505D01*
X10889062Y-17739505D02*
X10889062Y-17539505D01*
X10870014Y-17568077D01*
X10850966Y-17587124D01*
X10831919Y-17596648D01*
X11184300Y-17739505D02*
X11184300Y-17539505D01*
X11270014Y-17739505D02*
X11270014Y-17634743D01*
X11260490Y-17615696D01*
X11241442Y-17606172D01*
X11212871Y-17606172D01*
X11193823Y-17615696D01*
X11184300Y-17625220D01*
X11393823Y-17739505D02*
X11374776Y-17729981D01*
X11365252Y-17720458D01*
X11355728Y-17701410D01*
X11355728Y-17644267D01*
X11365252Y-17625220D01*
X11374776Y-17615696D01*
X11393823Y-17606172D01*
X11422395Y-17606172D01*
X11441442Y-17615696D01*
X11450966Y-17625220D01*
X11460490Y-17644267D01*
X11460490Y-17701410D01*
X11450966Y-17720458D01*
X11441442Y-17729981D01*
X11422395Y-17739505D01*
X11393823Y-17739505D01*
X11574776Y-17739505D02*
X11555728Y-17729981D01*
X11546204Y-17710934D01*
X11546204Y-17539505D01*
X11727157Y-17729981D02*
X11708109Y-17739505D01*
X11670014Y-17739505D01*
X11650966Y-17729981D01*
X11641442Y-17710934D01*
X11641442Y-17634743D01*
X11650966Y-17615696D01*
X11670014Y-17606172D01*
X11708109Y-17606172D01*
X11727157Y-17615696D01*
X11736681Y-17634743D01*
X11736681Y-17653791D01*
X11641442Y-17672839D01*
X11803347Y-17815696D02*
X11812871Y-17806172D01*
X11831919Y-17777601D01*
X11841442Y-17758553D01*
X11850966Y-17729981D01*
X11860490Y-17682362D01*
X11860490Y-17644267D01*
X11850966Y-17596648D01*
X11841442Y-17568077D01*
X11831919Y-17549029D01*
X11812871Y-17520458D01*
X11803347Y-17510934D01*
M02*
