%TF.GenerationSoftware,KiCad,Pcbnew,(6.0.4)*%
%TF.CreationDate,2023-03-10T14:52:47-05:00*%
%TF.ProjectId,cc_pcbRedo,63635f70-6362-4526-9564-6f2e6b696361,rev?*%
%TF.SameCoordinates,Original*%
%TF.FileFunction,Legend,Bot*%
%TF.FilePolarity,Positive*%
%FSLAX46Y46*%
G04 Gerber Fmt 4.6, Leading zero omitted, Abs format (unit mm)*
G04 Created by KiCad (PCBNEW (6.0.4)) date 2023-03-10 14:52:47*
%MOMM*%
%LPD*%
G01*
G04 APERTURE LIST*
%ADD10C,0.101600*%
%ADD11C,0.076200*%
%ADD12C,0.300000*%
%ADD13C,0.203200*%
%ADD14C,0.150000*%
%ADD15C,0.120000*%
G04 APERTURE END LIST*
D10*
X183218666Y-117976589D02*
X183339619Y-118484589D01*
X183436380Y-118121732D01*
X183533142Y-118484589D01*
X183654095Y-117976589D01*
X183847619Y-118484589D02*
X183847619Y-117976589D01*
X184065333Y-118484589D02*
X184065333Y-118218494D01*
X184041142Y-118170113D01*
X183992761Y-118145922D01*
X183920190Y-118145922D01*
X183871809Y-118170113D01*
X183847619Y-118194303D01*
X184258857Y-118145922D02*
X184379809Y-118484589D01*
X184500761Y-118145922D02*
X184379809Y-118484589D01*
X184331428Y-118605541D01*
X184307238Y-118629732D01*
X184258857Y-118653922D01*
X185299047Y-118484589D02*
X185299047Y-117976589D01*
X185299047Y-118460399D02*
X185250666Y-118484589D01*
X185153904Y-118484589D01*
X185105523Y-118460399D01*
X185081333Y-118436208D01*
X185057142Y-118387827D01*
X185057142Y-118242684D01*
X185081333Y-118194303D01*
X185105523Y-118170113D01*
X185153904Y-118145922D01*
X185250666Y-118145922D01*
X185299047Y-118170113D01*
X185540952Y-118484589D02*
X185540952Y-118145922D01*
X185540952Y-117976589D02*
X185516761Y-118000780D01*
X185540952Y-118024970D01*
X185565142Y-118000780D01*
X185540952Y-117976589D01*
X185540952Y-118024970D01*
X186000571Y-118484589D02*
X186000571Y-117976589D01*
X186000571Y-118460399D02*
X185952190Y-118484589D01*
X185855428Y-118484589D01*
X185807047Y-118460399D01*
X185782857Y-118436208D01*
X185758666Y-118387827D01*
X185758666Y-118242684D01*
X185782857Y-118194303D01*
X185807047Y-118170113D01*
X185855428Y-118145922D01*
X185952190Y-118145922D01*
X186000571Y-118170113D01*
X186556952Y-118145922D02*
X186750476Y-118145922D01*
X186629523Y-117976589D02*
X186629523Y-118412018D01*
X186653714Y-118460399D01*
X186702095Y-118484589D01*
X186750476Y-118484589D01*
X186919809Y-118484589D02*
X186919809Y-117976589D01*
X187137523Y-118484589D02*
X187137523Y-118218494D01*
X187113333Y-118170113D01*
X187064952Y-118145922D01*
X186992380Y-118145922D01*
X186944000Y-118170113D01*
X186919809Y-118194303D01*
X187572952Y-118460399D02*
X187524571Y-118484589D01*
X187427809Y-118484589D01*
X187379428Y-118460399D01*
X187355238Y-118412018D01*
X187355238Y-118218494D01*
X187379428Y-118170113D01*
X187427809Y-118145922D01*
X187524571Y-118145922D01*
X187572952Y-118170113D01*
X187597142Y-118218494D01*
X187597142Y-118266875D01*
X187355238Y-118315256D01*
X188201904Y-118145922D02*
X188201904Y-118653922D01*
X188201904Y-118170113D02*
X188250285Y-118145922D01*
X188347047Y-118145922D01*
X188395428Y-118170113D01*
X188419619Y-118194303D01*
X188443809Y-118242684D01*
X188443809Y-118387827D01*
X188419619Y-118436208D01*
X188395428Y-118460399D01*
X188347047Y-118484589D01*
X188250285Y-118484589D01*
X188201904Y-118460399D01*
X188661523Y-118484589D02*
X188661523Y-118145922D01*
X188661523Y-117976589D02*
X188637333Y-118000780D01*
X188661523Y-118024970D01*
X188685714Y-118000780D01*
X188661523Y-117976589D01*
X188661523Y-118024970D01*
X188903428Y-118484589D02*
X188903428Y-118145922D01*
X188903428Y-118242684D02*
X188927619Y-118194303D01*
X188951809Y-118170113D01*
X189000190Y-118145922D01*
X189048571Y-118145922D01*
X189435619Y-118484589D02*
X189435619Y-118218494D01*
X189411428Y-118170113D01*
X189363047Y-118145922D01*
X189266285Y-118145922D01*
X189217904Y-118170113D01*
X189435619Y-118460399D02*
X189387238Y-118484589D01*
X189266285Y-118484589D01*
X189217904Y-118460399D01*
X189193714Y-118412018D01*
X189193714Y-118363637D01*
X189217904Y-118315256D01*
X189266285Y-118291065D01*
X189387238Y-118291065D01*
X189435619Y-118266875D01*
X189604952Y-118145922D02*
X189798476Y-118145922D01*
X189677523Y-117976589D02*
X189677523Y-118412018D01*
X189701714Y-118460399D01*
X189750095Y-118484589D01*
X189798476Y-118484589D01*
X190161333Y-118460399D02*
X190112952Y-118484589D01*
X190016190Y-118484589D01*
X189967809Y-118460399D01*
X189943619Y-118412018D01*
X189943619Y-118218494D01*
X189967809Y-118170113D01*
X190016190Y-118145922D01*
X190112952Y-118145922D01*
X190161333Y-118170113D01*
X190185523Y-118218494D01*
X190185523Y-118266875D01*
X189943619Y-118315256D01*
X190790285Y-118484589D02*
X190790285Y-117976589D01*
X190983809Y-117976589D01*
X191032190Y-118000780D01*
X191056380Y-118024970D01*
X191080571Y-118073351D01*
X191080571Y-118145922D01*
X191056380Y-118194303D01*
X191032190Y-118218494D01*
X190983809Y-118242684D01*
X190790285Y-118242684D01*
X191588571Y-118436208D02*
X191564380Y-118460399D01*
X191491809Y-118484589D01*
X191443428Y-118484589D01*
X191370857Y-118460399D01*
X191322476Y-118412018D01*
X191298285Y-118363637D01*
X191274095Y-118266875D01*
X191274095Y-118194303D01*
X191298285Y-118097541D01*
X191322476Y-118049160D01*
X191370857Y-118000780D01*
X191443428Y-117976589D01*
X191491809Y-117976589D01*
X191564380Y-118000780D01*
X191588571Y-118024970D01*
X191975619Y-118218494D02*
X192048190Y-118242684D01*
X192072380Y-118266875D01*
X192096571Y-118315256D01*
X192096571Y-118387827D01*
X192072380Y-118436208D01*
X192048190Y-118460399D01*
X191999809Y-118484589D01*
X191806285Y-118484589D01*
X191806285Y-117976589D01*
X191975619Y-117976589D01*
X192024000Y-118000780D01*
X192048190Y-118024970D01*
X192072380Y-118073351D01*
X192072380Y-118121732D01*
X192048190Y-118170113D01*
X192024000Y-118194303D01*
X191975619Y-118218494D01*
X191806285Y-118218494D01*
X192338476Y-118460399D02*
X192338476Y-118484589D01*
X192314285Y-118532970D01*
X192290095Y-118557160D01*
X193233523Y-118436208D02*
X193209333Y-118460399D01*
X193136761Y-118484589D01*
X193088380Y-118484589D01*
X193015809Y-118460399D01*
X192967428Y-118412018D01*
X192943238Y-118363637D01*
X192919047Y-118266875D01*
X192919047Y-118194303D01*
X192943238Y-118097541D01*
X192967428Y-118049160D01*
X193015809Y-118000780D01*
X193088380Y-117976589D01*
X193136761Y-117976589D01*
X193209333Y-118000780D01*
X193233523Y-118024970D01*
X193451238Y-118484589D02*
X193451238Y-118145922D01*
X193451238Y-118242684D02*
X193475428Y-118194303D01*
X193499619Y-118170113D01*
X193548000Y-118145922D01*
X193596380Y-118145922D01*
X193765714Y-118484589D02*
X193765714Y-118145922D01*
X193765714Y-117976589D02*
X193741523Y-118000780D01*
X193765714Y-118024970D01*
X193789904Y-118000780D01*
X193765714Y-117976589D01*
X193765714Y-118024970D01*
X194007619Y-118484589D02*
X194007619Y-117976589D01*
X194007619Y-118170113D02*
X194056000Y-118145922D01*
X194152761Y-118145922D01*
X194201142Y-118170113D01*
X194225333Y-118194303D01*
X194249523Y-118242684D01*
X194249523Y-118387827D01*
X194225333Y-118436208D01*
X194201142Y-118460399D01*
X194152761Y-118484589D01*
X194056000Y-118484589D01*
X194007619Y-118460399D01*
X195144571Y-118436208D02*
X195120380Y-118460399D01*
X195047809Y-118484589D01*
X194999428Y-118484589D01*
X194926857Y-118460399D01*
X194878476Y-118412018D01*
X194854285Y-118363637D01*
X194830095Y-118266875D01*
X194830095Y-118194303D01*
X194854285Y-118097541D01*
X194878476Y-118049160D01*
X194926857Y-118000780D01*
X194999428Y-117976589D01*
X195047809Y-117976589D01*
X195120380Y-118000780D01*
X195144571Y-118024970D01*
X195580000Y-118484589D02*
X195580000Y-118218494D01*
X195555809Y-118170113D01*
X195507428Y-118145922D01*
X195410666Y-118145922D01*
X195362285Y-118170113D01*
X195580000Y-118460399D02*
X195531619Y-118484589D01*
X195410666Y-118484589D01*
X195362285Y-118460399D01*
X195338095Y-118412018D01*
X195338095Y-118363637D01*
X195362285Y-118315256D01*
X195410666Y-118291065D01*
X195531619Y-118291065D01*
X195580000Y-118266875D01*
X195821904Y-118145922D02*
X195821904Y-118653922D01*
X195821904Y-118170113D02*
X195870285Y-118145922D01*
X195967047Y-118145922D01*
X196015428Y-118170113D01*
X196039619Y-118194303D01*
X196063809Y-118242684D01*
X196063809Y-118387827D01*
X196039619Y-118436208D01*
X196015428Y-118460399D01*
X195967047Y-118484589D01*
X195870285Y-118484589D01*
X195821904Y-118460399D01*
X196208952Y-118145922D02*
X196402476Y-118145922D01*
X196281523Y-117976589D02*
X196281523Y-118412018D01*
X196305714Y-118460399D01*
X196354095Y-118484589D01*
X196402476Y-118484589D01*
X196789523Y-118484589D02*
X196789523Y-118218494D01*
X196765333Y-118170113D01*
X196716952Y-118145922D01*
X196620190Y-118145922D01*
X196571809Y-118170113D01*
X196789523Y-118460399D02*
X196741142Y-118484589D01*
X196620190Y-118484589D01*
X196571809Y-118460399D01*
X196547619Y-118412018D01*
X196547619Y-118363637D01*
X196571809Y-118315256D01*
X196620190Y-118291065D01*
X196741142Y-118291065D01*
X196789523Y-118266875D01*
X197031428Y-118484589D02*
X197031428Y-118145922D01*
X197031428Y-117976589D02*
X197007238Y-118000780D01*
X197031428Y-118024970D01*
X197055619Y-118000780D01*
X197031428Y-117976589D01*
X197031428Y-118024970D01*
X197273333Y-118145922D02*
X197273333Y-118484589D01*
X197273333Y-118194303D02*
X197297523Y-118170113D01*
X197345904Y-118145922D01*
X197418476Y-118145922D01*
X197466857Y-118170113D01*
X197491047Y-118218494D01*
X197491047Y-118484589D01*
X197757142Y-118460399D02*
X197757142Y-118484589D01*
X197732952Y-118532970D01*
X197708761Y-118557160D01*
X185528857Y-119302469D02*
X185528857Y-118794469D01*
X185528857Y-119278279D02*
X185480476Y-119302469D01*
X185383714Y-119302469D01*
X185335333Y-119278279D01*
X185311142Y-119254088D01*
X185286952Y-119205707D01*
X185286952Y-119060564D01*
X185311142Y-119012183D01*
X185335333Y-118987993D01*
X185383714Y-118963802D01*
X185480476Y-118963802D01*
X185528857Y-118987993D01*
X185964285Y-119278279D02*
X185915904Y-119302469D01*
X185819142Y-119302469D01*
X185770761Y-119278279D01*
X185746571Y-119229898D01*
X185746571Y-119036374D01*
X185770761Y-118987993D01*
X185819142Y-118963802D01*
X185915904Y-118963802D01*
X185964285Y-118987993D01*
X185988476Y-119036374D01*
X185988476Y-119084755D01*
X185746571Y-119133136D01*
X186423904Y-119278279D02*
X186375523Y-119302469D01*
X186278761Y-119302469D01*
X186230380Y-119278279D01*
X186206190Y-119254088D01*
X186182000Y-119205707D01*
X186182000Y-119060564D01*
X186206190Y-119012183D01*
X186230380Y-118987993D01*
X186278761Y-118963802D01*
X186375523Y-118963802D01*
X186423904Y-118987993D01*
X186641619Y-119302469D02*
X186641619Y-118963802D01*
X186641619Y-118794469D02*
X186617428Y-118818660D01*
X186641619Y-118842850D01*
X186665809Y-118818660D01*
X186641619Y-118794469D01*
X186641619Y-118842850D01*
X187101238Y-119302469D02*
X187101238Y-118794469D01*
X187101238Y-119278279D02*
X187052857Y-119302469D01*
X186956095Y-119302469D01*
X186907714Y-119278279D01*
X186883523Y-119254088D01*
X186859333Y-119205707D01*
X186859333Y-119060564D01*
X186883523Y-119012183D01*
X186907714Y-118987993D01*
X186956095Y-118963802D01*
X187052857Y-118963802D01*
X187101238Y-118987993D01*
X187536666Y-119278279D02*
X187488285Y-119302469D01*
X187391523Y-119302469D01*
X187343142Y-119278279D01*
X187318952Y-119229898D01*
X187318952Y-119036374D01*
X187343142Y-118987993D01*
X187391523Y-118963802D01*
X187488285Y-118963802D01*
X187536666Y-118987993D01*
X187560857Y-119036374D01*
X187560857Y-119084755D01*
X187318952Y-119133136D01*
X188093047Y-118963802D02*
X188286571Y-118963802D01*
X188165619Y-118794469D02*
X188165619Y-119229898D01*
X188189809Y-119278279D01*
X188238190Y-119302469D01*
X188286571Y-119302469D01*
X188528476Y-119302469D02*
X188480095Y-119278279D01*
X188455904Y-119254088D01*
X188431714Y-119205707D01*
X188431714Y-119060564D01*
X188455904Y-119012183D01*
X188480095Y-118987993D01*
X188528476Y-118963802D01*
X188601047Y-118963802D01*
X188649428Y-118987993D01*
X188673619Y-119012183D01*
X188697809Y-119060564D01*
X188697809Y-119205707D01*
X188673619Y-119254088D01*
X188649428Y-119278279D01*
X188601047Y-119302469D01*
X188528476Y-119302469D01*
X189520285Y-118963802D02*
X189520285Y-119375040D01*
X189496095Y-119423421D01*
X189471904Y-119447612D01*
X189423523Y-119471802D01*
X189350952Y-119471802D01*
X189302571Y-119447612D01*
X189520285Y-119278279D02*
X189471904Y-119302469D01*
X189375142Y-119302469D01*
X189326761Y-119278279D01*
X189302571Y-119254088D01*
X189278380Y-119205707D01*
X189278380Y-119060564D01*
X189302571Y-119012183D01*
X189326761Y-118987993D01*
X189375142Y-118963802D01*
X189471904Y-118963802D01*
X189520285Y-118987993D01*
X189955714Y-119278279D02*
X189907333Y-119302469D01*
X189810571Y-119302469D01*
X189762190Y-119278279D01*
X189738000Y-119229898D01*
X189738000Y-119036374D01*
X189762190Y-118987993D01*
X189810571Y-118963802D01*
X189907333Y-118963802D01*
X189955714Y-118987993D01*
X189979904Y-119036374D01*
X189979904Y-119084755D01*
X189738000Y-119133136D01*
X190125047Y-118963802D02*
X190318571Y-118963802D01*
X190197619Y-118794469D02*
X190197619Y-119229898D01*
X190221809Y-119278279D01*
X190270190Y-119302469D01*
X190318571Y-119302469D01*
X191092666Y-119302469D02*
X191092666Y-119036374D01*
X191068476Y-118987993D01*
X191020095Y-118963802D01*
X190923333Y-118963802D01*
X190874952Y-118987993D01*
X191092666Y-119278279D02*
X191044285Y-119302469D01*
X190923333Y-119302469D01*
X190874952Y-119278279D01*
X190850761Y-119229898D01*
X190850761Y-119181517D01*
X190874952Y-119133136D01*
X190923333Y-119108945D01*
X191044285Y-119108945D01*
X191092666Y-119084755D01*
X191721619Y-119302469D02*
X191721619Y-118963802D01*
X191721619Y-119060564D02*
X191745809Y-119012183D01*
X191770000Y-118987993D01*
X191818380Y-118963802D01*
X191866761Y-118963802D01*
X192108666Y-119302469D02*
X192060285Y-119278279D01*
X192036095Y-119254088D01*
X192011904Y-119205707D01*
X192011904Y-119060564D01*
X192036095Y-119012183D01*
X192060285Y-118987993D01*
X192108666Y-118963802D01*
X192181238Y-118963802D01*
X192229619Y-118987993D01*
X192253809Y-119012183D01*
X192278000Y-119060564D01*
X192278000Y-119205707D01*
X192253809Y-119254088D01*
X192229619Y-119278279D01*
X192181238Y-119302469D01*
X192108666Y-119302469D01*
X192568285Y-119302469D02*
X192519904Y-119278279D01*
X192495714Y-119254088D01*
X192471523Y-119205707D01*
X192471523Y-119060564D01*
X192495714Y-119012183D01*
X192519904Y-118987993D01*
X192568285Y-118963802D01*
X192640857Y-118963802D01*
X192689238Y-118987993D01*
X192713428Y-119012183D01*
X192737619Y-119060564D01*
X192737619Y-119205707D01*
X192713428Y-119254088D01*
X192689238Y-119278279D01*
X192640857Y-119302469D01*
X192568285Y-119302469D01*
X192955333Y-119302469D02*
X192955333Y-118963802D01*
X192955333Y-119012183D02*
X192979523Y-118987993D01*
X193027904Y-118963802D01*
X193100476Y-118963802D01*
X193148857Y-118987993D01*
X193173047Y-119036374D01*
X193173047Y-119302469D01*
X193173047Y-119036374D02*
X193197238Y-118987993D01*
X193245619Y-118963802D01*
X193318190Y-118963802D01*
X193366571Y-118987993D01*
X193390761Y-119036374D01*
X193390761Y-119302469D01*
X193632666Y-119302469D02*
X193632666Y-118963802D01*
X193632666Y-119012183D02*
X193656857Y-118987993D01*
X193705238Y-118963802D01*
X193777809Y-118963802D01*
X193826190Y-118987993D01*
X193850380Y-119036374D01*
X193850380Y-119302469D01*
X193850380Y-119036374D02*
X193874571Y-118987993D01*
X193922952Y-118963802D01*
X193995523Y-118963802D01*
X194043904Y-118987993D01*
X194068095Y-119036374D01*
X194068095Y-119302469D01*
X194527714Y-119302469D02*
X194527714Y-119036374D01*
X194503523Y-118987993D01*
X194455142Y-118963802D01*
X194358380Y-118963802D01*
X194310000Y-118987993D01*
X194527714Y-119278279D02*
X194479333Y-119302469D01*
X194358380Y-119302469D01*
X194310000Y-119278279D01*
X194285809Y-119229898D01*
X194285809Y-119181517D01*
X194310000Y-119133136D01*
X194358380Y-119108945D01*
X194479333Y-119108945D01*
X194527714Y-119084755D01*
X194697047Y-118963802D02*
X194890571Y-118963802D01*
X194769619Y-118794469D02*
X194769619Y-119229898D01*
X194793809Y-119278279D01*
X194842190Y-119302469D01*
X194890571Y-119302469D01*
X195253428Y-119278279D02*
X195205047Y-119302469D01*
X195108285Y-119302469D01*
X195059904Y-119278279D01*
X195035714Y-119229898D01*
X195035714Y-119036374D01*
X195059904Y-118987993D01*
X195108285Y-118963802D01*
X195205047Y-118963802D01*
X195253428Y-118987993D01*
X195277619Y-119036374D01*
X195277619Y-119084755D01*
X195035714Y-119133136D01*
X195567904Y-119254088D02*
X195592095Y-119278279D01*
X195567904Y-119302469D01*
X195543714Y-119278279D01*
X195567904Y-119254088D01*
X195567904Y-119302469D01*
X195471142Y-118818660D02*
X195519523Y-118794469D01*
X195640476Y-118794469D01*
X195688857Y-118818660D01*
X195713047Y-118867040D01*
X195713047Y-118915421D01*
X195688857Y-118963802D01*
X195664666Y-118987993D01*
X195616285Y-119012183D01*
X195592095Y-119036374D01*
X195567904Y-119084755D01*
X195567904Y-119108945D01*
X182081714Y-120672134D02*
X182154285Y-120696324D01*
X182178476Y-120720515D01*
X182202666Y-120768896D01*
X182202666Y-120841467D01*
X182178476Y-120889848D01*
X182154285Y-120914039D01*
X182105904Y-120938229D01*
X181912380Y-120938229D01*
X181912380Y-120430229D01*
X182081714Y-120430229D01*
X182130095Y-120454420D01*
X182154285Y-120478610D01*
X182178476Y-120526991D01*
X182178476Y-120575372D01*
X182154285Y-120623753D01*
X182130095Y-120647943D01*
X182081714Y-120672134D01*
X181912380Y-120672134D01*
X182613904Y-120914039D02*
X182565523Y-120938229D01*
X182468761Y-120938229D01*
X182420380Y-120914039D01*
X182396190Y-120865658D01*
X182396190Y-120672134D01*
X182420380Y-120623753D01*
X182468761Y-120599562D01*
X182565523Y-120599562D01*
X182613904Y-120623753D01*
X182638095Y-120672134D01*
X182638095Y-120720515D01*
X182396190Y-120768896D01*
X183073523Y-120914039D02*
X183025142Y-120938229D01*
X182928380Y-120938229D01*
X182880000Y-120914039D01*
X182855809Y-120889848D01*
X182831619Y-120841467D01*
X182831619Y-120696324D01*
X182855809Y-120647943D01*
X182880000Y-120623753D01*
X182928380Y-120599562D01*
X183025142Y-120599562D01*
X183073523Y-120623753D01*
X183508952Y-120938229D02*
X183508952Y-120672134D01*
X183484761Y-120623753D01*
X183436380Y-120599562D01*
X183339619Y-120599562D01*
X183291238Y-120623753D01*
X183508952Y-120914039D02*
X183460571Y-120938229D01*
X183339619Y-120938229D01*
X183291238Y-120914039D01*
X183267047Y-120865658D01*
X183267047Y-120817277D01*
X183291238Y-120768896D01*
X183339619Y-120744705D01*
X183460571Y-120744705D01*
X183508952Y-120720515D01*
X183968571Y-120599562D02*
X183968571Y-120938229D01*
X183750857Y-120599562D02*
X183750857Y-120865658D01*
X183775047Y-120914039D01*
X183823428Y-120938229D01*
X183896000Y-120938229D01*
X183944380Y-120914039D01*
X183968571Y-120889848D01*
X184186285Y-120914039D02*
X184234666Y-120938229D01*
X184331428Y-120938229D01*
X184379809Y-120914039D01*
X184404000Y-120865658D01*
X184404000Y-120841467D01*
X184379809Y-120793086D01*
X184331428Y-120768896D01*
X184258857Y-120768896D01*
X184210476Y-120744705D01*
X184186285Y-120696324D01*
X184186285Y-120672134D01*
X184210476Y-120623753D01*
X184258857Y-120599562D01*
X184331428Y-120599562D01*
X184379809Y-120623753D01*
X184815238Y-120914039D02*
X184766857Y-120938229D01*
X184670095Y-120938229D01*
X184621714Y-120914039D01*
X184597523Y-120865658D01*
X184597523Y-120672134D01*
X184621714Y-120623753D01*
X184670095Y-120599562D01*
X184766857Y-120599562D01*
X184815238Y-120623753D01*
X184839428Y-120672134D01*
X184839428Y-120720515D01*
X184597523Y-120768896D01*
X185444190Y-120938229D02*
X185444190Y-120599562D01*
X185444190Y-120430229D02*
X185420000Y-120454420D01*
X185444190Y-120478610D01*
X185468380Y-120454420D01*
X185444190Y-120430229D01*
X185444190Y-120478610D01*
X185613523Y-120599562D02*
X185807047Y-120599562D01*
X185686095Y-120430229D02*
X185686095Y-120865658D01*
X185710285Y-120914039D01*
X185758666Y-120938229D01*
X185807047Y-120938229D01*
X186315047Y-120599562D02*
X186411809Y-120938229D01*
X186508571Y-120696324D01*
X186605333Y-120938229D01*
X186702095Y-120599562D01*
X187113333Y-120938229D02*
X187113333Y-120672134D01*
X187089142Y-120623753D01*
X187040761Y-120599562D01*
X186944000Y-120599562D01*
X186895619Y-120623753D01*
X187113333Y-120914039D02*
X187064952Y-120938229D01*
X186944000Y-120938229D01*
X186895619Y-120914039D01*
X186871428Y-120865658D01*
X186871428Y-120817277D01*
X186895619Y-120768896D01*
X186944000Y-120744705D01*
X187064952Y-120744705D01*
X187113333Y-120720515D01*
X187355238Y-120599562D02*
X187355238Y-120938229D01*
X187355238Y-120647943D02*
X187379428Y-120623753D01*
X187427809Y-120599562D01*
X187500380Y-120599562D01*
X187548761Y-120623753D01*
X187572952Y-120672134D01*
X187572952Y-120938229D01*
X187742285Y-120599562D02*
X187935809Y-120599562D01*
X187814857Y-120430229D02*
X187814857Y-120865658D01*
X187839047Y-120914039D01*
X187887428Y-120938229D01*
X187935809Y-120938229D01*
X188298666Y-120914039D02*
X188250285Y-120938229D01*
X188153523Y-120938229D01*
X188105142Y-120914039D01*
X188080952Y-120865658D01*
X188080952Y-120672134D01*
X188105142Y-120623753D01*
X188153523Y-120599562D01*
X188250285Y-120599562D01*
X188298666Y-120623753D01*
X188322857Y-120672134D01*
X188322857Y-120720515D01*
X188080952Y-120768896D01*
X188758285Y-120938229D02*
X188758285Y-120430229D01*
X188758285Y-120914039D02*
X188709904Y-120938229D01*
X188613142Y-120938229D01*
X188564761Y-120914039D01*
X188540571Y-120889848D01*
X188516380Y-120841467D01*
X188516380Y-120696324D01*
X188540571Y-120647943D01*
X188564761Y-120623753D01*
X188613142Y-120599562D01*
X188709904Y-120599562D01*
X188758285Y-120623753D01*
X189363047Y-120914039D02*
X189411428Y-120938229D01*
X189508190Y-120938229D01*
X189556571Y-120914039D01*
X189580761Y-120865658D01*
X189580761Y-120841467D01*
X189556571Y-120793086D01*
X189508190Y-120768896D01*
X189435619Y-120768896D01*
X189387238Y-120744705D01*
X189363047Y-120696324D01*
X189363047Y-120672134D01*
X189387238Y-120623753D01*
X189435619Y-120599562D01*
X189508190Y-120599562D01*
X189556571Y-120623753D01*
X189871047Y-120938229D02*
X189822666Y-120914039D01*
X189798476Y-120889848D01*
X189774285Y-120841467D01*
X189774285Y-120696324D01*
X189798476Y-120647943D01*
X189822666Y-120623753D01*
X189871047Y-120599562D01*
X189943619Y-120599562D01*
X189992000Y-120623753D01*
X190016190Y-120647943D01*
X190040380Y-120696324D01*
X190040380Y-120841467D01*
X190016190Y-120889848D01*
X189992000Y-120914039D01*
X189943619Y-120938229D01*
X189871047Y-120938229D01*
X190258095Y-120938229D02*
X190258095Y-120599562D01*
X190258095Y-120647943D02*
X190282285Y-120623753D01*
X190330666Y-120599562D01*
X190403238Y-120599562D01*
X190451619Y-120623753D01*
X190475809Y-120672134D01*
X190475809Y-120938229D01*
X190475809Y-120672134D02*
X190500000Y-120623753D01*
X190548380Y-120599562D01*
X190620952Y-120599562D01*
X190669333Y-120623753D01*
X190693523Y-120672134D01*
X190693523Y-120938229D01*
X191128952Y-120914039D02*
X191080571Y-120938229D01*
X190983809Y-120938229D01*
X190935428Y-120914039D01*
X190911238Y-120865658D01*
X190911238Y-120672134D01*
X190935428Y-120623753D01*
X190983809Y-120599562D01*
X191080571Y-120599562D01*
X191128952Y-120623753D01*
X191153142Y-120672134D01*
X191153142Y-120720515D01*
X190911238Y-120768896D01*
X191443428Y-120938229D02*
X191395047Y-120914039D01*
X191370857Y-120889848D01*
X191346666Y-120841467D01*
X191346666Y-120696324D01*
X191370857Y-120647943D01*
X191395047Y-120623753D01*
X191443428Y-120599562D01*
X191516000Y-120599562D01*
X191564380Y-120623753D01*
X191588571Y-120647943D01*
X191612761Y-120696324D01*
X191612761Y-120841467D01*
X191588571Y-120889848D01*
X191564380Y-120914039D01*
X191516000Y-120938229D01*
X191443428Y-120938229D01*
X191830476Y-120599562D02*
X191830476Y-120938229D01*
X191830476Y-120647943D02*
X191854666Y-120623753D01*
X191903047Y-120599562D01*
X191975619Y-120599562D01*
X192024000Y-120623753D01*
X192048190Y-120672134D01*
X192048190Y-120938229D01*
X192483619Y-120914039D02*
X192435238Y-120938229D01*
X192338476Y-120938229D01*
X192290095Y-120914039D01*
X192265904Y-120865658D01*
X192265904Y-120672134D01*
X192290095Y-120623753D01*
X192338476Y-120599562D01*
X192435238Y-120599562D01*
X192483619Y-120623753D01*
X192507809Y-120672134D01*
X192507809Y-120720515D01*
X192265904Y-120768896D01*
X193040000Y-120599562D02*
X193233523Y-120599562D01*
X193112571Y-120430229D02*
X193112571Y-120865658D01*
X193136761Y-120914039D01*
X193185142Y-120938229D01*
X193233523Y-120938229D01*
X193475428Y-120938229D02*
X193427047Y-120914039D01*
X193402857Y-120889848D01*
X193378666Y-120841467D01*
X193378666Y-120696324D01*
X193402857Y-120647943D01*
X193427047Y-120623753D01*
X193475428Y-120599562D01*
X193548000Y-120599562D01*
X193596380Y-120623753D01*
X193620571Y-120647943D01*
X193644761Y-120696324D01*
X193644761Y-120841467D01*
X193620571Y-120889848D01*
X193596380Y-120914039D01*
X193548000Y-120938229D01*
X193475428Y-120938229D01*
X194225333Y-120430229D02*
X194225333Y-120526991D01*
X194418857Y-120430229D02*
X194418857Y-120526991D01*
X194636571Y-120938229D02*
X194636571Y-120430229D01*
X194636571Y-120623753D02*
X194684952Y-120599562D01*
X194781714Y-120599562D01*
X194830095Y-120623753D01*
X194854285Y-120647943D01*
X194878476Y-120696324D01*
X194878476Y-120841467D01*
X194854285Y-120889848D01*
X194830095Y-120914039D01*
X194781714Y-120938229D01*
X194684952Y-120938229D01*
X194636571Y-120914039D01*
X195168761Y-120938229D02*
X195120380Y-120914039D01*
X195096190Y-120889848D01*
X195072000Y-120841467D01*
X195072000Y-120696324D01*
X195096190Y-120647943D01*
X195120380Y-120623753D01*
X195168761Y-120599562D01*
X195241333Y-120599562D01*
X195289714Y-120623753D01*
X195313904Y-120647943D01*
X195338095Y-120696324D01*
X195338095Y-120841467D01*
X195313904Y-120889848D01*
X195289714Y-120914039D01*
X195241333Y-120938229D01*
X195168761Y-120938229D01*
X195773523Y-120938229D02*
X195773523Y-120672134D01*
X195749333Y-120623753D01*
X195700952Y-120599562D01*
X195604190Y-120599562D01*
X195555809Y-120623753D01*
X195773523Y-120914039D02*
X195725142Y-120938229D01*
X195604190Y-120938229D01*
X195555809Y-120914039D01*
X195531619Y-120865658D01*
X195531619Y-120817277D01*
X195555809Y-120768896D01*
X195604190Y-120744705D01*
X195725142Y-120744705D01*
X195773523Y-120720515D01*
X196015428Y-120938229D02*
X196015428Y-120599562D01*
X196015428Y-120696324D02*
X196039619Y-120647943D01*
X196063809Y-120623753D01*
X196112190Y-120599562D01*
X196160571Y-120599562D01*
X196547619Y-120938229D02*
X196547619Y-120430229D01*
X196547619Y-120914039D02*
X196499238Y-120938229D01*
X196402476Y-120938229D01*
X196354095Y-120914039D01*
X196329904Y-120889848D01*
X196305714Y-120841467D01*
X196305714Y-120696324D01*
X196329904Y-120647943D01*
X196354095Y-120623753D01*
X196402476Y-120599562D01*
X196499238Y-120599562D01*
X196547619Y-120623753D01*
X196765333Y-120430229D02*
X196765333Y-120526991D01*
X196958857Y-120430229D02*
X196958857Y-120526991D01*
X197515238Y-120599562D02*
X197612000Y-120938229D01*
X197708761Y-120696324D01*
X197805523Y-120938229D01*
X197902285Y-120599562D01*
X198095809Y-120938229D02*
X198095809Y-120599562D01*
X198095809Y-120430229D02*
X198071619Y-120454420D01*
X198095809Y-120478610D01*
X198120000Y-120454420D01*
X198095809Y-120430229D01*
X198095809Y-120478610D01*
X198265142Y-120599562D02*
X198458666Y-120599562D01*
X198337714Y-120430229D02*
X198337714Y-120865658D01*
X198361904Y-120914039D01*
X198410285Y-120938229D01*
X198458666Y-120938229D01*
X198628000Y-120938229D02*
X198628000Y-120430229D01*
X198845714Y-120938229D02*
X198845714Y-120672134D01*
X198821523Y-120623753D01*
X198773142Y-120599562D01*
X198700571Y-120599562D01*
X198652190Y-120623753D01*
X198628000Y-120647943D01*
X199087619Y-120889848D02*
X199111809Y-120914039D01*
X199087619Y-120938229D01*
X199063428Y-120914039D01*
X199087619Y-120889848D01*
X199087619Y-120938229D01*
X199087619Y-120744705D02*
X199063428Y-120454420D01*
X199087619Y-120430229D01*
X199111809Y-120454420D01*
X199087619Y-120744705D01*
X199087619Y-120430229D01*
D11*
X147998832Y-128319462D02*
X148062332Y-127811462D01*
X148255855Y-127811462D01*
X148301213Y-127835653D01*
X148322379Y-127859843D01*
X148340522Y-127908224D01*
X148331451Y-127980795D01*
X148301213Y-128029176D01*
X148273998Y-128053367D01*
X148222594Y-128077557D01*
X148029070Y-128077557D01*
X148803165Y-128271081D02*
X148775951Y-128295272D01*
X148700355Y-128319462D01*
X148651974Y-128319462D01*
X148582427Y-128295272D01*
X148540094Y-128246891D01*
X148521951Y-128198510D01*
X148509855Y-128101748D01*
X148518927Y-128029176D01*
X148555213Y-127932414D01*
X148585451Y-127884033D01*
X148639879Y-127835653D01*
X148715474Y-127811462D01*
X148763855Y-127811462D01*
X148833403Y-127835653D01*
X148854570Y-127859843D01*
X149217427Y-128053367D02*
X149286974Y-128077557D01*
X149308141Y-128101748D01*
X149326284Y-128150129D01*
X149317213Y-128222700D01*
X149286974Y-128271081D01*
X149259760Y-128295272D01*
X149208355Y-128319462D01*
X149014832Y-128319462D01*
X149078332Y-127811462D01*
X149247665Y-127811462D01*
X149293022Y-127835653D01*
X149314189Y-127859843D01*
X149332332Y-127908224D01*
X149326284Y-127956605D01*
X149296046Y-128004986D01*
X149268832Y-128029176D01*
X149217427Y-128053367D01*
X149048094Y-128053367D01*
X149909879Y-128319462D02*
X149952213Y-127980795D01*
X149946165Y-128029176D02*
X149973379Y-128004986D01*
X150024784Y-127980795D01*
X150097355Y-127980795D01*
X150142713Y-128004986D01*
X150160855Y-128053367D01*
X150127594Y-128319462D01*
X150160855Y-128053367D02*
X150191094Y-128004986D01*
X150242498Y-127980795D01*
X150315070Y-127980795D01*
X150360427Y-128004986D01*
X150378570Y-128053367D01*
X150345308Y-128319462D01*
X150581165Y-127980795D02*
X150659784Y-128319462D01*
X150823070Y-127980795D02*
X150659784Y-128319462D01*
X150596284Y-128440414D01*
X150569070Y-128464605D01*
X150517665Y-128488795D01*
X151355260Y-127980795D02*
X151433879Y-128319462D01*
X151597165Y-127980795D01*
X151966070Y-128319462D02*
X151999332Y-128053367D01*
X151981189Y-128004986D01*
X151935832Y-127980795D01*
X151839070Y-127980795D01*
X151787665Y-128004986D01*
X151969094Y-128295272D02*
X151917689Y-128319462D01*
X151796736Y-128319462D01*
X151751379Y-128295272D01*
X151733236Y-128246891D01*
X151739284Y-128198510D01*
X151769522Y-128150129D01*
X151820927Y-128125938D01*
X151941879Y-128125938D01*
X151993284Y-128101748D01*
X152280546Y-128319462D02*
X152235189Y-128295272D01*
X152217046Y-128246891D01*
X152271474Y-127811462D01*
X152670617Y-128295272D02*
X152619213Y-128319462D01*
X152522451Y-128319462D01*
X152477094Y-128295272D01*
X152458951Y-128246891D01*
X152483141Y-128053367D01*
X152513379Y-128004986D01*
X152564784Y-127980795D01*
X152661546Y-127980795D01*
X152706903Y-128004986D01*
X152725046Y-128053367D01*
X152718998Y-128101748D01*
X152471046Y-128150129D01*
X152951832Y-127980795D02*
X152909498Y-128319462D01*
X152945784Y-128029176D02*
X152972998Y-128004986D01*
X153024403Y-127980795D01*
X153096974Y-127980795D01*
X153142332Y-128004986D01*
X153160474Y-128053367D01*
X153127213Y-128319462D01*
X153338879Y-127980795D02*
X153532403Y-127980795D01*
X153432617Y-127811462D02*
X153378189Y-128246891D01*
X153396332Y-128295272D01*
X153441689Y-128319462D01*
X153490070Y-128319462D01*
X153659403Y-128319462D02*
X153701736Y-127980795D01*
X153722903Y-127811462D02*
X153695689Y-127835653D01*
X153716855Y-127859843D01*
X153744070Y-127835653D01*
X153722903Y-127811462D01*
X153716855Y-127859843D01*
X153943641Y-127980795D02*
X153901308Y-128319462D01*
X153937594Y-128029176D02*
X153964808Y-128004986D01*
X154016213Y-127980795D01*
X154088784Y-127980795D01*
X154134141Y-128004986D01*
X154152284Y-128053367D01*
X154119022Y-128319462D01*
X154557474Y-128295272D02*
X154506070Y-128319462D01*
X154409308Y-128319462D01*
X154363951Y-128295272D01*
X154345808Y-128246891D01*
X154369998Y-128053367D01*
X154400236Y-128004986D01*
X154451641Y-127980795D01*
X154548403Y-127980795D01*
X154593760Y-128004986D01*
X154611903Y-128053367D01*
X154605855Y-128101748D01*
X154357903Y-128150129D01*
X154823570Y-128295272D02*
X154820546Y-128319462D01*
X154790308Y-128367843D01*
X154763094Y-128392033D01*
X155425308Y-128319462D02*
X155488808Y-127811462D01*
X155464617Y-128004986D02*
X155516022Y-127980795D01*
X155612784Y-127980795D01*
X155658141Y-128004986D01*
X155679308Y-128029176D01*
X155697451Y-128077557D01*
X155679308Y-128222700D01*
X155649070Y-128271081D01*
X155621855Y-128295272D01*
X155570451Y-128319462D01*
X155473689Y-128319462D01*
X155428332Y-128295272D01*
X156081474Y-128295272D02*
X156030070Y-128319462D01*
X155933308Y-128319462D01*
X155887951Y-128295272D01*
X155869808Y-128246891D01*
X155893998Y-128053367D01*
X155924236Y-128004986D01*
X155975641Y-127980795D01*
X156072403Y-127980795D01*
X156117760Y-128004986D01*
X156135903Y-128053367D01*
X156129855Y-128101748D01*
X155881903Y-128150129D01*
X156541094Y-128295272D02*
X156489689Y-128319462D01*
X156392927Y-128319462D01*
X156347570Y-128295272D01*
X156326403Y-128271081D01*
X156308260Y-128222700D01*
X156326403Y-128077557D01*
X156356641Y-128029176D01*
X156383855Y-128004986D01*
X156435260Y-127980795D01*
X156532022Y-127980795D01*
X156577379Y-128004986D01*
X156973498Y-128319462D02*
X157006760Y-128053367D01*
X156988617Y-128004986D01*
X156943260Y-127980795D01*
X156846498Y-127980795D01*
X156795094Y-128004986D01*
X156976522Y-128295272D02*
X156925117Y-128319462D01*
X156804165Y-128319462D01*
X156758808Y-128295272D01*
X156740665Y-128246891D01*
X156746713Y-128198510D01*
X156776951Y-128150129D01*
X156828355Y-128125938D01*
X156949308Y-128125938D01*
X157000713Y-128101748D01*
X157475451Y-127980795D02*
X157433117Y-128319462D01*
X157257736Y-127980795D02*
X157224474Y-128246891D01*
X157242617Y-128295272D01*
X157287974Y-128319462D01*
X157360546Y-128319462D01*
X157411951Y-128295272D01*
X157439165Y-128271081D01*
X157653855Y-128295272D02*
X157699213Y-128319462D01*
X157795974Y-128319462D01*
X157847379Y-128295272D01*
X157877617Y-128246891D01*
X157880641Y-128222700D01*
X157862498Y-128174319D01*
X157817141Y-128150129D01*
X157744570Y-128150129D01*
X157699213Y-128125938D01*
X157681070Y-128077557D01*
X157684094Y-128053367D01*
X157714332Y-128004986D01*
X157765736Y-127980795D01*
X157838308Y-127980795D01*
X157883665Y-128004986D01*
X158282808Y-128295272D02*
X158231403Y-128319462D01*
X158134641Y-128319462D01*
X158089284Y-128295272D01*
X158071141Y-128246891D01*
X158095332Y-128053367D01*
X158125570Y-128004986D01*
X158176974Y-127980795D01*
X158273736Y-127980795D01*
X158319094Y-128004986D01*
X158337236Y-128053367D01*
X158331189Y-128101748D01*
X158083236Y-128150129D01*
X146130117Y-128798675D02*
X146208736Y-129137342D01*
X146372022Y-128798675D02*
X146208736Y-129137342D01*
X146145236Y-129258294D01*
X146118022Y-129282485D01*
X146066617Y-129306675D01*
X146595784Y-129137342D02*
X146550427Y-129113152D01*
X146529260Y-129088961D01*
X146511117Y-129040580D01*
X146529260Y-128895437D01*
X146559498Y-128847056D01*
X146586713Y-128822866D01*
X146638117Y-128798675D01*
X146710689Y-128798675D01*
X146756046Y-128822866D01*
X146777213Y-128847056D01*
X146795355Y-128895437D01*
X146777213Y-129040580D01*
X146746974Y-129088961D01*
X146719760Y-129113152D01*
X146668355Y-129137342D01*
X146595784Y-129137342D01*
X147242879Y-128798675D02*
X147200546Y-129137342D01*
X147025165Y-128798675D02*
X146991903Y-129064771D01*
X147010046Y-129113152D01*
X147055403Y-129137342D01*
X147127974Y-129137342D01*
X147179379Y-129113152D01*
X147206594Y-129088961D01*
X147530141Y-128629342D02*
X147469665Y-128726104D01*
X147678308Y-128798675D02*
X147756927Y-129137342D01*
X147920213Y-128798675D01*
X148267951Y-129113152D02*
X148216546Y-129137342D01*
X148119784Y-129137342D01*
X148074427Y-129113152D01*
X148056284Y-129064771D01*
X148080474Y-128871247D01*
X148110713Y-128822866D01*
X148162117Y-128798675D01*
X148258879Y-128798675D01*
X148304236Y-128822866D01*
X148322379Y-128871247D01*
X148316332Y-128919628D01*
X148068379Y-128968009D01*
X149153927Y-128798675D02*
X149102522Y-129209913D01*
X149072284Y-129258294D01*
X149045070Y-129282485D01*
X148993665Y-129306675D01*
X148921094Y-129306675D01*
X148875736Y-129282485D01*
X149114617Y-129113152D02*
X149063213Y-129137342D01*
X148966451Y-129137342D01*
X148921094Y-129113152D01*
X148899927Y-129088961D01*
X148881784Y-129040580D01*
X148899927Y-128895437D01*
X148930165Y-128847056D01*
X148957379Y-128822866D01*
X149008784Y-128798675D01*
X149105546Y-128798675D01*
X149150903Y-128822866D01*
X149426070Y-129137342D02*
X149380713Y-129113152D01*
X149359546Y-129088961D01*
X149341403Y-129040580D01*
X149359546Y-128895437D01*
X149389784Y-128847056D01*
X149416998Y-128822866D01*
X149468403Y-128798675D01*
X149540974Y-128798675D01*
X149586332Y-128822866D01*
X149607498Y-128847056D01*
X149625641Y-128895437D01*
X149607498Y-129040580D01*
X149577260Y-129088961D01*
X149550046Y-129113152D01*
X149498641Y-129137342D01*
X149426070Y-129137342D01*
X149782879Y-128798675D02*
X149976403Y-128798675D01*
X149876617Y-128629342D02*
X149822189Y-129064771D01*
X149840332Y-129113152D01*
X149885689Y-129137342D01*
X149934070Y-129137342D01*
X150708165Y-129137342D02*
X150741427Y-128871247D01*
X150723284Y-128822866D01*
X150677927Y-128798675D01*
X150581165Y-128798675D01*
X150529760Y-128822866D01*
X150711189Y-129113152D02*
X150659784Y-129137342D01*
X150538832Y-129137342D01*
X150493474Y-129113152D01*
X150475332Y-129064771D01*
X150481379Y-129016390D01*
X150511617Y-128968009D01*
X150563022Y-128943818D01*
X150683974Y-128943818D01*
X150735379Y-128919628D01*
X151022641Y-129137342D02*
X150977284Y-129113152D01*
X150959141Y-129064771D01*
X151013570Y-128629342D01*
X151288736Y-129137342D02*
X151243379Y-129113152D01*
X151225236Y-129064771D01*
X151279665Y-128629342D01*
X151839070Y-128798675D02*
X152032594Y-128798675D01*
X151932808Y-128629342D02*
X151878379Y-129064771D01*
X151896522Y-129113152D01*
X151941879Y-129137342D01*
X151990260Y-129137342D01*
X152159594Y-129137342D02*
X152223094Y-128629342D01*
X152377308Y-129137342D02*
X152410570Y-128871247D01*
X152392427Y-128822866D01*
X152347070Y-128798675D01*
X152274498Y-128798675D01*
X152223094Y-128822866D01*
X152195879Y-128847056D01*
X152815760Y-129113152D02*
X152764355Y-129137342D01*
X152667594Y-129137342D01*
X152622236Y-129113152D01*
X152604094Y-129064771D01*
X152628284Y-128871247D01*
X152658522Y-128822866D01*
X152709927Y-128798675D01*
X152806689Y-128798675D01*
X152852046Y-128822866D01*
X152870189Y-128871247D01*
X152864141Y-128919628D01*
X152616189Y-128968009D01*
X153441689Y-129137342D02*
X153484022Y-128798675D01*
X153471927Y-128895437D02*
X153502165Y-128847056D01*
X153529379Y-128822866D01*
X153580784Y-128798675D01*
X153629165Y-128798675D01*
X153756165Y-129137342D02*
X153798498Y-128798675D01*
X153819665Y-128629342D02*
X153792451Y-128653533D01*
X153813617Y-128677723D01*
X153840832Y-128653533D01*
X153819665Y-128629342D01*
X153813617Y-128677723D01*
X154258117Y-128798675D02*
X154206713Y-129209913D01*
X154176474Y-129258294D01*
X154149260Y-129282485D01*
X154097855Y-129306675D01*
X154025284Y-129306675D01*
X153979927Y-129282485D01*
X154218808Y-129113152D02*
X154167403Y-129137342D01*
X154070641Y-129137342D01*
X154025284Y-129113152D01*
X154004117Y-129088961D01*
X153985974Y-129040580D01*
X154004117Y-128895437D01*
X154034355Y-128847056D01*
X154061570Y-128822866D01*
X154112974Y-128798675D01*
X154209736Y-128798675D01*
X154255094Y-128822866D01*
X154457689Y-129137342D02*
X154521189Y-128629342D01*
X154675403Y-129137342D02*
X154708665Y-128871247D01*
X154690522Y-128822866D01*
X154645165Y-128798675D01*
X154572594Y-128798675D01*
X154521189Y-128822866D01*
X154493974Y-128847056D01*
X154887070Y-128798675D02*
X155080594Y-128798675D01*
X154980808Y-128629342D02*
X154926379Y-129064771D01*
X154944522Y-129113152D01*
X154989879Y-129137342D01*
X155038260Y-129137342D01*
X155815379Y-129113152D02*
X155763974Y-129137342D01*
X155667213Y-129137342D01*
X155621855Y-129113152D01*
X155600689Y-129088961D01*
X155582546Y-129040580D01*
X155600689Y-128895437D01*
X155630927Y-128847056D01*
X155658141Y-128822866D01*
X155709546Y-128798675D01*
X155806308Y-128798675D01*
X155851665Y-128822866D01*
X156102641Y-129137342D02*
X156057284Y-129113152D01*
X156036117Y-129088961D01*
X156017974Y-129040580D01*
X156036117Y-128895437D01*
X156066355Y-128847056D01*
X156093570Y-128822866D01*
X156144974Y-128798675D01*
X156217546Y-128798675D01*
X156262903Y-128822866D01*
X156284070Y-128847056D01*
X156302213Y-128895437D01*
X156284070Y-129040580D01*
X156253832Y-129088961D01*
X156226617Y-129113152D01*
X156175213Y-129137342D01*
X156102641Y-129137342D01*
X156489689Y-129137342D02*
X156532022Y-128798675D01*
X156525974Y-128847056D02*
X156553189Y-128822866D01*
X156604594Y-128798675D01*
X156677165Y-128798675D01*
X156722522Y-128822866D01*
X156740665Y-128871247D01*
X156707403Y-129137342D01*
X156740665Y-128871247D02*
X156770903Y-128822866D01*
X156822308Y-128798675D01*
X156894879Y-128798675D01*
X156940236Y-128822866D01*
X156958379Y-128871247D01*
X156925117Y-129137342D01*
X157209355Y-128798675D02*
X157145855Y-129306675D01*
X157206332Y-128822866D02*
X157257736Y-128798675D01*
X157354498Y-128798675D01*
X157399855Y-128822866D01*
X157421022Y-128847056D01*
X157439165Y-128895437D01*
X157421022Y-129040580D01*
X157390784Y-129088961D01*
X157363570Y-129113152D01*
X157312165Y-129137342D01*
X157215403Y-129137342D01*
X157170046Y-129113152D01*
X157699213Y-129137342D02*
X157653855Y-129113152D01*
X157632689Y-129088961D01*
X157614546Y-129040580D01*
X157632689Y-128895437D01*
X157662927Y-128847056D01*
X157690141Y-128822866D01*
X157741546Y-128798675D01*
X157814117Y-128798675D01*
X157859474Y-128822866D01*
X157880641Y-128847056D01*
X157898784Y-128895437D01*
X157880641Y-129040580D01*
X157850403Y-129088961D01*
X157823189Y-129113152D01*
X157771784Y-129137342D01*
X157699213Y-129137342D01*
X158128594Y-128798675D02*
X158086260Y-129137342D01*
X158122546Y-128847056D02*
X158149760Y-128822866D01*
X158201165Y-128798675D01*
X158273736Y-128798675D01*
X158319094Y-128822866D01*
X158337236Y-128871247D01*
X158303974Y-129137342D01*
X158742427Y-129113152D02*
X158691022Y-129137342D01*
X158594260Y-129137342D01*
X158548903Y-129113152D01*
X158530760Y-129064771D01*
X158554951Y-128871247D01*
X158585189Y-128822866D01*
X158636594Y-128798675D01*
X158733355Y-128798675D01*
X158778713Y-128822866D01*
X158796855Y-128871247D01*
X158790808Y-128919628D01*
X158542855Y-128968009D01*
X159023641Y-128798675D02*
X158981308Y-129137342D01*
X159017594Y-128847056D02*
X159044808Y-128822866D01*
X159096213Y-128798675D01*
X159168784Y-128798675D01*
X159214141Y-128822866D01*
X159232284Y-128871247D01*
X159199022Y-129137342D01*
X159410689Y-128798675D02*
X159604213Y-128798675D01*
X159504427Y-128629342D02*
X159449998Y-129064771D01*
X159468141Y-129113152D01*
X159513498Y-129137342D01*
X159561879Y-129137342D01*
X159710046Y-129113152D02*
X159755403Y-129137342D01*
X159852165Y-129137342D01*
X159903570Y-129113152D01*
X159933808Y-129064771D01*
X159936832Y-129040580D01*
X159918689Y-128992199D01*
X159873332Y-128968009D01*
X159800760Y-128968009D01*
X159755403Y-128943818D01*
X159737260Y-128895437D01*
X159740284Y-128871247D01*
X159770522Y-128822866D01*
X159821927Y-128798675D01*
X159894498Y-128798675D01*
X159939855Y-128822866D01*
X160148498Y-129088961D02*
X160169665Y-129113152D01*
X160142451Y-129137342D01*
X160121284Y-129113152D01*
X160148498Y-129088961D01*
X160142451Y-129137342D01*
X160166641Y-128943818D02*
X160178736Y-128653533D01*
X160205951Y-128629342D01*
X160227117Y-128653533D01*
X160166641Y-128943818D01*
X160205951Y-128629342D01*
X133098706Y-95022609D02*
X133162206Y-94514609D01*
X133355730Y-94514609D01*
X133401087Y-94538800D01*
X133422253Y-94562990D01*
X133440396Y-94611371D01*
X133431325Y-94683942D01*
X133401087Y-94732323D01*
X133373872Y-94756514D01*
X133322468Y-94780704D01*
X133128944Y-94780704D01*
X133903039Y-94974228D02*
X133875825Y-94998419D01*
X133800230Y-95022609D01*
X133751849Y-95022609D01*
X133682301Y-94998419D01*
X133639968Y-94950038D01*
X133621825Y-94901657D01*
X133609730Y-94804895D01*
X133618801Y-94732323D01*
X133655087Y-94635561D01*
X133685325Y-94587180D01*
X133739753Y-94538800D01*
X133815349Y-94514609D01*
X133863730Y-94514609D01*
X133933277Y-94538800D01*
X133954444Y-94562990D01*
X134317301Y-94756514D02*
X134386849Y-94780704D01*
X134408015Y-94804895D01*
X134426158Y-94853276D01*
X134417087Y-94925847D01*
X134386849Y-94974228D01*
X134359634Y-94998419D01*
X134308230Y-95022609D01*
X134114706Y-95022609D01*
X134178206Y-94514609D01*
X134347539Y-94514609D01*
X134392896Y-94538800D01*
X134414063Y-94562990D01*
X134432206Y-94611371D01*
X134426158Y-94659752D01*
X134395920Y-94708133D01*
X134368706Y-94732323D01*
X134317301Y-94756514D01*
X134147968Y-94756514D01*
X135003706Y-94683942D02*
X135058134Y-95022609D01*
X135185134Y-94780704D01*
X135251658Y-95022609D01*
X135390753Y-94683942D01*
X135541944Y-95022609D02*
X135605444Y-94514609D01*
X135759658Y-95022609D02*
X135792920Y-94756514D01*
X135774777Y-94708133D01*
X135729420Y-94683942D01*
X135656849Y-94683942D01*
X135605444Y-94708133D01*
X135578230Y-94732323D01*
X136074134Y-95022609D02*
X136028777Y-94998419D01*
X136007611Y-94974228D01*
X135989468Y-94925847D01*
X136007611Y-94780704D01*
X136037849Y-94732323D01*
X136065063Y-94708133D01*
X136116468Y-94683942D01*
X136189039Y-94683942D01*
X136234396Y-94708133D01*
X136255563Y-94732323D01*
X136273706Y-94780704D01*
X136255563Y-94925847D01*
X136225325Y-94974228D01*
X136198111Y-94998419D01*
X136146706Y-95022609D01*
X136074134Y-95022609D01*
X136539801Y-94974228D02*
X136560968Y-94998419D01*
X136533753Y-95022609D01*
X136512587Y-94998419D01*
X136539801Y-94974228D01*
X136533753Y-95022609D01*
X136497468Y-94538800D02*
X136548872Y-94514609D01*
X136669825Y-94514609D01*
X136715182Y-94538800D01*
X136733325Y-94587180D01*
X136727277Y-94635561D01*
X136697039Y-94683942D01*
X136669825Y-94708133D01*
X136618420Y-94732323D01*
X136591206Y-94756514D01*
X136560968Y-94804895D01*
X136557944Y-94829085D01*
X206651058Y-63628209D02*
X206714558Y-63120209D01*
X206908082Y-63120209D01*
X206953439Y-63144400D01*
X206974606Y-63168590D01*
X206992749Y-63216971D01*
X206983677Y-63289542D01*
X206953439Y-63337923D01*
X206926225Y-63362114D01*
X206874820Y-63386304D01*
X206681296Y-63386304D01*
X207455392Y-63579828D02*
X207428177Y-63604019D01*
X207352582Y-63628209D01*
X207304201Y-63628209D01*
X207234653Y-63604019D01*
X207192320Y-63555638D01*
X207174177Y-63507257D01*
X207162082Y-63410495D01*
X207171153Y-63337923D01*
X207207439Y-63241161D01*
X207237677Y-63192780D01*
X207292106Y-63144400D01*
X207367701Y-63120209D01*
X207416082Y-63120209D01*
X207485630Y-63144400D01*
X207506796Y-63168590D01*
X207869653Y-63362114D02*
X207939201Y-63386304D01*
X207960368Y-63410495D01*
X207978511Y-63458876D01*
X207969439Y-63531447D01*
X207939201Y-63579828D01*
X207911987Y-63604019D01*
X207860582Y-63628209D01*
X207667058Y-63628209D01*
X207730558Y-63120209D01*
X207899892Y-63120209D01*
X207945249Y-63144400D01*
X207966415Y-63168590D01*
X207984558Y-63216971D01*
X207978511Y-63265352D01*
X207948272Y-63313733D01*
X207921058Y-63337923D01*
X207869653Y-63362114D01*
X207700320Y-63362114D01*
X88034268Y-62400542D02*
X88088696Y-62739209D01*
X88215696Y-62497304D01*
X88282220Y-62739209D01*
X88421315Y-62400542D01*
X88572506Y-62739209D02*
X88636006Y-62231209D01*
X88790220Y-62739209D02*
X88823482Y-62473114D01*
X88805339Y-62424733D01*
X88759982Y-62400542D01*
X88687411Y-62400542D01*
X88636006Y-62424733D01*
X88608792Y-62448923D01*
X89104696Y-62739209D02*
X89059339Y-62715019D01*
X89038172Y-62690828D01*
X89020030Y-62642447D01*
X89038172Y-62497304D01*
X89068411Y-62448923D01*
X89095625Y-62424733D01*
X89147030Y-62400542D01*
X89219601Y-62400542D01*
X89264958Y-62424733D01*
X89286125Y-62448923D01*
X89304268Y-62497304D01*
X89286125Y-62642447D01*
X89255887Y-62690828D01*
X89228672Y-62715019D01*
X89177268Y-62739209D01*
X89104696Y-62739209D01*
X89579434Y-62231209D02*
X89518958Y-62327971D01*
X89712482Y-62715019D02*
X89757839Y-62739209D01*
X89854601Y-62739209D01*
X89906006Y-62715019D01*
X89936244Y-62666638D01*
X89939268Y-62642447D01*
X89921125Y-62594066D01*
X89875768Y-62569876D01*
X89803196Y-62569876D01*
X89757839Y-62545685D01*
X89739696Y-62497304D01*
X89742720Y-62473114D01*
X89772958Y-62424733D01*
X89824363Y-62400542D01*
X89896934Y-62400542D01*
X89942292Y-62424733D01*
X90501696Y-62400542D02*
X90695220Y-62400542D01*
X90595434Y-62231209D02*
X90541006Y-62666638D01*
X90559149Y-62715019D01*
X90604506Y-62739209D01*
X90652887Y-62739209D01*
X90822220Y-62739209D02*
X90885720Y-62231209D01*
X91039934Y-62739209D02*
X91073196Y-62473114D01*
X91055053Y-62424733D01*
X91009696Y-62400542D01*
X90937125Y-62400542D01*
X90885720Y-62424733D01*
X90858506Y-62448923D01*
X91478387Y-62715019D02*
X91426982Y-62739209D01*
X91330220Y-62739209D01*
X91284863Y-62715019D01*
X91266720Y-62666638D01*
X91290911Y-62473114D01*
X91321149Y-62424733D01*
X91372553Y-62400542D01*
X91469315Y-62400542D01*
X91514672Y-62424733D01*
X91532815Y-62473114D01*
X91526768Y-62521495D01*
X91278815Y-62569876D01*
X91717268Y-62739209D02*
X91759601Y-62400542D01*
X91747506Y-62497304D02*
X91777744Y-62448923D01*
X91804958Y-62424733D01*
X91856363Y-62400542D01*
X91904744Y-62400542D01*
X92228292Y-62715019D02*
X92176887Y-62739209D01*
X92080125Y-62739209D01*
X92034768Y-62715019D01*
X92016625Y-62666638D01*
X92040815Y-62473114D01*
X92071053Y-62424733D01*
X92122458Y-62400542D01*
X92219220Y-62400542D01*
X92264577Y-62424733D01*
X92282720Y-62473114D01*
X92276672Y-62521495D01*
X92028720Y-62569876D01*
X92545792Y-62690828D02*
X92566958Y-62715019D01*
X92539744Y-62739209D01*
X92518577Y-62715019D01*
X92545792Y-62690828D01*
X92539744Y-62739209D01*
X92503458Y-62255400D02*
X92554863Y-62231209D01*
X92675815Y-62231209D01*
X92721172Y-62255400D01*
X92739315Y-62303780D01*
X92733268Y-62352161D01*
X92703030Y-62400542D01*
X92675815Y-62424733D01*
X92624411Y-62448923D01*
X92597196Y-62473114D01*
X92566958Y-62521495D01*
X92563934Y-62545685D01*
X189960839Y-39980809D02*
X190024339Y-39472809D01*
X190033411Y-39787285D02*
X190154363Y-39980809D01*
X190196696Y-39642142D02*
X189978982Y-39835666D01*
X190414411Y-39642142D02*
X190372077Y-39980809D01*
X190408363Y-39690523D02*
X190435577Y-39666333D01*
X190486982Y-39642142D01*
X190559553Y-39642142D01*
X190604911Y-39666333D01*
X190623053Y-39714714D01*
X190589792Y-39980809D01*
X190904268Y-39980809D02*
X190858911Y-39956619D01*
X190837744Y-39932428D01*
X190819601Y-39884047D01*
X190837744Y-39738904D01*
X190867982Y-39690523D01*
X190895196Y-39666333D01*
X190946601Y-39642142D01*
X191019172Y-39642142D01*
X191064530Y-39666333D01*
X191085696Y-39690523D01*
X191103839Y-39738904D01*
X191085696Y-39884047D01*
X191055458Y-39932428D01*
X191028244Y-39956619D01*
X190976839Y-39980809D01*
X190904268Y-39980809D01*
X191512053Y-39956619D02*
X191460649Y-39980809D01*
X191363887Y-39980809D01*
X191318530Y-39956619D01*
X191297363Y-39932428D01*
X191279220Y-39884047D01*
X191297363Y-39738904D01*
X191327601Y-39690523D01*
X191354815Y-39666333D01*
X191406220Y-39642142D01*
X191502982Y-39642142D01*
X191548339Y-39666333D01*
X191726744Y-39980809D02*
X191790244Y-39472809D01*
X191799315Y-39787285D02*
X191920268Y-39980809D01*
X191962601Y-39642142D02*
X191744887Y-39835666D01*
X192162172Y-39787285D02*
X192549220Y-39787285D01*
X192766934Y-39980809D02*
X192830434Y-39472809D01*
X192839506Y-39787285D02*
X192960458Y-39980809D01*
X193002792Y-39642142D02*
X192785077Y-39835666D01*
X193220506Y-39642142D02*
X193178172Y-39980809D01*
X193214458Y-39690523D02*
X193241672Y-39666333D01*
X193293077Y-39642142D01*
X193365649Y-39642142D01*
X193411006Y-39666333D01*
X193429149Y-39714714D01*
X193395887Y-39980809D01*
X193710363Y-39980809D02*
X193665006Y-39956619D01*
X193643839Y-39932428D01*
X193625696Y-39884047D01*
X193643839Y-39738904D01*
X193674077Y-39690523D01*
X193701292Y-39666333D01*
X193752696Y-39642142D01*
X193825268Y-39642142D01*
X193870625Y-39666333D01*
X193891792Y-39690523D01*
X193909934Y-39738904D01*
X193891792Y-39884047D01*
X193861553Y-39932428D01*
X193834339Y-39956619D01*
X193782934Y-39980809D01*
X193710363Y-39980809D01*
X194318149Y-39956619D02*
X194266744Y-39980809D01*
X194169982Y-39980809D01*
X194124625Y-39956619D01*
X194103458Y-39932428D01*
X194085315Y-39884047D01*
X194103458Y-39738904D01*
X194133696Y-39690523D01*
X194160911Y-39666333D01*
X194212315Y-39642142D01*
X194309077Y-39642142D01*
X194354434Y-39666333D01*
X194532839Y-39980809D02*
X194596339Y-39472809D01*
X194605411Y-39787285D02*
X194726363Y-39980809D01*
X194768696Y-39642142D02*
X194550982Y-39835666D01*
D12*
X103121685Y-115298742D02*
X103050257Y-115370171D01*
X102978828Y-115298742D01*
X103050257Y-115227314D01*
X103121685Y-115298742D01*
X102978828Y-115298742D01*
X103907400Y-115298742D02*
X103835971Y-115370171D01*
X103764542Y-115298742D01*
X103835971Y-115227314D01*
X103907400Y-115298742D01*
X103764542Y-115298742D01*
X103550257Y-116013028D02*
X103550257Y-117155885D01*
X103050257Y-117798742D02*
X102978828Y-118013028D01*
X102978828Y-118370171D01*
X103050257Y-118513028D01*
X103121685Y-118584457D01*
X103264542Y-118655885D01*
X103407400Y-118655885D01*
X103550257Y-118584457D01*
X103621685Y-118513028D01*
X103693114Y-118370171D01*
X103764542Y-118084457D01*
X103835971Y-117941600D01*
X103907400Y-117870171D01*
X104050257Y-117798742D01*
X104193114Y-117798742D01*
X104335971Y-117870171D01*
X104407400Y-117941600D01*
X104478828Y-118084457D01*
X104478828Y-118441600D01*
X104407400Y-118655885D01*
X104693114Y-118227314D02*
X102764542Y-118227314D01*
X189075285Y-57447857D02*
X189003857Y-57519285D01*
X188932428Y-57447857D01*
X189003857Y-57376428D01*
X189075285Y-57447857D01*
X188932428Y-57447857D01*
X189861000Y-57447857D02*
X189789571Y-57519285D01*
X189718142Y-57447857D01*
X189789571Y-57376428D01*
X189861000Y-57447857D01*
X189718142Y-57447857D01*
X189503857Y-58162142D02*
X189503857Y-59305000D01*
X188932428Y-60233571D02*
X189003857Y-60090714D01*
X189075285Y-60019285D01*
X189218142Y-59947857D01*
X189646714Y-59947857D01*
X189789571Y-60019285D01*
X189861000Y-60090714D01*
X189932428Y-60233571D01*
X189932428Y-60447857D01*
X189861000Y-60590714D01*
X189789571Y-60662142D01*
X189646714Y-60733571D01*
X189218142Y-60733571D01*
X189075285Y-60662142D01*
X189003857Y-60590714D01*
X188932428Y-60447857D01*
X188932428Y-60233571D01*
D11*
X194687129Y-102834923D02*
X194179129Y-102834923D01*
X194179129Y-102641400D01*
X194203320Y-102593019D01*
X194227510Y-102568828D01*
X194275891Y-102544638D01*
X194348462Y-102544638D01*
X194396843Y-102568828D01*
X194421034Y-102593019D01*
X194445224Y-102641400D01*
X194445224Y-102834923D01*
X194662939Y-102133400D02*
X194687129Y-102181780D01*
X194687129Y-102278542D01*
X194662939Y-102326923D01*
X194614558Y-102351114D01*
X194421034Y-102351114D01*
X194372653Y-102326923D01*
X194348462Y-102278542D01*
X194348462Y-102181780D01*
X194372653Y-102133400D01*
X194421034Y-102109209D01*
X194469415Y-102109209D01*
X194517796Y-102351114D01*
X194687129Y-101673780D02*
X194421034Y-101673780D01*
X194372653Y-101697971D01*
X194348462Y-101746352D01*
X194348462Y-101843114D01*
X194372653Y-101891495D01*
X194662939Y-101673780D02*
X194687129Y-101722161D01*
X194687129Y-101843114D01*
X194662939Y-101891495D01*
X194614558Y-101915685D01*
X194566177Y-101915685D01*
X194517796Y-101891495D01*
X194493605Y-101843114D01*
X194493605Y-101722161D01*
X194469415Y-101673780D01*
X194662939Y-101214161D02*
X194687129Y-101262542D01*
X194687129Y-101359304D01*
X194662939Y-101407685D01*
X194638748Y-101431876D01*
X194590367Y-101456066D01*
X194445224Y-101456066D01*
X194396843Y-101431876D01*
X194372653Y-101407685D01*
X194348462Y-101359304D01*
X194348462Y-101262542D01*
X194372653Y-101214161D01*
X194662939Y-100802923D02*
X194687129Y-100851304D01*
X194687129Y-100948066D01*
X194662939Y-100996447D01*
X194614558Y-101020638D01*
X194421034Y-101020638D01*
X194372653Y-100996447D01*
X194348462Y-100948066D01*
X194348462Y-100851304D01*
X194372653Y-100802923D01*
X194421034Y-100778733D01*
X194469415Y-100778733D01*
X194517796Y-101020638D01*
X195166342Y-101673780D02*
X195311485Y-102060828D01*
X195456628Y-101673780D01*
X194997009Y-101480257D02*
X194997009Y-101165780D01*
X195190533Y-101335114D01*
X195190533Y-101262542D01*
X195214723Y-101214161D01*
X195238914Y-101189971D01*
X195287295Y-101165780D01*
X195408247Y-101165780D01*
X195456628Y-101189971D01*
X195480819Y-101214161D01*
X195505009Y-101262542D01*
X195505009Y-101407685D01*
X195480819Y-101456066D01*
X195456628Y-101480257D01*
X195814889Y-106282066D02*
X196322889Y-106161114D01*
X195960032Y-106064352D01*
X196322889Y-105967590D01*
X195814889Y-105846638D01*
X196322889Y-105435400D02*
X196056794Y-105435400D01*
X196008413Y-105459590D01*
X195984222Y-105507971D01*
X195984222Y-105604733D01*
X196008413Y-105653114D01*
X196298699Y-105435400D02*
X196322889Y-105483780D01*
X196322889Y-105604733D01*
X196298699Y-105653114D01*
X196250318Y-105677304D01*
X196201937Y-105677304D01*
X196153556Y-105653114D01*
X196129365Y-105604733D01*
X196129365Y-105483780D01*
X196105175Y-105435400D01*
X196322889Y-105120923D02*
X196298699Y-105169304D01*
X196250318Y-105193495D01*
X195814889Y-105193495D01*
X196322889Y-104927400D02*
X195984222Y-104927400D01*
X196032603Y-104927400D02*
X196008413Y-104903209D01*
X195984222Y-104854828D01*
X195984222Y-104782257D01*
X196008413Y-104733876D01*
X196056794Y-104709685D01*
X196322889Y-104709685D01*
X196056794Y-104709685D02*
X196008413Y-104685495D01*
X195984222Y-104637114D01*
X195984222Y-104564542D01*
X196008413Y-104516161D01*
X196056794Y-104491971D01*
X196322889Y-104491971D01*
X196322889Y-104032352D02*
X196056794Y-104032352D01*
X196008413Y-104056542D01*
X195984222Y-104104923D01*
X195984222Y-104201685D01*
X196008413Y-104250066D01*
X196298699Y-104032352D02*
X196322889Y-104080733D01*
X196322889Y-104201685D01*
X196298699Y-104250066D01*
X196250318Y-104274257D01*
X196201937Y-104274257D01*
X196153556Y-104250066D01*
X196129365Y-104201685D01*
X196129365Y-104080733D01*
X196105175Y-104032352D01*
X196322889Y-103790447D02*
X195984222Y-103790447D01*
X196080984Y-103790447D02*
X196032603Y-103766257D01*
X196008413Y-103742066D01*
X195984222Y-103693685D01*
X195984222Y-103645304D01*
X195984222Y-103548542D02*
X195984222Y-103355019D01*
X195814889Y-103475971D02*
X196250318Y-103475971D01*
X196298699Y-103451780D01*
X196322889Y-103403400D01*
X196322889Y-103355019D01*
X196298699Y-102822828D02*
X196322889Y-102750257D01*
X196322889Y-102629304D01*
X196298699Y-102580923D01*
X196274508Y-102556733D01*
X196226127Y-102532542D01*
X196177746Y-102532542D01*
X196129365Y-102556733D01*
X196105175Y-102580923D01*
X196080984Y-102629304D01*
X196056794Y-102726066D01*
X196032603Y-102774447D01*
X196008413Y-102798638D01*
X195960032Y-102822828D01*
X195911651Y-102822828D01*
X195863270Y-102798638D01*
X195839080Y-102774447D01*
X195814889Y-102726066D01*
X195814889Y-102605114D01*
X195839080Y-102532542D01*
X195984222Y-102314828D02*
X196492222Y-102314828D01*
X196008413Y-102314828D02*
X195984222Y-102266447D01*
X195984222Y-102169685D01*
X196008413Y-102121304D01*
X196032603Y-102097114D01*
X196080984Y-102072923D01*
X196226127Y-102072923D01*
X196274508Y-102097114D01*
X196298699Y-102121304D01*
X196322889Y-102169685D01*
X196322889Y-102266447D01*
X196298699Y-102314828D01*
X196322889Y-101637495D02*
X196056794Y-101637495D01*
X196008413Y-101661685D01*
X195984222Y-101710066D01*
X195984222Y-101806828D01*
X196008413Y-101855209D01*
X196298699Y-101637495D02*
X196322889Y-101685876D01*
X196322889Y-101806828D01*
X196298699Y-101855209D01*
X196250318Y-101879400D01*
X196201937Y-101879400D01*
X196153556Y-101855209D01*
X196129365Y-101806828D01*
X196129365Y-101685876D01*
X196105175Y-101637495D01*
X196322889Y-101395590D02*
X195984222Y-101395590D01*
X196080984Y-101395590D02*
X196032603Y-101371400D01*
X196008413Y-101347209D01*
X195984222Y-101298828D01*
X195984222Y-101250447D01*
X196322889Y-101081114D02*
X195814889Y-101081114D01*
X196129365Y-101032733D02*
X196322889Y-100887590D01*
X195984222Y-100887590D02*
X196177746Y-101081114D01*
X196322889Y-100597304D02*
X196298699Y-100645685D01*
X196250318Y-100669876D01*
X195814889Y-100669876D01*
X196322889Y-100403780D02*
X195984222Y-100403780D01*
X195814889Y-100403780D02*
X195839080Y-100427971D01*
X195863270Y-100403780D01*
X195839080Y-100379590D01*
X195814889Y-100403780D01*
X195863270Y-100403780D01*
X195984222Y-100161876D02*
X196322889Y-100161876D01*
X196032603Y-100161876D02*
X196008413Y-100137685D01*
X195984222Y-100089304D01*
X195984222Y-100016733D01*
X196008413Y-99968352D01*
X196056794Y-99944161D01*
X196322889Y-99944161D01*
X195984222Y-99484542D02*
X196395460Y-99484542D01*
X196443841Y-99508733D01*
X196468032Y-99532923D01*
X196492222Y-99581304D01*
X196492222Y-99653876D01*
X196468032Y-99702257D01*
X196298699Y-99484542D02*
X196322889Y-99532923D01*
X196322889Y-99629685D01*
X196298699Y-99678066D01*
X196274508Y-99702257D01*
X196226127Y-99726447D01*
X196080984Y-99726447D01*
X196032603Y-99702257D01*
X196008413Y-99678066D01*
X195984222Y-99629685D01*
X195984222Y-99532923D01*
X196008413Y-99484542D01*
X195814889Y-98903971D02*
X196322889Y-98783019D01*
X195960032Y-98686257D01*
X196322889Y-98589495D01*
X195814889Y-98468542D01*
X196322889Y-98057304D02*
X196056794Y-98057304D01*
X196008413Y-98081495D01*
X195984222Y-98129876D01*
X195984222Y-98226638D01*
X196008413Y-98275019D01*
X196298699Y-98057304D02*
X196322889Y-98105685D01*
X196322889Y-98226638D01*
X196298699Y-98275019D01*
X196250318Y-98299209D01*
X196201937Y-98299209D01*
X196153556Y-98275019D01*
X196129365Y-98226638D01*
X196129365Y-98105685D01*
X196105175Y-98057304D01*
X195984222Y-97887971D02*
X195984222Y-97694447D01*
X195814889Y-97815400D02*
X196250318Y-97815400D01*
X196298699Y-97791209D01*
X196322889Y-97742828D01*
X196322889Y-97694447D01*
X196298699Y-97331590D02*
X196322889Y-97379971D01*
X196322889Y-97476733D01*
X196298699Y-97525114D01*
X196250318Y-97549304D01*
X196056794Y-97549304D01*
X196008413Y-97525114D01*
X195984222Y-97476733D01*
X195984222Y-97379971D01*
X196008413Y-97331590D01*
X196056794Y-97307400D01*
X196105175Y-97307400D01*
X196153556Y-97549304D01*
X196322889Y-97089685D02*
X195984222Y-97089685D01*
X196080984Y-97089685D02*
X196032603Y-97065495D01*
X196008413Y-97041304D01*
X195984222Y-96992923D01*
X195984222Y-96944542D01*
D10*
X170075980Y-78990129D02*
X170196933Y-79498129D01*
X170293695Y-79135272D01*
X170390457Y-79498129D01*
X170511409Y-78990129D01*
X170922647Y-79498129D02*
X170922647Y-79232034D01*
X170898457Y-79183653D01*
X170850076Y-79159462D01*
X170753314Y-79159462D01*
X170704933Y-79183653D01*
X170922647Y-79473939D02*
X170874266Y-79498129D01*
X170753314Y-79498129D01*
X170704933Y-79473939D01*
X170680742Y-79425558D01*
X170680742Y-79377177D01*
X170704933Y-79328796D01*
X170753314Y-79304605D01*
X170874266Y-79304605D01*
X170922647Y-79280415D01*
X171164552Y-79498129D02*
X171164552Y-79159462D01*
X171164552Y-79256224D02*
X171188742Y-79207843D01*
X171212933Y-79183653D01*
X171261314Y-79159462D01*
X171309695Y-79159462D01*
X171479028Y-79159462D02*
X171479028Y-79498129D01*
X171479028Y-79207843D02*
X171503219Y-79183653D01*
X171551600Y-79159462D01*
X171624171Y-79159462D01*
X171672552Y-79183653D01*
X171696742Y-79232034D01*
X171696742Y-79498129D01*
X171938647Y-79498129D02*
X171938647Y-79159462D01*
X171938647Y-78990129D02*
X171914457Y-79014320D01*
X171938647Y-79038510D01*
X171962838Y-79014320D01*
X171938647Y-78990129D01*
X171938647Y-79038510D01*
X172180552Y-79159462D02*
X172180552Y-79498129D01*
X172180552Y-79207843D02*
X172204742Y-79183653D01*
X172253123Y-79159462D01*
X172325695Y-79159462D01*
X172374076Y-79183653D01*
X172398266Y-79232034D01*
X172398266Y-79498129D01*
X172857885Y-79159462D02*
X172857885Y-79570700D01*
X172833695Y-79619081D01*
X172809504Y-79643272D01*
X172761123Y-79667462D01*
X172688552Y-79667462D01*
X172640171Y-79643272D01*
X172857885Y-79473939D02*
X172809504Y-79498129D01*
X172712742Y-79498129D01*
X172664361Y-79473939D01*
X172640171Y-79449748D01*
X172615980Y-79401367D01*
X172615980Y-79256224D01*
X172640171Y-79207843D01*
X172664361Y-79183653D01*
X172712742Y-79159462D01*
X172809504Y-79159462D01*
X172857885Y-79183653D01*
X173099790Y-79449748D02*
X173123980Y-79473939D01*
X173099790Y-79498129D01*
X173075600Y-79473939D01*
X173099790Y-79449748D01*
X173099790Y-79498129D01*
X173099790Y-79183653D02*
X173123980Y-79207843D01*
X173099790Y-79232034D01*
X173075600Y-79207843D01*
X173099790Y-79183653D01*
X173099790Y-79232034D01*
X164354933Y-80267628D02*
X164330742Y-80291819D01*
X164258171Y-80316009D01*
X164209790Y-80316009D01*
X164137219Y-80291819D01*
X164088838Y-80243438D01*
X164064647Y-80195057D01*
X164040457Y-80098295D01*
X164040457Y-80025723D01*
X164064647Y-79928961D01*
X164088838Y-79880580D01*
X164137219Y-79832200D01*
X164209790Y-79808009D01*
X164258171Y-79808009D01*
X164330742Y-79832200D01*
X164354933Y-79856390D01*
X164572647Y-80316009D02*
X164572647Y-79977342D01*
X164572647Y-80074104D02*
X164596838Y-80025723D01*
X164621028Y-80001533D01*
X164669409Y-79977342D01*
X164717790Y-79977342D01*
X164887123Y-80316009D02*
X164887123Y-79977342D01*
X164887123Y-79808009D02*
X164862933Y-79832200D01*
X164887123Y-79856390D01*
X164911314Y-79832200D01*
X164887123Y-79808009D01*
X164887123Y-79856390D01*
X165129028Y-80316009D02*
X165129028Y-79808009D01*
X165129028Y-80001533D02*
X165177409Y-79977342D01*
X165274171Y-79977342D01*
X165322552Y-80001533D01*
X165346742Y-80025723D01*
X165370933Y-80074104D01*
X165370933Y-80219247D01*
X165346742Y-80267628D01*
X165322552Y-80291819D01*
X165274171Y-80316009D01*
X165177409Y-80316009D01*
X165129028Y-80291819D01*
X165878933Y-80267628D02*
X165854742Y-80291819D01*
X165782171Y-80316009D01*
X165733790Y-80316009D01*
X165661219Y-80291819D01*
X165612838Y-80243438D01*
X165588647Y-80195057D01*
X165564457Y-80098295D01*
X165564457Y-80025723D01*
X165588647Y-79928961D01*
X165612838Y-79880580D01*
X165661219Y-79832200D01*
X165733790Y-79808009D01*
X165782171Y-79808009D01*
X165854742Y-79832200D01*
X165878933Y-79856390D01*
X166314361Y-80316009D02*
X166314361Y-80049914D01*
X166290171Y-80001533D01*
X166241790Y-79977342D01*
X166145028Y-79977342D01*
X166096647Y-80001533D01*
X166314361Y-80291819D02*
X166265980Y-80316009D01*
X166145028Y-80316009D01*
X166096647Y-80291819D01*
X166072457Y-80243438D01*
X166072457Y-80195057D01*
X166096647Y-80146676D01*
X166145028Y-80122485D01*
X166265980Y-80122485D01*
X166314361Y-80098295D01*
X166556266Y-79977342D02*
X166556266Y-80485342D01*
X166556266Y-80001533D02*
X166604647Y-79977342D01*
X166701409Y-79977342D01*
X166749790Y-80001533D01*
X166773980Y-80025723D01*
X166798171Y-80074104D01*
X166798171Y-80219247D01*
X166773980Y-80267628D01*
X166749790Y-80291819D01*
X166701409Y-80316009D01*
X166604647Y-80316009D01*
X166556266Y-80291819D01*
X166943314Y-79977342D02*
X167136838Y-79977342D01*
X167015885Y-79808009D02*
X167015885Y-80243438D01*
X167040076Y-80291819D01*
X167088457Y-80316009D01*
X167136838Y-80316009D01*
X167523885Y-80316009D02*
X167523885Y-80049914D01*
X167499695Y-80001533D01*
X167451314Y-79977342D01*
X167354552Y-79977342D01*
X167306171Y-80001533D01*
X167523885Y-80291819D02*
X167475504Y-80316009D01*
X167354552Y-80316009D01*
X167306171Y-80291819D01*
X167281980Y-80243438D01*
X167281980Y-80195057D01*
X167306171Y-80146676D01*
X167354552Y-80122485D01*
X167475504Y-80122485D01*
X167523885Y-80098295D01*
X167765790Y-80316009D02*
X167765790Y-79977342D01*
X167765790Y-79808009D02*
X167741600Y-79832200D01*
X167765790Y-79856390D01*
X167789980Y-79832200D01*
X167765790Y-79808009D01*
X167765790Y-79856390D01*
X168007695Y-79977342D02*
X168007695Y-80316009D01*
X168007695Y-80025723D02*
X168031885Y-80001533D01*
X168080266Y-79977342D01*
X168152838Y-79977342D01*
X168201219Y-80001533D01*
X168225409Y-80049914D01*
X168225409Y-80316009D01*
X168612457Y-80509533D02*
X168588266Y-80485342D01*
X168539885Y-80412771D01*
X168515695Y-80364390D01*
X168491504Y-80291819D01*
X168467314Y-80170866D01*
X168467314Y-80074104D01*
X168491504Y-79953152D01*
X168515695Y-79880580D01*
X168539885Y-79832200D01*
X168588266Y-79759628D01*
X168612457Y-79735438D01*
X168733409Y-79808009D02*
X169023695Y-79808009D01*
X168878552Y-80316009D02*
X168878552Y-79808009D01*
X169193028Y-80316009D02*
X169193028Y-79808009D01*
X169362361Y-80170866D01*
X169531695Y-79808009D01*
X169531695Y-80316009D01*
X169725219Y-80509533D02*
X169749409Y-80485342D01*
X169797790Y-80412771D01*
X169821980Y-80364390D01*
X169846171Y-80291819D01*
X169870361Y-80170866D01*
X169870361Y-80074104D01*
X169846171Y-79953152D01*
X169821980Y-79880580D01*
X169797790Y-79832200D01*
X169749409Y-79759628D01*
X169725219Y-79735438D01*
X170789600Y-80267628D02*
X170765409Y-80291819D01*
X170692838Y-80316009D01*
X170644457Y-80316009D01*
X170571885Y-80291819D01*
X170523504Y-80243438D01*
X170499314Y-80195057D01*
X170475123Y-80098295D01*
X170475123Y-80025723D01*
X170499314Y-79928961D01*
X170523504Y-79880580D01*
X170571885Y-79832200D01*
X170644457Y-79808009D01*
X170692838Y-79808009D01*
X170765409Y-79832200D01*
X170789600Y-79856390D01*
X170983123Y-80170866D02*
X171225028Y-80170866D01*
X170934742Y-80316009D02*
X171104076Y-79808009D01*
X171273409Y-80316009D01*
X171442742Y-80316009D02*
X171442742Y-79808009D01*
X171733028Y-80316009D01*
X171733028Y-79808009D01*
X171974933Y-80316009D02*
X171974933Y-79808009D01*
X172265219Y-80316009D01*
X172265219Y-79808009D01*
X172603885Y-79808009D02*
X172700647Y-79808009D01*
X172749028Y-79832200D01*
X172797409Y-79880580D01*
X172821600Y-79977342D01*
X172821600Y-80146676D01*
X172797409Y-80243438D01*
X172749028Y-80291819D01*
X172700647Y-80316009D01*
X172603885Y-80316009D01*
X172555504Y-80291819D01*
X172507123Y-80243438D01*
X172482933Y-80146676D01*
X172482933Y-79977342D01*
X172507123Y-79880580D01*
X172555504Y-79832200D01*
X172603885Y-79808009D01*
X172966742Y-79808009D02*
X173257028Y-79808009D01*
X173111885Y-80316009D02*
X173111885Y-79808009D01*
X174031123Y-80316009D02*
X174031123Y-79808009D01*
X174031123Y-80291819D02*
X173982742Y-80316009D01*
X173885980Y-80316009D01*
X173837600Y-80291819D01*
X173813409Y-80267628D01*
X173789219Y-80219247D01*
X173789219Y-80074104D01*
X173813409Y-80025723D01*
X173837600Y-80001533D01*
X173885980Y-79977342D01*
X173982742Y-79977342D01*
X174031123Y-80001533D01*
X174345600Y-80316009D02*
X174297219Y-80291819D01*
X174273028Y-80267628D01*
X174248838Y-80219247D01*
X174248838Y-80074104D01*
X174273028Y-80025723D01*
X174297219Y-80001533D01*
X174345600Y-79977342D01*
X174418171Y-79977342D01*
X174466552Y-80001533D01*
X174490742Y-80025723D01*
X174514933Y-80074104D01*
X174514933Y-80219247D01*
X174490742Y-80267628D01*
X174466552Y-80291819D01*
X174418171Y-80316009D01*
X174345600Y-80316009D01*
X175071314Y-79977342D02*
X175192266Y-80316009D01*
X175313219Y-79977342D02*
X175192266Y-80316009D01*
X175143885Y-80436961D01*
X175119695Y-80461152D01*
X175071314Y-80485342D01*
X175579314Y-80316009D02*
X175530933Y-80291819D01*
X175506742Y-80267628D01*
X175482552Y-80219247D01*
X175482552Y-80074104D01*
X175506742Y-80025723D01*
X175530933Y-80001533D01*
X175579314Y-79977342D01*
X175651885Y-79977342D01*
X175700266Y-80001533D01*
X175724457Y-80025723D01*
X175748647Y-80074104D01*
X175748647Y-80219247D01*
X175724457Y-80267628D01*
X175700266Y-80291819D01*
X175651885Y-80316009D01*
X175579314Y-80316009D01*
X176184076Y-79977342D02*
X176184076Y-80316009D01*
X175966361Y-79977342D02*
X175966361Y-80243438D01*
X175990552Y-80291819D01*
X176038933Y-80316009D01*
X176111504Y-80316009D01*
X176159885Y-80291819D01*
X176184076Y-80267628D01*
X176425980Y-80316009D02*
X176425980Y-79977342D01*
X176425980Y-80074104D02*
X176450171Y-80025723D01*
X176474361Y-80001533D01*
X176522742Y-79977342D01*
X176571123Y-79977342D01*
X177345219Y-80316009D02*
X177345219Y-79808009D01*
X177345219Y-80291819D02*
X177296838Y-80316009D01*
X177200076Y-80316009D01*
X177151695Y-80291819D01*
X177127504Y-80267628D01*
X177103314Y-80219247D01*
X177103314Y-80074104D01*
X177127504Y-80025723D01*
X177151695Y-80001533D01*
X177200076Y-79977342D01*
X177296838Y-79977342D01*
X177345219Y-80001533D01*
X177587123Y-80316009D02*
X177587123Y-79977342D01*
X177587123Y-79808009D02*
X177562933Y-79832200D01*
X177587123Y-79856390D01*
X177611314Y-79832200D01*
X177587123Y-79808009D01*
X177587123Y-79856390D01*
X177804838Y-80291819D02*
X177853219Y-80316009D01*
X177949980Y-80316009D01*
X177998361Y-80291819D01*
X178022552Y-80243438D01*
X178022552Y-80219247D01*
X177998361Y-80170866D01*
X177949980Y-80146676D01*
X177877409Y-80146676D01*
X177829028Y-80122485D01*
X177804838Y-80074104D01*
X177804838Y-80049914D01*
X177829028Y-80001533D01*
X177877409Y-79977342D01*
X177949980Y-79977342D01*
X177998361Y-80001533D01*
X178240266Y-80316009D02*
X178240266Y-79808009D01*
X178457980Y-80316009D02*
X178457980Y-80049914D01*
X178433790Y-80001533D01*
X178385409Y-79977342D01*
X178312838Y-79977342D01*
X178264457Y-80001533D01*
X178240266Y-80025723D01*
X178893409Y-80291819D02*
X178845028Y-80316009D01*
X178748266Y-80316009D01*
X178699885Y-80291819D01*
X178675695Y-80243438D01*
X178675695Y-80049914D01*
X178699885Y-80001533D01*
X178748266Y-79977342D01*
X178845028Y-79977342D01*
X178893409Y-80001533D01*
X178917600Y-80049914D01*
X178917600Y-80098295D01*
X178675695Y-80146676D01*
X179111123Y-80291819D02*
X179159504Y-80316009D01*
X179256266Y-80316009D01*
X179304647Y-80291819D01*
X179328838Y-80243438D01*
X179328838Y-80219247D01*
X179304647Y-80170866D01*
X179256266Y-80146676D01*
X179183695Y-80146676D01*
X179135314Y-80122485D01*
X179111123Y-80074104D01*
X179111123Y-80049914D01*
X179135314Y-80001533D01*
X179183695Y-79977342D01*
X179256266Y-79977342D01*
X179304647Y-80001533D01*
X179570742Y-80291819D02*
X179570742Y-80316009D01*
X179546552Y-80364390D01*
X179522361Y-80388580D01*
X163484076Y-81133889D02*
X163484076Y-80625889D01*
X163484076Y-80819413D02*
X163532457Y-80795222D01*
X163629219Y-80795222D01*
X163677600Y-80819413D01*
X163701790Y-80843603D01*
X163725980Y-80891984D01*
X163725980Y-81037127D01*
X163701790Y-81085508D01*
X163677600Y-81109699D01*
X163629219Y-81133889D01*
X163532457Y-81133889D01*
X163484076Y-81109699D01*
X164161409Y-80795222D02*
X164161409Y-81133889D01*
X163943695Y-80795222D02*
X163943695Y-81061318D01*
X163967885Y-81109699D01*
X164016266Y-81133889D01*
X164088838Y-81133889D01*
X164137219Y-81109699D01*
X164161409Y-81085508D01*
X164330742Y-80795222D02*
X164524266Y-80795222D01*
X164403314Y-80625889D02*
X164403314Y-81061318D01*
X164427504Y-81109699D01*
X164475885Y-81133889D01*
X164524266Y-81133889D01*
X165080647Y-81133889D02*
X165080647Y-80795222D01*
X165080647Y-80625889D02*
X165056457Y-80650080D01*
X165080647Y-80674270D01*
X165104838Y-80650080D01*
X165080647Y-80625889D01*
X165080647Y-80674270D01*
X165249980Y-80795222D02*
X165443504Y-80795222D01*
X165322552Y-80625889D02*
X165322552Y-81061318D01*
X165346742Y-81109699D01*
X165395123Y-81133889D01*
X165443504Y-81133889D01*
X166290171Y-81085508D02*
X166265980Y-81109699D01*
X166193409Y-81133889D01*
X166145028Y-81133889D01*
X166072457Y-81109699D01*
X166024076Y-81061318D01*
X165999885Y-81012937D01*
X165975695Y-80916175D01*
X165975695Y-80843603D01*
X165999885Y-80746841D01*
X166024076Y-80698460D01*
X166072457Y-80650080D01*
X166145028Y-80625889D01*
X166193409Y-80625889D01*
X166265980Y-80650080D01*
X166290171Y-80674270D01*
X166483695Y-80988746D02*
X166725600Y-80988746D01*
X166435314Y-81133889D02*
X166604647Y-80625889D01*
X166773980Y-81133889D01*
X166943314Y-81133889D02*
X166943314Y-80625889D01*
X167233600Y-81133889D01*
X167233600Y-80625889D01*
X167862552Y-81133889D02*
X167862552Y-80795222D01*
X167862552Y-80843603D02*
X167886742Y-80819413D01*
X167935123Y-80795222D01*
X168007695Y-80795222D01*
X168056076Y-80819413D01*
X168080266Y-80867794D01*
X168080266Y-81133889D01*
X168080266Y-80867794D02*
X168104457Y-80819413D01*
X168152838Y-80795222D01*
X168225409Y-80795222D01*
X168273790Y-80819413D01*
X168297980Y-80867794D01*
X168297980Y-81133889D01*
X168757600Y-81133889D02*
X168757600Y-80867794D01*
X168733409Y-80819413D01*
X168685028Y-80795222D01*
X168588266Y-80795222D01*
X168539885Y-80819413D01*
X168757600Y-81109699D02*
X168709219Y-81133889D01*
X168588266Y-81133889D01*
X168539885Y-81109699D01*
X168515695Y-81061318D01*
X168515695Y-81012937D01*
X168539885Y-80964556D01*
X168588266Y-80940365D01*
X168709219Y-80940365D01*
X168757600Y-80916175D01*
X168999504Y-81133889D02*
X168999504Y-80625889D01*
X169047885Y-80940365D02*
X169193028Y-81133889D01*
X169193028Y-80795222D02*
X168999504Y-80988746D01*
X169604266Y-81109699D02*
X169555885Y-81133889D01*
X169459123Y-81133889D01*
X169410742Y-81109699D01*
X169386552Y-81061318D01*
X169386552Y-80867794D01*
X169410742Y-80819413D01*
X169459123Y-80795222D01*
X169555885Y-80795222D01*
X169604266Y-80819413D01*
X169628457Y-80867794D01*
X169628457Y-80916175D01*
X169386552Y-80964556D01*
X170184838Y-80795222D02*
X170305790Y-81133889D01*
X170426742Y-80795222D02*
X170305790Y-81133889D01*
X170257409Y-81254841D01*
X170233219Y-81279032D01*
X170184838Y-81303222D01*
X170692838Y-81133889D02*
X170644457Y-81109699D01*
X170620266Y-81085508D01*
X170596076Y-81037127D01*
X170596076Y-80891984D01*
X170620266Y-80843603D01*
X170644457Y-80819413D01*
X170692838Y-80795222D01*
X170765409Y-80795222D01*
X170813790Y-80819413D01*
X170837980Y-80843603D01*
X170862171Y-80891984D01*
X170862171Y-81037127D01*
X170837980Y-81085508D01*
X170813790Y-81109699D01*
X170765409Y-81133889D01*
X170692838Y-81133889D01*
X171297600Y-80795222D02*
X171297600Y-81133889D01*
X171079885Y-80795222D02*
X171079885Y-81061318D01*
X171104076Y-81109699D01*
X171152457Y-81133889D01*
X171225028Y-81133889D01*
X171273409Y-81109699D01*
X171297600Y-81085508D01*
X171539504Y-81133889D02*
X171539504Y-80795222D01*
X171539504Y-80891984D02*
X171563695Y-80843603D01*
X171587885Y-80819413D01*
X171636266Y-80795222D01*
X171684647Y-80795222D01*
X172241028Y-81133889D02*
X172241028Y-80795222D01*
X172241028Y-80891984D02*
X172265219Y-80843603D01*
X172289409Y-80819413D01*
X172337790Y-80795222D01*
X172386171Y-80795222D01*
X172628076Y-81133889D02*
X172579695Y-81109699D01*
X172555504Y-81085508D01*
X172531314Y-81037127D01*
X172531314Y-80891984D01*
X172555504Y-80843603D01*
X172579695Y-80819413D01*
X172628076Y-80795222D01*
X172700647Y-80795222D01*
X172749028Y-80819413D01*
X172773219Y-80843603D01*
X172797409Y-80891984D01*
X172797409Y-81037127D01*
X172773219Y-81085508D01*
X172749028Y-81109699D01*
X172700647Y-81133889D01*
X172628076Y-81133889D01*
X173087695Y-81133889D02*
X173039314Y-81109699D01*
X173015123Y-81085508D01*
X172990933Y-81037127D01*
X172990933Y-80891984D01*
X173015123Y-80843603D01*
X173039314Y-80819413D01*
X173087695Y-80795222D01*
X173160266Y-80795222D01*
X173208647Y-80819413D01*
X173232838Y-80843603D01*
X173257028Y-80891984D01*
X173257028Y-81037127D01*
X173232838Y-81085508D01*
X173208647Y-81109699D01*
X173160266Y-81133889D01*
X173087695Y-81133889D01*
X173474742Y-81133889D02*
X173474742Y-80795222D01*
X173474742Y-80843603D02*
X173498933Y-80819413D01*
X173547314Y-80795222D01*
X173619885Y-80795222D01*
X173668266Y-80819413D01*
X173692457Y-80867794D01*
X173692457Y-81133889D01*
X173692457Y-80867794D02*
X173716647Y-80819413D01*
X173765028Y-80795222D01*
X173837600Y-80795222D01*
X173885980Y-80819413D01*
X173910171Y-80867794D01*
X173910171Y-81133889D01*
X174152076Y-81133889D02*
X174152076Y-80795222D01*
X174152076Y-80843603D02*
X174176266Y-80819413D01*
X174224647Y-80795222D01*
X174297219Y-80795222D01*
X174345600Y-80819413D01*
X174369790Y-80867794D01*
X174369790Y-81133889D01*
X174369790Y-80867794D02*
X174393980Y-80819413D01*
X174442361Y-80795222D01*
X174514933Y-80795222D01*
X174563314Y-80819413D01*
X174587504Y-80867794D01*
X174587504Y-81133889D01*
X175047123Y-81133889D02*
X175047123Y-80867794D01*
X175022933Y-80819413D01*
X174974552Y-80795222D01*
X174877790Y-80795222D01*
X174829409Y-80819413D01*
X175047123Y-81109699D02*
X174998742Y-81133889D01*
X174877790Y-81133889D01*
X174829409Y-81109699D01*
X174805219Y-81061318D01*
X174805219Y-81012937D01*
X174829409Y-80964556D01*
X174877790Y-80940365D01*
X174998742Y-80940365D01*
X175047123Y-80916175D01*
X175216457Y-80795222D02*
X175409980Y-80795222D01*
X175289028Y-80625889D02*
X175289028Y-81061318D01*
X175313219Y-81109699D01*
X175361600Y-81133889D01*
X175409980Y-81133889D01*
X175772838Y-81109699D02*
X175724457Y-81133889D01*
X175627695Y-81133889D01*
X175579314Y-81109699D01*
X175555123Y-81061318D01*
X175555123Y-80867794D01*
X175579314Y-80819413D01*
X175627695Y-80795222D01*
X175724457Y-80795222D01*
X175772838Y-80819413D01*
X175797028Y-80867794D01*
X175797028Y-80916175D01*
X175555123Y-80964556D01*
X175990552Y-81109699D02*
X176038933Y-81133889D01*
X176135695Y-81133889D01*
X176184076Y-81109699D01*
X176208266Y-81061318D01*
X176208266Y-81037127D01*
X176184076Y-80988746D01*
X176135695Y-80964556D01*
X176063123Y-80964556D01*
X176014742Y-80940365D01*
X175990552Y-80891984D01*
X175990552Y-80867794D01*
X176014742Y-80819413D01*
X176063123Y-80795222D01*
X176135695Y-80795222D01*
X176184076Y-80819413D01*
X177030742Y-81133889D02*
X177030742Y-80625889D01*
X177030742Y-81109699D02*
X176982361Y-81133889D01*
X176885600Y-81133889D01*
X176837219Y-81109699D01*
X176813028Y-81085508D01*
X176788838Y-81037127D01*
X176788838Y-80891984D01*
X176813028Y-80843603D01*
X176837219Y-80819413D01*
X176885600Y-80795222D01*
X176982361Y-80795222D01*
X177030742Y-80819413D01*
X177345219Y-81133889D02*
X177296838Y-81109699D01*
X177272647Y-81085508D01*
X177248457Y-81037127D01*
X177248457Y-80891984D01*
X177272647Y-80843603D01*
X177296838Y-80819413D01*
X177345219Y-80795222D01*
X177417790Y-80795222D01*
X177466171Y-80819413D01*
X177490361Y-80843603D01*
X177514552Y-80891984D01*
X177514552Y-81037127D01*
X177490361Y-81085508D01*
X177466171Y-81109699D01*
X177417790Y-81133889D01*
X177345219Y-81133889D01*
X178046742Y-80795222D02*
X178240266Y-80795222D01*
X178119314Y-80625889D02*
X178119314Y-81061318D01*
X178143504Y-81109699D01*
X178191885Y-81133889D01*
X178240266Y-81133889D01*
X178409600Y-81133889D02*
X178409600Y-80625889D01*
X178627314Y-81133889D02*
X178627314Y-80867794D01*
X178603123Y-80819413D01*
X178554742Y-80795222D01*
X178482171Y-80795222D01*
X178433790Y-80819413D01*
X178409600Y-80843603D01*
X179062742Y-81109699D02*
X179014361Y-81133889D01*
X178917600Y-81133889D01*
X178869219Y-81109699D01*
X178845028Y-81061318D01*
X178845028Y-80867794D01*
X178869219Y-80819413D01*
X178917600Y-80795222D01*
X179014361Y-80795222D01*
X179062742Y-80819413D01*
X179086933Y-80867794D01*
X179086933Y-80916175D01*
X178845028Y-80964556D01*
X179304647Y-81133889D02*
X179304647Y-80795222D01*
X179304647Y-80843603D02*
X179328838Y-80819413D01*
X179377219Y-80795222D01*
X179449790Y-80795222D01*
X179498171Y-80819413D01*
X179522361Y-80867794D01*
X179522361Y-81133889D01*
X179522361Y-80867794D02*
X179546552Y-80819413D01*
X179594933Y-80795222D01*
X179667504Y-80795222D01*
X179715885Y-80819413D01*
X179740076Y-80867794D01*
X179740076Y-81133889D01*
X97887971Y-45441809D02*
X98178257Y-45441809D01*
X98033114Y-45949809D02*
X98033114Y-45441809D01*
X98541114Y-45925619D02*
X98492733Y-45949809D01*
X98395971Y-45949809D01*
X98347590Y-45925619D01*
X98323400Y-45877238D01*
X98323400Y-45683714D01*
X98347590Y-45635333D01*
X98395971Y-45611142D01*
X98492733Y-45611142D01*
X98541114Y-45635333D01*
X98565304Y-45683714D01*
X98565304Y-45732095D01*
X98323400Y-45780476D01*
X99000733Y-45949809D02*
X99000733Y-45683714D01*
X98976542Y-45635333D01*
X98928161Y-45611142D01*
X98831400Y-45611142D01*
X98783019Y-45635333D01*
X99000733Y-45925619D02*
X98952352Y-45949809D01*
X98831400Y-45949809D01*
X98783019Y-45925619D01*
X98758828Y-45877238D01*
X98758828Y-45828857D01*
X98783019Y-45780476D01*
X98831400Y-45756285D01*
X98952352Y-45756285D01*
X99000733Y-45732095D01*
X99242638Y-45949809D02*
X99242638Y-45611142D01*
X99242638Y-45659523D02*
X99266828Y-45635333D01*
X99315209Y-45611142D01*
X99387780Y-45611142D01*
X99436161Y-45635333D01*
X99460352Y-45683714D01*
X99460352Y-45949809D01*
X99460352Y-45683714D02*
X99484542Y-45635333D01*
X99532923Y-45611142D01*
X99605495Y-45611142D01*
X99653876Y-45635333D01*
X99678066Y-45683714D01*
X99678066Y-45949809D01*
X100282828Y-45925619D02*
X100355400Y-45949809D01*
X100476352Y-45949809D01*
X100524733Y-45925619D01*
X100548923Y-45901428D01*
X100573114Y-45853047D01*
X100573114Y-45804666D01*
X100548923Y-45756285D01*
X100524733Y-45732095D01*
X100476352Y-45707904D01*
X100379590Y-45683714D01*
X100331209Y-45659523D01*
X100307019Y-45635333D01*
X100282828Y-45586952D01*
X100282828Y-45538571D01*
X100307019Y-45490190D01*
X100331209Y-45466000D01*
X100379590Y-45441809D01*
X100500542Y-45441809D01*
X100573114Y-45466000D01*
X100984352Y-45925619D02*
X100935971Y-45949809D01*
X100839209Y-45949809D01*
X100790828Y-45925619D01*
X100766638Y-45877238D01*
X100766638Y-45683714D01*
X100790828Y-45635333D01*
X100839209Y-45611142D01*
X100935971Y-45611142D01*
X100984352Y-45635333D01*
X101008542Y-45683714D01*
X101008542Y-45732095D01*
X100766638Y-45780476D01*
X101298828Y-45949809D02*
X101250447Y-45925619D01*
X101226257Y-45877238D01*
X101226257Y-45441809D01*
X101685876Y-45925619D02*
X101637495Y-45949809D01*
X101540733Y-45949809D01*
X101492352Y-45925619D01*
X101468161Y-45877238D01*
X101468161Y-45683714D01*
X101492352Y-45635333D01*
X101540733Y-45611142D01*
X101637495Y-45611142D01*
X101685876Y-45635333D01*
X101710066Y-45683714D01*
X101710066Y-45732095D01*
X101468161Y-45780476D01*
X101927780Y-45611142D02*
X101927780Y-45949809D01*
X101927780Y-45659523D02*
X101951971Y-45635333D01*
X102000352Y-45611142D01*
X102072923Y-45611142D01*
X102121304Y-45635333D01*
X102145495Y-45683714D01*
X102145495Y-45949809D01*
X102605114Y-45949809D02*
X102605114Y-45683714D01*
X102580923Y-45635333D01*
X102532542Y-45611142D01*
X102435780Y-45611142D01*
X102387400Y-45635333D01*
X102605114Y-45925619D02*
X102556733Y-45949809D01*
X102435780Y-45949809D01*
X102387400Y-45925619D01*
X102363209Y-45877238D01*
X102363209Y-45828857D01*
X102387400Y-45780476D01*
X102435780Y-45756285D01*
X102556733Y-45756285D01*
X102605114Y-45732095D01*
X103451780Y-45949809D02*
X103451780Y-45683714D01*
X103427590Y-45635333D01*
X103379209Y-45611142D01*
X103282447Y-45611142D01*
X103234066Y-45635333D01*
X103451780Y-45925619D02*
X103403400Y-45949809D01*
X103282447Y-45949809D01*
X103234066Y-45925619D01*
X103209876Y-45877238D01*
X103209876Y-45828857D01*
X103234066Y-45780476D01*
X103282447Y-45756285D01*
X103403400Y-45756285D01*
X103451780Y-45732095D01*
X103766257Y-45949809D02*
X103717876Y-45925619D01*
X103693685Y-45877238D01*
X103693685Y-45441809D01*
X104032352Y-45949809D02*
X103983971Y-45925619D01*
X103959780Y-45877238D01*
X103959780Y-45441809D01*
X104540352Y-45611142D02*
X104733876Y-45611142D01*
X104612923Y-45441809D02*
X104612923Y-45877238D01*
X104637114Y-45925619D01*
X104685495Y-45949809D01*
X104733876Y-45949809D01*
X104903209Y-45949809D02*
X104903209Y-45441809D01*
X105120923Y-45949809D02*
X105120923Y-45683714D01*
X105096733Y-45635333D01*
X105048352Y-45611142D01*
X104975780Y-45611142D01*
X104927400Y-45635333D01*
X104903209Y-45659523D01*
X105556352Y-45925619D02*
X105507971Y-45949809D01*
X105411209Y-45949809D01*
X105362828Y-45925619D01*
X105338638Y-45877238D01*
X105338638Y-45683714D01*
X105362828Y-45635333D01*
X105411209Y-45611142D01*
X105507971Y-45611142D01*
X105556352Y-45635333D01*
X105580542Y-45683714D01*
X105580542Y-45732095D01*
X105338638Y-45780476D01*
X106136923Y-45611142D02*
X106233685Y-45949809D01*
X106330447Y-45707904D01*
X106427209Y-45949809D01*
X106523971Y-45611142D01*
X106935209Y-45949809D02*
X106935209Y-45683714D01*
X106911019Y-45635333D01*
X106862638Y-45611142D01*
X106765876Y-45611142D01*
X106717495Y-45635333D01*
X106935209Y-45925619D02*
X106886828Y-45949809D01*
X106765876Y-45949809D01*
X106717495Y-45925619D01*
X106693304Y-45877238D01*
X106693304Y-45828857D01*
X106717495Y-45780476D01*
X106765876Y-45756285D01*
X106886828Y-45756285D01*
X106935209Y-45732095D01*
X107128733Y-45611142D02*
X107249685Y-45949809D01*
X107370638Y-45611142D02*
X107249685Y-45949809D01*
X107201304Y-46070761D01*
X107177114Y-46094952D01*
X107128733Y-46119142D01*
X87273069Y-85550828D02*
X86765069Y-85550828D01*
X86765069Y-85429876D01*
X86789260Y-85357304D01*
X86837640Y-85308923D01*
X86886021Y-85284733D01*
X86982783Y-85260542D01*
X87055355Y-85260542D01*
X87152117Y-85284733D01*
X87200498Y-85308923D01*
X87248879Y-85357304D01*
X87273069Y-85429876D01*
X87273069Y-85550828D01*
X87273069Y-84970257D02*
X87248879Y-85018638D01*
X87224688Y-85042828D01*
X87176307Y-85067019D01*
X87031164Y-85067019D01*
X86982783Y-85042828D01*
X86958593Y-85018638D01*
X86934402Y-84970257D01*
X86934402Y-84897685D01*
X86958593Y-84849304D01*
X86982783Y-84825114D01*
X87031164Y-84800923D01*
X87176307Y-84800923D01*
X87224688Y-84825114D01*
X87248879Y-84849304D01*
X87273069Y-84897685D01*
X87273069Y-84970257D01*
X86934402Y-84583209D02*
X87273069Y-84583209D01*
X86982783Y-84583209D02*
X86958593Y-84559019D01*
X86934402Y-84510638D01*
X86934402Y-84438066D01*
X86958593Y-84389685D01*
X87006974Y-84365495D01*
X87273069Y-84365495D01*
X86765069Y-84099400D02*
X86861831Y-84147780D01*
X86934402Y-83954257D02*
X86934402Y-83760733D01*
X86765069Y-83881685D02*
X87200498Y-83881685D01*
X87248879Y-83857495D01*
X87273069Y-83809114D01*
X87273069Y-83760733D01*
X87273069Y-83204352D02*
X86934402Y-83204352D01*
X86982783Y-83204352D02*
X86958593Y-83180161D01*
X86934402Y-83131780D01*
X86934402Y-83059209D01*
X86958593Y-83010828D01*
X87006974Y-82986638D01*
X87273069Y-82986638D01*
X87006974Y-82986638D02*
X86958593Y-82962447D01*
X86934402Y-82914066D01*
X86934402Y-82841495D01*
X86958593Y-82793114D01*
X87006974Y-82768923D01*
X87273069Y-82768923D01*
X87273069Y-82527019D02*
X86934402Y-82527019D01*
X86765069Y-82527019D02*
X86789260Y-82551209D01*
X86813450Y-82527019D01*
X86789260Y-82502828D01*
X86765069Y-82527019D01*
X86813450Y-82527019D01*
X86934402Y-82285114D02*
X87273069Y-82285114D01*
X86982783Y-82285114D02*
X86958593Y-82260923D01*
X86934402Y-82212542D01*
X86934402Y-82139971D01*
X86958593Y-82091590D01*
X87006974Y-82067400D01*
X87273069Y-82067400D01*
X87273069Y-81607780D02*
X86765069Y-81607780D01*
X87248879Y-81607780D02*
X87273069Y-81656161D01*
X87273069Y-81752923D01*
X87248879Y-81801304D01*
X87224688Y-81825495D01*
X87176307Y-81849685D01*
X87031164Y-81849685D01*
X86982783Y-81825495D01*
X86958593Y-81801304D01*
X86934402Y-81752923D01*
X86934402Y-81656161D01*
X86958593Y-81607780D01*
X87273069Y-80978828D02*
X86934402Y-80978828D01*
X86982783Y-80978828D02*
X86958593Y-80954638D01*
X86934402Y-80906257D01*
X86934402Y-80833685D01*
X86958593Y-80785304D01*
X87006974Y-80761114D01*
X87273069Y-80761114D01*
X87006974Y-80761114D02*
X86958593Y-80736923D01*
X86934402Y-80688542D01*
X86934402Y-80615971D01*
X86958593Y-80567590D01*
X87006974Y-80543400D01*
X87273069Y-80543400D01*
X87248879Y-80107971D02*
X87273069Y-80156352D01*
X87273069Y-80253114D01*
X87248879Y-80301495D01*
X87200498Y-80325685D01*
X87006974Y-80325685D01*
X86958593Y-80301495D01*
X86934402Y-80253114D01*
X86934402Y-80156352D01*
X86958593Y-80107971D01*
X87006974Y-80083780D01*
X87055355Y-80083780D01*
X87103736Y-80325685D01*
X87582949Y-85816923D02*
X87945806Y-85816923D01*
X88018378Y-85841114D01*
X88066759Y-85889495D01*
X88090949Y-85962066D01*
X88090949Y-86010447D01*
X88090949Y-84970257D02*
X87824854Y-84970257D01*
X87776473Y-84994447D01*
X87752282Y-85042828D01*
X87752282Y-85139590D01*
X87776473Y-85187971D01*
X88066759Y-84970257D02*
X88090949Y-85018638D01*
X88090949Y-85139590D01*
X88066759Y-85187971D01*
X88018378Y-85212161D01*
X87969997Y-85212161D01*
X87921616Y-85187971D01*
X87897425Y-85139590D01*
X87897425Y-85018638D01*
X87873235Y-84970257D01*
X88066759Y-84365495D02*
X88090949Y-84317114D01*
X88090949Y-84220352D01*
X88066759Y-84171971D01*
X88018378Y-84147780D01*
X87994187Y-84147780D01*
X87945806Y-84171971D01*
X87921616Y-84220352D01*
X87921616Y-84292923D01*
X87897425Y-84341304D01*
X87849044Y-84365495D01*
X87824854Y-84365495D01*
X87776473Y-84341304D01*
X87752282Y-84292923D01*
X87752282Y-84220352D01*
X87776473Y-84171971D01*
X88090949Y-83930066D02*
X87752282Y-83930066D01*
X87582949Y-83930066D02*
X87607140Y-83954257D01*
X87631330Y-83930066D01*
X87607140Y-83905876D01*
X87582949Y-83930066D01*
X87631330Y-83930066D01*
X88090949Y-83615590D02*
X88066759Y-83663971D01*
X88018378Y-83688161D01*
X87582949Y-83688161D01*
X88090949Y-83349495D02*
X88066759Y-83397876D01*
X88018378Y-83422066D01*
X87582949Y-83422066D01*
X87752282Y-83204352D02*
X88090949Y-83083400D01*
X87752282Y-82962447D02*
X88090949Y-83083400D01*
X88211901Y-83131780D01*
X88236092Y-83155971D01*
X88260282Y-83204352D01*
X88090949Y-82309304D02*
X88066759Y-82357685D01*
X88018378Y-82381876D01*
X87582949Y-82381876D01*
X88090949Y-82115780D02*
X87752282Y-82115780D01*
X87582949Y-82115780D02*
X87607140Y-82139971D01*
X87631330Y-82115780D01*
X87607140Y-82091590D01*
X87582949Y-82115780D01*
X87631330Y-82115780D01*
X88090949Y-81801304D02*
X88066759Y-81849685D01*
X88018378Y-81873876D01*
X87582949Y-81873876D01*
X87582949Y-81583590D02*
X87679711Y-81631971D01*
X88090949Y-80978828D02*
X87582949Y-80978828D01*
X87582949Y-80785304D01*
X87607140Y-80736923D01*
X87631330Y-80712733D01*
X87679711Y-80688542D01*
X87752282Y-80688542D01*
X87800663Y-80712733D01*
X87824854Y-80736923D01*
X87849044Y-80785304D01*
X87849044Y-80978828D01*
X88042568Y-80180542D02*
X88066759Y-80204733D01*
X88090949Y-80277304D01*
X88090949Y-80325685D01*
X88066759Y-80398257D01*
X88018378Y-80446638D01*
X87969997Y-80470828D01*
X87873235Y-80495019D01*
X87800663Y-80495019D01*
X87703901Y-80470828D01*
X87655520Y-80446638D01*
X87607140Y-80398257D01*
X87582949Y-80325685D01*
X87582949Y-80277304D01*
X87607140Y-80204733D01*
X87631330Y-80180542D01*
X87824854Y-79793495D02*
X87849044Y-79720923D01*
X87873235Y-79696733D01*
X87921616Y-79672542D01*
X87994187Y-79672542D01*
X88042568Y-79696733D01*
X88066759Y-79720923D01*
X88090949Y-79769304D01*
X88090949Y-79962828D01*
X87582949Y-79962828D01*
X87582949Y-79793495D01*
X87607140Y-79745114D01*
X87631330Y-79720923D01*
X87679711Y-79696733D01*
X87728092Y-79696733D01*
X87776473Y-79720923D01*
X87800663Y-79745114D01*
X87824854Y-79793495D01*
X87824854Y-79962828D01*
X162891409Y-102888989D02*
X162891409Y-102380989D01*
X163012361Y-102380989D01*
X163084933Y-102405180D01*
X163133314Y-102453560D01*
X163157504Y-102501941D01*
X163181695Y-102598703D01*
X163181695Y-102671275D01*
X163157504Y-102768037D01*
X163133314Y-102816418D01*
X163084933Y-102864799D01*
X163012361Y-102888989D01*
X162891409Y-102888989D01*
X163399409Y-102888989D02*
X163399409Y-102550322D01*
X163399409Y-102380989D02*
X163375219Y-102405180D01*
X163399409Y-102429370D01*
X163423600Y-102405180D01*
X163399409Y-102380989D01*
X163399409Y-102429370D01*
X163641314Y-102888989D02*
X163641314Y-102550322D01*
X163641314Y-102647084D02*
X163665504Y-102598703D01*
X163689695Y-102574513D01*
X163738076Y-102550322D01*
X163786457Y-102550322D01*
X164149314Y-102864799D02*
X164100933Y-102888989D01*
X164004171Y-102888989D01*
X163955790Y-102864799D01*
X163931600Y-102816418D01*
X163931600Y-102622894D01*
X163955790Y-102574513D01*
X164004171Y-102550322D01*
X164100933Y-102550322D01*
X164149314Y-102574513D01*
X164173504Y-102622894D01*
X164173504Y-102671275D01*
X163931600Y-102719656D01*
X164608933Y-102864799D02*
X164560552Y-102888989D01*
X164463790Y-102888989D01*
X164415409Y-102864799D01*
X164391219Y-102840608D01*
X164367028Y-102792227D01*
X164367028Y-102647084D01*
X164391219Y-102598703D01*
X164415409Y-102574513D01*
X164463790Y-102550322D01*
X164560552Y-102550322D01*
X164608933Y-102574513D01*
X164754076Y-102550322D02*
X164947600Y-102550322D01*
X164826647Y-102380989D02*
X164826647Y-102816418D01*
X164850838Y-102864799D01*
X164899219Y-102888989D01*
X164947600Y-102888989D01*
X165697504Y-102864799D02*
X165649123Y-102888989D01*
X165552361Y-102888989D01*
X165503980Y-102864799D01*
X165479790Y-102816418D01*
X165479790Y-102622894D01*
X165503980Y-102574513D01*
X165552361Y-102550322D01*
X165649123Y-102550322D01*
X165697504Y-102574513D01*
X165721695Y-102622894D01*
X165721695Y-102671275D01*
X165479790Y-102719656D01*
X165939409Y-102550322D02*
X165939409Y-102888989D01*
X165939409Y-102598703D02*
X165963600Y-102574513D01*
X166011980Y-102550322D01*
X166084552Y-102550322D01*
X166132933Y-102574513D01*
X166157123Y-102622894D01*
X166157123Y-102888989D01*
X166592552Y-102864799D02*
X166544171Y-102888989D01*
X166447409Y-102888989D01*
X166399028Y-102864799D01*
X166374838Y-102816418D01*
X166374838Y-102622894D01*
X166399028Y-102574513D01*
X166447409Y-102550322D01*
X166544171Y-102550322D01*
X166592552Y-102574513D01*
X166616742Y-102622894D01*
X166616742Y-102671275D01*
X166374838Y-102719656D01*
X166834457Y-102888989D02*
X166834457Y-102550322D01*
X166834457Y-102598703D02*
X166858647Y-102574513D01*
X166907028Y-102550322D01*
X166979600Y-102550322D01*
X167027980Y-102574513D01*
X167052171Y-102622894D01*
X167052171Y-102888989D01*
X167052171Y-102622894D02*
X167076361Y-102574513D01*
X167124742Y-102550322D01*
X167197314Y-102550322D01*
X167245695Y-102574513D01*
X167269885Y-102622894D01*
X167269885Y-102888989D01*
X167463409Y-102550322D02*
X167584361Y-102888989D01*
X167705314Y-102550322D02*
X167584361Y-102888989D01*
X167535980Y-103009941D01*
X167511790Y-103034132D01*
X167463409Y-103058322D01*
X168358457Y-102888989D02*
X168310076Y-102864799D01*
X168285885Y-102840608D01*
X168261695Y-102792227D01*
X168261695Y-102647084D01*
X168285885Y-102598703D01*
X168310076Y-102574513D01*
X168358457Y-102550322D01*
X168431028Y-102550322D01*
X168479409Y-102574513D01*
X168503600Y-102598703D01*
X168527790Y-102647084D01*
X168527790Y-102792227D01*
X168503600Y-102840608D01*
X168479409Y-102864799D01*
X168431028Y-102888989D01*
X168358457Y-102888989D01*
X168672933Y-102550322D02*
X168866457Y-102550322D01*
X168745504Y-102888989D02*
X168745504Y-102453560D01*
X168769695Y-102405180D01*
X168818076Y-102380989D01*
X168866457Y-102380989D01*
X169035790Y-102840608D02*
X169059980Y-102864799D01*
X169035790Y-102888989D01*
X169011600Y-102864799D01*
X169035790Y-102840608D01*
X169035790Y-102888989D01*
X169035790Y-102574513D02*
X169059980Y-102598703D01*
X169035790Y-102622894D01*
X169011600Y-102598703D01*
X169035790Y-102574513D01*
X169035790Y-102622894D01*
X162274552Y-103440774D02*
X162347123Y-103464964D01*
X162371314Y-103489155D01*
X162395504Y-103537536D01*
X162395504Y-103610107D01*
X162371314Y-103658488D01*
X162347123Y-103682679D01*
X162298742Y-103706869D01*
X162105219Y-103706869D01*
X162105219Y-103198869D01*
X162274552Y-103198869D01*
X162322933Y-103223060D01*
X162347123Y-103247250D01*
X162371314Y-103295631D01*
X162371314Y-103344012D01*
X162347123Y-103392393D01*
X162322933Y-103416583D01*
X162274552Y-103440774D01*
X162105219Y-103440774D01*
X162613219Y-103706869D02*
X162613219Y-103368202D01*
X162613219Y-103198869D02*
X162589028Y-103223060D01*
X162613219Y-103247250D01*
X162637409Y-103223060D01*
X162613219Y-103198869D01*
X162613219Y-103247250D01*
X163072838Y-103368202D02*
X163072838Y-103779440D01*
X163048647Y-103827821D01*
X163024457Y-103852012D01*
X162976076Y-103876202D01*
X162903504Y-103876202D01*
X162855123Y-103852012D01*
X163072838Y-103682679D02*
X163024457Y-103706869D01*
X162927695Y-103706869D01*
X162879314Y-103682679D01*
X162855123Y-103658488D01*
X162830933Y-103610107D01*
X162830933Y-103464964D01*
X162855123Y-103416583D01*
X162879314Y-103392393D01*
X162927695Y-103368202D01*
X163024457Y-103368202D01*
X163072838Y-103392393D01*
X163701790Y-103706869D02*
X163701790Y-103198869D01*
X163895314Y-103198869D01*
X163943695Y-103223060D01*
X163967885Y-103247250D01*
X163992076Y-103295631D01*
X163992076Y-103368202D01*
X163967885Y-103416583D01*
X163943695Y-103440774D01*
X163895314Y-103464964D01*
X163701790Y-103464964D01*
X164282361Y-103706869D02*
X164233980Y-103682679D01*
X164209790Y-103658488D01*
X164185600Y-103610107D01*
X164185600Y-103464964D01*
X164209790Y-103416583D01*
X164233980Y-103392393D01*
X164282361Y-103368202D01*
X164354933Y-103368202D01*
X164403314Y-103392393D01*
X164427504Y-103416583D01*
X164451695Y-103464964D01*
X164451695Y-103610107D01*
X164427504Y-103658488D01*
X164403314Y-103682679D01*
X164354933Y-103706869D01*
X164282361Y-103706869D01*
X164887123Y-103682679D02*
X164838742Y-103706869D01*
X164741980Y-103706869D01*
X164693600Y-103682679D01*
X164669409Y-103658488D01*
X164645219Y-103610107D01*
X164645219Y-103464964D01*
X164669409Y-103416583D01*
X164693600Y-103392393D01*
X164741980Y-103368202D01*
X164838742Y-103368202D01*
X164887123Y-103392393D01*
X165104838Y-103706869D02*
X165104838Y-103198869D01*
X165153219Y-103513345D02*
X165298361Y-103706869D01*
X165298361Y-103368202D02*
X165104838Y-103561726D01*
X165709600Y-103682679D02*
X165661219Y-103706869D01*
X165564457Y-103706869D01*
X165516076Y-103682679D01*
X165491885Y-103634298D01*
X165491885Y-103440774D01*
X165516076Y-103392393D01*
X165564457Y-103368202D01*
X165661219Y-103368202D01*
X165709600Y-103392393D01*
X165733790Y-103440774D01*
X165733790Y-103489155D01*
X165491885Y-103537536D01*
X165878933Y-103368202D02*
X166072457Y-103368202D01*
X165951504Y-103198869D02*
X165951504Y-103634298D01*
X165975695Y-103682679D01*
X166024076Y-103706869D01*
X166072457Y-103706869D01*
X166604647Y-103174679D02*
X166169219Y-103827821D01*
X166773980Y-103706869D02*
X166773980Y-103198869D01*
X166773980Y-103440774D02*
X167064266Y-103440774D01*
X167064266Y-103706869D02*
X167064266Y-103198869D01*
X167523885Y-103706869D02*
X167523885Y-103440774D01*
X167499695Y-103392393D01*
X167451314Y-103368202D01*
X167354552Y-103368202D01*
X167306171Y-103392393D01*
X167523885Y-103682679D02*
X167475504Y-103706869D01*
X167354552Y-103706869D01*
X167306171Y-103682679D01*
X167281980Y-103634298D01*
X167281980Y-103585917D01*
X167306171Y-103537536D01*
X167354552Y-103513345D01*
X167475504Y-103513345D01*
X167523885Y-103489155D01*
X167765790Y-103368202D02*
X167765790Y-103706869D01*
X167765790Y-103416583D02*
X167789980Y-103392393D01*
X167838361Y-103368202D01*
X167910933Y-103368202D01*
X167959314Y-103392393D01*
X167983504Y-103440774D01*
X167983504Y-103706869D01*
X168443123Y-103706869D02*
X168443123Y-103198869D01*
X168443123Y-103682679D02*
X168394742Y-103706869D01*
X168297980Y-103706869D01*
X168249600Y-103682679D01*
X168225409Y-103658488D01*
X168201219Y-103610107D01*
X168201219Y-103464964D01*
X168225409Y-103416583D01*
X168249600Y-103392393D01*
X168297980Y-103368202D01*
X168394742Y-103368202D01*
X168443123Y-103392393D01*
X168685028Y-103706869D02*
X168685028Y-103198869D01*
X168685028Y-103392393D02*
X168733409Y-103368202D01*
X168830171Y-103368202D01*
X168878552Y-103392393D01*
X168902742Y-103416583D01*
X168926933Y-103464964D01*
X168926933Y-103610107D01*
X168902742Y-103658488D01*
X168878552Y-103682679D01*
X168830171Y-103706869D01*
X168733409Y-103706869D01*
X168685028Y-103682679D01*
X169362361Y-103706869D02*
X169362361Y-103440774D01*
X169338171Y-103392393D01*
X169289790Y-103368202D01*
X169193028Y-103368202D01*
X169144647Y-103392393D01*
X169362361Y-103682679D02*
X169313980Y-103706869D01*
X169193028Y-103706869D01*
X169144647Y-103682679D01*
X169120457Y-103634298D01*
X169120457Y-103585917D01*
X169144647Y-103537536D01*
X169193028Y-103513345D01*
X169313980Y-103513345D01*
X169362361Y-103489155D01*
X169821980Y-103368202D02*
X169821980Y-103779440D01*
X169797790Y-103827821D01*
X169773600Y-103852012D01*
X169725219Y-103876202D01*
X169652647Y-103876202D01*
X169604266Y-103852012D01*
X169821980Y-103682679D02*
X169773600Y-103706869D01*
X169676838Y-103706869D01*
X169628457Y-103682679D01*
X169604266Y-103658488D01*
X169580076Y-103610107D01*
X169580076Y-103464964D01*
X169604266Y-103416583D01*
X169628457Y-103392393D01*
X169676838Y-103368202D01*
X169773600Y-103368202D01*
X169821980Y-103392393D01*
X161960076Y-104524749D02*
X161960076Y-104016749D01*
X162250361Y-104524749D01*
X162250361Y-104016749D01*
X162564838Y-104524749D02*
X162516457Y-104500559D01*
X162492266Y-104476368D01*
X162468076Y-104427987D01*
X162468076Y-104282844D01*
X162492266Y-104234463D01*
X162516457Y-104210273D01*
X162564838Y-104186082D01*
X162637409Y-104186082D01*
X162685790Y-104210273D01*
X162709980Y-104234463D01*
X162734171Y-104282844D01*
X162734171Y-104427987D01*
X162709980Y-104476368D01*
X162685790Y-104500559D01*
X162637409Y-104524749D01*
X162564838Y-104524749D01*
X162951885Y-104186082D02*
X162951885Y-104524749D01*
X162951885Y-104234463D02*
X162976076Y-104210273D01*
X163024457Y-104186082D01*
X163097028Y-104186082D01*
X163145409Y-104210273D01*
X163169600Y-104258654D01*
X163169600Y-104524749D01*
X163411504Y-104331225D02*
X163798552Y-104331225D01*
X164040457Y-104258654D02*
X164209790Y-104258654D01*
X164282361Y-104524749D02*
X164040457Y-104524749D01*
X164040457Y-104016749D01*
X164282361Y-104016749D01*
X164790361Y-104476368D02*
X164766171Y-104500559D01*
X164693600Y-104524749D01*
X164645219Y-104524749D01*
X164572647Y-104500559D01*
X164524266Y-104452178D01*
X164500076Y-104403797D01*
X164475885Y-104307035D01*
X164475885Y-104234463D01*
X164500076Y-104137701D01*
X164524266Y-104089320D01*
X164572647Y-104040940D01*
X164645219Y-104016749D01*
X164693600Y-104016749D01*
X164766171Y-104040940D01*
X164790361Y-104065130D01*
X165008076Y-104258654D02*
X165177409Y-104258654D01*
X165249980Y-104524749D02*
X165008076Y-104524749D01*
X165008076Y-104016749D01*
X165249980Y-104016749D01*
X165685409Y-104186082D02*
X165685409Y-104524749D01*
X165564457Y-103992559D02*
X165443504Y-104355416D01*
X165757980Y-104355416D01*
X165903123Y-104016749D02*
X166241790Y-104016749D01*
X166024076Y-104524749D01*
X166386933Y-104016749D02*
X166725600Y-104016749D01*
X166507885Y-104524749D01*
X167596457Y-104476368D02*
X167572266Y-104500559D01*
X167499695Y-104524749D01*
X167451314Y-104524749D01*
X167378742Y-104500559D01*
X167330361Y-104452178D01*
X167306171Y-104403797D01*
X167281980Y-104307035D01*
X167281980Y-104234463D01*
X167306171Y-104137701D01*
X167330361Y-104089320D01*
X167378742Y-104040940D01*
X167451314Y-104016749D01*
X167499695Y-104016749D01*
X167572266Y-104040940D01*
X167596457Y-104065130D01*
X167886742Y-104524749D02*
X167838361Y-104500559D01*
X167814171Y-104452178D01*
X167814171Y-104016749D01*
X168297980Y-104524749D02*
X168297980Y-104258654D01*
X168273790Y-104210273D01*
X168225409Y-104186082D01*
X168128647Y-104186082D01*
X168080266Y-104210273D01*
X168297980Y-104500559D02*
X168249600Y-104524749D01*
X168128647Y-104524749D01*
X168080266Y-104500559D01*
X168056076Y-104452178D01*
X168056076Y-104403797D01*
X168080266Y-104355416D01*
X168128647Y-104331225D01*
X168249600Y-104331225D01*
X168297980Y-104307035D01*
X168515695Y-104500559D02*
X168564076Y-104524749D01*
X168660838Y-104524749D01*
X168709219Y-104500559D01*
X168733409Y-104452178D01*
X168733409Y-104427987D01*
X168709219Y-104379606D01*
X168660838Y-104355416D01*
X168588266Y-104355416D01*
X168539885Y-104331225D01*
X168515695Y-104282844D01*
X168515695Y-104258654D01*
X168539885Y-104210273D01*
X168588266Y-104186082D01*
X168660838Y-104186082D01*
X168709219Y-104210273D01*
X168926933Y-104500559D02*
X168975314Y-104524749D01*
X169072076Y-104524749D01*
X169120457Y-104500559D01*
X169144647Y-104452178D01*
X169144647Y-104427987D01*
X169120457Y-104379606D01*
X169072076Y-104355416D01*
X168999504Y-104355416D01*
X168951123Y-104331225D01*
X168926933Y-104282844D01*
X168926933Y-104258654D01*
X168951123Y-104210273D01*
X168999504Y-104186082D01*
X169072076Y-104186082D01*
X169120457Y-104210273D01*
X169555885Y-104500559D02*
X169507504Y-104524749D01*
X169410742Y-104524749D01*
X169362361Y-104500559D01*
X169338171Y-104452178D01*
X169338171Y-104258654D01*
X169362361Y-104210273D01*
X169410742Y-104186082D01*
X169507504Y-104186082D01*
X169555885Y-104210273D01*
X169580076Y-104258654D01*
X169580076Y-104307035D01*
X169338171Y-104355416D01*
X169773600Y-104500559D02*
X169821980Y-104524749D01*
X169918742Y-104524749D01*
X169967123Y-104500559D01*
X169991314Y-104452178D01*
X169991314Y-104427987D01*
X169967123Y-104379606D01*
X169918742Y-104355416D01*
X169846171Y-104355416D01*
X169797790Y-104331225D01*
X169773600Y-104282844D01*
X169773600Y-104258654D01*
X169797790Y-104210273D01*
X169846171Y-104186082D01*
X169918742Y-104186082D01*
X169967123Y-104210273D01*
X160726361Y-104834629D02*
X161016647Y-104834629D01*
X160871504Y-105342629D02*
X160871504Y-104834629D01*
X161185980Y-105342629D02*
X161185980Y-105003962D01*
X161185980Y-105100724D02*
X161210171Y-105052343D01*
X161234361Y-105028153D01*
X161282742Y-105003962D01*
X161331123Y-105003962D01*
X161718171Y-105003962D02*
X161718171Y-105342629D01*
X161500457Y-105003962D02*
X161500457Y-105270058D01*
X161524647Y-105318439D01*
X161573028Y-105342629D01*
X161645600Y-105342629D01*
X161693980Y-105318439D01*
X161718171Y-105294248D01*
X161887504Y-105003962D02*
X162081028Y-105003962D01*
X161960076Y-104834629D02*
X161960076Y-105270058D01*
X161984266Y-105318439D01*
X162032647Y-105342629D01*
X162081028Y-105342629D01*
X162250361Y-105342629D02*
X162250361Y-104834629D01*
X162468076Y-105342629D02*
X162468076Y-105076534D01*
X162443885Y-105028153D01*
X162395504Y-105003962D01*
X162322933Y-105003962D01*
X162274552Y-105028153D01*
X162250361Y-105052343D01*
X163169600Y-105342629D02*
X163121219Y-105318439D01*
X163097028Y-105294248D01*
X163072838Y-105245867D01*
X163072838Y-105100724D01*
X163097028Y-105052343D01*
X163121219Y-105028153D01*
X163169600Y-105003962D01*
X163242171Y-105003962D01*
X163290552Y-105028153D01*
X163314742Y-105052343D01*
X163338933Y-105100724D01*
X163338933Y-105245867D01*
X163314742Y-105294248D01*
X163290552Y-105318439D01*
X163242171Y-105342629D01*
X163169600Y-105342629D01*
X163556647Y-105342629D02*
X163556647Y-105003962D01*
X163556647Y-105100724D02*
X163580838Y-105052343D01*
X163605028Y-105028153D01*
X163653409Y-105003962D01*
X163701790Y-105003962D01*
X164548457Y-105294248D02*
X164524266Y-105318439D01*
X164451695Y-105342629D01*
X164403314Y-105342629D01*
X164330742Y-105318439D01*
X164282361Y-105270058D01*
X164258171Y-105221677D01*
X164233980Y-105124915D01*
X164233980Y-105052343D01*
X164258171Y-104955581D01*
X164282361Y-104907200D01*
X164330742Y-104858820D01*
X164403314Y-104834629D01*
X164451695Y-104834629D01*
X164524266Y-104858820D01*
X164548457Y-104883010D01*
X164838742Y-105342629D02*
X164790361Y-105318439D01*
X164766171Y-105294248D01*
X164741980Y-105245867D01*
X164741980Y-105100724D01*
X164766171Y-105052343D01*
X164790361Y-105028153D01*
X164838742Y-105003962D01*
X164911314Y-105003962D01*
X164959695Y-105028153D01*
X164983885Y-105052343D01*
X165008076Y-105100724D01*
X165008076Y-105245867D01*
X164983885Y-105294248D01*
X164959695Y-105318439D01*
X164911314Y-105342629D01*
X164838742Y-105342629D01*
X165225790Y-105003962D02*
X165225790Y-105342629D01*
X165225790Y-105052343D02*
X165249980Y-105028153D01*
X165298361Y-105003962D01*
X165370933Y-105003962D01*
X165419314Y-105028153D01*
X165443504Y-105076534D01*
X165443504Y-105342629D01*
X165661219Y-105318439D02*
X165709600Y-105342629D01*
X165806361Y-105342629D01*
X165854742Y-105318439D01*
X165878933Y-105270058D01*
X165878933Y-105245867D01*
X165854742Y-105197486D01*
X165806361Y-105173296D01*
X165733790Y-105173296D01*
X165685409Y-105149105D01*
X165661219Y-105100724D01*
X165661219Y-105076534D01*
X165685409Y-105028153D01*
X165733790Y-105003962D01*
X165806361Y-105003962D01*
X165854742Y-105028153D01*
X166290171Y-105318439D02*
X166241790Y-105342629D01*
X166145028Y-105342629D01*
X166096647Y-105318439D01*
X166072457Y-105270058D01*
X166072457Y-105076534D01*
X166096647Y-105028153D01*
X166145028Y-105003962D01*
X166241790Y-105003962D01*
X166290171Y-105028153D01*
X166314361Y-105076534D01*
X166314361Y-105124915D01*
X166072457Y-105173296D01*
X166749790Y-105003962D02*
X166749790Y-105511962D01*
X166749790Y-105318439D02*
X166701409Y-105342629D01*
X166604647Y-105342629D01*
X166556266Y-105318439D01*
X166532076Y-105294248D01*
X166507885Y-105245867D01*
X166507885Y-105100724D01*
X166532076Y-105052343D01*
X166556266Y-105028153D01*
X166604647Y-105003962D01*
X166701409Y-105003962D01*
X166749790Y-105028153D01*
X167209409Y-105003962D02*
X167209409Y-105342629D01*
X166991695Y-105003962D02*
X166991695Y-105270058D01*
X167015885Y-105318439D01*
X167064266Y-105342629D01*
X167136838Y-105342629D01*
X167185219Y-105318439D01*
X167209409Y-105294248D01*
X167644838Y-105318439D02*
X167596457Y-105342629D01*
X167499695Y-105342629D01*
X167451314Y-105318439D01*
X167427123Y-105270058D01*
X167427123Y-105076534D01*
X167451314Y-105028153D01*
X167499695Y-105003962D01*
X167596457Y-105003962D01*
X167644838Y-105028153D01*
X167669028Y-105076534D01*
X167669028Y-105124915D01*
X167427123Y-105173296D01*
X167886742Y-105003962D02*
X167886742Y-105342629D01*
X167886742Y-105052343D02*
X167910933Y-105028153D01*
X167959314Y-105003962D01*
X168031885Y-105003962D01*
X168080266Y-105028153D01*
X168104457Y-105076534D01*
X168104457Y-105342629D01*
X168564076Y-105318439D02*
X168515695Y-105342629D01*
X168418933Y-105342629D01*
X168370552Y-105318439D01*
X168346361Y-105294248D01*
X168322171Y-105245867D01*
X168322171Y-105100724D01*
X168346361Y-105052343D01*
X168370552Y-105028153D01*
X168418933Y-105003962D01*
X168515695Y-105003962D01*
X168564076Y-105028153D01*
X168975314Y-105318439D02*
X168926933Y-105342629D01*
X168830171Y-105342629D01*
X168781790Y-105318439D01*
X168757600Y-105270058D01*
X168757600Y-105076534D01*
X168781790Y-105028153D01*
X168830171Y-105003962D01*
X168926933Y-105003962D01*
X168975314Y-105028153D01*
X168999504Y-105076534D01*
X168999504Y-105124915D01*
X168757600Y-105173296D01*
X169193028Y-105318439D02*
X169241409Y-105342629D01*
X169338171Y-105342629D01*
X169386552Y-105318439D01*
X169410742Y-105270058D01*
X169410742Y-105245867D01*
X169386552Y-105197486D01*
X169338171Y-105173296D01*
X169265600Y-105173296D01*
X169217219Y-105149105D01*
X169193028Y-105100724D01*
X169193028Y-105076534D01*
X169217219Y-105028153D01*
X169265600Y-105003962D01*
X169338171Y-105003962D01*
X169386552Y-105028153D01*
X169652647Y-105318439D02*
X169652647Y-105342629D01*
X169628457Y-105391010D01*
X169604266Y-105415200D01*
X170257409Y-105342629D02*
X170257409Y-104834629D01*
X170547695Y-105342629D01*
X170547695Y-104834629D01*
X170789600Y-105342629D02*
X170789600Y-104834629D01*
X170958933Y-105197486D01*
X171128266Y-104834629D01*
X171128266Y-105342629D01*
D13*
X144441333Y-48474085D02*
X144634857Y-49151419D01*
X144828380Y-48667609D01*
X145021904Y-49151419D01*
X145215428Y-48474085D01*
X145747619Y-49151419D02*
X145650857Y-49103038D01*
X145602476Y-49054657D01*
X145554095Y-48957895D01*
X145554095Y-48667609D01*
X145602476Y-48570847D01*
X145650857Y-48522466D01*
X145747619Y-48474085D01*
X145892761Y-48474085D01*
X145989523Y-48522466D01*
X146037904Y-48570847D01*
X146086285Y-48667609D01*
X146086285Y-48957895D01*
X146037904Y-49054657D01*
X145989523Y-49103038D01*
X145892761Y-49151419D01*
X145747619Y-49151419D01*
X146521714Y-49151419D02*
X146521714Y-48474085D01*
X146521714Y-48667609D02*
X146570095Y-48570847D01*
X146618476Y-48522466D01*
X146715238Y-48474085D01*
X146812000Y-48474085D01*
X147586095Y-49151419D02*
X147586095Y-48135419D01*
X147586095Y-49103038D02*
X147489333Y-49151419D01*
X147295809Y-49151419D01*
X147199047Y-49103038D01*
X147150666Y-49054657D01*
X147102285Y-48957895D01*
X147102285Y-48667609D01*
X147150666Y-48570847D01*
X147199047Y-48522466D01*
X147295809Y-48474085D01*
X147489333Y-48474085D01*
X147586095Y-48522466D01*
X148069904Y-49054657D02*
X148118285Y-49103038D01*
X148069904Y-49151419D01*
X148021523Y-49103038D01*
X148069904Y-49054657D01*
X148069904Y-49151419D01*
D12*
X111564114Y-129369442D02*
X111778400Y-129440871D01*
X112135542Y-129440871D01*
X112278400Y-129369442D01*
X112349828Y-129298014D01*
X112421257Y-129155157D01*
X112421257Y-129012300D01*
X112349828Y-128869442D01*
X112278400Y-128798014D01*
X112135542Y-128726585D01*
X111849828Y-128655157D01*
X111706971Y-128583728D01*
X111635542Y-128512300D01*
X111564114Y-128369442D01*
X111564114Y-128226585D01*
X111635542Y-128083728D01*
X111706971Y-128012300D01*
X111849828Y-127940871D01*
X112206971Y-127940871D01*
X112421257Y-128012300D01*
X113064114Y-128440871D02*
X113064114Y-129940871D01*
X113064114Y-128512300D02*
X113206971Y-128440871D01*
X113492685Y-128440871D01*
X113635542Y-128512300D01*
X113706971Y-128583728D01*
X113778400Y-128726585D01*
X113778400Y-129155157D01*
X113706971Y-129298014D01*
X113635542Y-129369442D01*
X113492685Y-129440871D01*
X113206971Y-129440871D01*
X113064114Y-129369442D01*
X114635542Y-129440871D02*
X114492685Y-129369442D01*
X114421257Y-129298014D01*
X114349828Y-129155157D01*
X114349828Y-128726585D01*
X114421257Y-128583728D01*
X114492685Y-128512300D01*
X114635542Y-128440871D01*
X114849828Y-128440871D01*
X114992685Y-128512300D01*
X115064114Y-128583728D01*
X115135542Y-128726585D01*
X115135542Y-129155157D01*
X115064114Y-129298014D01*
X114992685Y-129369442D01*
X114849828Y-129440871D01*
X114635542Y-129440871D01*
X115778400Y-128440871D02*
X115778400Y-129440871D01*
X115778400Y-128583728D02*
X115849828Y-128512300D01*
X115992685Y-128440871D01*
X116206971Y-128440871D01*
X116349828Y-128512300D01*
X116421257Y-128655157D01*
X116421257Y-129440871D01*
X117064114Y-129369442D02*
X117206971Y-129440871D01*
X117492685Y-129440871D01*
X117635542Y-129369442D01*
X117706971Y-129226585D01*
X117706971Y-129155157D01*
X117635542Y-129012300D01*
X117492685Y-128940871D01*
X117278400Y-128940871D01*
X117135542Y-128869442D01*
X117064114Y-128726585D01*
X117064114Y-128655157D01*
X117135542Y-128512300D01*
X117278400Y-128440871D01*
X117492685Y-128440871D01*
X117635542Y-128512300D01*
X118564114Y-129440871D02*
X118421257Y-129369442D01*
X118349828Y-129298014D01*
X118278400Y-129155157D01*
X118278400Y-128726585D01*
X118349828Y-128583728D01*
X118421257Y-128512300D01*
X118564114Y-128440871D01*
X118778400Y-128440871D01*
X118921257Y-128512300D01*
X118992685Y-128583728D01*
X119064114Y-128726585D01*
X119064114Y-129155157D01*
X118992685Y-129298014D01*
X118921257Y-129369442D01*
X118778400Y-129440871D01*
X118564114Y-129440871D01*
X119706971Y-129440871D02*
X119706971Y-128440871D01*
X119706971Y-128726585D02*
X119778400Y-128583728D01*
X119849828Y-128512300D01*
X119992685Y-128440871D01*
X120135542Y-128440871D01*
X121206971Y-129369442D02*
X121064114Y-129440871D01*
X120778400Y-129440871D01*
X120635542Y-129369442D01*
X120564114Y-129226585D01*
X120564114Y-128655157D01*
X120635542Y-128512300D01*
X120778400Y-128440871D01*
X121064114Y-128440871D01*
X121206971Y-128512300D01*
X121278400Y-128655157D01*
X121278400Y-128798014D01*
X120564114Y-128940871D01*
X122564114Y-129440871D02*
X122564114Y-127940871D01*
X122564114Y-129369442D02*
X122421257Y-129440871D01*
X122135542Y-129440871D01*
X121992685Y-129369442D01*
X121921257Y-129298014D01*
X121849828Y-129155157D01*
X121849828Y-128726585D01*
X121921257Y-128583728D01*
X121992685Y-128512300D01*
X122135542Y-128440871D01*
X122421257Y-128440871D01*
X122564114Y-128512300D01*
X124421257Y-129440871D02*
X124421257Y-127940871D01*
X124421257Y-128512300D02*
X124564114Y-128440871D01*
X124849828Y-128440871D01*
X124992685Y-128512300D01*
X125064114Y-128583728D01*
X125135542Y-128726585D01*
X125135542Y-129155157D01*
X125064114Y-129298014D01*
X124992685Y-129369442D01*
X124849828Y-129440871D01*
X124564114Y-129440871D01*
X124421257Y-129369442D01*
X125635542Y-128440871D02*
X125992685Y-129440871D01*
X126349828Y-128440871D02*
X125992685Y-129440871D01*
X125849828Y-129798014D01*
X125778400Y-129869442D01*
X125635542Y-129940871D01*
X126921257Y-129298014D02*
X126992685Y-129369442D01*
X126921257Y-129440871D01*
X126849828Y-129369442D01*
X126921257Y-129298014D01*
X126921257Y-129440871D01*
X126921257Y-128512300D02*
X126992685Y-128583728D01*
X126921257Y-128655157D01*
X126849828Y-128583728D01*
X126921257Y-128512300D01*
X126921257Y-128655157D01*
X113314114Y-131855871D02*
X113314114Y-130355871D01*
X113814114Y-131427300D01*
X114314114Y-130355871D01*
X114314114Y-131855871D01*
X115671257Y-131784442D02*
X115528400Y-131855871D01*
X115242685Y-131855871D01*
X115099828Y-131784442D01*
X115028400Y-131713014D01*
X114956971Y-131570157D01*
X114956971Y-131141585D01*
X115028400Y-130998728D01*
X115099828Y-130927300D01*
X115242685Y-130855871D01*
X115528400Y-130855871D01*
X115671257Y-130927300D01*
X116314114Y-131855871D02*
X116314114Y-130355871D01*
X116671257Y-130355871D01*
X116885542Y-130427300D01*
X117028400Y-130570157D01*
X117099828Y-130713014D01*
X117171257Y-130998728D01*
X117171257Y-131213014D01*
X117099828Y-131498728D01*
X117028400Y-131641585D01*
X116885542Y-131784442D01*
X116671257Y-131855871D01*
X116314114Y-131855871D01*
X118028400Y-131855871D02*
X117885542Y-131784442D01*
X117814114Y-131713014D01*
X117742685Y-131570157D01*
X117742685Y-131141585D01*
X117814114Y-130998728D01*
X117885542Y-130927300D01*
X118028400Y-130855871D01*
X118242685Y-130855871D01*
X118385542Y-130927300D01*
X118456971Y-130998728D01*
X118528400Y-131141585D01*
X118528400Y-131570157D01*
X118456971Y-131713014D01*
X118385542Y-131784442D01*
X118242685Y-131855871D01*
X118028400Y-131855871D01*
X119171257Y-130855871D02*
X119171257Y-131855871D01*
X119171257Y-130998728D02*
X119242685Y-130927300D01*
X119385542Y-130855871D01*
X119599828Y-130855871D01*
X119742685Y-130927300D01*
X119814114Y-131070157D01*
X119814114Y-131855871D01*
X121171257Y-131855871D02*
X121171257Y-131070157D01*
X121099828Y-130927300D01*
X120956971Y-130855871D01*
X120671257Y-130855871D01*
X120528400Y-130927300D01*
X121171257Y-131784442D02*
X121028400Y-131855871D01*
X120671257Y-131855871D01*
X120528400Y-131784442D01*
X120456971Y-131641585D01*
X120456971Y-131498728D01*
X120528400Y-131355871D01*
X120671257Y-131284442D01*
X121028400Y-131284442D01*
X121171257Y-131213014D01*
X122099828Y-131855871D02*
X121956971Y-131784442D01*
X121885542Y-131641585D01*
X121885542Y-130355871D01*
X123314114Y-131855871D02*
X123314114Y-130355871D01*
X123314114Y-131784442D02*
X123171257Y-131855871D01*
X122885542Y-131855871D01*
X122742685Y-131784442D01*
X122671257Y-131713014D01*
X122599828Y-131570157D01*
X122599828Y-131141585D01*
X122671257Y-130998728D01*
X122742685Y-130927300D01*
X122885542Y-130855871D01*
X123171257Y-130855871D01*
X123314114Y-130927300D01*
X124099828Y-130355871D02*
X123956971Y-130641585D01*
X124671257Y-131784442D02*
X124814114Y-131855871D01*
X125099828Y-131855871D01*
X125242685Y-131784442D01*
X125314114Y-131641585D01*
X125314114Y-131570157D01*
X125242685Y-131427300D01*
X125099828Y-131355871D01*
X124885542Y-131355871D01*
X124742685Y-131284442D01*
X124671257Y-131141585D01*
X124671257Y-131070157D01*
X124742685Y-130927300D01*
X124885542Y-130855871D01*
X125099828Y-130855871D01*
X125242685Y-130927300D01*
X116278400Y-132770871D02*
X116564114Y-132770871D01*
X116706971Y-132842300D01*
X116849828Y-132985157D01*
X116921257Y-133270871D01*
X116921257Y-133770871D01*
X116849828Y-134056585D01*
X116706971Y-134199442D01*
X116564114Y-134270871D01*
X116278400Y-134270871D01*
X116135542Y-134199442D01*
X115992685Y-134056585D01*
X115921257Y-133770871D01*
X115921257Y-133270871D01*
X115992685Y-132985157D01*
X116135542Y-132842300D01*
X116278400Y-132770871D01*
X117564114Y-134270871D02*
X117564114Y-132770871D01*
X117564114Y-133485157D02*
X118421257Y-133485157D01*
X118421257Y-134270871D02*
X118421257Y-132770871D01*
X119064114Y-133842300D02*
X119778400Y-133842300D01*
X118921257Y-134270871D02*
X119421257Y-132770871D01*
X119921257Y-134270871D01*
X120421257Y-134270871D02*
X120421257Y-132770871D01*
X121278400Y-134270871D01*
X121278400Y-132770871D01*
X121921257Y-133842300D02*
X122635542Y-133842300D01*
X121778400Y-134270871D02*
X122278400Y-132770871D01*
X122778400Y-134270871D01*
X107242685Y-136685871D02*
X107242685Y-135185871D01*
X107814114Y-135185871D01*
X107956971Y-135257300D01*
X108028400Y-135328728D01*
X108099828Y-135471585D01*
X108099828Y-135685871D01*
X108028400Y-135828728D01*
X107956971Y-135900157D01*
X107814114Y-135971585D01*
X107242685Y-135971585D01*
X108742685Y-136685871D02*
X108742685Y-135185871D01*
X109385542Y-136685871D02*
X109385542Y-135900157D01*
X109314114Y-135757300D01*
X109171257Y-135685871D01*
X108956971Y-135685871D01*
X108814114Y-135757300D01*
X108742685Y-135828728D01*
X110099828Y-136685871D02*
X110099828Y-135685871D01*
X110099828Y-135185871D02*
X110028400Y-135257300D01*
X110099828Y-135328728D01*
X110171257Y-135257300D01*
X110099828Y-135185871D01*
X110099828Y-135328728D01*
X111028400Y-136685871D02*
X110885542Y-136614442D01*
X110814114Y-136471585D01*
X110814114Y-135185871D01*
X111814114Y-136685871D02*
X111671257Y-136614442D01*
X111599828Y-136471585D01*
X111599828Y-135185871D01*
X112385542Y-136685871D02*
X112385542Y-135685871D01*
X112385542Y-135185871D02*
X112314114Y-135257300D01*
X112385542Y-135328728D01*
X112456971Y-135257300D01*
X112385542Y-135185871D01*
X112385542Y-135328728D01*
X113099828Y-135685871D02*
X113099828Y-137185871D01*
X113099828Y-135757300D02*
X113242685Y-135685871D01*
X113528400Y-135685871D01*
X113671257Y-135757300D01*
X113742685Y-135828728D01*
X113814114Y-135971585D01*
X113814114Y-136400157D01*
X113742685Y-136543014D01*
X113671257Y-136614442D01*
X113528400Y-136685871D01*
X113242685Y-136685871D01*
X113099828Y-136614442D01*
X114528400Y-135185871D02*
X114385542Y-135471585D01*
X115099828Y-136614442D02*
X115242685Y-136685871D01*
X115528400Y-136685871D01*
X115671257Y-136614442D01*
X115742685Y-136471585D01*
X115742685Y-136400157D01*
X115671257Y-136257300D01*
X115528400Y-136185871D01*
X115314114Y-136185871D01*
X115171257Y-136114442D01*
X115099828Y-135971585D01*
X115099828Y-135900157D01*
X115171257Y-135757300D01*
X115314114Y-135685871D01*
X115528400Y-135685871D01*
X115671257Y-135757300D01*
X118385542Y-136543014D02*
X118314114Y-136614442D01*
X118099828Y-136685871D01*
X117956971Y-136685871D01*
X117742685Y-136614442D01*
X117599828Y-136471585D01*
X117528400Y-136328728D01*
X117456971Y-136043014D01*
X117456971Y-135828728D01*
X117528400Y-135543014D01*
X117599828Y-135400157D01*
X117742685Y-135257300D01*
X117956971Y-135185871D01*
X118099828Y-135185871D01*
X118314114Y-135257300D01*
X118385542Y-135328728D01*
X119242685Y-136685871D02*
X119099828Y-136614442D01*
X119028400Y-136543014D01*
X118956971Y-136400157D01*
X118956971Y-135971585D01*
X119028400Y-135828728D01*
X119099828Y-135757300D01*
X119242685Y-135685871D01*
X119456971Y-135685871D01*
X119599828Y-135757300D01*
X119671257Y-135828728D01*
X119742685Y-135971585D01*
X119742685Y-136400157D01*
X119671257Y-136543014D01*
X119599828Y-136614442D01*
X119456971Y-136685871D01*
X119242685Y-136685871D01*
X120385542Y-136685871D02*
X120385542Y-135685871D01*
X120385542Y-135971585D02*
X120456971Y-135828728D01*
X120528400Y-135757300D01*
X120671257Y-135685871D01*
X120814114Y-135685871D01*
X121314114Y-135685871D02*
X121314114Y-136685871D01*
X121314114Y-135828728D02*
X121385542Y-135757300D01*
X121528400Y-135685871D01*
X121742685Y-135685871D01*
X121885542Y-135757300D01*
X121956971Y-135900157D01*
X121956971Y-136685871D01*
X123242685Y-136614442D02*
X123099828Y-136685871D01*
X122814114Y-136685871D01*
X122671257Y-136614442D01*
X122599828Y-136471585D01*
X122599828Y-135900157D01*
X122671257Y-135757300D01*
X122814114Y-135685871D01*
X123099828Y-135685871D01*
X123242685Y-135757300D01*
X123314114Y-135900157D01*
X123314114Y-136043014D01*
X122599828Y-136185871D01*
X123956971Y-136685871D02*
X123956971Y-135685871D01*
X123956971Y-135971585D02*
X124028400Y-135828728D01*
X124099828Y-135757300D01*
X124242685Y-135685871D01*
X124385542Y-135685871D01*
X126456971Y-137257300D02*
X126385542Y-137185871D01*
X126242685Y-136971585D01*
X126171257Y-136828728D01*
X126099828Y-136614442D01*
X126028400Y-136257300D01*
X126028400Y-135971585D01*
X126099828Y-135614442D01*
X126171257Y-135400157D01*
X126242685Y-135257300D01*
X126385542Y-135043014D01*
X126456971Y-134971585D01*
X127456971Y-135185871D02*
X127456971Y-136257300D01*
X127385542Y-136471585D01*
X127242685Y-136614442D01*
X127028400Y-136685871D01*
X126885542Y-136685871D01*
X128814114Y-136685871D02*
X128814114Y-135900157D01*
X128742685Y-135757300D01*
X128599828Y-135685871D01*
X128314114Y-135685871D01*
X128171257Y-135757300D01*
X128814114Y-136614442D02*
X128671257Y-136685871D01*
X128314114Y-136685871D01*
X128171257Y-136614442D01*
X128099828Y-136471585D01*
X128099828Y-136328728D01*
X128171257Y-136185871D01*
X128314114Y-136114442D01*
X128671257Y-136114442D01*
X128814114Y-136043014D01*
X129528400Y-136685871D02*
X129528400Y-135685871D01*
X129528400Y-135185871D02*
X129456971Y-135257300D01*
X129528400Y-135328728D01*
X129599828Y-135257300D01*
X129528400Y-135185871D01*
X129528400Y-135328728D01*
X130456971Y-136685871D02*
X130314114Y-136614442D01*
X130242685Y-136471585D01*
X130242685Y-135185871D01*
X130885542Y-137257300D02*
X130956971Y-137185871D01*
X131099828Y-136971585D01*
X131171257Y-136828728D01*
X131242685Y-136614442D01*
X131314114Y-136257300D01*
X131314114Y-135971585D01*
X131242685Y-135614442D01*
X131171257Y-135400157D01*
X131099828Y-135257300D01*
X130956971Y-135043014D01*
X130885542Y-134971585D01*
X169097428Y-131816771D02*
X169097428Y-130316771D01*
X169454571Y-130316771D01*
X169668857Y-130388200D01*
X169811714Y-130531057D01*
X169883142Y-130673914D01*
X169954571Y-130959628D01*
X169954571Y-131173914D01*
X169883142Y-131459628D01*
X169811714Y-131602485D01*
X169668857Y-131745342D01*
X169454571Y-131816771D01*
X169097428Y-131816771D01*
X171168857Y-131745342D02*
X171026000Y-131816771D01*
X170740285Y-131816771D01*
X170597428Y-131745342D01*
X170526000Y-131602485D01*
X170526000Y-131031057D01*
X170597428Y-130888200D01*
X170740285Y-130816771D01*
X171026000Y-130816771D01*
X171168857Y-130888200D01*
X171240285Y-131031057D01*
X171240285Y-131173914D01*
X170526000Y-131316771D01*
X172526000Y-131816771D02*
X172526000Y-130316771D01*
X172526000Y-131745342D02*
X172383142Y-131816771D01*
X172097428Y-131816771D01*
X171954571Y-131745342D01*
X171883142Y-131673914D01*
X171811714Y-131531057D01*
X171811714Y-131102485D01*
X171883142Y-130959628D01*
X171954571Y-130888200D01*
X172097428Y-130816771D01*
X172383142Y-130816771D01*
X172526000Y-130888200D01*
X173240285Y-131816771D02*
X173240285Y-130816771D01*
X173240285Y-130316771D02*
X173168857Y-130388200D01*
X173240285Y-130459628D01*
X173311714Y-130388200D01*
X173240285Y-130316771D01*
X173240285Y-130459628D01*
X174597428Y-131745342D02*
X174454571Y-131816771D01*
X174168857Y-131816771D01*
X174026000Y-131745342D01*
X173954571Y-131673914D01*
X173883142Y-131531057D01*
X173883142Y-131102485D01*
X173954571Y-130959628D01*
X174026000Y-130888200D01*
X174168857Y-130816771D01*
X174454571Y-130816771D01*
X174597428Y-130888200D01*
X175883142Y-131816771D02*
X175883142Y-131031057D01*
X175811714Y-130888200D01*
X175668857Y-130816771D01*
X175383142Y-130816771D01*
X175240285Y-130888200D01*
X175883142Y-131745342D02*
X175740285Y-131816771D01*
X175383142Y-131816771D01*
X175240285Y-131745342D01*
X175168857Y-131602485D01*
X175168857Y-131459628D01*
X175240285Y-131316771D01*
X175383142Y-131245342D01*
X175740285Y-131245342D01*
X175883142Y-131173914D01*
X176383142Y-130816771D02*
X176954571Y-130816771D01*
X176597428Y-130316771D02*
X176597428Y-131602485D01*
X176668857Y-131745342D01*
X176811714Y-131816771D01*
X176954571Y-131816771D01*
X178026000Y-131745342D02*
X177883142Y-131816771D01*
X177597428Y-131816771D01*
X177454571Y-131745342D01*
X177383142Y-131602485D01*
X177383142Y-131031057D01*
X177454571Y-130888200D01*
X177597428Y-130816771D01*
X177883142Y-130816771D01*
X178026000Y-130888200D01*
X178097428Y-131031057D01*
X178097428Y-131173914D01*
X177383142Y-131316771D01*
X179383142Y-131816771D02*
X179383142Y-130316771D01*
X179383142Y-131745342D02*
X179240285Y-131816771D01*
X178954571Y-131816771D01*
X178811714Y-131745342D01*
X178740285Y-131673914D01*
X178668857Y-131531057D01*
X178668857Y-131102485D01*
X178740285Y-130959628D01*
X178811714Y-130888200D01*
X178954571Y-130816771D01*
X179240285Y-130816771D01*
X179383142Y-130888200D01*
X181026000Y-130816771D02*
X181597428Y-130816771D01*
X181240285Y-130316771D02*
X181240285Y-131602485D01*
X181311714Y-131745342D01*
X181454571Y-131816771D01*
X181597428Y-131816771D01*
X182311714Y-131816771D02*
X182168857Y-131745342D01*
X182097428Y-131673914D01*
X182026000Y-131531057D01*
X182026000Y-131102485D01*
X182097428Y-130959628D01*
X182168857Y-130888200D01*
X182311714Y-130816771D01*
X182526000Y-130816771D01*
X182668857Y-130888200D01*
X182740285Y-130959628D01*
X182811714Y-131102485D01*
X182811714Y-131531057D01*
X182740285Y-131673914D01*
X182668857Y-131745342D01*
X182526000Y-131816771D01*
X182311714Y-131816771D01*
X183454571Y-131673914D02*
X183526000Y-131745342D01*
X183454571Y-131816771D01*
X183383142Y-131745342D01*
X183454571Y-131673914D01*
X183454571Y-131816771D01*
X183454571Y-130888200D02*
X183526000Y-130959628D01*
X183454571Y-131031057D01*
X183383142Y-130959628D01*
X183454571Y-130888200D01*
X183454571Y-131031057D01*
X174347428Y-133446057D02*
X174561714Y-133517485D01*
X174633142Y-133588914D01*
X174704571Y-133731771D01*
X174704571Y-133946057D01*
X174633142Y-134088914D01*
X174561714Y-134160342D01*
X174418857Y-134231771D01*
X173847428Y-134231771D01*
X173847428Y-132731771D01*
X174347428Y-132731771D01*
X174490285Y-132803200D01*
X174561714Y-132874628D01*
X174633142Y-133017485D01*
X174633142Y-133160342D01*
X174561714Y-133303200D01*
X174490285Y-133374628D01*
X174347428Y-133446057D01*
X173847428Y-133446057D01*
X175918857Y-134160342D02*
X175776000Y-134231771D01*
X175490285Y-134231771D01*
X175347428Y-134160342D01*
X175276000Y-134017485D01*
X175276000Y-133446057D01*
X175347428Y-133303200D01*
X175490285Y-133231771D01*
X175776000Y-133231771D01*
X175918857Y-133303200D01*
X175990285Y-133446057D01*
X175990285Y-133588914D01*
X175276000Y-133731771D01*
X176633142Y-133231771D02*
X176633142Y-134231771D01*
X176633142Y-133374628D02*
X176704571Y-133303200D01*
X176847428Y-133231771D01*
X177061714Y-133231771D01*
X177204571Y-133303200D01*
X177276000Y-133446057D01*
X177276000Y-134231771D01*
X177990285Y-133231771D02*
X177990285Y-134517485D01*
X177918857Y-134660342D01*
X177776000Y-134731771D01*
X177704571Y-134731771D01*
X177990285Y-132731771D02*
X177918857Y-132803200D01*
X177990285Y-132874628D01*
X178061714Y-132803200D01*
X177990285Y-132731771D01*
X177990285Y-132874628D01*
X178704571Y-134231771D02*
X178704571Y-133231771D01*
X178704571Y-132731771D02*
X178633142Y-132803200D01*
X178704571Y-132874628D01*
X178776000Y-132803200D01*
X178704571Y-132731771D01*
X178704571Y-132874628D01*
X173276000Y-136646771D02*
X173276000Y-135146771D01*
X173276000Y-135861057D02*
X174133142Y-135861057D01*
X174133142Y-136646771D02*
X174133142Y-135146771D01*
X175418857Y-136575342D02*
X175276000Y-136646771D01*
X174990285Y-136646771D01*
X174847428Y-136575342D01*
X174776000Y-136432485D01*
X174776000Y-135861057D01*
X174847428Y-135718200D01*
X174990285Y-135646771D01*
X175276000Y-135646771D01*
X175418857Y-135718200D01*
X175490285Y-135861057D01*
X175490285Y-136003914D01*
X174776000Y-136146771D01*
X176133142Y-135646771D02*
X176133142Y-136646771D01*
X176133142Y-135789628D02*
X176204571Y-135718200D01*
X176347428Y-135646771D01*
X176561714Y-135646771D01*
X176704571Y-135718200D01*
X176776000Y-135861057D01*
X176776000Y-136646771D01*
X177490285Y-135646771D02*
X177490285Y-136646771D01*
X177490285Y-135789628D02*
X177561714Y-135718200D01*
X177704571Y-135646771D01*
X177918857Y-135646771D01*
X178061714Y-135718200D01*
X178133142Y-135861057D01*
X178133142Y-136646771D01*
X178704571Y-135646771D02*
X179061714Y-136646771D01*
X179418857Y-135646771D02*
X179061714Y-136646771D01*
X178918857Y-137003914D01*
X178847428Y-137075342D01*
X178704571Y-137146771D01*
X215553171Y-89164428D02*
X215553171Y-88593000D01*
X215053171Y-88950142D02*
X216338885Y-88950142D01*
X216481742Y-88878714D01*
X216553171Y-88735857D01*
X216553171Y-88593000D01*
X216553171Y-88093000D02*
X215053171Y-88093000D01*
X216553171Y-87450142D02*
X215767457Y-87450142D01*
X215624600Y-87521571D01*
X215553171Y-87664428D01*
X215553171Y-87878714D01*
X215624600Y-88021571D01*
X215696028Y-88093000D01*
X216481742Y-86164428D02*
X216553171Y-86307285D01*
X216553171Y-86593000D01*
X216481742Y-86735857D01*
X216338885Y-86807285D01*
X215767457Y-86807285D01*
X215624600Y-86735857D01*
X215553171Y-86593000D01*
X215553171Y-86307285D01*
X215624600Y-86164428D01*
X215767457Y-86093000D01*
X215910314Y-86093000D01*
X216053171Y-86807285D01*
X216553171Y-84307285D02*
X215053171Y-84307285D01*
X215053171Y-83950142D01*
X215124600Y-83735857D01*
X215267457Y-83593000D01*
X215410314Y-83521571D01*
X215696028Y-83450142D01*
X215910314Y-83450142D01*
X216196028Y-83521571D01*
X216338885Y-83593000D01*
X216481742Y-83735857D01*
X216553171Y-83950142D01*
X216553171Y-84307285D01*
X216553171Y-82593000D02*
X216481742Y-82735857D01*
X216410314Y-82807285D01*
X216267457Y-82878714D01*
X215838885Y-82878714D01*
X215696028Y-82807285D01*
X215624600Y-82735857D01*
X215553171Y-82593000D01*
X215553171Y-82378714D01*
X215624600Y-82235857D01*
X215696028Y-82164428D01*
X215838885Y-82093000D01*
X216267457Y-82093000D01*
X216410314Y-82164428D01*
X216481742Y-82235857D01*
X216553171Y-82378714D01*
X216553171Y-82593000D01*
X216553171Y-81235857D02*
X216481742Y-81378714D01*
X216410314Y-81450142D01*
X216267457Y-81521571D01*
X215838885Y-81521571D01*
X215696028Y-81450142D01*
X215624600Y-81378714D01*
X215553171Y-81235857D01*
X215553171Y-81021571D01*
X215624600Y-80878714D01*
X215696028Y-80807285D01*
X215838885Y-80735857D01*
X216267457Y-80735857D01*
X216410314Y-80807285D01*
X216481742Y-80878714D01*
X216553171Y-81021571D01*
X216553171Y-81235857D01*
X215981742Y-80093000D02*
X215981742Y-78950142D01*
X216553171Y-78235857D02*
X215053171Y-78235857D01*
X215767457Y-78235857D02*
X215767457Y-77378714D01*
X216553171Y-77378714D02*
X215053171Y-77378714D01*
X216553171Y-76664428D02*
X215553171Y-76664428D01*
X215053171Y-76664428D02*
X215124600Y-76735857D01*
X215196028Y-76664428D01*
X215124600Y-76593000D01*
X215053171Y-76664428D01*
X215196028Y-76664428D01*
X216481742Y-75307285D02*
X216553171Y-75450142D01*
X216553171Y-75735857D01*
X216481742Y-75878714D01*
X216410314Y-75950142D01*
X216267457Y-76021571D01*
X215838885Y-76021571D01*
X215696028Y-75950142D01*
X215624600Y-75878714D01*
X215553171Y-75735857D01*
X215553171Y-75450142D01*
X215624600Y-75307285D01*
X216553171Y-74664428D02*
X215053171Y-74664428D01*
X215981742Y-74521571D02*
X216553171Y-74093000D01*
X215553171Y-74093000D02*
X216124600Y-74664428D01*
X216481742Y-72878714D02*
X216553171Y-73021571D01*
X216553171Y-73307285D01*
X216481742Y-73450142D01*
X216338885Y-73521571D01*
X215767457Y-73521571D01*
X215624600Y-73450142D01*
X215553171Y-73307285D01*
X215553171Y-73021571D01*
X215624600Y-72878714D01*
X215767457Y-72807285D01*
X215910314Y-72807285D01*
X216053171Y-73521571D01*
X215553171Y-72307285D02*
X216553171Y-71950142D01*
X215553171Y-71593000D02*
X216553171Y-71950142D01*
X216910314Y-72093000D01*
X216981742Y-72164428D01*
X217053171Y-72307285D01*
X217124600Y-69450142D02*
X217053171Y-69521571D01*
X216838885Y-69664428D01*
X216696028Y-69735857D01*
X216481742Y-69807285D01*
X216124600Y-69878714D01*
X215838885Y-69878714D01*
X215481742Y-69807285D01*
X215267457Y-69735857D01*
X215124600Y-69664428D01*
X214910314Y-69521571D01*
X214838885Y-69450142D01*
X215053171Y-69093000D02*
X215053171Y-68235857D01*
X216553171Y-68664428D02*
X215053171Y-68664428D01*
X216553171Y-67735857D02*
X215053171Y-67735857D01*
X216124600Y-67235857D01*
X215053171Y-66735857D01*
X216553171Y-66735857D01*
X217124600Y-66164428D02*
X217053171Y-66093000D01*
X216838885Y-65950142D01*
X216696028Y-65878714D01*
X216481742Y-65807285D01*
X216124600Y-65735857D01*
X215838885Y-65735857D01*
X215481742Y-65807285D01*
X215267457Y-65878714D01*
X215124600Y-65950142D01*
X214910314Y-66093000D01*
X214838885Y-66164428D01*
D14*
X92267066Y-110332780D02*
X92600400Y-109856590D01*
X92838495Y-110332780D02*
X92838495Y-109332780D01*
X92457542Y-109332780D01*
X92362304Y-109380400D01*
X92314685Y-109428019D01*
X92267066Y-109523257D01*
X92267066Y-109666114D01*
X92314685Y-109761352D01*
X92362304Y-109808971D01*
X92457542Y-109856590D01*
X92838495Y-109856590D01*
X91933733Y-109332780D02*
X91267066Y-110332780D01*
X91267066Y-109332780D02*
X91933733Y-110332780D01*
X110793066Y-94991180D02*
X110793066Y-93991180D01*
X110412114Y-93991180D01*
X110316876Y-94038800D01*
X110269257Y-94086419D01*
X110221638Y-94181657D01*
X110221638Y-94324514D01*
X110269257Y-94419752D01*
X110316876Y-94467371D01*
X110412114Y-94514990D01*
X110793066Y-94514990D01*
X109840685Y-94705466D02*
X109364495Y-94705466D01*
X109935923Y-94991180D02*
X109602590Y-93991180D01*
X109269257Y-94991180D01*
X108412114Y-94991180D02*
X108983542Y-94991180D01*
X108697828Y-94991180D02*
X108697828Y-93991180D01*
X108793066Y-94134038D01*
X108888304Y-94229276D01*
X108983542Y-94276895D01*
X114801495Y-84246980D02*
X114801495Y-83246980D01*
X114420542Y-83246980D01*
X114325304Y-83294600D01*
X114277685Y-83342219D01*
X114230066Y-83437457D01*
X114230066Y-83580314D01*
X114277685Y-83675552D01*
X114325304Y-83723171D01*
X114420542Y-83770790D01*
X114801495Y-83770790D01*
X113230066Y-84151742D02*
X113277685Y-84199361D01*
X113420542Y-84246980D01*
X113515780Y-84246980D01*
X113658638Y-84199361D01*
X113753876Y-84104123D01*
X113801495Y-84008885D01*
X113849114Y-83818409D01*
X113849114Y-83675552D01*
X113801495Y-83485076D01*
X113753876Y-83389838D01*
X113658638Y-83294600D01*
X113515780Y-83246980D01*
X113420542Y-83246980D01*
X113277685Y-83294600D01*
X113230066Y-83342219D01*
X112849114Y-83342219D02*
X112801495Y-83294600D01*
X112706257Y-83246980D01*
X112468161Y-83246980D01*
X112372923Y-83294600D01*
X112325304Y-83342219D01*
X112277685Y-83437457D01*
X112277685Y-83532695D01*
X112325304Y-83675552D01*
X112896733Y-84246980D01*
X112277685Y-84246980D01*
X93865485Y-109113580D02*
X93865485Y-108113580D01*
X93484533Y-108113580D01*
X93389295Y-108161200D01*
X93341676Y-108208819D01*
X93294057Y-108304057D01*
X93294057Y-108446914D01*
X93341676Y-108542152D01*
X93389295Y-108589771D01*
X93484533Y-108637390D01*
X93865485Y-108637390D01*
X92294057Y-109018342D02*
X92341676Y-109065961D01*
X92484533Y-109113580D01*
X92579771Y-109113580D01*
X92722628Y-109065961D01*
X92817866Y-108970723D01*
X92865485Y-108875485D01*
X92913104Y-108685009D01*
X92913104Y-108542152D01*
X92865485Y-108351676D01*
X92817866Y-108256438D01*
X92722628Y-108161200D01*
X92579771Y-108113580D01*
X92484533Y-108113580D01*
X92341676Y-108161200D01*
X92294057Y-108208819D01*
X91341676Y-109113580D02*
X91913104Y-109113580D01*
X91627390Y-109113580D02*
X91627390Y-108113580D01*
X91722628Y-108256438D01*
X91817866Y-108351676D01*
X91913104Y-108399295D01*
X90960723Y-108208819D02*
X90913104Y-108161200D01*
X90817866Y-108113580D01*
X90579771Y-108113580D01*
X90484533Y-108161200D01*
X90436914Y-108208819D01*
X90389295Y-108304057D01*
X90389295Y-108399295D01*
X90436914Y-108542152D01*
X91008342Y-109113580D01*
X90389295Y-109113580D01*
X104127085Y-87879180D02*
X104127085Y-86879180D01*
X103746133Y-86879180D01*
X103650895Y-86926800D01*
X103603276Y-86974419D01*
X103555657Y-87069657D01*
X103555657Y-87212514D01*
X103603276Y-87307752D01*
X103650895Y-87355371D01*
X103746133Y-87402990D01*
X104127085Y-87402990D01*
X102555657Y-87783942D02*
X102603276Y-87831561D01*
X102746133Y-87879180D01*
X102841371Y-87879180D01*
X102984228Y-87831561D01*
X103079466Y-87736323D01*
X103127085Y-87641085D01*
X103174704Y-87450609D01*
X103174704Y-87307752D01*
X103127085Y-87117276D01*
X103079466Y-87022038D01*
X102984228Y-86926800D01*
X102841371Y-86879180D01*
X102746133Y-86879180D01*
X102603276Y-86926800D01*
X102555657Y-86974419D01*
X101603276Y-87879180D02*
X102174704Y-87879180D01*
X101888990Y-87879180D02*
X101888990Y-86879180D01*
X101984228Y-87022038D01*
X102079466Y-87117276D01*
X102174704Y-87164895D01*
X100650895Y-87879180D02*
X101222323Y-87879180D01*
X100936609Y-87879180D02*
X100936609Y-86879180D01*
X101031847Y-87022038D01*
X101127085Y-87117276D01*
X101222323Y-87164895D01*
X133926135Y-77295501D02*
X134633242Y-78002608D01*
X134902616Y-77733234D01*
X134936287Y-77632218D01*
X134936287Y-77564875D01*
X134902616Y-77463860D01*
X134801600Y-77362844D01*
X134700585Y-77329173D01*
X134633242Y-77329173D01*
X134532226Y-77362844D01*
X134262852Y-77632218D01*
X135104646Y-76251677D02*
X135037303Y-76251677D01*
X134902616Y-76319020D01*
X134835272Y-76386364D01*
X134767929Y-76521051D01*
X134767929Y-76655738D01*
X134801600Y-76756753D01*
X134902616Y-76925112D01*
X135003631Y-77026127D01*
X135171990Y-77127142D01*
X135273005Y-77160814D01*
X135407692Y-77160814D01*
X135542379Y-77093470D01*
X135609722Y-77026127D01*
X135677066Y-76891440D01*
X135677066Y-76824096D01*
X135710738Y-75510898D02*
X135306677Y-75914959D01*
X135508707Y-75712929D02*
X136215814Y-76420035D01*
X136047455Y-76386364D01*
X135912768Y-76386364D01*
X135811753Y-76420035D01*
X136653547Y-75982303D02*
X137091279Y-75544570D01*
X136586203Y-75510898D01*
X136687218Y-75409883D01*
X136720890Y-75308868D01*
X136720890Y-75241524D01*
X136687218Y-75140509D01*
X136518860Y-74972150D01*
X136417844Y-74938478D01*
X136350501Y-74938478D01*
X136249486Y-74972150D01*
X136047455Y-75174181D01*
X136013783Y-75275196D01*
X136013783Y-75342539D01*
X114750695Y-87853780D02*
X114750695Y-86853780D01*
X114369742Y-86853780D01*
X114274504Y-86901400D01*
X114226885Y-86949019D01*
X114179266Y-87044257D01*
X114179266Y-87187114D01*
X114226885Y-87282352D01*
X114274504Y-87329971D01*
X114369742Y-87377590D01*
X114750695Y-87377590D01*
X113417361Y-87329971D02*
X113274504Y-87377590D01*
X113226885Y-87425209D01*
X113179266Y-87520447D01*
X113179266Y-87663304D01*
X113226885Y-87758542D01*
X113274504Y-87806161D01*
X113369742Y-87853780D01*
X113750695Y-87853780D01*
X113750695Y-86853780D01*
X113417361Y-86853780D01*
X113322123Y-86901400D01*
X113274504Y-86949019D01*
X113226885Y-87044257D01*
X113226885Y-87139495D01*
X113274504Y-87234733D01*
X113322123Y-87282352D01*
X113417361Y-87329971D01*
X113750695Y-87329971D01*
X112703076Y-87853780D02*
X112512600Y-87853780D01*
X112417361Y-87806161D01*
X112369742Y-87758542D01*
X112274504Y-87615685D01*
X112226885Y-87425209D01*
X112226885Y-87044257D01*
X112274504Y-86949019D01*
X112322123Y-86901400D01*
X112417361Y-86853780D01*
X112607838Y-86853780D01*
X112703076Y-86901400D01*
X112750695Y-86949019D01*
X112798314Y-87044257D01*
X112798314Y-87282352D01*
X112750695Y-87377590D01*
X112703076Y-87425209D01*
X112607838Y-87472828D01*
X112417361Y-87472828D01*
X112322123Y-87425209D01*
X112274504Y-87377590D01*
X112226885Y-87282352D01*
X118686057Y-86151980D02*
X118686057Y-85151980D01*
X118305104Y-85151980D01*
X118209866Y-85199600D01*
X118162247Y-85247219D01*
X118114628Y-85342457D01*
X118114628Y-85485314D01*
X118162247Y-85580552D01*
X118209866Y-85628171D01*
X118305104Y-85675790D01*
X118686057Y-85675790D01*
X117733676Y-85866266D02*
X117257485Y-85866266D01*
X117828914Y-86151980D02*
X117495580Y-85151980D01*
X117162247Y-86151980D01*
X116305104Y-86151980D02*
X116876533Y-86151980D01*
X116590819Y-86151980D02*
X116590819Y-85151980D01*
X116686057Y-85294838D01*
X116781295Y-85390076D01*
X116876533Y-85437695D01*
X115924152Y-85247219D02*
X115876533Y-85199600D01*
X115781295Y-85151980D01*
X115543200Y-85151980D01*
X115447961Y-85199600D01*
X115400342Y-85247219D01*
X115352723Y-85342457D01*
X115352723Y-85437695D01*
X115400342Y-85580552D01*
X115971771Y-86151980D01*
X115352723Y-86151980D01*
X112286895Y-85999580D02*
X112286895Y-84999580D01*
X111905942Y-84999580D01*
X111810704Y-85047200D01*
X111763085Y-85094819D01*
X111715466Y-85190057D01*
X111715466Y-85332914D01*
X111763085Y-85428152D01*
X111810704Y-85475771D01*
X111905942Y-85523390D01*
X112286895Y-85523390D01*
X110715466Y-85904342D02*
X110763085Y-85951961D01*
X110905942Y-85999580D01*
X111001180Y-85999580D01*
X111144038Y-85951961D01*
X111239276Y-85856723D01*
X111286895Y-85761485D01*
X111334514Y-85571009D01*
X111334514Y-85428152D01*
X111286895Y-85237676D01*
X111239276Y-85142438D01*
X111144038Y-85047200D01*
X111001180Y-84999580D01*
X110905942Y-84999580D01*
X110763085Y-85047200D01*
X110715466Y-85094819D01*
X110382133Y-84999580D02*
X109763085Y-84999580D01*
X110096419Y-85380533D01*
X109953561Y-85380533D01*
X109858323Y-85428152D01*
X109810704Y-85475771D01*
X109763085Y-85571009D01*
X109763085Y-85809104D01*
X109810704Y-85904342D01*
X109858323Y-85951961D01*
X109953561Y-85999580D01*
X110239276Y-85999580D01*
X110334514Y-85951961D01*
X110382133Y-85904342D01*
X131243347Y-66094016D02*
X130536240Y-65386909D01*
X130266866Y-65656283D01*
X130233194Y-65757298D01*
X130233194Y-65824642D01*
X130266866Y-65925657D01*
X130367881Y-66026672D01*
X130468896Y-66060344D01*
X130536240Y-66060344D01*
X130637255Y-66026672D01*
X130906629Y-65757298D01*
X130064835Y-67137840D02*
X130132179Y-67137840D01*
X130266866Y-67070496D01*
X130334209Y-67003153D01*
X130401553Y-66868466D01*
X130401553Y-66733779D01*
X130367881Y-66632764D01*
X130266866Y-66464405D01*
X130165851Y-66363390D01*
X129997492Y-66262374D01*
X129896477Y-66228703D01*
X129761790Y-66228703D01*
X129627103Y-66296046D01*
X129559759Y-66363390D01*
X129492416Y-66498077D01*
X129492416Y-66565420D01*
X129458744Y-67878618D02*
X129862805Y-67474557D01*
X129660774Y-67676588D02*
X128953668Y-66969481D01*
X129122026Y-67003153D01*
X129256713Y-67003153D01*
X129357729Y-66969481D01*
X101826866Y-104135180D02*
X101826866Y-103135180D01*
X101445914Y-103135180D01*
X101350676Y-103182800D01*
X101303057Y-103230419D01*
X101255438Y-103325657D01*
X101255438Y-103468514D01*
X101303057Y-103563752D01*
X101350676Y-103611371D01*
X101445914Y-103658990D01*
X101826866Y-103658990D01*
X100874485Y-103849466D02*
X100398295Y-103849466D01*
X100969723Y-104135180D02*
X100636390Y-103135180D01*
X100303057Y-104135180D01*
X99779247Y-103135180D02*
X99684009Y-103135180D01*
X99588771Y-103182800D01*
X99541152Y-103230419D01*
X99493533Y-103325657D01*
X99445914Y-103516133D01*
X99445914Y-103754228D01*
X99493533Y-103944704D01*
X99541152Y-104039942D01*
X99588771Y-104087561D01*
X99684009Y-104135180D01*
X99779247Y-104135180D01*
X99874485Y-104087561D01*
X99922104Y-104039942D01*
X99969723Y-103944704D01*
X100017342Y-103754228D01*
X100017342Y-103516133D01*
X99969723Y-103325657D01*
X99922104Y-103230419D01*
X99874485Y-103182800D01*
X99779247Y-103135180D01*
X94259304Y-102601780D02*
X93687876Y-102601780D01*
X93973590Y-103601780D02*
X93973590Y-102601780D01*
X93449780Y-102601780D02*
X92783114Y-103601780D01*
X92783114Y-102601780D02*
X93449780Y-103601780D01*
X115328485Y-75966580D02*
X115328485Y-74966580D01*
X114947533Y-74966580D01*
X114852295Y-75014200D01*
X114804676Y-75061819D01*
X114757057Y-75157057D01*
X114757057Y-75299914D01*
X114804676Y-75395152D01*
X114852295Y-75442771D01*
X114947533Y-75490390D01*
X115328485Y-75490390D01*
X113995152Y-75442771D02*
X113852295Y-75490390D01*
X113804676Y-75538009D01*
X113757057Y-75633247D01*
X113757057Y-75776104D01*
X113804676Y-75871342D01*
X113852295Y-75918961D01*
X113947533Y-75966580D01*
X114328485Y-75966580D01*
X114328485Y-74966580D01*
X113995152Y-74966580D01*
X113899914Y-75014200D01*
X113852295Y-75061819D01*
X113804676Y-75157057D01*
X113804676Y-75252295D01*
X113852295Y-75347533D01*
X113899914Y-75395152D01*
X113995152Y-75442771D01*
X114328485Y-75442771D01*
X112804676Y-75966580D02*
X113376104Y-75966580D01*
X113090390Y-75966580D02*
X113090390Y-74966580D01*
X113185628Y-75109438D01*
X113280866Y-75204676D01*
X113376104Y-75252295D01*
X112423723Y-75061819D02*
X112376104Y-75014200D01*
X112280866Y-74966580D01*
X112042771Y-74966580D01*
X111947533Y-75014200D01*
X111899914Y-75061819D01*
X111852295Y-75157057D01*
X111852295Y-75252295D01*
X111899914Y-75395152D01*
X112471342Y-75966580D01*
X111852295Y-75966580D01*
X108278466Y-93213180D02*
X108278466Y-92213180D01*
X107897514Y-92213180D01*
X107802276Y-92260800D01*
X107754657Y-92308419D01*
X107707038Y-92403657D01*
X107707038Y-92546514D01*
X107754657Y-92641752D01*
X107802276Y-92689371D01*
X107897514Y-92736990D01*
X108278466Y-92736990D01*
X107326085Y-92927466D02*
X106849895Y-92927466D01*
X107421323Y-93213180D02*
X107087990Y-92213180D01*
X106754657Y-93213180D01*
X106468942Y-92308419D02*
X106421323Y-92260800D01*
X106326085Y-92213180D01*
X106087990Y-92213180D01*
X105992752Y-92260800D01*
X105945133Y-92308419D01*
X105897514Y-92403657D01*
X105897514Y-92498895D01*
X105945133Y-92641752D01*
X106516561Y-93213180D01*
X105897514Y-93213180D01*
X104863685Y-89479380D02*
X104863685Y-88479380D01*
X104482733Y-88479380D01*
X104387495Y-88527000D01*
X104339876Y-88574619D01*
X104292257Y-88669857D01*
X104292257Y-88812714D01*
X104339876Y-88907952D01*
X104387495Y-88955571D01*
X104482733Y-89003190D01*
X104863685Y-89003190D01*
X103292257Y-89384142D02*
X103339876Y-89431761D01*
X103482733Y-89479380D01*
X103577971Y-89479380D01*
X103720828Y-89431761D01*
X103816066Y-89336523D01*
X103863685Y-89241285D01*
X103911304Y-89050809D01*
X103911304Y-88907952D01*
X103863685Y-88717476D01*
X103816066Y-88622238D01*
X103720828Y-88527000D01*
X103577971Y-88479380D01*
X103482733Y-88479380D01*
X103339876Y-88527000D01*
X103292257Y-88574619D01*
X102339876Y-89479380D02*
X102911304Y-89479380D01*
X102625590Y-89479380D02*
X102625590Y-88479380D01*
X102720828Y-88622238D01*
X102816066Y-88717476D01*
X102911304Y-88765095D01*
X101720828Y-88479380D02*
X101625590Y-88479380D01*
X101530352Y-88527000D01*
X101482733Y-88574619D01*
X101435114Y-88669857D01*
X101387495Y-88860333D01*
X101387495Y-89098428D01*
X101435114Y-89288904D01*
X101482733Y-89384142D01*
X101530352Y-89431761D01*
X101625590Y-89479380D01*
X101720828Y-89479380D01*
X101816066Y-89431761D01*
X101863685Y-89384142D01*
X101911304Y-89288904D01*
X101958923Y-89098428D01*
X101958923Y-88860333D01*
X101911304Y-88669857D01*
X101863685Y-88574619D01*
X101816066Y-88527000D01*
X101720828Y-88479380D01*
X90870066Y-69667380D02*
X91203400Y-69191190D01*
X91441495Y-69667380D02*
X91441495Y-68667380D01*
X91060542Y-68667380D01*
X90965304Y-68715000D01*
X90917685Y-68762619D01*
X90870066Y-68857857D01*
X90870066Y-69000714D01*
X90917685Y-69095952D01*
X90965304Y-69143571D01*
X91060542Y-69191190D01*
X91441495Y-69191190D01*
X90536733Y-68667380D02*
X89870066Y-69667380D01*
X89870066Y-68667380D02*
X90536733Y-69667380D01*
X115411095Y-106040180D02*
X115411095Y-105040180D01*
X115030142Y-105040180D01*
X114934904Y-105087800D01*
X114887285Y-105135419D01*
X114839666Y-105230657D01*
X114839666Y-105373514D01*
X114887285Y-105468752D01*
X114934904Y-105516371D01*
X115030142Y-105563990D01*
X115411095Y-105563990D01*
X114077761Y-105516371D02*
X113934904Y-105563990D01*
X113887285Y-105611609D01*
X113839666Y-105706847D01*
X113839666Y-105849704D01*
X113887285Y-105944942D01*
X113934904Y-105992561D01*
X114030142Y-106040180D01*
X114411095Y-106040180D01*
X114411095Y-105040180D01*
X114077761Y-105040180D01*
X113982523Y-105087800D01*
X113934904Y-105135419D01*
X113887285Y-105230657D01*
X113887285Y-105325895D01*
X113934904Y-105421133D01*
X113982523Y-105468752D01*
X114077761Y-105516371D01*
X114411095Y-105516371D01*
X112982523Y-105373514D02*
X112982523Y-106040180D01*
X113220619Y-104992561D02*
X113458714Y-105706847D01*
X112839666Y-105706847D01*
X133853180Y-72606114D02*
X132853180Y-72606114D01*
X132853180Y-72987066D01*
X132900800Y-73082304D01*
X132948419Y-73129923D01*
X133043657Y-73177542D01*
X133186514Y-73177542D01*
X133281752Y-73129923D01*
X133329371Y-73082304D01*
X133376990Y-72987066D01*
X133376990Y-72606114D01*
X133757942Y-74177542D02*
X133805561Y-74129923D01*
X133853180Y-73987066D01*
X133853180Y-73891828D01*
X133805561Y-73748971D01*
X133710323Y-73653733D01*
X133615085Y-73606114D01*
X133424609Y-73558495D01*
X133281752Y-73558495D01*
X133091276Y-73606114D01*
X132996038Y-73653733D01*
X132900800Y-73748971D01*
X132853180Y-73891828D01*
X132853180Y-73987066D01*
X132900800Y-74129923D01*
X132948419Y-74177542D01*
X133853180Y-75129923D02*
X133853180Y-74558495D01*
X133853180Y-74844209D02*
X132853180Y-74844209D01*
X132996038Y-74748971D01*
X133091276Y-74653733D01*
X133138895Y-74558495D01*
X133186514Y-75987066D02*
X133853180Y-75987066D01*
X132805561Y-75748971D02*
X133519847Y-75510876D01*
X133519847Y-76129923D01*
X121049895Y-93060780D02*
X121049895Y-92060780D01*
X120668942Y-92060780D01*
X120573704Y-92108400D01*
X120526085Y-92156019D01*
X120478466Y-92251257D01*
X120478466Y-92394114D01*
X120526085Y-92489352D01*
X120573704Y-92536971D01*
X120668942Y-92584590D01*
X121049895Y-92584590D01*
X119716561Y-92536971D02*
X119573704Y-92584590D01*
X119526085Y-92632209D01*
X119478466Y-92727447D01*
X119478466Y-92870304D01*
X119526085Y-92965542D01*
X119573704Y-93013161D01*
X119668942Y-93060780D01*
X120049895Y-93060780D01*
X120049895Y-92060780D01*
X119716561Y-92060780D01*
X119621323Y-92108400D01*
X119573704Y-92156019D01*
X119526085Y-92251257D01*
X119526085Y-92346495D01*
X119573704Y-92441733D01*
X119621323Y-92489352D01*
X119716561Y-92536971D01*
X120049895Y-92536971D01*
X118907038Y-92489352D02*
X119002276Y-92441733D01*
X119049895Y-92394114D01*
X119097514Y-92298876D01*
X119097514Y-92251257D01*
X119049895Y-92156019D01*
X119002276Y-92108400D01*
X118907038Y-92060780D01*
X118716561Y-92060780D01*
X118621323Y-92108400D01*
X118573704Y-92156019D01*
X118526085Y-92251257D01*
X118526085Y-92298876D01*
X118573704Y-92394114D01*
X118621323Y-92441733D01*
X118716561Y-92489352D01*
X118907038Y-92489352D01*
X119002276Y-92536971D01*
X119049895Y-92584590D01*
X119097514Y-92679828D01*
X119097514Y-92870304D01*
X119049895Y-92965542D01*
X119002276Y-93013161D01*
X118907038Y-93060780D01*
X118716561Y-93060780D01*
X118621323Y-93013161D01*
X118573704Y-92965542D01*
X118526085Y-92870304D01*
X118526085Y-92679828D01*
X118573704Y-92584590D01*
X118621323Y-92536971D01*
X118716561Y-92489352D01*
X123589895Y-104541580D02*
X123589895Y-103541580D01*
X123208942Y-103541580D01*
X123113704Y-103589200D01*
X123066085Y-103636819D01*
X123018466Y-103732057D01*
X123018466Y-103874914D01*
X123066085Y-103970152D01*
X123113704Y-104017771D01*
X123208942Y-104065390D01*
X123589895Y-104065390D01*
X122256561Y-104017771D02*
X122113704Y-104065390D01*
X122066085Y-104113009D01*
X122018466Y-104208247D01*
X122018466Y-104351104D01*
X122066085Y-104446342D01*
X122113704Y-104493961D01*
X122208942Y-104541580D01*
X122589895Y-104541580D01*
X122589895Y-103541580D01*
X122256561Y-103541580D01*
X122161323Y-103589200D01*
X122113704Y-103636819D01*
X122066085Y-103732057D01*
X122066085Y-103827295D01*
X122113704Y-103922533D01*
X122161323Y-103970152D01*
X122256561Y-104017771D01*
X122589895Y-104017771D01*
X121113704Y-103541580D02*
X121589895Y-103541580D01*
X121637514Y-104017771D01*
X121589895Y-103970152D01*
X121494657Y-103922533D01*
X121256561Y-103922533D01*
X121161323Y-103970152D01*
X121113704Y-104017771D01*
X121066085Y-104113009D01*
X121066085Y-104351104D01*
X121113704Y-104446342D01*
X121161323Y-104493961D01*
X121256561Y-104541580D01*
X121494657Y-104541580D01*
X121589895Y-104493961D01*
X121637514Y-104446342D01*
X94633895Y-104871780D02*
X94633895Y-103871780D01*
X94252942Y-103871780D01*
X94157704Y-103919400D01*
X94110085Y-103967019D01*
X94062466Y-104062257D01*
X94062466Y-104205114D01*
X94110085Y-104300352D01*
X94157704Y-104347971D01*
X94252942Y-104395590D01*
X94633895Y-104395590D01*
X93633895Y-104871780D02*
X93633895Y-103871780D01*
X93395800Y-103871780D01*
X93252942Y-103919400D01*
X93157704Y-104014638D01*
X93110085Y-104109876D01*
X93062466Y-104300352D01*
X93062466Y-104443209D01*
X93110085Y-104633685D01*
X93157704Y-104728923D01*
X93252942Y-104824161D01*
X93395800Y-104871780D01*
X93633895Y-104871780D01*
X92681514Y-103967019D02*
X92633895Y-103919400D01*
X92538657Y-103871780D01*
X92300561Y-103871780D01*
X92205323Y-103919400D01*
X92157704Y-103967019D01*
X92110085Y-104062257D01*
X92110085Y-104157495D01*
X92157704Y-104300352D01*
X92729133Y-104871780D01*
X92110085Y-104871780D01*
X91914457Y-71115180D02*
X91914457Y-70115180D01*
X91533504Y-70115180D01*
X91438266Y-70162800D01*
X91390647Y-70210419D01*
X91343028Y-70305657D01*
X91343028Y-70448514D01*
X91390647Y-70543752D01*
X91438266Y-70591371D01*
X91533504Y-70638990D01*
X91914457Y-70638990D01*
X90962076Y-70829466D02*
X90485885Y-70829466D01*
X91057314Y-71115180D02*
X90723980Y-70115180D01*
X90390647Y-71115180D01*
X89533504Y-71115180D02*
X90104933Y-71115180D01*
X89819219Y-71115180D02*
X89819219Y-70115180D01*
X89914457Y-70258038D01*
X90009695Y-70353276D01*
X90104933Y-70400895D01*
X88914457Y-70115180D02*
X88819219Y-70115180D01*
X88723980Y-70162800D01*
X88676361Y-70210419D01*
X88628742Y-70305657D01*
X88581123Y-70496133D01*
X88581123Y-70734228D01*
X88628742Y-70924704D01*
X88676361Y-71019942D01*
X88723980Y-71067561D01*
X88819219Y-71115180D01*
X88914457Y-71115180D01*
X89009695Y-71067561D01*
X89057314Y-71019942D01*
X89104933Y-70924704D01*
X89152552Y-70734228D01*
X89152552Y-70496133D01*
X89104933Y-70305657D01*
X89057314Y-70210419D01*
X89009695Y-70162800D01*
X88914457Y-70115180D01*
X89966704Y-71410580D02*
X89395276Y-71410580D01*
X89680990Y-72410580D02*
X89680990Y-71410580D01*
X89157180Y-71410580D02*
X88490514Y-72410580D01*
X88490514Y-71410580D02*
X89157180Y-72410580D01*
X125636757Y-83791006D02*
X124929650Y-83083899D01*
X124660276Y-83353273D01*
X124626604Y-83454288D01*
X124626604Y-83521632D01*
X124660276Y-83622647D01*
X124761291Y-83723662D01*
X124862306Y-83757334D01*
X124929650Y-83757334D01*
X125030665Y-83723662D01*
X125300039Y-83454288D01*
X124761291Y-84262410D02*
X124424574Y-84599128D01*
X125030665Y-84397097D02*
X124087856Y-83925693D01*
X124559261Y-84868502D01*
X123953169Y-85474593D02*
X124357230Y-85070532D01*
X124155200Y-85272563D02*
X123448093Y-84565456D01*
X123616451Y-84599128D01*
X123751138Y-84599128D01*
X123852154Y-84565456D01*
X122606299Y-85407250D02*
X122943016Y-85070532D01*
X123313406Y-85373578D01*
X123246062Y-85373578D01*
X123145047Y-85407250D01*
X122976688Y-85575609D01*
X122943016Y-85676624D01*
X122943016Y-85743967D01*
X122976688Y-85844983D01*
X123145047Y-86013341D01*
X123246062Y-86047013D01*
X123313406Y-86047013D01*
X123414421Y-86013341D01*
X123582780Y-85844983D01*
X123616451Y-85743967D01*
X123616451Y-85676624D01*
X131362295Y-106344980D02*
X131362295Y-105344980D01*
X130981342Y-105344980D01*
X130886104Y-105392600D01*
X130838485Y-105440219D01*
X130790866Y-105535457D01*
X130790866Y-105678314D01*
X130838485Y-105773552D01*
X130886104Y-105821171D01*
X130981342Y-105868790D01*
X131362295Y-105868790D01*
X130028961Y-105821171D02*
X129886104Y-105868790D01*
X129838485Y-105916409D01*
X129790866Y-106011647D01*
X129790866Y-106154504D01*
X129838485Y-106249742D01*
X129886104Y-106297361D01*
X129981342Y-106344980D01*
X130362295Y-106344980D01*
X130362295Y-105344980D01*
X130028961Y-105344980D01*
X129933723Y-105392600D01*
X129886104Y-105440219D01*
X129838485Y-105535457D01*
X129838485Y-105630695D01*
X129886104Y-105725933D01*
X129933723Y-105773552D01*
X130028961Y-105821171D01*
X130362295Y-105821171D01*
X129219438Y-105773552D02*
X129314676Y-105725933D01*
X129362295Y-105678314D01*
X129409914Y-105583076D01*
X129409914Y-105535457D01*
X129362295Y-105440219D01*
X129314676Y-105392600D01*
X129219438Y-105344980D01*
X129028961Y-105344980D01*
X128933723Y-105392600D01*
X128886104Y-105440219D01*
X128838485Y-105535457D01*
X128838485Y-105583076D01*
X128886104Y-105678314D01*
X128933723Y-105725933D01*
X129028961Y-105773552D01*
X129219438Y-105773552D01*
X129314676Y-105821171D01*
X129362295Y-105868790D01*
X129409914Y-105964028D01*
X129409914Y-106154504D01*
X129362295Y-106249742D01*
X129314676Y-106297361D01*
X129219438Y-106344980D01*
X129028961Y-106344980D01*
X128933723Y-106297361D01*
X128886104Y-106249742D01*
X128838485Y-106154504D01*
X128838485Y-105964028D01*
X128886104Y-105868790D01*
X128933723Y-105821171D01*
X129028961Y-105773552D01*
X92200266Y-68422780D02*
X92200266Y-67422780D01*
X91819314Y-67422780D01*
X91724076Y-67470400D01*
X91676457Y-67518019D01*
X91628838Y-67613257D01*
X91628838Y-67756114D01*
X91676457Y-67851352D01*
X91724076Y-67898971D01*
X91819314Y-67946590D01*
X92200266Y-67946590D01*
X91247885Y-68137066D02*
X90771695Y-68137066D01*
X91343123Y-68422780D02*
X91009790Y-67422780D01*
X90676457Y-68422780D01*
X90295504Y-68422780D02*
X90105028Y-68422780D01*
X90009790Y-68375161D01*
X89962171Y-68327542D01*
X89866933Y-68184685D01*
X89819314Y-67994209D01*
X89819314Y-67613257D01*
X89866933Y-67518019D01*
X89914552Y-67470400D01*
X90009790Y-67422780D01*
X90200266Y-67422780D01*
X90295504Y-67470400D01*
X90343123Y-67518019D01*
X90390742Y-67613257D01*
X90390742Y-67851352D01*
X90343123Y-67946590D01*
X90295504Y-67994209D01*
X90200266Y-68041828D01*
X90009790Y-68041828D01*
X89914552Y-67994209D01*
X89866933Y-67946590D01*
X89819314Y-67851352D01*
X105306666Y-96515180D02*
X105306666Y-95515180D01*
X104925714Y-95515180D01*
X104830476Y-95562800D01*
X104782857Y-95610419D01*
X104735238Y-95705657D01*
X104735238Y-95848514D01*
X104782857Y-95943752D01*
X104830476Y-95991371D01*
X104925714Y-96038990D01*
X105306666Y-96038990D01*
X104354285Y-96229466D02*
X103878095Y-96229466D01*
X104449523Y-96515180D02*
X104116190Y-95515180D01*
X103782857Y-96515180D01*
X103020952Y-95848514D02*
X103020952Y-96515180D01*
X103259047Y-95467561D02*
X103497142Y-96181847D01*
X102878095Y-96181847D01*
X130176839Y-70157723D02*
X129469732Y-69450616D01*
X129200358Y-69719990D01*
X129166687Y-69821006D01*
X129166687Y-69888349D01*
X129200358Y-69989364D01*
X129301374Y-70090380D01*
X129402389Y-70124051D01*
X129469732Y-70124051D01*
X129570748Y-70090380D01*
X129840122Y-69821006D01*
X128863641Y-70730143D02*
X129099343Y-70494441D01*
X129469732Y-70864830D02*
X128762625Y-70157723D01*
X128425908Y-70494441D01*
X128493251Y-71841311D02*
X128897312Y-71437250D01*
X128695282Y-71639280D02*
X127988175Y-70932174D01*
X128156534Y-70965845D01*
X128291221Y-70965845D01*
X128392236Y-70932174D01*
X118960685Y-89276180D02*
X118960685Y-88276180D01*
X118579733Y-88276180D01*
X118484495Y-88323800D01*
X118436876Y-88371419D01*
X118389257Y-88466657D01*
X118389257Y-88609514D01*
X118436876Y-88704752D01*
X118484495Y-88752371D01*
X118579733Y-88799990D01*
X118960685Y-88799990D01*
X117627352Y-88752371D02*
X117484495Y-88799990D01*
X117436876Y-88847609D01*
X117389257Y-88942847D01*
X117389257Y-89085704D01*
X117436876Y-89180942D01*
X117484495Y-89228561D01*
X117579733Y-89276180D01*
X117960685Y-89276180D01*
X117960685Y-88276180D01*
X117627352Y-88276180D01*
X117532114Y-88323800D01*
X117484495Y-88371419D01*
X117436876Y-88466657D01*
X117436876Y-88561895D01*
X117484495Y-88657133D01*
X117532114Y-88704752D01*
X117627352Y-88752371D01*
X117960685Y-88752371D01*
X116436876Y-89276180D02*
X117008304Y-89276180D01*
X116722590Y-89276180D02*
X116722590Y-88276180D01*
X116817828Y-88419038D01*
X116913066Y-88514276D01*
X117008304Y-88561895D01*
X115484495Y-89276180D02*
X116055923Y-89276180D01*
X115770209Y-89276180D02*
X115770209Y-88276180D01*
X115865447Y-88419038D01*
X115960685Y-88514276D01*
X116055923Y-88561895D01*
X125442457Y-91358980D02*
X125442457Y-90358980D01*
X125061504Y-90358980D01*
X124966266Y-90406600D01*
X124918647Y-90454219D01*
X124871028Y-90549457D01*
X124871028Y-90692314D01*
X124918647Y-90787552D01*
X124966266Y-90835171D01*
X125061504Y-90882790D01*
X125442457Y-90882790D01*
X124490076Y-91073266D02*
X124013885Y-91073266D01*
X124585314Y-91358980D02*
X124251980Y-90358980D01*
X123918647Y-91358980D01*
X123061504Y-91358980D02*
X123632933Y-91358980D01*
X123347219Y-91358980D02*
X123347219Y-90358980D01*
X123442457Y-90501838D01*
X123537695Y-90597076D01*
X123632933Y-90644695D01*
X122728171Y-90358980D02*
X122109123Y-90358980D01*
X122442457Y-90739933D01*
X122299600Y-90739933D01*
X122204361Y-90787552D01*
X122156742Y-90835171D01*
X122109123Y-90930409D01*
X122109123Y-91168504D01*
X122156742Y-91263742D01*
X122204361Y-91311361D01*
X122299600Y-91358980D01*
X122585314Y-91358980D01*
X122680552Y-91311361D01*
X122728171Y-91263742D01*
X113358466Y-93009980D02*
X113358466Y-92009980D01*
X112977514Y-92009980D01*
X112882276Y-92057600D01*
X112834657Y-92105219D01*
X112787038Y-92200457D01*
X112787038Y-92343314D01*
X112834657Y-92438552D01*
X112882276Y-92486171D01*
X112977514Y-92533790D01*
X113358466Y-92533790D01*
X112406085Y-92724266D02*
X111929895Y-92724266D01*
X112501323Y-93009980D02*
X112167990Y-92009980D01*
X111834657Y-93009980D01*
X111310847Y-92009980D02*
X111215609Y-92009980D01*
X111120371Y-92057600D01*
X111072752Y-92105219D01*
X111025133Y-92200457D01*
X110977514Y-92390933D01*
X110977514Y-92629028D01*
X111025133Y-92819504D01*
X111072752Y-92914742D01*
X111120371Y-92962361D01*
X111215609Y-93009980D01*
X111310847Y-93009980D01*
X111406085Y-92962361D01*
X111453704Y-92914742D01*
X111501323Y-92819504D01*
X111548942Y-92629028D01*
X111548942Y-92390933D01*
X111501323Y-92200457D01*
X111453704Y-92105219D01*
X111406085Y-92057600D01*
X111310847Y-92009980D01*
X117462085Y-78760580D02*
X117462085Y-77760580D01*
X117081133Y-77760580D01*
X116985895Y-77808200D01*
X116938276Y-77855819D01*
X116890657Y-77951057D01*
X116890657Y-78093914D01*
X116938276Y-78189152D01*
X116985895Y-78236771D01*
X117081133Y-78284390D01*
X117462085Y-78284390D01*
X116128752Y-78236771D02*
X115985895Y-78284390D01*
X115938276Y-78332009D01*
X115890657Y-78427247D01*
X115890657Y-78570104D01*
X115938276Y-78665342D01*
X115985895Y-78712961D01*
X116081133Y-78760580D01*
X116462085Y-78760580D01*
X116462085Y-77760580D01*
X116128752Y-77760580D01*
X116033514Y-77808200D01*
X115985895Y-77855819D01*
X115938276Y-77951057D01*
X115938276Y-78046295D01*
X115985895Y-78141533D01*
X116033514Y-78189152D01*
X116128752Y-78236771D01*
X116462085Y-78236771D01*
X114938276Y-78760580D02*
X115509704Y-78760580D01*
X115223990Y-78760580D02*
X115223990Y-77760580D01*
X115319228Y-77903438D01*
X115414466Y-77998676D01*
X115509704Y-78046295D01*
X114081133Y-78093914D02*
X114081133Y-78760580D01*
X114319228Y-77712961D02*
X114557323Y-78427247D01*
X113938276Y-78427247D01*
X127933295Y-114041180D02*
X127933295Y-113041180D01*
X127552342Y-113041180D01*
X127457104Y-113088800D01*
X127409485Y-113136419D01*
X127361866Y-113231657D01*
X127361866Y-113374514D01*
X127409485Y-113469752D01*
X127457104Y-113517371D01*
X127552342Y-113564990D01*
X127933295Y-113564990D01*
X126599961Y-113517371D02*
X126457104Y-113564990D01*
X126409485Y-113612609D01*
X126361866Y-113707847D01*
X126361866Y-113850704D01*
X126409485Y-113945942D01*
X126457104Y-113993561D01*
X126552342Y-114041180D01*
X126933295Y-114041180D01*
X126933295Y-113041180D01*
X126599961Y-113041180D01*
X126504723Y-113088800D01*
X126457104Y-113136419D01*
X126409485Y-113231657D01*
X126409485Y-113326895D01*
X126457104Y-113422133D01*
X126504723Y-113469752D01*
X126599961Y-113517371D01*
X126933295Y-113517371D01*
X126028533Y-113041180D02*
X125409485Y-113041180D01*
X125742819Y-113422133D01*
X125599961Y-113422133D01*
X125504723Y-113469752D01*
X125457104Y-113517371D01*
X125409485Y-113612609D01*
X125409485Y-113850704D01*
X125457104Y-113945942D01*
X125504723Y-113993561D01*
X125599961Y-114041180D01*
X125885676Y-114041180D01*
X125980914Y-113993561D01*
X126028533Y-113945942D01*
X105371685Y-80208380D02*
X105371685Y-79208380D01*
X104990733Y-79208380D01*
X104895495Y-79256000D01*
X104847876Y-79303619D01*
X104800257Y-79398857D01*
X104800257Y-79541714D01*
X104847876Y-79636952D01*
X104895495Y-79684571D01*
X104990733Y-79732190D01*
X105371685Y-79732190D01*
X104038352Y-79684571D02*
X103895495Y-79732190D01*
X103847876Y-79779809D01*
X103800257Y-79875047D01*
X103800257Y-80017904D01*
X103847876Y-80113142D01*
X103895495Y-80160761D01*
X103990733Y-80208380D01*
X104371685Y-80208380D01*
X104371685Y-79208380D01*
X104038352Y-79208380D01*
X103943114Y-79256000D01*
X103895495Y-79303619D01*
X103847876Y-79398857D01*
X103847876Y-79494095D01*
X103895495Y-79589333D01*
X103943114Y-79636952D01*
X104038352Y-79684571D01*
X104371685Y-79684571D01*
X102847876Y-80208380D02*
X103419304Y-80208380D01*
X103133590Y-80208380D02*
X103133590Y-79208380D01*
X103228828Y-79351238D01*
X103324066Y-79446476D01*
X103419304Y-79494095D01*
X102228828Y-79208380D02*
X102133590Y-79208380D01*
X102038352Y-79256000D01*
X101990733Y-79303619D01*
X101943114Y-79398857D01*
X101895495Y-79589333D01*
X101895495Y-79827428D01*
X101943114Y-80017904D01*
X101990733Y-80113142D01*
X102038352Y-80160761D01*
X102133590Y-80208380D01*
X102228828Y-80208380D01*
X102324066Y-80160761D01*
X102371685Y-80113142D01*
X102419304Y-80017904D01*
X102466923Y-79827428D01*
X102466923Y-79589333D01*
X102419304Y-79398857D01*
X102371685Y-79303619D01*
X102324066Y-79256000D01*
X102228828Y-79208380D01*
X87545657Y-74417180D02*
X87545657Y-73417180D01*
X87164704Y-73417180D01*
X87069466Y-73464800D01*
X87021847Y-73512419D01*
X86974228Y-73607657D01*
X86974228Y-73750514D01*
X87021847Y-73845752D01*
X87069466Y-73893371D01*
X87164704Y-73940990D01*
X87545657Y-73940990D01*
X86593276Y-74131466D02*
X86117085Y-74131466D01*
X86688514Y-74417180D02*
X86355180Y-73417180D01*
X86021847Y-74417180D01*
X85164704Y-74417180D02*
X85736133Y-74417180D01*
X85450419Y-74417180D02*
X85450419Y-73417180D01*
X85545657Y-73560038D01*
X85640895Y-73655276D01*
X85736133Y-73702895D01*
X84212323Y-74417180D02*
X84783752Y-74417180D01*
X84498038Y-74417180D02*
X84498038Y-73417180D01*
X84593276Y-73560038D01*
X84688514Y-73655276D01*
X84783752Y-73702895D01*
X136426701Y-74099864D02*
X137133808Y-73392757D01*
X136864434Y-73123383D01*
X136763418Y-73089712D01*
X136696075Y-73089712D01*
X136595060Y-73123383D01*
X136494044Y-73224399D01*
X136460373Y-73325414D01*
X136460373Y-73392757D01*
X136494044Y-73493773D01*
X136763418Y-73763147D01*
X135382877Y-72921353D02*
X135382877Y-72988696D01*
X135450220Y-73123383D01*
X135517564Y-73190727D01*
X135652251Y-73258070D01*
X135786938Y-73258070D01*
X135887953Y-73224399D01*
X136056312Y-73123383D01*
X136157327Y-73022368D01*
X136258342Y-72854009D01*
X136292014Y-72752994D01*
X136292014Y-72618307D01*
X136224670Y-72483620D01*
X136157327Y-72416277D01*
X136022640Y-72348933D01*
X135955296Y-72348933D01*
X134642098Y-72315261D02*
X135046159Y-72719322D01*
X134844129Y-72517292D02*
X135551235Y-71810185D01*
X135517564Y-71978544D01*
X135517564Y-72113231D01*
X135551235Y-72214246D01*
X134709442Y-70968391D02*
X135046159Y-71305109D01*
X134743113Y-71675498D01*
X134743113Y-71608155D01*
X134709442Y-71507139D01*
X134541083Y-71338781D01*
X134440068Y-71305109D01*
X134372724Y-71305109D01*
X134271709Y-71338781D01*
X134103350Y-71507139D01*
X134069678Y-71608155D01*
X134069678Y-71675498D01*
X134103350Y-71776513D01*
X134271709Y-71944872D01*
X134372724Y-71978544D01*
X134440068Y-71978544D01*
X129787495Y-83865980D02*
X129787495Y-82865980D01*
X129406542Y-82865980D01*
X129311304Y-82913600D01*
X129263685Y-82961219D01*
X129216066Y-83056457D01*
X129216066Y-83199314D01*
X129263685Y-83294552D01*
X129311304Y-83342171D01*
X129406542Y-83389790D01*
X129787495Y-83389790D01*
X128454161Y-83342171D02*
X128311304Y-83389790D01*
X128263685Y-83437409D01*
X128216066Y-83532647D01*
X128216066Y-83675504D01*
X128263685Y-83770742D01*
X128311304Y-83818361D01*
X128406542Y-83865980D01*
X128787495Y-83865980D01*
X128787495Y-82865980D01*
X128454161Y-82865980D01*
X128358923Y-82913600D01*
X128311304Y-82961219D01*
X128263685Y-83056457D01*
X128263685Y-83151695D01*
X128311304Y-83246933D01*
X128358923Y-83294552D01*
X128454161Y-83342171D01*
X128787495Y-83342171D01*
X127358923Y-82865980D02*
X127549400Y-82865980D01*
X127644638Y-82913600D01*
X127692257Y-82961219D01*
X127787495Y-83104076D01*
X127835114Y-83294552D01*
X127835114Y-83675504D01*
X127787495Y-83770742D01*
X127739876Y-83818361D01*
X127644638Y-83865980D01*
X127454161Y-83865980D01*
X127358923Y-83818361D01*
X127311304Y-83770742D01*
X127263685Y-83675504D01*
X127263685Y-83437409D01*
X127311304Y-83342171D01*
X127358923Y-83294552D01*
X127454161Y-83246933D01*
X127644638Y-83246933D01*
X127739876Y-83294552D01*
X127787495Y-83342171D01*
X127835114Y-83437409D01*
X127931657Y-88539580D02*
X127931657Y-87539580D01*
X127550704Y-87539580D01*
X127455466Y-87587200D01*
X127407847Y-87634819D01*
X127360228Y-87730057D01*
X127360228Y-87872914D01*
X127407847Y-87968152D01*
X127455466Y-88015771D01*
X127550704Y-88063390D01*
X127931657Y-88063390D01*
X126979276Y-88253866D02*
X126503085Y-88253866D01*
X127074514Y-88539580D02*
X126741180Y-87539580D01*
X126407847Y-88539580D01*
X125550704Y-88539580D02*
X126122133Y-88539580D01*
X125836419Y-88539580D02*
X125836419Y-87539580D01*
X125931657Y-87682438D01*
X126026895Y-87777676D01*
X126122133Y-87825295D01*
X124693561Y-87872914D02*
X124693561Y-88539580D01*
X124931657Y-87491961D02*
X125169752Y-88206247D01*
X124550704Y-88206247D01*
X115226885Y-80817980D02*
X115226885Y-79817980D01*
X114845933Y-79817980D01*
X114750695Y-79865600D01*
X114703076Y-79913219D01*
X114655457Y-80008457D01*
X114655457Y-80151314D01*
X114703076Y-80246552D01*
X114750695Y-80294171D01*
X114845933Y-80341790D01*
X115226885Y-80341790D01*
X113893552Y-80294171D02*
X113750695Y-80341790D01*
X113703076Y-80389409D01*
X113655457Y-80484647D01*
X113655457Y-80627504D01*
X113703076Y-80722742D01*
X113750695Y-80770361D01*
X113845933Y-80817980D01*
X114226885Y-80817980D01*
X114226885Y-79817980D01*
X113893552Y-79817980D01*
X113798314Y-79865600D01*
X113750695Y-79913219D01*
X113703076Y-80008457D01*
X113703076Y-80103695D01*
X113750695Y-80198933D01*
X113798314Y-80246552D01*
X113893552Y-80294171D01*
X114226885Y-80294171D01*
X112703076Y-80817980D02*
X113274504Y-80817980D01*
X112988790Y-80817980D02*
X112988790Y-79817980D01*
X113084028Y-79960838D01*
X113179266Y-80056076D01*
X113274504Y-80103695D01*
X111798314Y-79817980D02*
X112274504Y-79817980D01*
X112322123Y-80294171D01*
X112274504Y-80246552D01*
X112179266Y-80198933D01*
X111941171Y-80198933D01*
X111845933Y-80246552D01*
X111798314Y-80294171D01*
X111750695Y-80389409D01*
X111750695Y-80627504D01*
X111798314Y-80722742D01*
X111845933Y-80770361D01*
X111941171Y-80817980D01*
X112179266Y-80817980D01*
X112274504Y-80770361D01*
X112322123Y-80722742D01*
X104036666Y-94610180D02*
X104036666Y-93610180D01*
X103655714Y-93610180D01*
X103560476Y-93657800D01*
X103512857Y-93705419D01*
X103465238Y-93800657D01*
X103465238Y-93943514D01*
X103512857Y-94038752D01*
X103560476Y-94086371D01*
X103655714Y-94133990D01*
X104036666Y-94133990D01*
X103084285Y-94324466D02*
X102608095Y-94324466D01*
X103179523Y-94610180D02*
X102846190Y-93610180D01*
X102512857Y-94610180D01*
X102274761Y-93610180D02*
X101655714Y-93610180D01*
X101989047Y-93991133D01*
X101846190Y-93991133D01*
X101750952Y-94038752D01*
X101703333Y-94086371D01*
X101655714Y-94181609D01*
X101655714Y-94419704D01*
X101703333Y-94514942D01*
X101750952Y-94562561D01*
X101846190Y-94610180D01*
X102131904Y-94610180D01*
X102227142Y-94562561D01*
X102274761Y-94514942D01*
X86628219Y-75687180D02*
X86961552Y-75210990D01*
X87199647Y-75687180D02*
X87199647Y-74687180D01*
X86818695Y-74687180D01*
X86723457Y-74734800D01*
X86675838Y-74782419D01*
X86628219Y-74877657D01*
X86628219Y-75020514D01*
X86675838Y-75115752D01*
X86723457Y-75163371D01*
X86818695Y-75210990D01*
X87199647Y-75210990D01*
X86247266Y-75639561D02*
X86104409Y-75687180D01*
X85866314Y-75687180D01*
X85771076Y-75639561D01*
X85723457Y-75591942D01*
X85675838Y-75496704D01*
X85675838Y-75401466D01*
X85723457Y-75306228D01*
X85771076Y-75258609D01*
X85866314Y-75210990D01*
X86056790Y-75163371D01*
X86152028Y-75115752D01*
X86199647Y-75068133D01*
X86247266Y-74972895D01*
X86247266Y-74877657D01*
X86199647Y-74782419D01*
X86152028Y-74734800D01*
X86056790Y-74687180D01*
X85818695Y-74687180D01*
X85675838Y-74734800D01*
X85390123Y-74687180D02*
X84818695Y-74687180D01*
X85104409Y-75687180D02*
X85104409Y-74687180D01*
X112204285Y-77947780D02*
X112204285Y-76947780D01*
X111823333Y-76947780D01*
X111728095Y-76995400D01*
X111680476Y-77043019D01*
X111632857Y-77138257D01*
X111632857Y-77281114D01*
X111680476Y-77376352D01*
X111728095Y-77423971D01*
X111823333Y-77471590D01*
X112204285Y-77471590D01*
X110870952Y-77423971D02*
X110728095Y-77471590D01*
X110680476Y-77519209D01*
X110632857Y-77614447D01*
X110632857Y-77757304D01*
X110680476Y-77852542D01*
X110728095Y-77900161D01*
X110823333Y-77947780D01*
X111204285Y-77947780D01*
X111204285Y-76947780D01*
X110870952Y-76947780D01*
X110775714Y-76995400D01*
X110728095Y-77043019D01*
X110680476Y-77138257D01*
X110680476Y-77233495D01*
X110728095Y-77328733D01*
X110775714Y-77376352D01*
X110870952Y-77423971D01*
X111204285Y-77423971D01*
X109680476Y-77947780D02*
X110251904Y-77947780D01*
X109966190Y-77947780D02*
X109966190Y-76947780D01*
X110061428Y-77090638D01*
X110156666Y-77185876D01*
X110251904Y-77233495D01*
X109347142Y-76947780D02*
X108728095Y-76947780D01*
X109061428Y-77328733D01*
X108918571Y-77328733D01*
X108823333Y-77376352D01*
X108775714Y-77423971D01*
X108728095Y-77519209D01*
X108728095Y-77757304D01*
X108775714Y-77852542D01*
X108823333Y-77900161D01*
X108918571Y-77947780D01*
X109204285Y-77947780D01*
X109299523Y-77900161D01*
X109347142Y-77852542D01*
%TO.C,C2*%
X120674248Y-66980834D02*
X120674248Y-66913491D01*
X120606904Y-66778804D01*
X120539561Y-66711460D01*
X120404873Y-66644117D01*
X120270186Y-66644117D01*
X120169171Y-66677788D01*
X120000812Y-66778804D01*
X119899797Y-66879819D01*
X119798782Y-67048178D01*
X119765110Y-67149193D01*
X119765110Y-67283880D01*
X119832454Y-67418567D01*
X119899797Y-67485911D01*
X120034484Y-67553254D01*
X120101828Y-67553254D01*
X120371202Y-67822628D02*
X120371202Y-67889972D01*
X120404873Y-67990987D01*
X120573232Y-68159346D01*
X120674248Y-68193017D01*
X120741591Y-68193017D01*
X120842606Y-68159346D01*
X120909950Y-68092002D01*
X120977293Y-67957315D01*
X120977293Y-67149193D01*
X121415026Y-67586926D01*
%TO.C,FB1*%
X126815762Y-72233925D02*
X126580060Y-71998223D01*
X126950449Y-71627834D02*
X126243342Y-72334941D01*
X126580060Y-72671658D01*
X127421854Y-72840017D02*
X127556541Y-72907361D01*
X127623884Y-72907361D01*
X127724900Y-72873689D01*
X127825915Y-72772674D01*
X127859587Y-72671658D01*
X127859587Y-72604315D01*
X127825915Y-72503299D01*
X127556541Y-72233925D01*
X126849434Y-72941032D01*
X127085136Y-73176735D01*
X127186151Y-73210406D01*
X127253495Y-73210406D01*
X127354510Y-73176735D01*
X127421854Y-73109391D01*
X127455526Y-73008376D01*
X127455526Y-72941032D01*
X127421854Y-72840017D01*
X127186151Y-72604315D01*
X128634037Y-73311422D02*
X128229976Y-72907361D01*
X128432006Y-73109391D02*
X127724900Y-73816498D01*
X127758571Y-73648139D01*
X127758571Y-73513452D01*
X127724900Y-73412437D01*
%TO.C,C9*%
X157291066Y-104573342D02*
X157338685Y-104620961D01*
X157481542Y-104668580D01*
X157576780Y-104668580D01*
X157719638Y-104620961D01*
X157814876Y-104525723D01*
X157862495Y-104430485D01*
X157910114Y-104240009D01*
X157910114Y-104097152D01*
X157862495Y-103906676D01*
X157814876Y-103811438D01*
X157719638Y-103716200D01*
X157576780Y-103668580D01*
X157481542Y-103668580D01*
X157338685Y-103716200D01*
X157291066Y-103763819D01*
X156814876Y-104668580D02*
X156624400Y-104668580D01*
X156529161Y-104620961D01*
X156481542Y-104573342D01*
X156386304Y-104430485D01*
X156338685Y-104240009D01*
X156338685Y-103859057D01*
X156386304Y-103763819D01*
X156433923Y-103716200D01*
X156529161Y-103668580D01*
X156719638Y-103668580D01*
X156814876Y-103716200D01*
X156862495Y-103763819D01*
X156910114Y-103859057D01*
X156910114Y-104097152D01*
X156862495Y-104192390D01*
X156814876Y-104240009D01*
X156719638Y-104287628D01*
X156529161Y-104287628D01*
X156433923Y-104240009D01*
X156386304Y-104192390D01*
X156338685Y-104097152D01*
%TO.C,D8*%
X119584695Y-49571780D02*
X119584695Y-48571780D01*
X119346600Y-48571780D01*
X119203742Y-48619400D01*
X119108504Y-48714638D01*
X119060885Y-48809876D01*
X119013266Y-49000352D01*
X119013266Y-49143209D01*
X119060885Y-49333685D01*
X119108504Y-49428923D01*
X119203742Y-49524161D01*
X119346600Y-49571780D01*
X119584695Y-49571780D01*
X118441838Y-49000352D02*
X118537076Y-48952733D01*
X118584695Y-48905114D01*
X118632314Y-48809876D01*
X118632314Y-48762257D01*
X118584695Y-48667019D01*
X118537076Y-48619400D01*
X118441838Y-48571780D01*
X118251361Y-48571780D01*
X118156123Y-48619400D01*
X118108504Y-48667019D01*
X118060885Y-48762257D01*
X118060885Y-48809876D01*
X118108504Y-48905114D01*
X118156123Y-48952733D01*
X118251361Y-49000352D01*
X118441838Y-49000352D01*
X118537076Y-49047971D01*
X118584695Y-49095590D01*
X118632314Y-49190828D01*
X118632314Y-49381304D01*
X118584695Y-49476542D01*
X118537076Y-49524161D01*
X118441838Y-49571780D01*
X118251361Y-49571780D01*
X118156123Y-49524161D01*
X118108504Y-49476542D01*
X118060885Y-49381304D01*
X118060885Y-49190828D01*
X118108504Y-49095590D01*
X118156123Y-49047971D01*
X118251361Y-49000352D01*
%TO.C,C16*%
X181513542Y-106214942D02*
X181561161Y-106167323D01*
X181608780Y-106024466D01*
X181608780Y-105929228D01*
X181561161Y-105786371D01*
X181465923Y-105691133D01*
X181370685Y-105643514D01*
X181180209Y-105595895D01*
X181037352Y-105595895D01*
X180846876Y-105643514D01*
X180751638Y-105691133D01*
X180656400Y-105786371D01*
X180608780Y-105929228D01*
X180608780Y-106024466D01*
X180656400Y-106167323D01*
X180704019Y-106214942D01*
X181608780Y-107167323D02*
X181608780Y-106595895D01*
X181608780Y-106881609D02*
X180608780Y-106881609D01*
X180751638Y-106786371D01*
X180846876Y-106691133D01*
X180894495Y-106595895D01*
X180608780Y-108024466D02*
X180608780Y-107833990D01*
X180656400Y-107738752D01*
X180704019Y-107691133D01*
X180846876Y-107595895D01*
X181037352Y-107548276D01*
X181418304Y-107548276D01*
X181513542Y-107595895D01*
X181561161Y-107643514D01*
X181608780Y-107738752D01*
X181608780Y-107929228D01*
X181561161Y-108024466D01*
X181513542Y-108072085D01*
X181418304Y-108119704D01*
X181180209Y-108119704D01*
X181084971Y-108072085D01*
X181037352Y-108024466D01*
X180989733Y-107929228D01*
X180989733Y-107738752D01*
X181037352Y-107643514D01*
X181084971Y-107595895D01*
X181180209Y-107548276D01*
%TO.C,C1*%
X131120227Y-73953166D02*
X131167846Y-74000785D01*
X131310703Y-74048404D01*
X131405941Y-74048404D01*
X131548799Y-74000785D01*
X131644037Y-73905547D01*
X131691656Y-73810309D01*
X131739275Y-73619833D01*
X131739275Y-73476976D01*
X131691656Y-73286500D01*
X131644037Y-73191262D01*
X131548799Y-73096024D01*
X131405941Y-73048404D01*
X131310703Y-73048404D01*
X131167846Y-73096024D01*
X131120227Y-73143643D01*
X130167846Y-74048404D02*
X130739275Y-74048404D01*
X130453561Y-74048404D02*
X130453561Y-73048404D01*
X130548799Y-73191262D01*
X130644037Y-73286500D01*
X130739275Y-73334119D01*
%TO.C,R28*%
X188602857Y-107665780D02*
X188936190Y-107189590D01*
X189174285Y-107665780D02*
X189174285Y-106665780D01*
X188793333Y-106665780D01*
X188698095Y-106713400D01*
X188650476Y-106761019D01*
X188602857Y-106856257D01*
X188602857Y-106999114D01*
X188650476Y-107094352D01*
X188698095Y-107141971D01*
X188793333Y-107189590D01*
X189174285Y-107189590D01*
X188221904Y-106761019D02*
X188174285Y-106713400D01*
X188079047Y-106665780D01*
X187840952Y-106665780D01*
X187745714Y-106713400D01*
X187698095Y-106761019D01*
X187650476Y-106856257D01*
X187650476Y-106951495D01*
X187698095Y-107094352D01*
X188269523Y-107665780D01*
X187650476Y-107665780D01*
X187079047Y-107094352D02*
X187174285Y-107046733D01*
X187221904Y-106999114D01*
X187269523Y-106903876D01*
X187269523Y-106856257D01*
X187221904Y-106761019D01*
X187174285Y-106713400D01*
X187079047Y-106665780D01*
X186888571Y-106665780D01*
X186793333Y-106713400D01*
X186745714Y-106761019D01*
X186698095Y-106856257D01*
X186698095Y-106903876D01*
X186745714Y-106999114D01*
X186793333Y-107046733D01*
X186888571Y-107094352D01*
X187079047Y-107094352D01*
X187174285Y-107141971D01*
X187221904Y-107189590D01*
X187269523Y-107284828D01*
X187269523Y-107475304D01*
X187221904Y-107570542D01*
X187174285Y-107618161D01*
X187079047Y-107665780D01*
X186888571Y-107665780D01*
X186793333Y-107618161D01*
X186745714Y-107570542D01*
X186698095Y-107475304D01*
X186698095Y-107284828D01*
X186745714Y-107189590D01*
X186793333Y-107141971D01*
X186888571Y-107094352D01*
%TO.C,C5*%
X128040250Y-65888637D02*
X128040250Y-65821294D01*
X127972906Y-65686607D01*
X127905563Y-65619263D01*
X127770875Y-65551920D01*
X127636188Y-65551920D01*
X127535173Y-65585591D01*
X127366814Y-65686607D01*
X127265799Y-65787622D01*
X127164784Y-65955981D01*
X127131112Y-66056996D01*
X127131112Y-66191683D01*
X127198456Y-66326370D01*
X127265799Y-66393714D01*
X127400486Y-66461057D01*
X127467830Y-66461057D01*
X128040250Y-67168164D02*
X127703532Y-66831446D01*
X128006578Y-66461057D01*
X128006578Y-66528401D01*
X128040250Y-66629416D01*
X128208608Y-66797775D01*
X128309624Y-66831446D01*
X128376967Y-66831446D01*
X128477982Y-66797775D01*
X128646341Y-66629416D01*
X128680013Y-66528401D01*
X128680013Y-66461057D01*
X128646341Y-66360042D01*
X128477982Y-66191683D01*
X128376967Y-66158011D01*
X128309624Y-66158011D01*
%TO.C,C6*%
X133415066Y-117628942D02*
X133462685Y-117676561D01*
X133605542Y-117724180D01*
X133700780Y-117724180D01*
X133843638Y-117676561D01*
X133938876Y-117581323D01*
X133986495Y-117486085D01*
X134034114Y-117295609D01*
X134034114Y-117152752D01*
X133986495Y-116962276D01*
X133938876Y-116867038D01*
X133843638Y-116771800D01*
X133700780Y-116724180D01*
X133605542Y-116724180D01*
X133462685Y-116771800D01*
X133415066Y-116819419D01*
X132557923Y-116724180D02*
X132748400Y-116724180D01*
X132843638Y-116771800D01*
X132891257Y-116819419D01*
X132986495Y-116962276D01*
X133034114Y-117152752D01*
X133034114Y-117533704D01*
X132986495Y-117628942D01*
X132938876Y-117676561D01*
X132843638Y-117724180D01*
X132653161Y-117724180D01*
X132557923Y-117676561D01*
X132510304Y-117628942D01*
X132462685Y-117533704D01*
X132462685Y-117295609D01*
X132510304Y-117200371D01*
X132557923Y-117152752D01*
X132653161Y-117105133D01*
X132843638Y-117105133D01*
X132938876Y-117152752D01*
X132986495Y-117200371D01*
X133034114Y-117295609D01*
%TO.C,R20*%
X188628257Y-104643180D02*
X188961590Y-104166990D01*
X189199685Y-104643180D02*
X189199685Y-103643180D01*
X188818733Y-103643180D01*
X188723495Y-103690800D01*
X188675876Y-103738419D01*
X188628257Y-103833657D01*
X188628257Y-103976514D01*
X188675876Y-104071752D01*
X188723495Y-104119371D01*
X188818733Y-104166990D01*
X189199685Y-104166990D01*
X188247304Y-103738419D02*
X188199685Y-103690800D01*
X188104447Y-103643180D01*
X187866352Y-103643180D01*
X187771114Y-103690800D01*
X187723495Y-103738419D01*
X187675876Y-103833657D01*
X187675876Y-103928895D01*
X187723495Y-104071752D01*
X188294923Y-104643180D01*
X187675876Y-104643180D01*
X187056828Y-103643180D02*
X186961590Y-103643180D01*
X186866352Y-103690800D01*
X186818733Y-103738419D01*
X186771114Y-103833657D01*
X186723495Y-104024133D01*
X186723495Y-104262228D01*
X186771114Y-104452704D01*
X186818733Y-104547942D01*
X186866352Y-104595561D01*
X186961590Y-104643180D01*
X187056828Y-104643180D01*
X187152066Y-104595561D01*
X187199685Y-104547942D01*
X187247304Y-104452704D01*
X187294923Y-104262228D01*
X187294923Y-104024133D01*
X187247304Y-103833657D01*
X187199685Y-103738419D01*
X187152066Y-103690800D01*
X187056828Y-103643180D01*
%TO.C,D9*%
X160451180Y-122528104D02*
X159451180Y-122528104D01*
X159451180Y-122766200D01*
X159498800Y-122909057D01*
X159594038Y-123004295D01*
X159689276Y-123051914D01*
X159879752Y-123099533D01*
X160022609Y-123099533D01*
X160213085Y-123051914D01*
X160308323Y-123004295D01*
X160403561Y-122909057D01*
X160451180Y-122766200D01*
X160451180Y-122528104D01*
X160451180Y-123575723D02*
X160451180Y-123766200D01*
X160403561Y-123861438D01*
X160355942Y-123909057D01*
X160213085Y-124004295D01*
X160022609Y-124051914D01*
X159641657Y-124051914D01*
X159546419Y-124004295D01*
X159498800Y-123956676D01*
X159451180Y-123861438D01*
X159451180Y-123670961D01*
X159498800Y-123575723D01*
X159546419Y-123528104D01*
X159641657Y-123480485D01*
X159879752Y-123480485D01*
X159974990Y-123528104D01*
X160022609Y-123575723D01*
X160070228Y-123670961D01*
X160070228Y-123861438D01*
X160022609Y-123956676D01*
X159974990Y-124004295D01*
X159879752Y-124051914D01*
%TO.C,C7*%
X133516666Y-127284542D02*
X133564285Y-127332161D01*
X133707142Y-127379780D01*
X133802380Y-127379780D01*
X133945238Y-127332161D01*
X134040476Y-127236923D01*
X134088095Y-127141685D01*
X134135714Y-126951209D01*
X134135714Y-126808352D01*
X134088095Y-126617876D01*
X134040476Y-126522638D01*
X133945238Y-126427400D01*
X133802380Y-126379780D01*
X133707142Y-126379780D01*
X133564285Y-126427400D01*
X133516666Y-126475019D01*
X133183333Y-126379780D02*
X132516666Y-126379780D01*
X132945238Y-127379780D01*
%TO.C,C3*%
X119575903Y-72594757D02*
X119623522Y-72547138D01*
X119671141Y-72404281D01*
X119671141Y-72309043D01*
X119623522Y-72166185D01*
X119528284Y-72070947D01*
X119433046Y-72023328D01*
X119242570Y-71975709D01*
X119099713Y-71975709D01*
X118909237Y-72023328D01*
X118813999Y-72070947D01*
X118718761Y-72166185D01*
X118671141Y-72309043D01*
X118671141Y-72404281D01*
X118718761Y-72547138D01*
X118766380Y-72594757D01*
X118671141Y-72928090D02*
X118671141Y-73547138D01*
X119052094Y-73213804D01*
X119052094Y-73356662D01*
X119099713Y-73451900D01*
X119147332Y-73499519D01*
X119242570Y-73547138D01*
X119480665Y-73547138D01*
X119575903Y-73499519D01*
X119623522Y-73451900D01*
X119671141Y-73356662D01*
X119671141Y-73070947D01*
X119623522Y-72975709D01*
X119575903Y-72928090D01*
%TO.C,C4*%
X121367150Y-83792711D02*
X121434493Y-83792711D01*
X121569180Y-83725367D01*
X121636524Y-83658024D01*
X121703867Y-83523336D01*
X121703867Y-83388649D01*
X121670196Y-83287634D01*
X121569180Y-83119275D01*
X121468165Y-83018260D01*
X121299806Y-82917245D01*
X121198791Y-82883573D01*
X121064104Y-82883573D01*
X120929417Y-82950917D01*
X120862073Y-83018260D01*
X120794730Y-83152947D01*
X120794730Y-83220291D01*
X120356997Y-83994741D02*
X120828402Y-84466146D01*
X120255982Y-83557008D02*
X120929417Y-83893726D01*
X120491684Y-84331459D01*
%TO.C,C15*%
X147995845Y-60193308D02*
X148063189Y-60193308D01*
X148197876Y-60125964D01*
X148265219Y-60058621D01*
X148332563Y-59923934D01*
X148332563Y-59789247D01*
X148298891Y-59688232D01*
X148197876Y-59519873D01*
X148096861Y-59418858D01*
X147928502Y-59317842D01*
X147827487Y-59284171D01*
X147692800Y-59284171D01*
X147558113Y-59351514D01*
X147490769Y-59418858D01*
X147423426Y-59553545D01*
X147423426Y-59620888D01*
X147389754Y-60934087D02*
X147793815Y-60530026D01*
X147591784Y-60732056D02*
X146884677Y-60024949D01*
X147053036Y-60058621D01*
X147187723Y-60058621D01*
X147288739Y-60024949D01*
X146042884Y-60866743D02*
X146379601Y-60530026D01*
X146749990Y-60833071D01*
X146682647Y-60833071D01*
X146581632Y-60866743D01*
X146413273Y-61035102D01*
X146379601Y-61136117D01*
X146379601Y-61203461D01*
X146413273Y-61304476D01*
X146581632Y-61472835D01*
X146682647Y-61506506D01*
X146749990Y-61506506D01*
X146851006Y-61472835D01*
X147019364Y-61304476D01*
X147053036Y-61203461D01*
X147053036Y-61136117D01*
%TO.C,R19*%
X186888380Y-97578942D02*
X186412190Y-97245609D01*
X186888380Y-97007514D02*
X185888380Y-97007514D01*
X185888380Y-97388466D01*
X185936000Y-97483704D01*
X185983619Y-97531323D01*
X186078857Y-97578942D01*
X186221714Y-97578942D01*
X186316952Y-97531323D01*
X186364571Y-97483704D01*
X186412190Y-97388466D01*
X186412190Y-97007514D01*
X186888380Y-98531323D02*
X186888380Y-97959895D01*
X186888380Y-98245609D02*
X185888380Y-98245609D01*
X186031238Y-98150371D01*
X186126476Y-98055133D01*
X186174095Y-97959895D01*
X186888380Y-99007514D02*
X186888380Y-99197990D01*
X186840761Y-99293228D01*
X186793142Y-99340847D01*
X186650285Y-99436085D01*
X186459809Y-99483704D01*
X186078857Y-99483704D01*
X185983619Y-99436085D01*
X185936000Y-99388466D01*
X185888380Y-99293228D01*
X185888380Y-99102752D01*
X185936000Y-99007514D01*
X185983619Y-98959895D01*
X186078857Y-98912276D01*
X186316952Y-98912276D01*
X186412190Y-98959895D01*
X186459809Y-99007514D01*
X186507428Y-99102752D01*
X186507428Y-99293228D01*
X186459809Y-99388466D01*
X186412190Y-99436085D01*
X186316952Y-99483704D01*
%TO.C,R14*%
X131529616Y-80832804D02*
X131862949Y-80356614D01*
X132101044Y-80832804D02*
X132101044Y-79832804D01*
X131720092Y-79832804D01*
X131624854Y-79880424D01*
X131577235Y-79928043D01*
X131529616Y-80023281D01*
X131529616Y-80166138D01*
X131577235Y-80261376D01*
X131624854Y-80308995D01*
X131720092Y-80356614D01*
X132101044Y-80356614D01*
X130577235Y-80832804D02*
X131148663Y-80832804D01*
X130862949Y-80832804D02*
X130862949Y-79832804D01*
X130958187Y-79975662D01*
X131053425Y-80070900D01*
X131148663Y-80118519D01*
X129720092Y-80166138D02*
X129720092Y-80832804D01*
X129958187Y-79785185D02*
X130196282Y-80499471D01*
X129577235Y-80499471D01*
%TO.C,C10*%
X156878257Y-113339942D02*
X156925876Y-113387561D01*
X157068733Y-113435180D01*
X157163971Y-113435180D01*
X157306828Y-113387561D01*
X157402066Y-113292323D01*
X157449685Y-113197085D01*
X157497304Y-113006609D01*
X157497304Y-112863752D01*
X157449685Y-112673276D01*
X157402066Y-112578038D01*
X157306828Y-112482800D01*
X157163971Y-112435180D01*
X157068733Y-112435180D01*
X156925876Y-112482800D01*
X156878257Y-112530419D01*
X155925876Y-113435180D02*
X156497304Y-113435180D01*
X156211590Y-113435180D02*
X156211590Y-112435180D01*
X156306828Y-112578038D01*
X156402066Y-112673276D01*
X156497304Y-112720895D01*
X155306828Y-112435180D02*
X155211590Y-112435180D01*
X155116352Y-112482800D01*
X155068733Y-112530419D01*
X155021114Y-112625657D01*
X154973495Y-112816133D01*
X154973495Y-113054228D01*
X155021114Y-113244704D01*
X155068733Y-113339942D01*
X155116352Y-113387561D01*
X155211590Y-113435180D01*
X155306828Y-113435180D01*
X155402066Y-113387561D01*
X155449685Y-113339942D01*
X155497304Y-113244704D01*
X155544923Y-113054228D01*
X155544923Y-112816133D01*
X155497304Y-112625657D01*
X155449685Y-112530419D01*
X155402066Y-112482800D01*
X155306828Y-112435180D01*
D15*
%TO.C,C2*%
X121816304Y-69667414D02*
X122185771Y-70036881D01*
X122855751Y-68627967D02*
X123225218Y-68997434D01*
%TO.C,FB1*%
X126969082Y-73580235D02*
X126647965Y-73259118D01*
X125929635Y-74619682D02*
X125608518Y-74298565D01*
%TO.C,C9*%
X156863148Y-106602200D02*
X157385652Y-106602200D01*
X156863148Y-105132200D02*
X157385652Y-105132200D01*
%TO.C,D8*%
X117346600Y-48119400D02*
X117346600Y-46419400D01*
X117346600Y-48119400D02*
X119896600Y-48119400D01*
X117346600Y-46419400D02*
X119896600Y-46419400D01*
%TO.C,C16*%
X178741400Y-107119052D02*
X178741400Y-106596548D01*
X180211400Y-107119052D02*
X180211400Y-106596548D01*
%TO.C,C1*%
X131214813Y-74541024D02*
X130692309Y-74541024D01*
X131214813Y-76011024D02*
X130692309Y-76011024D01*
%TO.C,R28*%
X184834264Y-106554600D02*
X184380136Y-106554600D01*
X184834264Y-108024600D02*
X184380136Y-108024600D01*
%TO.C,C5*%
X125854904Y-67813214D02*
X126224371Y-68182681D01*
X126894351Y-66773767D02*
X127263818Y-67143234D01*
%TO.C,C6*%
X132987148Y-118213200D02*
X133509652Y-118213200D01*
X132987148Y-119683200D02*
X133509652Y-119683200D01*
%TO.C,R20*%
X184380136Y-104849600D02*
X184834264Y-104849600D01*
X184380136Y-103379600D02*
X184834264Y-103379600D01*
%TO.C,D9*%
X162698800Y-121766200D02*
X162698800Y-124316200D01*
X160998800Y-121766200D02*
X160998800Y-124316200D01*
X160998800Y-121766200D02*
X162698800Y-121766200D01*
%TO.C,C7*%
X133088748Y-125982400D02*
X133611252Y-125982400D01*
X133088748Y-124512400D02*
X133611252Y-124512400D01*
%TO.C,C3*%
X118251961Y-72601772D02*
X118251961Y-73124276D01*
X116781961Y-72601772D02*
X116781961Y-73124276D01*
%TO.C,C4*%
X119756951Y-83549681D02*
X120126418Y-83180214D01*
X118717504Y-82510234D02*
X119086971Y-82140767D01*
%TO.C,C15*%
X146435790Y-59911857D02*
X146805257Y-59542390D01*
X145396343Y-58872410D02*
X145765810Y-58502943D01*
%TO.C,R19*%
X185316800Y-99315536D02*
X185316800Y-99769664D01*
X183846800Y-99315536D02*
X183846800Y-99769664D01*
%TO.C,R14*%
X130659695Y-77995424D02*
X131113823Y-77995424D01*
X130659695Y-79465424D02*
X131113823Y-79465424D01*
%TO.C,C10*%
X155974148Y-112037800D02*
X156496652Y-112037800D01*
X155974148Y-110567800D02*
X156496652Y-110567800D01*
%TD*%
M02*
