M48
; DRILL file {KiCad (6.0.4)} date Fri Mar 10 14:52:49 2023
; FORMAT={-:-/ absolute / inch / decimal}
; #@! TF.CreationDate,2023-03-10T14:52:49-05:00
; #@! TF.GenerationSoftware,Kicad,Pcbnew,(6.0.4)
; #@! TF.FileFunction,Plated,1,2,PTH
FMAT,2
INCH
; #@! TA.AperFunction,Plated,PTH,ViaDrill
T1C0.0150
; #@! TA.AperFunction,Plated,PTH,ViaDrill
T2C0.0157
; #@! TA.AperFunction,Plated,PTH,ViaDrill
T3C0.0300
; #@! TA.AperFunction,Plated,PTH,ComponentDrill
T4C0.0303
; #@! TA.AperFunction,Plated,PTH,ComponentDrill
T5C0.0315
; #@! TA.AperFunction,Plated,PTH,ComponentDrill
T6C0.0354
; #@! TA.AperFunction,Plated,PTH,ComponentDrill
T7C0.0394
; #@! TA.AperFunction,Plated,PTH,ComponentDrill
T8C0.0400
; #@! TA.AperFunction,Plated,PTH,ComponentDrill
T9C0.0413
; #@! TA.AperFunction,Plated,PTH,ComponentDrill
T10C0.0472
; #@! TA.AperFunction,Plated,PTH,ComponentDrill
T11C0.0591
; #@! TA.AperFunction,Plated,PTH,ComponentDrill
T12C0.0709
; #@! TA.AperFunction,Plated,PTH,ViaDrill
T13C0.1000
%
G90
G05
T1
X3.38Y-2.877
X3.469Y-2.805
X3.522Y-2.709
X3.627Y-4.243
X3.68Y-4.147
X3.688Y-3.993
X3.833Y-2.094
X3.942Y-3.439
X3.949Y-2.076
X3.964Y-4.117
X3.974Y-3.501
X4.079Y-3.177
X4.117Y-3.715
X4.165Y-3.793
X4.217Y-3.684
X4.2356Y-2.679
X4.236Y-2.425
X4.237Y-2.208
X4.317Y-3.754
X4.417Y-3.678
X4.432Y-3.051
X4.4425Y-3.3594
X4.4638Y-3.082
X4.4694Y-3.1262
X4.47Y-3.402
X4.472Y-3.005
X4.495Y-4.117
X4.496Y-2.723
X4.496Y-2.684
X4.498Y-2.778
X4.502Y-3.334
X4.5067Y-2.8866
X4.53Y-2.651
X4.5321Y-2.749
X4.5557Y-2.8606
X4.5566Y-2.6317
X4.5772Y-3.3352
X4.58Y-2.071
X4.6073Y-2.171
X4.6171Y-3.46
X4.6507Y-2.7123
X4.662Y-2.649
X4.699Y-2.7223
X4.7107Y-3.3306
X4.717Y-3.681
X4.7535Y-3.1543
X4.7701Y-3.2024
X4.7798Y-3.092
X4.8003Y-2.8118
X4.8069Y-2.844
X4.8069Y-2.899
X4.809Y-4.242
X4.816Y-3.455
X4.819Y-4.058
X4.8291Y-2.9233
X4.8523Y-2.9465
X4.873Y-3.54
X4.8807Y-2.6836
X4.8821Y-2.9603
X4.887Y-3.461
X4.9047Y-3.124
X4.911Y-3.358
X4.9546Y-2.7224
X4.9647Y-2.9856
X4.9804Y-2.7426
X4.984Y-3.02
X4.988Y-4.507
X5.0425Y-3.656
X5.0487Y-3.0146
X5.071Y-2.666
X5.073Y-3.243
X5.087Y-3.155
X5.102Y-2.815
X5.122Y-4.129
X5.2677Y-3.0986
X5.287Y-2.743
X5.2892Y-2.9248
X5.3074Y-2.884
X5.3074Y-2.979
X5.3539Y-4.1413
X5.6654Y-4.013
X5.6933Y-3.0094
X5.845Y-3.958
X6.875Y-4.589
X6.9173Y-4.2677
X6.9528Y-4.1063
X6.9528Y-4.1417
X6.9528Y-4.2677
X6.9882Y-4.2679
X7.1044Y-4.1004
X7.126Y-4.171
X7.1433Y-3.252
T2
X4.591Y-1.861
X6.368Y-4.748
X6.371Y-4.947
X6.513Y-4.326
T3
X6.567Y-2.887
X6.754Y-3.932
X6.8512Y-4.5413
T4
X5.5977Y-2.021
X5.5977Y-2.121
X5.5977Y-2.221
X5.5977Y-2.321
X5.5977Y-2.421
X5.5977Y-2.521
X5.5977Y-2.621
X5.9103Y-2.021
X5.9103Y-2.121
X5.9103Y-2.221
X5.9103Y-2.321
X5.9103Y-2.421
X5.9103Y-2.521
X5.9103Y-2.621
T5
X3.2192Y-2.3934
X3.2192Y-2.4934
X3.2192Y-2.5934
X3.2192Y-2.6934
X3.3192Y-2.3934
X3.3192Y-2.4934
X3.3192Y-2.5934
X3.3192Y-2.6934
X5.6246Y-2.8584
X5.6246Y-2.9584
X5.6246Y-3.0584
X5.9246Y-2.8584
X5.9246Y-2.9584
X5.9246Y-3.0584
T6
X3.9208Y-2.669
X3.921Y-2.43
X3.9218Y-2.208
X3.9238Y-2.884
X4.0208Y-2.669
X4.021Y-2.43
X4.0218Y-2.208
X4.0238Y-2.884
T7
X4.877Y-1.761
X4.877Y-1.861
X4.977Y-1.761
X4.977Y-1.861
X5.077Y-1.761
X5.077Y-1.861
X5.177Y-1.761
X5.177Y-1.861
X5.277Y-1.761
X5.277Y-1.861
X6.5298Y-3.7526
X6.5298Y-3.8526
X6.5298Y-3.9526
X6.6298Y-3.7526
X6.6298Y-3.8526
X6.6298Y-3.9526
X6.8417Y-3.454
X7.137Y-3.454
T8
X3.24Y-3.945
X3.24Y-4.045
X3.24Y-4.145
X3.24Y-4.245
X3.851Y-1.645
X3.951Y-1.645
X3.995Y-4.806
X4.0171Y-3.8508
X4.051Y-1.645
X4.095Y-4.806
X4.1171Y-3.8508
X4.151Y-1.645
X4.195Y-4.806
X4.2171Y-3.8508
X4.251Y-1.645
X4.295Y-4.806
X4.3171Y-3.8508
X4.351Y-1.645
X4.395Y-4.806
X4.4171Y-3.8508
X4.451Y-1.645
X4.495Y-4.806
X4.5171Y-3.8508
X4.551Y-1.645
X4.595Y-4.806
X4.6171Y-3.8508
X4.695Y-4.806
X4.7171Y-3.8508
X4.795Y-4.806
X4.8171Y-3.8508
X4.895Y-4.806
X4.9171Y-3.8508
X4.995Y-4.806
X5.0171Y-3.8508
X5.095Y-4.806
X5.1171Y-3.8508
X5.195Y-4.806
X5.2171Y-3.8508
X5.295Y-4.806
X5.3171Y-3.8508
X5.4171Y-3.8508
X6.095Y-4.268
X6.195Y-4.268
X6.295Y-4.268
X7.207Y-2.272
X7.3Y-2.0177
X7.307Y-2.272
X7.5Y-1.9197
X7.5Y-2.1197
T9
X6.0203Y-4.5409
X6.0203Y-5.2397
X7.5932Y-4.5409
X7.5932Y-5.2397
T10
X6.346Y-3.298
X6.346Y-3.4949
T11
X6.2743Y-1.623
X6.2761Y-2.154
X6.2763Y-1.877
X6.2783Y-2.399
X6.2843Y-2.643
X6.2863Y-2.916
X7.0577Y-1.623
X7.0595Y-2.154
X7.0597Y-1.877
X7.0617Y-2.399
X7.0677Y-2.643
X7.0697Y-2.916
T12
X7.5645Y-3.347
X8.3558Y-3.6698
T13
X5.76Y-5.232
T0
M30
