%TF.GenerationSoftware,KiCad,Pcbnew,(6.0.4)*%
%TF.CreationDate,2023-03-10T14:52:47-05:00*%
%TF.ProjectId,cc_pcbRedo,63635f70-6362-4526-9564-6f2e6b696361,rev?*%
%TF.SameCoordinates,Original*%
%TF.FileFunction,Soldermask,Bot*%
%TF.FilePolarity,Negative*%
%FSLAX46Y46*%
G04 Gerber Fmt 4.6, Leading zero omitted, Abs format (unit mm)*
G04 Created by KiCad (PCBNEW (6.0.4)) date 2023-03-10 14:52:47*
%MOMM*%
%LPD*%
G01*
G04 APERTURE LIST*
G04 Aperture macros list*
%AMRoundRect*
0 Rectangle with rounded corners*
0 $1 Rounding radius*
0 $2 $3 $4 $5 $6 $7 $8 $9 X,Y pos of 4 corners*
0 Add a 4 corners polygon primitive as box body*
4,1,4,$2,$3,$4,$5,$6,$7,$8,$9,$2,$3,0*
0 Add four circle primitives for the rounded corners*
1,1,$1+$1,$2,$3*
1,1,$1+$1,$4,$5*
1,1,$1+$1,$6,$7*
1,1,$1+$1,$8,$9*
0 Add four rect primitives between the rounded corners*
20,1,$1+$1,$2,$3,$4,$5,0*
20,1,$1+$1,$4,$5,$6,$7,0*
20,1,$1+$1,$6,$7,$8,$9,0*
20,1,$1+$1,$8,$9,$2,$3,0*%
G04 Aperture macros list end*
%ADD10C,0.120000*%
%ADD11C,2.096000*%
%ADD12R,1.778000X1.778000*%
%ADD13C,1.981200*%
%ADD14R,2.250000X2.250000*%
%ADD15C,2.250000*%
%ADD16C,2.000000*%
%ADD17R,1.600000X1.600000*%
%ADD18O,1.600000X1.600000*%
%ADD19R,1.800000X1.800000*%
%ADD20C,1.800000*%
%ADD21C,2.200000*%
%ADD22R,1.500000X1.500000*%
%ADD23C,1.500000*%
%ADD24C,8.400000*%
%ADD25RoundRect,0.250000X-0.600000X0.600000X-0.600000X-0.600000X0.600000X-0.600000X0.600000X0.600000X0*%
%ADD26C,1.700000*%
%ADD27R,2.400000X2.400000*%
%ADD28C,2.400000*%
%ADD29R,1.170000X1.170000*%
%ADD30C,1.170000*%
%ADD31C,3.600000*%
%ADD32R,1.700000X1.700000*%
%ADD33O,1.700000X1.700000*%
%ADD34RoundRect,0.250000X-0.574524X-0.097227X-0.097227X-0.574524X0.574524X0.097227X0.097227X0.574524X0*%
%ADD35RoundRect,0.250000X0.565685X0.070711X0.070711X0.565685X-0.565685X-0.070711X-0.070711X-0.565685X0*%
%ADD36RoundRect,0.250000X-0.337500X-0.475000X0.337500X-0.475000X0.337500X0.475000X-0.337500X0.475000X0*%
%ADD37R,0.600000X0.450000*%
%ADD38RoundRect,0.250000X0.475000X-0.337500X0.475000X0.337500X-0.475000X0.337500X-0.475000X-0.337500X0*%
%ADD39RoundRect,0.250000X0.337500X0.475000X-0.337500X0.475000X-0.337500X-0.475000X0.337500X-0.475000X0*%
%ADD40RoundRect,0.250000X0.350000X0.450000X-0.350000X0.450000X-0.350000X-0.450000X0.350000X-0.450000X0*%
%ADD41RoundRect,0.250000X-0.350000X-0.450000X0.350000X-0.450000X0.350000X0.450000X-0.350000X0.450000X0*%
%ADD42R,0.450000X0.600000*%
%ADD43RoundRect,0.250000X-0.475000X0.337500X-0.475000X-0.337500X0.475000X-0.337500X0.475000X0.337500X0*%
%ADD44RoundRect,0.250000X0.097227X-0.574524X0.574524X-0.097227X-0.097227X0.574524X-0.574524X0.097227X0*%
%ADD45RoundRect,0.250000X-0.450000X0.350000X-0.450000X-0.350000X0.450000X-0.350000X0.450000X0.350000X0*%
%ADD46C,0.635000*%
%ADD47C,0.800000*%
%ADD48C,1.016000*%
%ADD49C,3.810000*%
G04 APERTURE END LIST*
D10*
%TO.C,U7*%
X155752800Y-109347000D02*
X153873200Y-109347000D01*
X153873200Y-109347000D02*
X153873200Y-107467400D01*
X153873200Y-107467400D02*
X155752800Y-107467400D01*
X155752800Y-107467400D02*
X155752800Y-109347000D01*
%TO.C,J5*%
X183997600Y-58648600D02*
X182118000Y-58648600D01*
X182118000Y-58648600D02*
X182118000Y-56769000D01*
X182118000Y-56769000D02*
X183997600Y-56769000D01*
X183997600Y-56769000D02*
X183997600Y-58648600D01*
%TO.C,J6*%
X189560200Y-49701450D02*
X191439800Y-49701450D01*
X191439800Y-49701450D02*
X191439800Y-47821850D01*
X191439800Y-47821850D02*
X189560200Y-47821850D01*
X189560200Y-47821850D02*
X189560200Y-49701450D01*
%TO.C,J3*%
X98755200Y-42722800D02*
X96875600Y-42722800D01*
X96875600Y-42722800D02*
X96875600Y-40843200D01*
X96875600Y-40843200D02*
X98755200Y-40843200D01*
X98755200Y-40843200D02*
X98755200Y-42722800D01*
%TD*%
D11*
%TO.C,J7*%
X152916195Y-115337602D03*
X152916195Y-133087602D03*
X192866195Y-115337602D03*
X192866195Y-133087602D03*
%TD*%
D12*
%TO.C,U7*%
X154813000Y-108407200D03*
D13*
X157353000Y-108407200D03*
X159893000Y-108407200D03*
%TD*%
D14*
%TO.C,D15*%
X179317200Y-47675800D03*
D15*
X159417200Y-47675800D03*
%TD*%
D16*
%TO.C,C18*%
X181279800Y-87731600D03*
X173779800Y-87731600D03*
%TD*%
D13*
%TO.C,U3*%
X82296000Y-100203000D03*
X82296000Y-102743000D03*
X82296000Y-105283000D03*
X82296000Y-107823000D03*
%TD*%
D17*
%TO.C,U9*%
X150484992Y-77683589D03*
D18*
X150484992Y-75143589D03*
X150484992Y-72603589D03*
X142864992Y-72603589D03*
X142864992Y-75143589D03*
X142864992Y-77683589D03*
%TD*%
D14*
%TO.C,D10*%
X159671200Y-74066400D03*
D15*
X179571200Y-74066400D03*
%TD*%
D19*
%TO.C,D4*%
X99613796Y-56083200D03*
D20*
X102153796Y-56083200D03*
%TD*%
D21*
%TO.C,H8*%
X98247200Y-133985000D03*
%TD*%
D22*
%TO.C,U1*%
X81766800Y-68411903D03*
D23*
X84306800Y-68411903D03*
X81766800Y-65871903D03*
X84306800Y-65871903D03*
X81766800Y-63331903D03*
X84306800Y-63331903D03*
X81766800Y-60791903D03*
X84306800Y-60791903D03*
%TD*%
D12*
%TO.C,J5*%
X183057800Y-57708800D03*
D13*
X185597800Y-57708800D03*
%TD*%
D14*
%TO.C,D12*%
X159411993Y-54711600D03*
D15*
X179311993Y-54711600D03*
%TD*%
D19*
%TO.C,D5*%
X99593400Y-61722000D03*
D20*
X102133400Y-61722000D03*
%TD*%
D24*
%TO.C,H3*%
X207500000Y-47500000D03*
%TD*%
D25*
%TO.C,J1*%
X134035800Y-44729400D03*
D26*
X134035800Y-47269400D03*
X131495800Y-44729400D03*
X131495800Y-47269400D03*
X128955800Y-44729400D03*
X128955800Y-47269400D03*
X126415800Y-44729400D03*
X126415800Y-47269400D03*
X123875800Y-44729400D03*
X123875800Y-47269400D03*
%TD*%
D27*
%TO.C,C17*%
X161188400Y-83769200D03*
D28*
X161188400Y-88769200D03*
%TD*%
D29*
%TO.C,U5*%
X150121600Y-66573400D03*
D30*
X150121600Y-64033400D03*
X150121600Y-61493400D03*
X150121600Y-58953400D03*
X150121600Y-56413400D03*
X150121600Y-53873400D03*
X150121600Y-51333400D03*
X142181600Y-51333400D03*
X142181600Y-53873400D03*
X142181600Y-56413400D03*
X142181600Y-58953400D03*
X142181600Y-61493400D03*
X142181600Y-64033400D03*
X142181600Y-66573400D03*
%TD*%
D19*
%TO.C,D7*%
X99664596Y-73253600D03*
D20*
X102204596Y-73253600D03*
%TD*%
D21*
%TO.C,H6*%
X141427200Y-98450400D03*
%TD*%
D24*
%TO.C,H4*%
X82500000Y-47500000D03*
%TD*%
D13*
%TO.C,U4*%
X134493000Y-122072400D03*
X131953000Y-122072400D03*
X129413000Y-122072400D03*
X126873000Y-122072400D03*
X124333000Y-122072400D03*
X121793000Y-122072400D03*
X119253000Y-122072400D03*
X116713000Y-122072400D03*
X114173000Y-122072400D03*
X111633000Y-122072400D03*
X109093000Y-122072400D03*
X106553000Y-122072400D03*
X104013000Y-122072400D03*
X101473000Y-122072400D03*
%TD*%
D21*
%TO.C,H7*%
X141401800Y-134010400D03*
%TD*%
D19*
%TO.C,D6*%
X99588396Y-67792600D03*
D20*
X102128396Y-67792600D03*
%TD*%
D14*
%TO.C,D11*%
X159620400Y-67132200D03*
D15*
X179520400Y-67132200D03*
%TD*%
D21*
%TO.C,H9*%
X157581600Y-115824000D03*
%TD*%
D14*
%TO.C,D13*%
X179266400Y-41224200D03*
D15*
X159366400Y-41224200D03*
%TD*%
D14*
%TO.C,D14*%
X159468000Y-60934600D03*
D15*
X179368000Y-60934600D03*
%TD*%
D13*
%TO.C,U2*%
X137595162Y-97810439D03*
X135055162Y-97810439D03*
X132515162Y-97810439D03*
X129975162Y-97810439D03*
X127435162Y-97810439D03*
X124895162Y-97810439D03*
X122355162Y-97810439D03*
X119815162Y-97810439D03*
X117275162Y-97810439D03*
X114735162Y-97810439D03*
X112195162Y-97810439D03*
X109655162Y-97810439D03*
X107115162Y-97810439D03*
X104575162Y-97810439D03*
X102035162Y-97810439D03*
%TD*%
D31*
%TO.C,L1*%
X212237204Y-93213809D03*
X192137204Y-85013809D03*
%TD*%
D32*
%TO.C,J4*%
X168396590Y-95315811D03*
D33*
X165856590Y-95315811D03*
X168396590Y-97855811D03*
X165856590Y-97855811D03*
X168396590Y-100395811D03*
X165856590Y-100395811D03*
%TD*%
D21*
%TO.C,H5*%
X98221800Y-98425000D03*
%TD*%
D12*
%TO.C,J6*%
X190500000Y-48761650D03*
D13*
X185420000Y-51250850D03*
X190500000Y-53841650D03*
%TD*%
D21*
%TO.C,H10*%
X188163200Y-132562600D03*
%TD*%
D24*
%TO.C,H2*%
X207500000Y-127500000D03*
%TD*%
D12*
%TO.C,J3*%
X97815400Y-41783000D03*
D13*
X100355400Y-41783000D03*
X102895400Y-41783000D03*
X105435400Y-41783000D03*
X107975400Y-41783000D03*
X110515400Y-41783000D03*
X113055400Y-41783000D03*
X115595400Y-41783000D03*
%TD*%
D24*
%TO.C,H1*%
X82500000Y-127500000D03*
%TD*%
D34*
%TO.C,C2*%
X121787138Y-68598801D03*
X123254384Y-70066047D03*
%TD*%
D35*
%TO.C,FB1*%
X126995907Y-74646507D03*
X125581693Y-73232293D03*
%TD*%
D36*
%TO.C,C9*%
X156086900Y-105867200D03*
X158161900Y-105867200D03*
%TD*%
D37*
%TO.C,D8*%
X117796600Y-47269400D03*
X119896600Y-47269400D03*
%TD*%
D38*
%TO.C,C16*%
X179476400Y-107895300D03*
X179476400Y-105820300D03*
%TD*%
D39*
%TO.C,C1*%
X131991061Y-75276024D03*
X129916061Y-75276024D03*
%TD*%
D40*
%TO.C,R28*%
X185607200Y-107289600D03*
X183607200Y-107289600D03*
%TD*%
D34*
%TO.C,C5*%
X125825738Y-66744601D03*
X127292984Y-68211847D03*
%TD*%
D36*
%TO.C,C6*%
X132210900Y-118948200D03*
X134285900Y-118948200D03*
%TD*%
D41*
%TO.C,R20*%
X183607200Y-104114600D03*
X185607200Y-104114600D03*
%TD*%
D42*
%TO.C,D9*%
X161848800Y-122216200D03*
X161848800Y-124316200D03*
%TD*%
D36*
%TO.C,C7*%
X132312500Y-125247400D03*
X134387500Y-125247400D03*
%TD*%
D43*
%TO.C,C3*%
X117516961Y-71825524D03*
X117516961Y-73900524D03*
%TD*%
D44*
%TO.C,C4*%
X118688338Y-83578847D03*
X120155584Y-82111601D03*
%TD*%
%TO.C,C15*%
X145367177Y-59941023D03*
X146834423Y-58473777D03*
%TD*%
D45*
%TO.C,R19*%
X184581800Y-98542600D03*
X184581800Y-100542600D03*
%TD*%
D41*
%TO.C,R14*%
X129886759Y-78730424D03*
X131886759Y-78730424D03*
%TD*%
D36*
%TO.C,C10*%
X155197900Y-111302800D03*
X157272900Y-111302800D03*
%TD*%
D46*
X89458800Y-68808600D03*
X113379880Y-78282800D03*
X117275162Y-87883988D03*
X126695200Y-114477800D03*
X114249200Y-70561200D03*
X103606600Y-80695800D03*
X114173000Y-104571800D03*
X128079162Y-92862400D03*
X122326400Y-87757000D03*
X122402600Y-103073200D03*
X122148600Y-107746800D03*
X124580000Y-79350000D03*
X119811800Y-93497400D03*
X130098800Y-104876600D03*
X122658060Y-74251396D03*
X100685600Y-104571800D03*
X112191800Y-93421200D03*
X109651800Y-95351600D03*
X122095959Y-73634600D03*
X107111800Y-93573600D03*
X122095959Y-72237600D03*
X104571800Y-94361000D03*
X118414800Y-67284600D03*
X118126783Y-68893417D03*
X105791000Y-96342200D03*
X88112600Y-71247000D03*
X114350800Y-84683600D03*
X124005076Y-75192821D03*
X123248142Y-74841478D03*
X112839162Y-85327600D03*
X115114232Y-69823694D03*
X117024903Y-55143400D03*
X114198389Y-69164200D03*
X116332000Y-52603400D03*
X115736892Y-66844569D03*
X107619800Y-56083200D03*
X107594400Y-61595000D03*
X115062000Y-67335400D03*
X100939600Y-88925400D03*
X100304600Y-52730400D03*
X107585400Y-68046600D03*
X114198400Y-68173600D03*
X93675200Y-101422200D03*
X92125800Y-107772200D03*
X97358200Y-53187600D03*
X100126800Y-87350600D03*
X134807909Y-75666600D03*
X134346315Y-74289285D03*
X134807909Y-73253600D03*
X129590800Y-71500695D03*
X128803400Y-67716400D03*
X125845814Y-69148629D03*
X113588800Y-76327000D03*
X112572800Y-77495400D03*
X113521600Y-79405362D03*
X85852000Y-73075800D03*
X116259686Y-84712886D03*
X123774200Y-89916000D03*
X124129800Y-87909400D03*
X124739400Y-85293200D03*
X128854200Y-82372200D03*
X180450800Y-104149200D03*
D47*
X116611400Y-47269400D03*
X161747200Y-120599200D03*
X165430200Y-109880400D03*
D46*
X93472000Y-105333800D03*
X113538000Y-86410800D03*
X121407279Y-78537875D03*
X129209800Y-80137000D03*
D48*
X166801800Y-73329800D03*
D46*
X128235759Y-76571421D03*
X135990000Y-105190000D03*
X119650559Y-84597821D03*
X120737954Y-80117954D03*
X114470000Y-73320000D03*
X126102159Y-75834821D03*
X119353730Y-69146650D03*
X143900000Y-101930000D03*
X144610000Y-76440000D03*
D48*
X171551600Y-99872800D03*
D46*
X181000400Y-105943400D03*
X181440000Y-82600000D03*
D49*
X146304000Y-132892800D03*
D46*
X126593600Y-76708000D03*
X134289800Y-69672200D03*
X115713559Y-72659821D03*
X176600000Y-104300000D03*
X175700000Y-108400000D03*
X176600000Y-108400000D03*
X126503239Y-69662621D03*
X123968559Y-68164021D03*
X121160000Y-81340000D03*
X133798359Y-78705021D03*
X176600000Y-105200000D03*
X121927844Y-71420207D03*
X177500000Y-108404711D03*
X148463000Y-100533200D03*
D47*
X161823400Y-125653800D03*
D46*
X174625000Y-116560600D03*
D48*
X174020000Y-115350000D03*
M02*
